%TF.GenerationSoftware,KiCad,Pcbnew,9.0.2*%
%TF.CreationDate,2025-06-11T19:01:07+02:00*%
%TF.ProjectId,musicbox,6d757369-6362-46f7-982e-6b696361645f,rev?*%
%TF.SameCoordinates,Original*%
%TF.FileFunction,Copper,L1,Top*%
%TF.FilePolarity,Positive*%
%FSLAX46Y46*%
G04 Gerber Fmt 4.6, Leading zero omitted, Abs format (unit mm)*
G04 Created by KiCad (PCBNEW 9.0.2) date 2025-06-11 19:01:07*
%MOMM*%
%LPD*%
G01*
G04 APERTURE LIST*
G04 Aperture macros list*
%AMRoundRect*
0 Rectangle with rounded corners*
0 $1 Rounding radius*
0 $2 $3 $4 $5 $6 $7 $8 $9 X,Y pos of 4 corners*
0 Add a 4 corners polygon primitive as box body*
4,1,4,$2,$3,$4,$5,$6,$7,$8,$9,$2,$3,0*
0 Add four circle primitives for the rounded corners*
1,1,$1+$1,$2,$3*
1,1,$1+$1,$4,$5*
1,1,$1+$1,$6,$7*
1,1,$1+$1,$8,$9*
0 Add four rect primitives between the rounded corners*
20,1,$1+$1,$2,$3,$4,$5,0*
20,1,$1+$1,$4,$5,$6,$7,0*
20,1,$1+$1,$6,$7,$8,$9,0*
20,1,$1+$1,$8,$9,$2,$3,0*%
G04 Aperture macros list end*
%TA.AperFunction,ComponentPad*%
%ADD10RoundRect,0.250000X-0.350000X-0.625000X0.350000X-0.625000X0.350000X0.625000X-0.350000X0.625000X0*%
%TD*%
%TA.AperFunction,ComponentPad*%
%ADD11O,1.200000X1.750000*%
%TD*%
%TA.AperFunction,ComponentPad*%
%ADD12C,1.920000*%
%TD*%
%TA.AperFunction,ComponentPad*%
%ADD13RoundRect,0.250000X0.350000X0.625000X-0.350000X0.625000X-0.350000X-0.625000X0.350000X-0.625000X0*%
%TD*%
%TA.AperFunction,ViaPad*%
%ADD14C,0.600000*%
%TD*%
%TA.AperFunction,Conductor*%
%ADD15C,0.200000*%
%TD*%
G04 APERTURE END LIST*
D10*
%TO.P,BT1Con1,1,Pin_1*%
%TO.N,/BT1*%
X127640000Y-38500000D03*
D11*
%TO.P,BT1Con1,2,Pin_2*%
%TO.N,3V3*%
X129640000Y-38500000D03*
%TD*%
D12*
%TO.P,AMP1,1,LRC*%
%TO.N,/I2S_WS*%
X153880000Y-51620000D03*
%TO.P,AMP1,2,BCLK*%
%TO.N,/I2S_BCK*%
X156420000Y-51620000D03*
%TO.P,AMP1,3,DIN*%
%TO.N,/I2S_DIN*%
X158960000Y-51620000D03*
%TO.P,AMP1,4,GAIN*%
%TO.N,GND*%
X161500000Y-51620000D03*
%TO.P,AMP1,5,SD*%
%TO.N,unconnected-(AMP1-SD-Pad5)*%
X164040000Y-51620000D03*
%TO.P,AMP1,6,GND*%
%TO.N,GND*%
X166580000Y-51620000D03*
%TO.P,AMP1,7,VIN*%
%TO.N,VBAT*%
X169120000Y-51620000D03*
%TD*%
%TO.P,IO1,1,Pin_1*%
%TO.N,/GPIO36*%
X147499957Y-78500023D03*
%TO.P,IO1,2,Pin_2*%
%TO.N,/GPIO39*%
X144959957Y-78500023D03*
%TO.P,IO1,3,Pin_3*%
%TO.N,/GPIO34*%
X142419957Y-78500023D03*
%TO.P,IO1,4,Pin_4*%
%TO.N,/GPIO35*%
X139879957Y-78500023D03*
%TO.P,IO1,5,Pin_5*%
%TO.N,/GPIO12*%
X137339957Y-78500023D03*
%TO.P,IO1,6,Pin_6*%
%TO.N,/GPIO13*%
X134799957Y-78500023D03*
%TO.P,IO1,7,Pin_7*%
%TO.N,/GPIO09*%
X132181100Y-78446500D03*
%TO.P,IO1,8,Pin_8*%
%TO.N,/GPIO10*%
X129719957Y-78500023D03*
%TO.P,IO1,9,Pin_9*%
%TO.N,/GPIO01*%
X127179957Y-78500023D03*
%TO.P,IO1,10,Pin_10*%
%TO.N,/GPIO03*%
X124639957Y-78500023D03*
%TO.P,IO1,11,Pin_11*%
%TO.N,/GPIO00*%
X147499957Y-75960023D03*
%TO.P,IO1,12,Pin_12*%
%TO.N,/GPIO02*%
X144959957Y-75960023D03*
%TO.P,IO1,13,Pin_13*%
%TO.N,/GPIO15*%
X142419957Y-75960023D03*
%TO.P,IO1,14,Pin_14*%
%TO.N,/GPIO08*%
X139879957Y-75960023D03*
%TO.P,IO1,15,Pin_15*%
%TO.N,/GPIO07*%
X137339957Y-75960023D03*
%TO.P,IO1,16,Pin_16*%
%TO.N,/GPIO06*%
X134799957Y-75960023D03*
%TO.P,IO1,17,Pin_17*%
%TO.N,/RST*%
X132181100Y-75906500D03*
%TO.P,IO1,18,Pin_18*%
%TO.N,3V3*%
X129719957Y-75960023D03*
%TO.P,IO1,19,Pin_19*%
%TO.N,unconnected-(IO1-Pin_19-Pad19)*%
X127179957Y-75960023D03*
%TO.P,IO1,20,Pin_20*%
%TO.N,unconnected-(IO1-Pin_20-Pad20)*%
X124639957Y-75960023D03*
%TD*%
D10*
%TO.P,RFIDCon1,1,Pin_1*%
%TO.N,/I2C_SDA*%
X97590000Y-38500000D03*
D11*
%TO.P,RFIDCon1,2,Pin_2*%
%TO.N,/I2C_SCL*%
X99590000Y-38500000D03*
%TO.P,RFIDCon1,3,Pin_3*%
%TO.N,/RFID_IRQ*%
X101590000Y-38500000D03*
%TO.P,RFIDCon1,4,Pin_4*%
%TO.N,/RFID_RST*%
X103590000Y-38500000D03*
%TO.P,RFIDCon1,5,Pin_5*%
%TO.N,3V3*%
X105590000Y-38500000D03*
%TO.P,RFIDCon1,6,Pin_6*%
%TO.N,GND*%
X107590000Y-38500000D03*
%TD*%
D10*
%TO.P,BT3Con1,1,Pin_1*%
%TO.N,/BT3*%
X146350000Y-38500000D03*
D11*
%TO.P,BT3Con1,2,Pin_2*%
%TO.N,3V3*%
X148350000Y-38500000D03*
%TD*%
D12*
%TO.P,RD1,1,VCC*%
%TO.N,3V3*%
X167820000Y-55880000D03*
%TO.P,RD1,2,CS*%
%TO.N,/SPI_SS*%
X165280000Y-55880000D03*
%TO.P,RD1,3,MOSI*%
%TO.N,/SPI_MOSI*%
X162740000Y-55880000D03*
%TO.P,RD1,4,SCK*%
%TO.N,/SPI_SCK*%
X160200000Y-55880000D03*
%TO.P,RD1,5,MISO*%
%TO.N,/SPI_MISO*%
X157660000Y-55880000D03*
%TO.P,RD1,6,GND*%
%TO.N,GND*%
X155120000Y-55880000D03*
%TD*%
%TO.P,ESP32,1,3V3*%
%TO.N,3V3*%
X140900000Y-45230000D03*
%TO.P,ESP32,2,RESET*%
%TO.N,/RST*%
X138360000Y-45230000D03*
%TO.P,ESP32,3,GPIO36*%
%TO.N,/GPIO36*%
X135820000Y-45230000D03*
%TO.P,ESP32,4,GPIO39*%
%TO.N,/GPIO39*%
X133280000Y-45230000D03*
%TO.P,ESP32,5,GPIO34*%
%TO.N,/GPIO34*%
X130740000Y-45230000D03*
%TO.P,ESP32,6,GPIO35*%
%TO.N,/GPIO35*%
X128200000Y-45230000D03*
%TO.P,ESP32,7,GPIO32*%
%TO.N,/RFID_IRQ*%
X125660000Y-45230000D03*
%TO.P,ESP32,8,GPIO33*%
%TO.N,/RFID_RST*%
X123120000Y-45230000D03*
%TO.P,ESP32,9,GPIO25*%
%TO.N,/ADR_LED*%
X120580000Y-45230000D03*
%TO.P,ESP32,10,GPIO26*%
%TO.N,/I2S_BCK*%
X118040000Y-45230000D03*
%TO.P,ESP32,11,GPIO27*%
%TO.N,/I2S_DIN*%
X115500000Y-45230000D03*
%TO.P,ESP32,12,GPIO14*%
%TO.N,/I2S_WS*%
X112960000Y-45230000D03*
%TO.P,ESP32,13,GPIO12*%
%TO.N,/GPIO12*%
X110420000Y-45230000D03*
%TO.P,ESP32,14,GND*%
%TO.N,GND*%
X107880000Y-45230000D03*
%TO.P,ESP32,15,GPIO13*%
%TO.N,/GPIO13*%
X105340000Y-45230000D03*
%TO.P,ESP32,16,GPIO09*%
%TO.N,/GPIO09*%
X102800000Y-45230000D03*
%TO.P,ESP32,17,GPIO10*%
%TO.N,/GPIO10*%
X100260000Y-45230000D03*
%TO.P,ESP32,18,GPIO11*%
%TO.N,/GPIO11*%
X97720000Y-45230000D03*
%TO.P,ESP32,19,5V*%
%TO.N,unconnected-(ESP32-5V-Pad19)*%
X95180000Y-45230000D03*
%TO.P,ESP32,20,GND*%
%TO.N,GND*%
X140900000Y-70630000D03*
%TO.P,ESP32,21,GPIO23*%
%TO.N,/SPI_MOSI*%
X138360000Y-70630000D03*
%TO.P,ESP32,22,GPIO22*%
%TO.N,/I2C_SCL*%
X135820000Y-70630000D03*
%TO.P,ESP32,23,GPIO01*%
%TO.N,/GPIO01*%
X133280000Y-70630000D03*
%TO.P,ESP32,24,GPIO03*%
%TO.N,/GPIO03*%
X130740000Y-70630000D03*
%TO.P,ESP32,25,GPIO21*%
%TO.N,/I2C_SDA*%
X128200000Y-70630000D03*
%TO.P,ESP32,26,GND*%
%TO.N,GND*%
X125660000Y-70630000D03*
%TO.P,ESP32,27,GPIO19*%
%TO.N,/SPI_MISO*%
X123120000Y-70630000D03*
%TO.P,ESP32,28,GPIO18*%
%TO.N,/SPI_SCK*%
X120580000Y-70630000D03*
%TO.P,ESP32,29,GPIO05*%
%TO.N,/SPI_SS*%
X118040000Y-70630000D03*
%TO.P,ESP32,30,GPIO17*%
%TO.N,/BT3*%
X115500000Y-70630000D03*
%TO.P,ESP32,31,GPIO16*%
%TO.N,/BT2*%
X112960000Y-70630000D03*
%TO.P,ESP32,32,GPIO04*%
%TO.N,/BT1*%
X110420000Y-70630000D03*
%TO.P,ESP32,33,GPIO00*%
%TO.N,/GPIO00*%
X107880000Y-70630000D03*
%TO.P,ESP32,34,GPIO02*%
%TO.N,/GPIO02*%
X105340000Y-70630000D03*
%TO.P,ESP32,35,GPIO15*%
%TO.N,/GPIO15*%
X102800000Y-70630000D03*
%TO.P,ESP32,36,GPIO08*%
%TO.N,/GPIO08*%
X100260000Y-70630000D03*
%TO.P,ESP32,37,GPIO07*%
%TO.N,/GPIO07*%
X97720000Y-70630000D03*
%TO.P,ESP32,38,GPIO06*%
%TO.N,/GPIO06*%
X95180000Y-70630000D03*
%TD*%
D13*
%TO.P,PWRCon1,1,Pin_1*%
%TO.N,3V3*%
X100500000Y-76550000D03*
D11*
%TO.P,PWRCon1,2,Pin_2*%
%TO.N,GND*%
X98500000Y-76550000D03*
%TD*%
D10*
%TO.P,NeoPixelCon1,1,Pin_1*%
%TO.N,3V3*%
X115510000Y-38500000D03*
D11*
%TO.P,NeoPixelCon1,2,Pin_2*%
%TO.N,/ADR_LED*%
X117510000Y-38500000D03*
%TO.P,NeoPixelCon1,3,Pin_3*%
%TO.N,GND*%
X119510000Y-38500000D03*
%TD*%
D10*
%TO.P,BT2Con1,1,Pin_1*%
%TO.N,/BT2*%
X137000000Y-38500000D03*
D11*
%TO.P,BT2Con1,2,Pin_2*%
%TO.N,3V3*%
X139000000Y-38500000D03*
%TD*%
D14*
%TO.N,/GPIO12*%
X112188800Y-78272600D03*
%TO.N,/GPIO10*%
X102925700Y-77698300D03*
%TO.N,/GPIO13*%
X106279800Y-80607600D03*
X135824800Y-80956500D03*
%TO.N,/RST*%
X129766800Y-48968800D03*
%TO.N,/GPIO09*%
X119441800Y-52441000D03*
%TO.N,/SPI_SS*%
X120666600Y-57504200D03*
%TO.N,/I2C_SCL*%
X100161800Y-51714600D03*
X134628000Y-53429000D03*
%TO.N,/RFID_RST*%
X121638000Y-41367300D03*
%TO.N,/I2C_SDA*%
X126961300Y-42515000D03*
%TO.N,/RFID_IRQ*%
X122240000Y-41997300D03*
%TO.N,GND*%
X141733800Y-57037000D03*
X122930500Y-75317400D03*
X111150800Y-75491700D03*
%TO.N,/BT3*%
X118097800Y-46781200D03*
%TO.N,/BT2*%
X114567300Y-40684000D03*
%TO.N,/BT1*%
X112188800Y-36498000D03*
%TD*%
D15*
%TO.N,/GPIO02*%
X141816600Y-72816600D02*
X144960000Y-75960000D01*
X107526600Y-72816600D02*
X141816600Y-72816600D01*
X105340000Y-70630000D02*
X107526600Y-72816600D01*
%TO.N,/GPIO00*%
X143953400Y-72413400D02*
X147500000Y-75960000D01*
X109663400Y-72413400D02*
X143953400Y-72413400D01*
X107880000Y-70630000D02*
X109663400Y-72413400D01*
%TO.N,/GPIO08*%
X137540000Y-73620000D02*
X139880000Y-75960000D01*
X103250000Y-73620000D02*
X137540000Y-73620000D01*
X100260000Y-70630000D02*
X103250000Y-73620000D01*
%TO.N,/GPIO12*%
X114079600Y-80163400D02*
X128406500Y-80163400D01*
X112188800Y-78272600D02*
X114079600Y-80163400D01*
X128406500Y-80163400D02*
X128806700Y-79763200D01*
X136076800Y-79763200D02*
X137340000Y-78500000D01*
X128806700Y-79763200D02*
X136076800Y-79763200D01*
%TO.N,/GPIO10*%
X129301700Y-78500000D02*
X129720000Y-78500000D01*
X128040000Y-79761700D02*
X129301700Y-78500000D01*
X122639300Y-79761700D02*
X128040000Y-79761700D01*
X120533900Y-77656300D02*
X122639300Y-79761700D01*
X102967700Y-77656300D02*
X120533900Y-77656300D01*
X102925700Y-77698300D02*
X102967700Y-77656300D01*
%TO.N,/GPIO07*%
X135401700Y-74021700D02*
X137340000Y-75960000D01*
X101111700Y-74021700D02*
X135401700Y-74021700D01*
X97720000Y-70630000D02*
X101111700Y-74021700D01*
%TO.N,/GPIO15*%
X139678300Y-73218300D02*
X142420000Y-75960000D01*
X105388300Y-73218300D02*
X139678300Y-73218300D01*
X102800000Y-70630000D02*
X105388300Y-73218300D01*
%TO.N,/GPIO13*%
X135824800Y-80956500D02*
X106628700Y-80956500D01*
X106628700Y-80956500D02*
X106279800Y-80607600D01*
%TO.N,/GPIO06*%
X133403100Y-74563100D02*
X134800000Y-75960000D01*
X99113100Y-74563100D02*
X133403100Y-74563100D01*
X95180000Y-70630000D02*
X99113100Y-74563100D01*
%TO.N,/RST*%
X134621200Y-48968800D02*
X138360000Y-45230000D01*
X129766800Y-48968800D02*
X134621200Y-48968800D01*
%TO.N,/GPIO09*%
X110011000Y-52441000D02*
X119441800Y-52441000D01*
X102800000Y-45230000D02*
X110011000Y-52441000D01*
%TO.N,/I2S_BCK*%
X148750500Y-43950500D02*
X156420000Y-51620000D01*
X119319500Y-43950500D02*
X148750500Y-43950500D01*
X118040000Y-45230000D02*
X119319500Y-43950500D01*
%TO.N,/I2S_DIN*%
X150888800Y-43548800D02*
X158960000Y-51620000D01*
X117181200Y-43548800D02*
X150888800Y-43548800D01*
X115500000Y-45230000D02*
X117181200Y-43548800D01*
%TO.N,/I2S_WS*%
X119350000Y-51620000D02*
X112960000Y-45230000D01*
X153880000Y-51620000D02*
X119350000Y-51620000D01*
%TO.N,/SPI_MISO*%
X136034400Y-57715600D02*
X123120000Y-70630000D01*
X155824400Y-57715600D02*
X136034400Y-57715600D01*
X157660000Y-55880000D02*
X155824400Y-57715600D01*
%TO.N,/SPI_MOSI*%
X159195100Y-59424900D02*
X162740000Y-55880000D01*
X159195100Y-59425000D02*
X159195100Y-59424900D01*
X149565000Y-59425000D02*
X159195100Y-59425000D01*
X138360000Y-70630000D02*
X149565000Y-59425000D01*
%TO.N,/SPI_SS*%
X123632000Y-54538800D02*
X120666600Y-57504200D01*
X163938800Y-54538800D02*
X123632000Y-54538800D01*
X165280000Y-55880000D02*
X163938800Y-54538800D01*
%TO.N,/SPI_SCK*%
X157880500Y-58199500D02*
X160200000Y-55880000D01*
X136283400Y-58199500D02*
X157880500Y-58199500D01*
X124398300Y-70084600D02*
X136283400Y-58199500D01*
X124398300Y-71149500D02*
X124398300Y-70084600D01*
X123601000Y-71946800D02*
X124398300Y-71149500D01*
X121896800Y-71946800D02*
X123601000Y-71946800D01*
X120580000Y-70630000D02*
X121896800Y-71946800D01*
%TO.N,/I2C_SCL*%
X101876200Y-53429000D02*
X134628000Y-53429000D01*
X100161800Y-51714600D02*
X101876200Y-53429000D01*
%TO.N,/RFID_RST*%
X106795400Y-41367300D02*
X121638000Y-41367300D01*
X104491700Y-39063600D02*
X106795400Y-41367300D01*
X104491700Y-38500000D02*
X104491700Y-39063600D01*
X103590000Y-38500000D02*
X104491700Y-38500000D01*
%TO.N,/I2C_SDA*%
X126875700Y-42600600D02*
X126961300Y-42515000D01*
X101690600Y-42600600D02*
X126875700Y-42600600D01*
X97590000Y-38500000D02*
X101690600Y-42600600D01*
%TO.N,/RFID_IRQ*%
X101590000Y-38500000D02*
X102491700Y-38500000D01*
X105502500Y-41997300D02*
X122240000Y-41997300D01*
X102491700Y-38986500D02*
X105502500Y-41997300D01*
X102491700Y-38500000D02*
X102491700Y-38986500D01*
%TO.N,GND*%
X165240400Y-52959600D02*
X166580000Y-51620000D01*
X162839600Y-52959600D02*
X165240400Y-52959600D01*
X161500000Y-51620000D02*
X162839600Y-52959600D01*
X139582600Y-71947400D02*
X140900000Y-70630000D01*
X126977400Y-71947400D02*
X139582600Y-71947400D01*
X125660000Y-70630000D02*
X126977400Y-71947400D01*
X118608300Y-38013500D02*
X118608300Y-38500000D01*
X117897700Y-37302900D02*
X118608300Y-38013500D01*
X109688800Y-37302900D02*
X117897700Y-37302900D01*
X108491700Y-38500000D02*
X109688800Y-37302900D01*
X107590000Y-38500000D02*
X108491700Y-38500000D01*
X119510000Y-38500000D02*
X118608300Y-38500000D01*
X153963000Y-57037000D02*
X155120000Y-55880000D01*
X141733800Y-57037000D02*
X153963000Y-57037000D01*
X98500000Y-76550000D02*
X99401700Y-76550000D01*
X111150800Y-75491700D02*
X111150800Y-75317400D01*
X99958000Y-75317400D02*
X111150800Y-75317400D01*
X99401700Y-75873700D02*
X99958000Y-75317400D01*
X99401700Y-76550000D02*
X99401700Y-75873700D01*
X111150800Y-75317400D02*
X122930500Y-75317400D01*
%TO.N,/BT3*%
X115247100Y-46781200D02*
X118097800Y-46781200D01*
X114230000Y-45764100D02*
X115247100Y-46781200D01*
X114230000Y-44653500D02*
X114230000Y-45764100D01*
X115752400Y-43131100D02*
X114230000Y-44653500D01*
X141718900Y-43131100D02*
X115752400Y-43131100D01*
X146350000Y-38500000D02*
X141718900Y-43131100D01*
%TO.N,/BT2*%
X134816000Y-40684000D02*
X114567300Y-40684000D01*
X137000000Y-38500000D02*
X134816000Y-40684000D01*
%TO.N,/BT1*%
X125638000Y-36498000D02*
X127640000Y-38500000D01*
X112188800Y-36498000D02*
X125638000Y-36498000D01*
%TO.N,3V3*%
X129640000Y-38500000D02*
X130541700Y-38500000D01*
X139000000Y-38500000D02*
X138098300Y-38500000D01*
X105590000Y-38500000D02*
X106491700Y-38500000D01*
X107113300Y-39685200D02*
X115510000Y-39685200D01*
X106491700Y-39063600D02*
X107113300Y-39685200D01*
X106491700Y-38500000D02*
X106491700Y-39063600D01*
X129640000Y-38500000D02*
X128738300Y-38500000D01*
X115510000Y-39685200D02*
X115510000Y-38500000D01*
X138602600Y-37317400D02*
X138098300Y-37821700D01*
X146942000Y-37317400D02*
X138602600Y-37317400D01*
X147448300Y-37823700D02*
X146942000Y-37317400D01*
X147448300Y-38500000D02*
X147448300Y-37823700D01*
X137583500Y-37306900D02*
X138098300Y-37821700D01*
X131734800Y-37306900D02*
X137583500Y-37306900D01*
X130541700Y-38500000D02*
X131734800Y-37306900D01*
X138098300Y-37821700D02*
X138098300Y-38500000D01*
X148350000Y-38500000D02*
X147448300Y-38500000D01*
X128231400Y-39685200D02*
X115510000Y-39685200D01*
X128738300Y-39178300D02*
X128231400Y-39685200D01*
X128738300Y-38500000D02*
X128738300Y-39178300D01*
X149297300Y-45230000D02*
X140900000Y-45230000D01*
X155141700Y-51074400D02*
X149297300Y-45230000D01*
X155141700Y-52138100D02*
X155141700Y-51074400D01*
X156675800Y-53672200D02*
X155141700Y-52138100D01*
X165612200Y-53672200D02*
X156675800Y-53672200D01*
X167820000Y-55880000D02*
X165612200Y-53672200D01*
X102628300Y-76550000D02*
X100500000Y-76550000D01*
X103308300Y-77230000D02*
X102628300Y-76550000D01*
X128450000Y-77230000D02*
X103308300Y-77230000D01*
X129720000Y-75960000D02*
X128450000Y-77230000D01*
%TD*%
M02*
