M48
; DRILL file {KiCad 9.0.2} date 2025-06-11T19:01:10+0200
; FORMAT={3:3/ absolute / metric / keep zeros}
; #@! TF.CreationDate,2025-06-11T19:01:10+02:00
; #@! TF.GenerationSoftware,Kicad,Pcbnew,9.0.2
; #@! TF.FileFunction,Plated,1,2,PTH
FMAT,2
METRIC
; #@! TA.AperFunction,Plated,PTH,ViaDrill
T1C0.300
; #@! TA.AperFunction,Plated,PTH,ComponentDrill
T2C0.750
; #@! TA.AperFunction,Plated,PTH,ComponentDrill
T3C1.200
%
G90
G05
T1
X100162Y-051715
X102926Y-077698
X106280Y-080608
X111151Y-075492
X112189Y-036498
X112189Y-078273
X114567Y-040684
X118098Y-046781
X119442Y-052441
X120667Y-057504
X121638Y-041367
X122240Y-041997
X122931Y-075317
X126961Y-042515
X129767Y-048969
X134628Y-053429
X135825Y-080957
X141734Y-057037
T2
X097590Y-038500
X098500Y-076550
X099590Y-038500
X100500Y-076550
X101590Y-038500
X103590Y-038500
X105590Y-038500
X107590Y-038500
X115510Y-038500
X117510Y-038500
X119510Y-038500
X127640Y-038500
X129640Y-038500
X137000Y-038500
X139000Y-038500
X146350Y-038500
X148350Y-038500
T3
X095180Y-045230
X095180Y-070630
X097720Y-045230
X097720Y-070630
X100260Y-045230
X100260Y-070630
X102800Y-045230
X102800Y-070630
X105340Y-045230
X105340Y-070630
X107880Y-045230
X107880Y-070630
X110420Y-045230
X110420Y-070630
X112960Y-045230
X112960Y-070630
X115500Y-045230
X115500Y-070630
X118040Y-045230
X118040Y-070630
X120580Y-045230
X120580Y-070630
X123120Y-045230
X123120Y-070630
X124640Y-075960
X124640Y-078500
X125660Y-045230
X125660Y-070630
X127180Y-075960
X127180Y-078500
X128200Y-045230
X128200Y-070630
X129720Y-075960
X129720Y-078500
X130740Y-045230
X130740Y-070630
X132181Y-075907
X132181Y-078447
X133280Y-045230
X133280Y-070630
X134800Y-075960
X134800Y-078500
X135820Y-045230
X135820Y-070630
X137340Y-075960
X137340Y-078500
X138360Y-045230
X138360Y-070630
X139880Y-075960
X139880Y-078500
X140900Y-045230
X140900Y-070630
X142420Y-075960
X142420Y-078500
X144960Y-075960
X144960Y-078500
X147500Y-075960
X147500Y-078500
X153880Y-051620
X155120Y-055880
X156420Y-051620
X157660Y-055880
X158960Y-051620
X160200Y-055880
X161500Y-051620
X162740Y-055880
X164040Y-051620
X165280Y-055880
X166580Y-051620
X167820Y-055880
X169120Y-051620
M30
