M48
; DRILL file {KiCad 9.0.2} date 2025-06-23T12:28:37+0200
; FORMAT={-:-/ absolute / metric / decimal}
; #@! TF.CreationDate,2025-06-23T12:28:37+02:00
; #@! TF.GenerationSoftware,Kicad,Pcbnew,9.0.2
; #@! TF.FileFunction,Plated,1,2,PTH
FMAT,2
METRIC
; #@! TA.AperFunction,Plated,PTH,ViaDrill
T1C0.300
; #@! TA.AperFunction,Plated,PTH,ComponentDrill
T2C0.750
; #@! TA.AperFunction,Plated,PTH,ComponentDrill
T3C1.200
%
G90
G05
T1
X103.33Y-71.978
X117.317Y-71.862
X118.606Y-46.112
X121.325Y-40.11
X132.885Y-43.03
X136.57Y-40.432
X141.751Y-71.184
T2
X97.59Y-38.5
X99.59Y-38.5
X101.59Y-38.5
X103.59Y-38.5
X105.59Y-38.5
X107.59Y-38.5
X115.51Y-38.5
X117.51Y-38.5
X119.51Y-38.5
X127.64Y-38.5
X129.64Y-38.5
X137.0Y-38.5
X139.0Y-38.5
X146.35Y-38.5
X148.35Y-38.5
T3
X112.15Y-48.0
X112.15Y-73.4
X114.69Y-48.0
X114.69Y-73.4
X117.23Y-48.0
X117.23Y-73.4
X119.77Y-48.0
X119.77Y-73.4
X122.31Y-48.0
X122.31Y-73.4
X124.85Y-48.0
X124.85Y-73.4
X127.39Y-48.0
X127.39Y-73.4
X129.93Y-48.0
X129.93Y-73.4
X132.47Y-48.0
X132.47Y-73.4
X135.01Y-48.0
X135.01Y-73.4
X137.55Y-48.0
X137.55Y-73.4
X140.09Y-48.0
X140.09Y-73.4
X142.63Y-48.0
X142.63Y-73.4
X145.17Y-48.0
X145.17Y-73.4
X147.71Y-48.0
X147.71Y-73.4
X150.25Y-48.0
X150.25Y-73.4
X165.285Y-51.51
X167.825Y-51.51
X170.365Y-51.51
X172.905Y-51.51
X175.445Y-51.51
X177.985Y-51.51
X180.525Y-51.51
M30
