%TF.GenerationSoftware,KiCad,Pcbnew,9.0.2*%
%TF.CreationDate,2025-06-23T12:28:33+02:00*%
%TF.ProjectId,musicbox,6d757369-6362-46f7-982e-6b696361645f,rev?*%
%TF.SameCoordinates,Original*%
%TF.FileFunction,Legend,Top*%
%TF.FilePolarity,Positive*%
%FSLAX46Y46*%
G04 Gerber Fmt 4.6, Leading zero omitted, Abs format (unit mm)*
G04 Created by KiCad (PCBNEW 9.0.2) date 2025-06-23 12:28:33*
%MOMM*%
%LPD*%
G01*
G04 APERTURE LIST*
%ADD10C,0.100000*%
%ADD11C,0.150000*%
%ADD12C,0.120000*%
G04 APERTURE END LIST*
D10*
X97808800Y-35961830D02*
X97846895Y-35847544D01*
X97846895Y-35847544D02*
X97846895Y-35657068D01*
X97846895Y-35657068D02*
X97808800Y-35580877D01*
X97808800Y-35580877D02*
X97770704Y-35542782D01*
X97770704Y-35542782D02*
X97694514Y-35504687D01*
X97694514Y-35504687D02*
X97618323Y-35504687D01*
X97618323Y-35504687D02*
X97542133Y-35542782D01*
X97542133Y-35542782D02*
X97504038Y-35580877D01*
X97504038Y-35580877D02*
X97465942Y-35657068D01*
X97465942Y-35657068D02*
X97427847Y-35809449D01*
X97427847Y-35809449D02*
X97389752Y-35885639D01*
X97389752Y-35885639D02*
X97351657Y-35923734D01*
X97351657Y-35923734D02*
X97275466Y-35961830D01*
X97275466Y-35961830D02*
X97199276Y-35961830D01*
X97199276Y-35961830D02*
X97123085Y-35923734D01*
X97123085Y-35923734D02*
X97084990Y-35885639D01*
X97084990Y-35885639D02*
X97046895Y-35809449D01*
X97046895Y-35809449D02*
X97046895Y-35618972D01*
X97046895Y-35618972D02*
X97084990Y-35504687D01*
X97846895Y-35161829D02*
X97046895Y-35161829D01*
X97046895Y-35161829D02*
X97046895Y-34971353D01*
X97046895Y-34971353D02*
X97084990Y-34857067D01*
X97084990Y-34857067D02*
X97161180Y-34780877D01*
X97161180Y-34780877D02*
X97237371Y-34742782D01*
X97237371Y-34742782D02*
X97389752Y-34704686D01*
X97389752Y-34704686D02*
X97504038Y-34704686D01*
X97504038Y-34704686D02*
X97656419Y-34742782D01*
X97656419Y-34742782D02*
X97732609Y-34780877D01*
X97732609Y-34780877D02*
X97808800Y-34857067D01*
X97808800Y-34857067D02*
X97846895Y-34971353D01*
X97846895Y-34971353D02*
X97846895Y-35161829D01*
X97618323Y-34399925D02*
X97618323Y-34018972D01*
X97846895Y-34476115D02*
X97046895Y-34209448D01*
X97046895Y-34209448D02*
X97846895Y-33942782D01*
X137067847Y-35657068D02*
X137105942Y-35542782D01*
X137105942Y-35542782D02*
X137144038Y-35504687D01*
X137144038Y-35504687D02*
X137220228Y-35466591D01*
X137220228Y-35466591D02*
X137334514Y-35466591D01*
X137334514Y-35466591D02*
X137410704Y-35504687D01*
X137410704Y-35504687D02*
X137448800Y-35542782D01*
X137448800Y-35542782D02*
X137486895Y-35618972D01*
X137486895Y-35618972D02*
X137486895Y-35923734D01*
X137486895Y-35923734D02*
X136686895Y-35923734D01*
X136686895Y-35923734D02*
X136686895Y-35657068D01*
X136686895Y-35657068D02*
X136724990Y-35580877D01*
X136724990Y-35580877D02*
X136763085Y-35542782D01*
X136763085Y-35542782D02*
X136839276Y-35504687D01*
X136839276Y-35504687D02*
X136915466Y-35504687D01*
X136915466Y-35504687D02*
X136991657Y-35542782D01*
X136991657Y-35542782D02*
X137029752Y-35580877D01*
X137029752Y-35580877D02*
X137067847Y-35657068D01*
X137067847Y-35657068D02*
X137067847Y-35923734D01*
X136686895Y-35238020D02*
X136686895Y-34780877D01*
X137486895Y-35009449D02*
X136686895Y-35009449D01*
X136763085Y-34552306D02*
X136724990Y-34514210D01*
X136724990Y-34514210D02*
X136686895Y-34438020D01*
X136686895Y-34438020D02*
X136686895Y-34247544D01*
X136686895Y-34247544D02*
X136724990Y-34171353D01*
X136724990Y-34171353D02*
X136763085Y-34133258D01*
X136763085Y-34133258D02*
X136839276Y-34095163D01*
X136839276Y-34095163D02*
X136915466Y-34095163D01*
X136915466Y-34095163D02*
X137029752Y-34133258D01*
X137029752Y-34133258D02*
X137486895Y-34590401D01*
X137486895Y-34590401D02*
X137486895Y-34095163D01*
X105336895Y-35999925D02*
X105336895Y-35504687D01*
X105336895Y-35504687D02*
X105641657Y-35771353D01*
X105641657Y-35771353D02*
X105641657Y-35657068D01*
X105641657Y-35657068D02*
X105679752Y-35580877D01*
X105679752Y-35580877D02*
X105717847Y-35542782D01*
X105717847Y-35542782D02*
X105794038Y-35504687D01*
X105794038Y-35504687D02*
X105984514Y-35504687D01*
X105984514Y-35504687D02*
X106060704Y-35542782D01*
X106060704Y-35542782D02*
X106098800Y-35580877D01*
X106098800Y-35580877D02*
X106136895Y-35657068D01*
X106136895Y-35657068D02*
X106136895Y-35885639D01*
X106136895Y-35885639D02*
X106098800Y-35961830D01*
X106098800Y-35961830D02*
X106060704Y-35999925D01*
X105336895Y-35276115D02*
X106136895Y-35009448D01*
X106136895Y-35009448D02*
X105336895Y-34742782D01*
X105336895Y-34552306D02*
X105336895Y-34057068D01*
X105336895Y-34057068D02*
X105641657Y-34323734D01*
X105641657Y-34323734D02*
X105641657Y-34209449D01*
X105641657Y-34209449D02*
X105679752Y-34133258D01*
X105679752Y-34133258D02*
X105717847Y-34095163D01*
X105717847Y-34095163D02*
X105794038Y-34057068D01*
X105794038Y-34057068D02*
X105984514Y-34057068D01*
X105984514Y-34057068D02*
X106060704Y-34095163D01*
X106060704Y-34095163D02*
X106098800Y-34133258D01*
X106098800Y-34133258D02*
X106136895Y-34209449D01*
X106136895Y-34209449D02*
X106136895Y-34438020D01*
X106136895Y-34438020D02*
X106098800Y-34514211D01*
X106098800Y-34514211D02*
X106060704Y-34552306D01*
X117986895Y-35923734D02*
X117186895Y-35923734D01*
X117186895Y-35923734D02*
X117186895Y-35733258D01*
X117186895Y-35733258D02*
X117224990Y-35618972D01*
X117224990Y-35618972D02*
X117301180Y-35542782D01*
X117301180Y-35542782D02*
X117377371Y-35504687D01*
X117377371Y-35504687D02*
X117529752Y-35466591D01*
X117529752Y-35466591D02*
X117644038Y-35466591D01*
X117644038Y-35466591D02*
X117796419Y-35504687D01*
X117796419Y-35504687D02*
X117872609Y-35542782D01*
X117872609Y-35542782D02*
X117948800Y-35618972D01*
X117948800Y-35618972D02*
X117986895Y-35733258D01*
X117986895Y-35733258D02*
X117986895Y-35923734D01*
X117758323Y-35161830D02*
X117758323Y-34780877D01*
X117986895Y-35238020D02*
X117186895Y-34971353D01*
X117186895Y-34971353D02*
X117986895Y-34704687D01*
X117186895Y-34552306D02*
X117186895Y-34095163D01*
X117986895Y-34323735D02*
X117186895Y-34323735D01*
X107284990Y-35504687D02*
X107246895Y-35580877D01*
X107246895Y-35580877D02*
X107246895Y-35695163D01*
X107246895Y-35695163D02*
X107284990Y-35809449D01*
X107284990Y-35809449D02*
X107361180Y-35885639D01*
X107361180Y-35885639D02*
X107437371Y-35923734D01*
X107437371Y-35923734D02*
X107589752Y-35961830D01*
X107589752Y-35961830D02*
X107704038Y-35961830D01*
X107704038Y-35961830D02*
X107856419Y-35923734D01*
X107856419Y-35923734D02*
X107932609Y-35885639D01*
X107932609Y-35885639D02*
X108008800Y-35809449D01*
X108008800Y-35809449D02*
X108046895Y-35695163D01*
X108046895Y-35695163D02*
X108046895Y-35618972D01*
X108046895Y-35618972D02*
X108008800Y-35504687D01*
X108008800Y-35504687D02*
X107970704Y-35466591D01*
X107970704Y-35466591D02*
X107704038Y-35466591D01*
X107704038Y-35466591D02*
X107704038Y-35618972D01*
X108046895Y-35123734D02*
X107246895Y-35123734D01*
X107246895Y-35123734D02*
X108046895Y-34666591D01*
X108046895Y-34666591D02*
X107246895Y-34666591D01*
X108046895Y-34285639D02*
X107246895Y-34285639D01*
X107246895Y-34285639D02*
X107246895Y-34095163D01*
X107246895Y-34095163D02*
X107284990Y-33980877D01*
X107284990Y-33980877D02*
X107361180Y-33904687D01*
X107361180Y-33904687D02*
X107437371Y-33866592D01*
X107437371Y-33866592D02*
X107589752Y-33828496D01*
X107589752Y-33828496D02*
X107704038Y-33828496D01*
X107704038Y-33828496D02*
X107856419Y-33866592D01*
X107856419Y-33866592D02*
X107932609Y-33904687D01*
X107932609Y-33904687D02*
X108008800Y-33980877D01*
X108008800Y-33980877D02*
X108046895Y-34095163D01*
X108046895Y-34095163D02*
X108046895Y-34285639D01*
X114966895Y-35999925D02*
X114966895Y-35504687D01*
X114966895Y-35504687D02*
X115271657Y-35771353D01*
X115271657Y-35771353D02*
X115271657Y-35657068D01*
X115271657Y-35657068D02*
X115309752Y-35580877D01*
X115309752Y-35580877D02*
X115347847Y-35542782D01*
X115347847Y-35542782D02*
X115424038Y-35504687D01*
X115424038Y-35504687D02*
X115614514Y-35504687D01*
X115614514Y-35504687D02*
X115690704Y-35542782D01*
X115690704Y-35542782D02*
X115728800Y-35580877D01*
X115728800Y-35580877D02*
X115766895Y-35657068D01*
X115766895Y-35657068D02*
X115766895Y-35885639D01*
X115766895Y-35885639D02*
X115728800Y-35961830D01*
X115728800Y-35961830D02*
X115690704Y-35999925D01*
X114966895Y-35276115D02*
X115766895Y-35009448D01*
X115766895Y-35009448D02*
X114966895Y-34742782D01*
X114966895Y-34552306D02*
X114966895Y-34057068D01*
X114966895Y-34057068D02*
X115271657Y-34323734D01*
X115271657Y-34323734D02*
X115271657Y-34209449D01*
X115271657Y-34209449D02*
X115309752Y-34133258D01*
X115309752Y-34133258D02*
X115347847Y-34095163D01*
X115347847Y-34095163D02*
X115424038Y-34057068D01*
X115424038Y-34057068D02*
X115614514Y-34057068D01*
X115614514Y-34057068D02*
X115690704Y-34095163D01*
X115690704Y-34095163D02*
X115728800Y-34133258D01*
X115728800Y-34133258D02*
X115766895Y-34209449D01*
X115766895Y-34209449D02*
X115766895Y-34438020D01*
X115766895Y-34438020D02*
X115728800Y-34514211D01*
X115728800Y-34514211D02*
X115690704Y-34552306D01*
X119334990Y-35504687D02*
X119296895Y-35580877D01*
X119296895Y-35580877D02*
X119296895Y-35695163D01*
X119296895Y-35695163D02*
X119334990Y-35809449D01*
X119334990Y-35809449D02*
X119411180Y-35885639D01*
X119411180Y-35885639D02*
X119487371Y-35923734D01*
X119487371Y-35923734D02*
X119639752Y-35961830D01*
X119639752Y-35961830D02*
X119754038Y-35961830D01*
X119754038Y-35961830D02*
X119906419Y-35923734D01*
X119906419Y-35923734D02*
X119982609Y-35885639D01*
X119982609Y-35885639D02*
X120058800Y-35809449D01*
X120058800Y-35809449D02*
X120096895Y-35695163D01*
X120096895Y-35695163D02*
X120096895Y-35618972D01*
X120096895Y-35618972D02*
X120058800Y-35504687D01*
X120058800Y-35504687D02*
X120020704Y-35466591D01*
X120020704Y-35466591D02*
X119754038Y-35466591D01*
X119754038Y-35466591D02*
X119754038Y-35618972D01*
X120096895Y-35123734D02*
X119296895Y-35123734D01*
X119296895Y-35123734D02*
X120096895Y-34666591D01*
X120096895Y-34666591D02*
X119296895Y-34666591D01*
X120096895Y-34285639D02*
X119296895Y-34285639D01*
X119296895Y-34285639D02*
X119296895Y-34095163D01*
X119296895Y-34095163D02*
X119334990Y-33980877D01*
X119334990Y-33980877D02*
X119411180Y-33904687D01*
X119411180Y-33904687D02*
X119487371Y-33866592D01*
X119487371Y-33866592D02*
X119639752Y-33828496D01*
X119639752Y-33828496D02*
X119754038Y-33828496D01*
X119754038Y-33828496D02*
X119906419Y-33866592D01*
X119906419Y-33866592D02*
X119982609Y-33904687D01*
X119982609Y-33904687D02*
X120058800Y-33980877D01*
X120058800Y-33980877D02*
X120096895Y-34095163D01*
X120096895Y-34095163D02*
X120096895Y-34285639D01*
X146387847Y-35657068D02*
X146425942Y-35542782D01*
X146425942Y-35542782D02*
X146464038Y-35504687D01*
X146464038Y-35504687D02*
X146540228Y-35466591D01*
X146540228Y-35466591D02*
X146654514Y-35466591D01*
X146654514Y-35466591D02*
X146730704Y-35504687D01*
X146730704Y-35504687D02*
X146768800Y-35542782D01*
X146768800Y-35542782D02*
X146806895Y-35618972D01*
X146806895Y-35618972D02*
X146806895Y-35923734D01*
X146806895Y-35923734D02*
X146006895Y-35923734D01*
X146006895Y-35923734D02*
X146006895Y-35657068D01*
X146006895Y-35657068D02*
X146044990Y-35580877D01*
X146044990Y-35580877D02*
X146083085Y-35542782D01*
X146083085Y-35542782D02*
X146159276Y-35504687D01*
X146159276Y-35504687D02*
X146235466Y-35504687D01*
X146235466Y-35504687D02*
X146311657Y-35542782D01*
X146311657Y-35542782D02*
X146349752Y-35580877D01*
X146349752Y-35580877D02*
X146387847Y-35657068D01*
X146387847Y-35657068D02*
X146387847Y-35923734D01*
X146006895Y-35238020D02*
X146006895Y-34780877D01*
X146806895Y-35009449D02*
X146006895Y-35009449D01*
X146006895Y-34590401D02*
X146006895Y-34095163D01*
X146006895Y-34095163D02*
X146311657Y-34361829D01*
X146311657Y-34361829D02*
X146311657Y-34247544D01*
X146311657Y-34247544D02*
X146349752Y-34171353D01*
X146349752Y-34171353D02*
X146387847Y-34133258D01*
X146387847Y-34133258D02*
X146464038Y-34095163D01*
X146464038Y-34095163D02*
X146654514Y-34095163D01*
X146654514Y-34095163D02*
X146730704Y-34133258D01*
X146730704Y-34133258D02*
X146768800Y-34171353D01*
X146768800Y-34171353D02*
X146806895Y-34247544D01*
X146806895Y-34247544D02*
X146806895Y-34476115D01*
X146806895Y-34476115D02*
X146768800Y-34552306D01*
X146768800Y-34552306D02*
X146730704Y-34590401D01*
X127737847Y-35657068D02*
X127775942Y-35542782D01*
X127775942Y-35542782D02*
X127814038Y-35504687D01*
X127814038Y-35504687D02*
X127890228Y-35466591D01*
X127890228Y-35466591D02*
X128004514Y-35466591D01*
X128004514Y-35466591D02*
X128080704Y-35504687D01*
X128080704Y-35504687D02*
X128118800Y-35542782D01*
X128118800Y-35542782D02*
X128156895Y-35618972D01*
X128156895Y-35618972D02*
X128156895Y-35923734D01*
X128156895Y-35923734D02*
X127356895Y-35923734D01*
X127356895Y-35923734D02*
X127356895Y-35657068D01*
X127356895Y-35657068D02*
X127394990Y-35580877D01*
X127394990Y-35580877D02*
X127433085Y-35542782D01*
X127433085Y-35542782D02*
X127509276Y-35504687D01*
X127509276Y-35504687D02*
X127585466Y-35504687D01*
X127585466Y-35504687D02*
X127661657Y-35542782D01*
X127661657Y-35542782D02*
X127699752Y-35580877D01*
X127699752Y-35580877D02*
X127737847Y-35657068D01*
X127737847Y-35657068D02*
X127737847Y-35923734D01*
X127356895Y-35238020D02*
X127356895Y-34780877D01*
X128156895Y-35009449D02*
X127356895Y-35009449D01*
X128156895Y-34095163D02*
X128156895Y-34552306D01*
X128156895Y-34323734D02*
X127356895Y-34323734D01*
X127356895Y-34323734D02*
X127471180Y-34399925D01*
X127471180Y-34399925D02*
X127547371Y-34476115D01*
X127547371Y-34476115D02*
X127585466Y-34552306D01*
X102086895Y-35923734D02*
X101286895Y-35923734D01*
X102086895Y-35085639D02*
X101705942Y-35352306D01*
X102086895Y-35542782D02*
X101286895Y-35542782D01*
X101286895Y-35542782D02*
X101286895Y-35238020D01*
X101286895Y-35238020D02*
X101324990Y-35161830D01*
X101324990Y-35161830D02*
X101363085Y-35123735D01*
X101363085Y-35123735D02*
X101439276Y-35085639D01*
X101439276Y-35085639D02*
X101553561Y-35085639D01*
X101553561Y-35085639D02*
X101629752Y-35123735D01*
X101629752Y-35123735D02*
X101667847Y-35161830D01*
X101667847Y-35161830D02*
X101705942Y-35238020D01*
X101705942Y-35238020D02*
X101705942Y-35542782D01*
X102163085Y-34209449D02*
X102124990Y-34285639D01*
X102124990Y-34285639D02*
X102048800Y-34361830D01*
X102048800Y-34361830D02*
X101934514Y-34476116D01*
X101934514Y-34476116D02*
X101896419Y-34552306D01*
X101896419Y-34552306D02*
X101896419Y-34628497D01*
X102086895Y-34590401D02*
X102048800Y-34666592D01*
X102048800Y-34666592D02*
X101972609Y-34742782D01*
X101972609Y-34742782D02*
X101820228Y-34780878D01*
X101820228Y-34780878D02*
X101553561Y-34780878D01*
X101553561Y-34780878D02*
X101401180Y-34742782D01*
X101401180Y-34742782D02*
X101324990Y-34666592D01*
X101324990Y-34666592D02*
X101286895Y-34590401D01*
X101286895Y-34590401D02*
X101286895Y-34438020D01*
X101286895Y-34438020D02*
X101324990Y-34361830D01*
X101324990Y-34361830D02*
X101401180Y-34285639D01*
X101401180Y-34285639D02*
X101553561Y-34247544D01*
X101553561Y-34247544D02*
X101820228Y-34247544D01*
X101820228Y-34247544D02*
X101972609Y-34285639D01*
X101972609Y-34285639D02*
X102048800Y-34361830D01*
X102048800Y-34361830D02*
X102086895Y-34438020D01*
X102086895Y-34438020D02*
X102086895Y-34590401D01*
X99948800Y-35961830D02*
X99986895Y-35847544D01*
X99986895Y-35847544D02*
X99986895Y-35657068D01*
X99986895Y-35657068D02*
X99948800Y-35580877D01*
X99948800Y-35580877D02*
X99910704Y-35542782D01*
X99910704Y-35542782D02*
X99834514Y-35504687D01*
X99834514Y-35504687D02*
X99758323Y-35504687D01*
X99758323Y-35504687D02*
X99682133Y-35542782D01*
X99682133Y-35542782D02*
X99644038Y-35580877D01*
X99644038Y-35580877D02*
X99605942Y-35657068D01*
X99605942Y-35657068D02*
X99567847Y-35809449D01*
X99567847Y-35809449D02*
X99529752Y-35885639D01*
X99529752Y-35885639D02*
X99491657Y-35923734D01*
X99491657Y-35923734D02*
X99415466Y-35961830D01*
X99415466Y-35961830D02*
X99339276Y-35961830D01*
X99339276Y-35961830D02*
X99263085Y-35923734D01*
X99263085Y-35923734D02*
X99224990Y-35885639D01*
X99224990Y-35885639D02*
X99186895Y-35809449D01*
X99186895Y-35809449D02*
X99186895Y-35618972D01*
X99186895Y-35618972D02*
X99224990Y-35504687D01*
X99910704Y-34704686D02*
X99948800Y-34742782D01*
X99948800Y-34742782D02*
X99986895Y-34857067D01*
X99986895Y-34857067D02*
X99986895Y-34933258D01*
X99986895Y-34933258D02*
X99948800Y-35047544D01*
X99948800Y-35047544D02*
X99872609Y-35123734D01*
X99872609Y-35123734D02*
X99796419Y-35161829D01*
X99796419Y-35161829D02*
X99644038Y-35199925D01*
X99644038Y-35199925D02*
X99529752Y-35199925D01*
X99529752Y-35199925D02*
X99377371Y-35161829D01*
X99377371Y-35161829D02*
X99301180Y-35123734D01*
X99301180Y-35123734D02*
X99224990Y-35047544D01*
X99224990Y-35047544D02*
X99186895Y-34933258D01*
X99186895Y-34933258D02*
X99186895Y-34857067D01*
X99186895Y-34857067D02*
X99224990Y-34742782D01*
X99224990Y-34742782D02*
X99263085Y-34704686D01*
X99986895Y-33980877D02*
X99986895Y-34361829D01*
X99986895Y-34361829D02*
X99186895Y-34361829D01*
X129386895Y-35999925D02*
X129386895Y-35504687D01*
X129386895Y-35504687D02*
X129691657Y-35771353D01*
X129691657Y-35771353D02*
X129691657Y-35657068D01*
X129691657Y-35657068D02*
X129729752Y-35580877D01*
X129729752Y-35580877D02*
X129767847Y-35542782D01*
X129767847Y-35542782D02*
X129844038Y-35504687D01*
X129844038Y-35504687D02*
X130034514Y-35504687D01*
X130034514Y-35504687D02*
X130110704Y-35542782D01*
X130110704Y-35542782D02*
X130148800Y-35580877D01*
X130148800Y-35580877D02*
X130186895Y-35657068D01*
X130186895Y-35657068D02*
X130186895Y-35885639D01*
X130186895Y-35885639D02*
X130148800Y-35961830D01*
X130148800Y-35961830D02*
X130110704Y-35999925D01*
X129386895Y-35276115D02*
X130186895Y-35009448D01*
X130186895Y-35009448D02*
X129386895Y-34742782D01*
X129386895Y-34552306D02*
X129386895Y-34057068D01*
X129386895Y-34057068D02*
X129691657Y-34323734D01*
X129691657Y-34323734D02*
X129691657Y-34209449D01*
X129691657Y-34209449D02*
X129729752Y-34133258D01*
X129729752Y-34133258D02*
X129767847Y-34095163D01*
X129767847Y-34095163D02*
X129844038Y-34057068D01*
X129844038Y-34057068D02*
X130034514Y-34057068D01*
X130034514Y-34057068D02*
X130110704Y-34095163D01*
X130110704Y-34095163D02*
X130148800Y-34133258D01*
X130148800Y-34133258D02*
X130186895Y-34209449D01*
X130186895Y-34209449D02*
X130186895Y-34438020D01*
X130186895Y-34438020D02*
X130148800Y-34514211D01*
X130148800Y-34514211D02*
X130110704Y-34552306D01*
X138716895Y-35999925D02*
X138716895Y-35504687D01*
X138716895Y-35504687D02*
X139021657Y-35771353D01*
X139021657Y-35771353D02*
X139021657Y-35657068D01*
X139021657Y-35657068D02*
X139059752Y-35580877D01*
X139059752Y-35580877D02*
X139097847Y-35542782D01*
X139097847Y-35542782D02*
X139174038Y-35504687D01*
X139174038Y-35504687D02*
X139364514Y-35504687D01*
X139364514Y-35504687D02*
X139440704Y-35542782D01*
X139440704Y-35542782D02*
X139478800Y-35580877D01*
X139478800Y-35580877D02*
X139516895Y-35657068D01*
X139516895Y-35657068D02*
X139516895Y-35885639D01*
X139516895Y-35885639D02*
X139478800Y-35961830D01*
X139478800Y-35961830D02*
X139440704Y-35999925D01*
X138716895Y-35276115D02*
X139516895Y-35009448D01*
X139516895Y-35009448D02*
X138716895Y-34742782D01*
X138716895Y-34552306D02*
X138716895Y-34057068D01*
X138716895Y-34057068D02*
X139021657Y-34323734D01*
X139021657Y-34323734D02*
X139021657Y-34209449D01*
X139021657Y-34209449D02*
X139059752Y-34133258D01*
X139059752Y-34133258D02*
X139097847Y-34095163D01*
X139097847Y-34095163D02*
X139174038Y-34057068D01*
X139174038Y-34057068D02*
X139364514Y-34057068D01*
X139364514Y-34057068D02*
X139440704Y-34095163D01*
X139440704Y-34095163D02*
X139478800Y-34133258D01*
X139478800Y-34133258D02*
X139516895Y-34209449D01*
X139516895Y-34209449D02*
X139516895Y-34438020D01*
X139516895Y-34438020D02*
X139478800Y-34514211D01*
X139478800Y-34514211D02*
X139440704Y-34552306D01*
X148036895Y-35999925D02*
X148036895Y-35504687D01*
X148036895Y-35504687D02*
X148341657Y-35771353D01*
X148341657Y-35771353D02*
X148341657Y-35657068D01*
X148341657Y-35657068D02*
X148379752Y-35580877D01*
X148379752Y-35580877D02*
X148417847Y-35542782D01*
X148417847Y-35542782D02*
X148494038Y-35504687D01*
X148494038Y-35504687D02*
X148684514Y-35504687D01*
X148684514Y-35504687D02*
X148760704Y-35542782D01*
X148760704Y-35542782D02*
X148798800Y-35580877D01*
X148798800Y-35580877D02*
X148836895Y-35657068D01*
X148836895Y-35657068D02*
X148836895Y-35885639D01*
X148836895Y-35885639D02*
X148798800Y-35961830D01*
X148798800Y-35961830D02*
X148760704Y-35999925D01*
X148036895Y-35276115D02*
X148836895Y-35009448D01*
X148836895Y-35009448D02*
X148036895Y-34742782D01*
X148036895Y-34552306D02*
X148036895Y-34057068D01*
X148036895Y-34057068D02*
X148341657Y-34323734D01*
X148341657Y-34323734D02*
X148341657Y-34209449D01*
X148341657Y-34209449D02*
X148379752Y-34133258D01*
X148379752Y-34133258D02*
X148417847Y-34095163D01*
X148417847Y-34095163D02*
X148494038Y-34057068D01*
X148494038Y-34057068D02*
X148684514Y-34057068D01*
X148684514Y-34057068D02*
X148760704Y-34095163D01*
X148760704Y-34095163D02*
X148798800Y-34133258D01*
X148798800Y-34133258D02*
X148836895Y-34209449D01*
X148836895Y-34209449D02*
X148836895Y-34438020D01*
X148836895Y-34438020D02*
X148798800Y-34514211D01*
X148798800Y-34514211D02*
X148760704Y-34552306D01*
X158303884Y-78238665D02*
X158637217Y-78238665D01*
X158780074Y-78762475D02*
X158303884Y-78762475D01*
X158303884Y-78762475D02*
X158303884Y-77762475D01*
X158303884Y-77762475D02*
X158780074Y-77762475D01*
X159161027Y-78714856D02*
X159303884Y-78762475D01*
X159303884Y-78762475D02*
X159541979Y-78762475D01*
X159541979Y-78762475D02*
X159637217Y-78714856D01*
X159637217Y-78714856D02*
X159684836Y-78667236D01*
X159684836Y-78667236D02*
X159732455Y-78571998D01*
X159732455Y-78571998D02*
X159732455Y-78476760D01*
X159732455Y-78476760D02*
X159684836Y-78381522D01*
X159684836Y-78381522D02*
X159637217Y-78333903D01*
X159637217Y-78333903D02*
X159541979Y-78286284D01*
X159541979Y-78286284D02*
X159351503Y-78238665D01*
X159351503Y-78238665D02*
X159256265Y-78191046D01*
X159256265Y-78191046D02*
X159208646Y-78143427D01*
X159208646Y-78143427D02*
X159161027Y-78048189D01*
X159161027Y-78048189D02*
X159161027Y-77952951D01*
X159161027Y-77952951D02*
X159208646Y-77857713D01*
X159208646Y-77857713D02*
X159256265Y-77810094D01*
X159256265Y-77810094D02*
X159351503Y-77762475D01*
X159351503Y-77762475D02*
X159589598Y-77762475D01*
X159589598Y-77762475D02*
X159732455Y-77810094D01*
X160161027Y-78762475D02*
X160161027Y-77762475D01*
X160161027Y-77762475D02*
X160541979Y-77762475D01*
X160541979Y-77762475D02*
X160637217Y-77810094D01*
X160637217Y-77810094D02*
X160684836Y-77857713D01*
X160684836Y-77857713D02*
X160732455Y-77952951D01*
X160732455Y-77952951D02*
X160732455Y-78095808D01*
X160732455Y-78095808D02*
X160684836Y-78191046D01*
X160684836Y-78191046D02*
X160637217Y-78238665D01*
X160637217Y-78238665D02*
X160541979Y-78286284D01*
X160541979Y-78286284D02*
X160161027Y-78286284D01*
X161065789Y-77762475D02*
X161684836Y-77762475D01*
X161684836Y-77762475D02*
X161351503Y-78143427D01*
X161351503Y-78143427D02*
X161494360Y-78143427D01*
X161494360Y-78143427D02*
X161589598Y-78191046D01*
X161589598Y-78191046D02*
X161637217Y-78238665D01*
X161637217Y-78238665D02*
X161684836Y-78333903D01*
X161684836Y-78333903D02*
X161684836Y-78571998D01*
X161684836Y-78571998D02*
X161637217Y-78667236D01*
X161637217Y-78667236D02*
X161589598Y-78714856D01*
X161589598Y-78714856D02*
X161494360Y-78762475D01*
X161494360Y-78762475D02*
X161208646Y-78762475D01*
X161208646Y-78762475D02*
X161113408Y-78714856D01*
X161113408Y-78714856D02*
X161065789Y-78667236D01*
X162065789Y-77857713D02*
X162113408Y-77810094D01*
X162113408Y-77810094D02*
X162208646Y-77762475D01*
X162208646Y-77762475D02*
X162446741Y-77762475D01*
X162446741Y-77762475D02*
X162541979Y-77810094D01*
X162541979Y-77810094D02*
X162589598Y-77857713D01*
X162589598Y-77857713D02*
X162637217Y-77952951D01*
X162637217Y-77952951D02*
X162637217Y-78048189D01*
X162637217Y-78048189D02*
X162589598Y-78191046D01*
X162589598Y-78191046D02*
X162018170Y-78762475D01*
X162018170Y-78762475D02*
X162637217Y-78762475D01*
X163827694Y-78762475D02*
X163827694Y-77762475D01*
X163827694Y-77762475D02*
X164161027Y-78476760D01*
X164161027Y-78476760D02*
X164494360Y-77762475D01*
X164494360Y-77762475D02*
X164494360Y-78762475D01*
X165399122Y-78095808D02*
X165399122Y-78762475D01*
X164970551Y-78095808D02*
X164970551Y-78619617D01*
X164970551Y-78619617D02*
X165018170Y-78714856D01*
X165018170Y-78714856D02*
X165113408Y-78762475D01*
X165113408Y-78762475D02*
X165256265Y-78762475D01*
X165256265Y-78762475D02*
X165351503Y-78714856D01*
X165351503Y-78714856D02*
X165399122Y-78667236D01*
X165827694Y-78714856D02*
X165922932Y-78762475D01*
X165922932Y-78762475D02*
X166113408Y-78762475D01*
X166113408Y-78762475D02*
X166208646Y-78714856D01*
X166208646Y-78714856D02*
X166256265Y-78619617D01*
X166256265Y-78619617D02*
X166256265Y-78571998D01*
X166256265Y-78571998D02*
X166208646Y-78476760D01*
X166208646Y-78476760D02*
X166113408Y-78429141D01*
X166113408Y-78429141D02*
X165970551Y-78429141D01*
X165970551Y-78429141D02*
X165875313Y-78381522D01*
X165875313Y-78381522D02*
X165827694Y-78286284D01*
X165827694Y-78286284D02*
X165827694Y-78238665D01*
X165827694Y-78238665D02*
X165875313Y-78143427D01*
X165875313Y-78143427D02*
X165970551Y-78095808D01*
X165970551Y-78095808D02*
X166113408Y-78095808D01*
X166113408Y-78095808D02*
X166208646Y-78143427D01*
X166684837Y-78762475D02*
X166684837Y-78095808D01*
X166684837Y-77762475D02*
X166637218Y-77810094D01*
X166637218Y-77810094D02*
X166684837Y-77857713D01*
X166684837Y-77857713D02*
X166732456Y-77810094D01*
X166732456Y-77810094D02*
X166684837Y-77762475D01*
X166684837Y-77762475D02*
X166684837Y-77857713D01*
X167589598Y-78714856D02*
X167494360Y-78762475D01*
X167494360Y-78762475D02*
X167303884Y-78762475D01*
X167303884Y-78762475D02*
X167208646Y-78714856D01*
X167208646Y-78714856D02*
X167161027Y-78667236D01*
X167161027Y-78667236D02*
X167113408Y-78571998D01*
X167113408Y-78571998D02*
X167113408Y-78286284D01*
X167113408Y-78286284D02*
X167161027Y-78191046D01*
X167161027Y-78191046D02*
X167208646Y-78143427D01*
X167208646Y-78143427D02*
X167303884Y-78095808D01*
X167303884Y-78095808D02*
X167494360Y-78095808D01*
X167494360Y-78095808D02*
X167589598Y-78143427D01*
X168351503Y-78238665D02*
X168494360Y-78286284D01*
X168494360Y-78286284D02*
X168541979Y-78333903D01*
X168541979Y-78333903D02*
X168589598Y-78429141D01*
X168589598Y-78429141D02*
X168589598Y-78571998D01*
X168589598Y-78571998D02*
X168541979Y-78667236D01*
X168541979Y-78667236D02*
X168494360Y-78714856D01*
X168494360Y-78714856D02*
X168399122Y-78762475D01*
X168399122Y-78762475D02*
X168018170Y-78762475D01*
X168018170Y-78762475D02*
X168018170Y-77762475D01*
X168018170Y-77762475D02*
X168351503Y-77762475D01*
X168351503Y-77762475D02*
X168446741Y-77810094D01*
X168446741Y-77810094D02*
X168494360Y-77857713D01*
X168494360Y-77857713D02*
X168541979Y-77952951D01*
X168541979Y-77952951D02*
X168541979Y-78048189D01*
X168541979Y-78048189D02*
X168494360Y-78143427D01*
X168494360Y-78143427D02*
X168446741Y-78191046D01*
X168446741Y-78191046D02*
X168351503Y-78238665D01*
X168351503Y-78238665D02*
X168018170Y-78238665D01*
X169161027Y-78762475D02*
X169065789Y-78714856D01*
X169065789Y-78714856D02*
X169018170Y-78667236D01*
X169018170Y-78667236D02*
X168970551Y-78571998D01*
X168970551Y-78571998D02*
X168970551Y-78286284D01*
X168970551Y-78286284D02*
X169018170Y-78191046D01*
X169018170Y-78191046D02*
X169065789Y-78143427D01*
X169065789Y-78143427D02*
X169161027Y-78095808D01*
X169161027Y-78095808D02*
X169303884Y-78095808D01*
X169303884Y-78095808D02*
X169399122Y-78143427D01*
X169399122Y-78143427D02*
X169446741Y-78191046D01*
X169446741Y-78191046D02*
X169494360Y-78286284D01*
X169494360Y-78286284D02*
X169494360Y-78571998D01*
X169494360Y-78571998D02*
X169446741Y-78667236D01*
X169446741Y-78667236D02*
X169399122Y-78714856D01*
X169399122Y-78714856D02*
X169303884Y-78762475D01*
X169303884Y-78762475D02*
X169161027Y-78762475D01*
X169827694Y-78762475D02*
X170351503Y-78095808D01*
X169827694Y-78095808D02*
X170351503Y-78762475D01*
X171351504Y-77762475D02*
X171684837Y-78762475D01*
X171684837Y-78762475D02*
X172018170Y-77762475D01*
X172303885Y-77857713D02*
X172351504Y-77810094D01*
X172351504Y-77810094D02*
X172446742Y-77762475D01*
X172446742Y-77762475D02*
X172684837Y-77762475D01*
X172684837Y-77762475D02*
X172780075Y-77810094D01*
X172780075Y-77810094D02*
X172827694Y-77857713D01*
X172827694Y-77857713D02*
X172875313Y-77952951D01*
X172875313Y-77952951D02*
X172875313Y-78048189D01*
X172875313Y-78048189D02*
X172827694Y-78191046D01*
X172827694Y-78191046D02*
X172256266Y-78762475D01*
X172256266Y-78762475D02*
X172875313Y-78762475D01*
X173303885Y-78667236D02*
X173351504Y-78714856D01*
X173351504Y-78714856D02*
X173303885Y-78762475D01*
X173303885Y-78762475D02*
X173256266Y-78714856D01*
X173256266Y-78714856D02*
X173303885Y-78667236D01*
X173303885Y-78667236D02*
X173303885Y-78762475D01*
X173970551Y-77762475D02*
X174065789Y-77762475D01*
X174065789Y-77762475D02*
X174161027Y-77810094D01*
X174161027Y-77810094D02*
X174208646Y-77857713D01*
X174208646Y-77857713D02*
X174256265Y-77952951D01*
X174256265Y-77952951D02*
X174303884Y-78143427D01*
X174303884Y-78143427D02*
X174303884Y-78381522D01*
X174303884Y-78381522D02*
X174256265Y-78571998D01*
X174256265Y-78571998D02*
X174208646Y-78667236D01*
X174208646Y-78667236D02*
X174161027Y-78714856D01*
X174161027Y-78714856D02*
X174065789Y-78762475D01*
X174065789Y-78762475D02*
X173970551Y-78762475D01*
X173970551Y-78762475D02*
X173875313Y-78714856D01*
X173875313Y-78714856D02*
X173827694Y-78667236D01*
X173827694Y-78667236D02*
X173780075Y-78571998D01*
X173780075Y-78571998D02*
X173732456Y-78381522D01*
X173732456Y-78381522D02*
X173732456Y-78143427D01*
X173732456Y-78143427D02*
X173780075Y-77952951D01*
X173780075Y-77952951D02*
X173827694Y-77857713D01*
X173827694Y-77857713D02*
X173875313Y-77810094D01*
X173875313Y-77810094D02*
X173970551Y-77762475D01*
X158303884Y-80372419D02*
X158303884Y-79372419D01*
X158303884Y-79372419D02*
X158637217Y-80086704D01*
X158637217Y-80086704D02*
X158970550Y-79372419D01*
X158970550Y-79372419D02*
X158970550Y-80372419D01*
X159446741Y-80372419D02*
X159446741Y-79705752D01*
X159446741Y-79372419D02*
X159399122Y-79420038D01*
X159399122Y-79420038D02*
X159446741Y-79467657D01*
X159446741Y-79467657D02*
X159494360Y-79420038D01*
X159494360Y-79420038D02*
X159446741Y-79372419D01*
X159446741Y-79372419D02*
X159446741Y-79467657D01*
X159922931Y-80372419D02*
X159922931Y-79705752D01*
X159922931Y-79896228D02*
X159970550Y-79800990D01*
X159970550Y-79800990D02*
X160018169Y-79753371D01*
X160018169Y-79753371D02*
X160113407Y-79705752D01*
X160113407Y-79705752D02*
X160208645Y-79705752D01*
X160541979Y-80372419D02*
X160541979Y-79372419D01*
X160637217Y-79991466D02*
X160922931Y-80372419D01*
X160922931Y-79705752D02*
X160541979Y-80086704D01*
X161494360Y-80372419D02*
X161399122Y-80324800D01*
X161399122Y-80324800D02*
X161351503Y-80277180D01*
X161351503Y-80277180D02*
X161303884Y-80181942D01*
X161303884Y-80181942D02*
X161303884Y-79896228D01*
X161303884Y-79896228D02*
X161351503Y-79800990D01*
X161351503Y-79800990D02*
X161399122Y-79753371D01*
X161399122Y-79753371D02*
X161494360Y-79705752D01*
X161494360Y-79705752D02*
X161637217Y-79705752D01*
X161637217Y-79705752D02*
X161732455Y-79753371D01*
X161732455Y-79753371D02*
X161780074Y-79800990D01*
X161780074Y-79800990D02*
X161827693Y-79896228D01*
X161827693Y-79896228D02*
X161827693Y-80181942D01*
X161827693Y-80181942D02*
X161780074Y-80277180D01*
X161780074Y-80277180D02*
X161732455Y-80324800D01*
X161732455Y-80324800D02*
X161637217Y-80372419D01*
X161637217Y-80372419D02*
X161494360Y-80372419D01*
X162970551Y-80324800D02*
X163113408Y-80372419D01*
X163113408Y-80372419D02*
X163351503Y-80372419D01*
X163351503Y-80372419D02*
X163446741Y-80324800D01*
X163446741Y-80324800D02*
X163494360Y-80277180D01*
X163494360Y-80277180D02*
X163541979Y-80181942D01*
X163541979Y-80181942D02*
X163541979Y-80086704D01*
X163541979Y-80086704D02*
X163494360Y-79991466D01*
X163494360Y-79991466D02*
X163446741Y-79943847D01*
X163446741Y-79943847D02*
X163351503Y-79896228D01*
X163351503Y-79896228D02*
X163161027Y-79848609D01*
X163161027Y-79848609D02*
X163065789Y-79800990D01*
X163065789Y-79800990D02*
X163018170Y-79753371D01*
X163018170Y-79753371D02*
X162970551Y-79658133D01*
X162970551Y-79658133D02*
X162970551Y-79562895D01*
X162970551Y-79562895D02*
X163018170Y-79467657D01*
X163018170Y-79467657D02*
X163065789Y-79420038D01*
X163065789Y-79420038D02*
X163161027Y-79372419D01*
X163161027Y-79372419D02*
X163399122Y-79372419D01*
X163399122Y-79372419D02*
X163541979Y-79420038D01*
X164351503Y-80324800D02*
X164256265Y-80372419D01*
X164256265Y-80372419D02*
X164065789Y-80372419D01*
X164065789Y-80372419D02*
X163970551Y-80324800D01*
X163970551Y-80324800D02*
X163922932Y-80229561D01*
X163922932Y-80229561D02*
X163922932Y-79848609D01*
X163922932Y-79848609D02*
X163970551Y-79753371D01*
X163970551Y-79753371D02*
X164065789Y-79705752D01*
X164065789Y-79705752D02*
X164256265Y-79705752D01*
X164256265Y-79705752D02*
X164351503Y-79753371D01*
X164351503Y-79753371D02*
X164399122Y-79848609D01*
X164399122Y-79848609D02*
X164399122Y-79943847D01*
X164399122Y-79943847D02*
X163922932Y-80039085D01*
X164827694Y-80372419D02*
X164827694Y-79705752D01*
X164827694Y-79896228D02*
X164875313Y-79800990D01*
X164875313Y-79800990D02*
X164922932Y-79753371D01*
X164922932Y-79753371D02*
X165018170Y-79705752D01*
X165018170Y-79705752D02*
X165113408Y-79705752D01*
X165303885Y-79705752D02*
X165684837Y-79705752D01*
X165446742Y-79372419D02*
X165446742Y-80229561D01*
X165446742Y-80229561D02*
X165494361Y-80324800D01*
X165494361Y-80324800D02*
X165589599Y-80372419D01*
X165589599Y-80372419D02*
X165684837Y-80372419D01*
X166018171Y-80372419D02*
X166018171Y-79705752D01*
X166018171Y-79372419D02*
X165970552Y-79420038D01*
X165970552Y-79420038D02*
X166018171Y-79467657D01*
X166018171Y-79467657D02*
X166065790Y-79420038D01*
X166065790Y-79420038D02*
X166018171Y-79372419D01*
X166018171Y-79372419D02*
X166018171Y-79467657D01*
X166922932Y-80324800D02*
X166827694Y-80372419D01*
X166827694Y-80372419D02*
X166637218Y-80372419D01*
X166637218Y-80372419D02*
X166541980Y-80324800D01*
X166541980Y-80324800D02*
X166494361Y-80277180D01*
X166494361Y-80277180D02*
X166446742Y-80181942D01*
X166446742Y-80181942D02*
X166446742Y-79896228D01*
X166446742Y-79896228D02*
X166494361Y-79800990D01*
X166494361Y-79800990D02*
X166541980Y-79753371D01*
X166541980Y-79753371D02*
X166637218Y-79705752D01*
X166637218Y-79705752D02*
X166827694Y-79705752D01*
X166827694Y-79705752D02*
X166922932Y-79753371D01*
X167970552Y-79705752D02*
X168351504Y-79705752D01*
X168113409Y-80372419D02*
X168113409Y-79515276D01*
X168113409Y-79515276D02*
X168161028Y-79420038D01*
X168161028Y-79420038D02*
X168256266Y-79372419D01*
X168256266Y-79372419D02*
X168351504Y-79372419D01*
X169113409Y-79705752D02*
X169113409Y-80372419D01*
X168684838Y-79705752D02*
X168684838Y-80229561D01*
X168684838Y-80229561D02*
X168732457Y-80324800D01*
X168732457Y-80324800D02*
X168827695Y-80372419D01*
X168827695Y-80372419D02*
X168970552Y-80372419D01*
X168970552Y-80372419D02*
X169065790Y-80324800D01*
X169065790Y-80324800D02*
X169113409Y-80277180D01*
X168732457Y-79372419D02*
X168780076Y-79420038D01*
X168780076Y-79420038D02*
X168732457Y-79467657D01*
X168732457Y-79467657D02*
X168684838Y-79420038D01*
X168684838Y-79420038D02*
X168732457Y-79372419D01*
X168732457Y-79372419D02*
X168732457Y-79467657D01*
X169113409Y-79372419D02*
X169161028Y-79420038D01*
X169161028Y-79420038D02*
X169113409Y-79467657D01*
X169113409Y-79467657D02*
X169065790Y-79420038D01*
X169065790Y-79420038D02*
X169113409Y-79372419D01*
X169113409Y-79372419D02*
X169113409Y-79467657D01*
X169589600Y-80372419D02*
X169589600Y-79705752D01*
X169589600Y-79896228D02*
X169637219Y-79800990D01*
X169637219Y-79800990D02*
X169684838Y-79753371D01*
X169684838Y-79753371D02*
X169780076Y-79705752D01*
X169780076Y-79705752D02*
X169875314Y-79705752D01*
X171256267Y-79372419D02*
X171256267Y-80086704D01*
X171256267Y-80086704D02*
X171208648Y-80229561D01*
X171208648Y-80229561D02*
X171113410Y-80324800D01*
X171113410Y-80324800D02*
X170970553Y-80372419D01*
X170970553Y-80372419D02*
X170875315Y-80372419D01*
X172161029Y-80372419D02*
X172161029Y-79848609D01*
X172161029Y-79848609D02*
X172113410Y-79753371D01*
X172113410Y-79753371D02*
X172018172Y-79705752D01*
X172018172Y-79705752D02*
X171827696Y-79705752D01*
X171827696Y-79705752D02*
X171732458Y-79753371D01*
X172161029Y-80324800D02*
X172065791Y-80372419D01*
X172065791Y-80372419D02*
X171827696Y-80372419D01*
X171827696Y-80372419D02*
X171732458Y-80324800D01*
X171732458Y-80324800D02*
X171684839Y-80229561D01*
X171684839Y-80229561D02*
X171684839Y-80134323D01*
X171684839Y-80134323D02*
X171732458Y-80039085D01*
X171732458Y-80039085D02*
X171827696Y-79991466D01*
X171827696Y-79991466D02*
X172065791Y-79991466D01*
X172065791Y-79991466D02*
X172161029Y-79943847D01*
X172637220Y-80372419D02*
X172637220Y-79705752D01*
X172637220Y-79896228D02*
X172684839Y-79800990D01*
X172684839Y-79800990D02*
X172732458Y-79753371D01*
X172732458Y-79753371D02*
X172827696Y-79705752D01*
X172827696Y-79705752D02*
X172922934Y-79705752D01*
X173399125Y-80372419D02*
X173303887Y-80324800D01*
X173303887Y-80324800D02*
X173256268Y-80277180D01*
X173256268Y-80277180D02*
X173208649Y-80181942D01*
X173208649Y-80181942D02*
X173208649Y-79896228D01*
X173208649Y-79896228D02*
X173256268Y-79800990D01*
X173256268Y-79800990D02*
X173303887Y-79753371D01*
X173303887Y-79753371D02*
X173399125Y-79705752D01*
X173399125Y-79705752D02*
X173541982Y-79705752D01*
X173541982Y-79705752D02*
X173637220Y-79753371D01*
X173637220Y-79753371D02*
X173684839Y-79800990D01*
X173684839Y-79800990D02*
X173732458Y-79896228D01*
X173732458Y-79896228D02*
X173732458Y-80181942D01*
X173732458Y-80181942D02*
X173684839Y-80277180D01*
X173684839Y-80277180D02*
X173637220Y-80324800D01*
X173637220Y-80324800D02*
X173541982Y-80372419D01*
X173541982Y-80372419D02*
X173399125Y-80372419D01*
X175351506Y-79705752D02*
X175351506Y-80372419D01*
X174922935Y-79705752D02*
X174922935Y-80229561D01*
X174922935Y-80229561D02*
X174970554Y-80324800D01*
X174970554Y-80324800D02*
X175065792Y-80372419D01*
X175065792Y-80372419D02*
X175208649Y-80372419D01*
X175208649Y-80372419D02*
X175303887Y-80324800D01*
X175303887Y-80324800D02*
X175351506Y-80277180D01*
X175827697Y-79705752D02*
X175827697Y-80372419D01*
X175827697Y-79800990D02*
X175875316Y-79753371D01*
X175875316Y-79753371D02*
X175970554Y-79705752D01*
X175970554Y-79705752D02*
X176113411Y-79705752D01*
X176113411Y-79705752D02*
X176208649Y-79753371D01*
X176208649Y-79753371D02*
X176256268Y-79848609D01*
X176256268Y-79848609D02*
X176256268Y-80372419D01*
X177161030Y-80372419D02*
X177161030Y-79372419D01*
X177161030Y-80324800D02*
X177065792Y-80372419D01*
X177065792Y-80372419D02*
X176875316Y-80372419D01*
X176875316Y-80372419D02*
X176780078Y-80324800D01*
X176780078Y-80324800D02*
X176732459Y-80277180D01*
X176732459Y-80277180D02*
X176684840Y-80181942D01*
X176684840Y-80181942D02*
X176684840Y-79896228D01*
X176684840Y-79896228D02*
X176732459Y-79800990D01*
X176732459Y-79800990D02*
X176780078Y-79753371D01*
X176780078Y-79753371D02*
X176875316Y-79705752D01*
X176875316Y-79705752D02*
X177065792Y-79705752D01*
X177065792Y-79705752D02*
X177161030Y-79753371D01*
X178399126Y-80372419D02*
X178399126Y-79372419D01*
X178399126Y-79372419D02*
X178732459Y-80086704D01*
X178732459Y-80086704D02*
X179065792Y-79372419D01*
X179065792Y-79372419D02*
X179065792Y-80372419D01*
X179541983Y-80372419D02*
X179541983Y-79705752D01*
X179541983Y-79372419D02*
X179494364Y-79420038D01*
X179494364Y-79420038D02*
X179541983Y-79467657D01*
X179541983Y-79467657D02*
X179589602Y-79420038D01*
X179589602Y-79420038D02*
X179541983Y-79372419D01*
X179541983Y-79372419D02*
X179541983Y-79467657D01*
X180018173Y-80372419D02*
X180018173Y-79705752D01*
X180018173Y-79896228D02*
X180065792Y-79800990D01*
X180065792Y-79800990D02*
X180113411Y-79753371D01*
X180113411Y-79753371D02*
X180208649Y-79705752D01*
X180208649Y-79705752D02*
X180303887Y-79705752D01*
X181065792Y-80372419D02*
X181065792Y-79848609D01*
X181065792Y-79848609D02*
X181018173Y-79753371D01*
X181018173Y-79753371D02*
X180922935Y-79705752D01*
X180922935Y-79705752D02*
X180732459Y-79705752D01*
X180732459Y-79705752D02*
X180637221Y-79753371D01*
X181065792Y-80324800D02*
X180970554Y-80372419D01*
X180970554Y-80372419D02*
X180732459Y-80372419D01*
X180732459Y-80372419D02*
X180637221Y-80324800D01*
X180637221Y-80324800D02*
X180589602Y-80229561D01*
X180589602Y-80229561D02*
X180589602Y-80134323D01*
X180589602Y-80134323D02*
X180637221Y-80039085D01*
X180637221Y-80039085D02*
X180732459Y-79991466D01*
X180732459Y-79991466D02*
X180970554Y-79991466D01*
X180970554Y-79991466D02*
X181065792Y-79943847D01*
X104066895Y-35466591D02*
X103685942Y-35733258D01*
X104066895Y-35923734D02*
X103266895Y-35923734D01*
X103266895Y-35923734D02*
X103266895Y-35618972D01*
X103266895Y-35618972D02*
X103304990Y-35542782D01*
X103304990Y-35542782D02*
X103343085Y-35504687D01*
X103343085Y-35504687D02*
X103419276Y-35466591D01*
X103419276Y-35466591D02*
X103533561Y-35466591D01*
X103533561Y-35466591D02*
X103609752Y-35504687D01*
X103609752Y-35504687D02*
X103647847Y-35542782D01*
X103647847Y-35542782D02*
X103685942Y-35618972D01*
X103685942Y-35618972D02*
X103685942Y-35923734D01*
X104028800Y-35161830D02*
X104066895Y-35047544D01*
X104066895Y-35047544D02*
X104066895Y-34857068D01*
X104066895Y-34857068D02*
X104028800Y-34780877D01*
X104028800Y-34780877D02*
X103990704Y-34742782D01*
X103990704Y-34742782D02*
X103914514Y-34704687D01*
X103914514Y-34704687D02*
X103838323Y-34704687D01*
X103838323Y-34704687D02*
X103762133Y-34742782D01*
X103762133Y-34742782D02*
X103724038Y-34780877D01*
X103724038Y-34780877D02*
X103685942Y-34857068D01*
X103685942Y-34857068D02*
X103647847Y-35009449D01*
X103647847Y-35009449D02*
X103609752Y-35085639D01*
X103609752Y-35085639D02*
X103571657Y-35123734D01*
X103571657Y-35123734D02*
X103495466Y-35161830D01*
X103495466Y-35161830D02*
X103419276Y-35161830D01*
X103419276Y-35161830D02*
X103343085Y-35123734D01*
X103343085Y-35123734D02*
X103304990Y-35085639D01*
X103304990Y-35085639D02*
X103266895Y-35009449D01*
X103266895Y-35009449D02*
X103266895Y-34818972D01*
X103266895Y-34818972D02*
X103304990Y-34704687D01*
X103266895Y-34476115D02*
X103266895Y-34018972D01*
X104066895Y-34247544D02*
X103266895Y-34247544D01*
X127432580Y-57747619D02*
X128432580Y-57747619D01*
X128432580Y-57747619D02*
X128432580Y-57985714D01*
X128432580Y-57985714D02*
X128384961Y-58128571D01*
X128384961Y-58128571D02*
X128289723Y-58223809D01*
X128289723Y-58223809D02*
X128194485Y-58271428D01*
X128194485Y-58271428D02*
X128004009Y-58319047D01*
X128004009Y-58319047D02*
X127861152Y-58319047D01*
X127861152Y-58319047D02*
X127670676Y-58271428D01*
X127670676Y-58271428D02*
X127575438Y-58223809D01*
X127575438Y-58223809D02*
X127480200Y-58128571D01*
X127480200Y-58128571D02*
X127432580Y-57985714D01*
X127432580Y-57985714D02*
X127432580Y-57747619D01*
X128432580Y-58652381D02*
X128432580Y-59271428D01*
X128432580Y-59271428D02*
X128051628Y-58938095D01*
X128051628Y-58938095D02*
X128051628Y-59080952D01*
X128051628Y-59080952D02*
X128004009Y-59176190D01*
X128004009Y-59176190D02*
X127956390Y-59223809D01*
X127956390Y-59223809D02*
X127861152Y-59271428D01*
X127861152Y-59271428D02*
X127623057Y-59271428D01*
X127623057Y-59271428D02*
X127527819Y-59223809D01*
X127527819Y-59223809D02*
X127480200Y-59176190D01*
X127480200Y-59176190D02*
X127432580Y-59080952D01*
X127432580Y-59080952D02*
X127432580Y-58795238D01*
X127432580Y-58795238D02*
X127480200Y-58700000D01*
X127480200Y-58700000D02*
X127527819Y-58652381D01*
X128337342Y-59652381D02*
X128384961Y-59700000D01*
X128384961Y-59700000D02*
X128432580Y-59795238D01*
X128432580Y-59795238D02*
X128432580Y-60033333D01*
X128432580Y-60033333D02*
X128384961Y-60128571D01*
X128384961Y-60128571D02*
X128337342Y-60176190D01*
X128337342Y-60176190D02*
X128242104Y-60223809D01*
X128242104Y-60223809D02*
X128146866Y-60223809D01*
X128146866Y-60223809D02*
X128004009Y-60176190D01*
X128004009Y-60176190D02*
X127432580Y-59604762D01*
X127432580Y-59604762D02*
X127432580Y-60223809D01*
X127432580Y-60652381D02*
X128432580Y-60652381D01*
X128432580Y-60652381D02*
X128432580Y-61033333D01*
X128432580Y-61033333D02*
X128384961Y-61128571D01*
X128384961Y-61128571D02*
X128337342Y-61176190D01*
X128337342Y-61176190D02*
X128242104Y-61223809D01*
X128242104Y-61223809D02*
X128099247Y-61223809D01*
X128099247Y-61223809D02*
X128004009Y-61176190D01*
X128004009Y-61176190D02*
X127956390Y-61128571D01*
X127956390Y-61128571D02*
X127908771Y-61033333D01*
X127908771Y-61033333D02*
X127908771Y-60652381D01*
X127432580Y-61652381D02*
X128099247Y-61652381D01*
X127908771Y-61652381D02*
X128004009Y-61700000D01*
X128004009Y-61700000D02*
X128051628Y-61747619D01*
X128051628Y-61747619D02*
X128099247Y-61842857D01*
X128099247Y-61842857D02*
X128099247Y-61938095D01*
X127432580Y-62414286D02*
X127480200Y-62319048D01*
X127480200Y-62319048D02*
X127527819Y-62271429D01*
X127527819Y-62271429D02*
X127623057Y-62223810D01*
X127623057Y-62223810D02*
X127908771Y-62223810D01*
X127908771Y-62223810D02*
X128004009Y-62271429D01*
X128004009Y-62271429D02*
X128051628Y-62319048D01*
X128051628Y-62319048D02*
X128099247Y-62414286D01*
X128099247Y-62414286D02*
X128099247Y-62557143D01*
X128099247Y-62557143D02*
X128051628Y-62652381D01*
X128051628Y-62652381D02*
X128004009Y-62700000D01*
X128004009Y-62700000D02*
X127908771Y-62747619D01*
X127908771Y-62747619D02*
X127623057Y-62747619D01*
X127623057Y-62747619D02*
X127527819Y-62700000D01*
X127527819Y-62700000D02*
X127480200Y-62652381D01*
X127480200Y-62652381D02*
X127432580Y-62557143D01*
X127432580Y-62557143D02*
X127432580Y-62414286D01*
X127432580Y-63700000D02*
X127432580Y-63128572D01*
X127432580Y-63414286D02*
X128432580Y-63414286D01*
X128432580Y-63414286D02*
X128289723Y-63319048D01*
X128289723Y-63319048D02*
X128194485Y-63223810D01*
X128194485Y-63223810D02*
X128146866Y-63128572D01*
D11*
X129616133Y-60368095D02*
X129663752Y-60415714D01*
X129663752Y-60415714D02*
X129711371Y-60510952D01*
X129711371Y-60510952D02*
X129616133Y-60701428D01*
X129616133Y-60701428D02*
X129663752Y-60796666D01*
X129663752Y-60796666D02*
X129711371Y-60844285D01*
D10*
X139557580Y-61647217D02*
X140033771Y-61313884D01*
X139557580Y-61075789D02*
X140557580Y-61075789D01*
X140557580Y-61075789D02*
X140557580Y-61456741D01*
X140557580Y-61456741D02*
X140509961Y-61551979D01*
X140509961Y-61551979D02*
X140462342Y-61599598D01*
X140462342Y-61599598D02*
X140367104Y-61647217D01*
X140367104Y-61647217D02*
X140224247Y-61647217D01*
X140224247Y-61647217D02*
X140129009Y-61599598D01*
X140129009Y-61599598D02*
X140081390Y-61551979D01*
X140081390Y-61551979D02*
X140033771Y-61456741D01*
X140033771Y-61456741D02*
X140033771Y-61075789D01*
X140557580Y-61980551D02*
X139557580Y-62647217D01*
X140557580Y-62647217D02*
X139557580Y-61980551D01*
X139557580Y-63028170D02*
X140557580Y-63028170D01*
X140557580Y-63028170D02*
X140557580Y-63266265D01*
X140557580Y-63266265D02*
X140509961Y-63409122D01*
X140509961Y-63409122D02*
X140414723Y-63504360D01*
X140414723Y-63504360D02*
X140319485Y-63551979D01*
X140319485Y-63551979D02*
X140129009Y-63599598D01*
X140129009Y-63599598D02*
X139986152Y-63599598D01*
X139986152Y-63599598D02*
X139795676Y-63551979D01*
X139795676Y-63551979D02*
X139700438Y-63504360D01*
X139700438Y-63504360D02*
X139605200Y-63409122D01*
X139605200Y-63409122D02*
X139557580Y-63266265D01*
X139557580Y-63266265D02*
X139557580Y-63028170D01*
X140557580Y-64218646D02*
X140557580Y-64313884D01*
X140557580Y-64313884D02*
X140509961Y-64409122D01*
X140509961Y-64409122D02*
X140462342Y-64456741D01*
X140462342Y-64456741D02*
X140367104Y-64504360D01*
X140367104Y-64504360D02*
X140176628Y-64551979D01*
X140176628Y-64551979D02*
X139938533Y-64551979D01*
X139938533Y-64551979D02*
X139748057Y-64504360D01*
X139748057Y-64504360D02*
X139652819Y-64456741D01*
X139652819Y-64456741D02*
X139605200Y-64409122D01*
X139605200Y-64409122D02*
X139557580Y-64313884D01*
X139557580Y-64313884D02*
X139557580Y-64218646D01*
X139557580Y-64218646D02*
X139605200Y-64123408D01*
X139605200Y-64123408D02*
X139652819Y-64075789D01*
X139652819Y-64075789D02*
X139748057Y-64028170D01*
X139748057Y-64028170D02*
X139938533Y-63980551D01*
X139938533Y-63980551D02*
X140176628Y-63980551D01*
X140176628Y-63980551D02*
X140367104Y-64028170D01*
X140367104Y-64028170D02*
X140462342Y-64075789D01*
X140462342Y-64075789D02*
X140509961Y-64123408D01*
X140509961Y-64123408D02*
X140557580Y-64218646D01*
X139557580Y-65504360D02*
X139557580Y-64932932D01*
X139557580Y-65218646D02*
X140557580Y-65218646D01*
X140557580Y-65218646D02*
X140414723Y-65123408D01*
X140414723Y-65123408D02*
X140319485Y-65028170D01*
X140319485Y-65028170D02*
X140271866Y-64932932D01*
X140605200Y-66647217D02*
X139319485Y-65790075D01*
X140509961Y-67504360D02*
X140557580Y-67409122D01*
X140557580Y-67409122D02*
X140557580Y-67266265D01*
X140557580Y-67266265D02*
X140509961Y-67123408D01*
X140509961Y-67123408D02*
X140414723Y-67028170D01*
X140414723Y-67028170D02*
X140319485Y-66980551D01*
X140319485Y-66980551D02*
X140129009Y-66932932D01*
X140129009Y-66932932D02*
X139986152Y-66932932D01*
X139986152Y-66932932D02*
X139795676Y-66980551D01*
X139795676Y-66980551D02*
X139700438Y-67028170D01*
X139700438Y-67028170D02*
X139605200Y-67123408D01*
X139605200Y-67123408D02*
X139557580Y-67266265D01*
X139557580Y-67266265D02*
X139557580Y-67361503D01*
X139557580Y-67361503D02*
X139605200Y-67504360D01*
X139605200Y-67504360D02*
X139652819Y-67551979D01*
X139652819Y-67551979D02*
X139986152Y-67551979D01*
X139986152Y-67551979D02*
X139986152Y-67361503D01*
X139557580Y-67980551D02*
X140557580Y-67980551D01*
X140557580Y-67980551D02*
X140557580Y-68361503D01*
X140557580Y-68361503D02*
X140509961Y-68456741D01*
X140509961Y-68456741D02*
X140462342Y-68504360D01*
X140462342Y-68504360D02*
X140367104Y-68551979D01*
X140367104Y-68551979D02*
X140224247Y-68551979D01*
X140224247Y-68551979D02*
X140129009Y-68504360D01*
X140129009Y-68504360D02*
X140081390Y-68456741D01*
X140081390Y-68456741D02*
X140033771Y-68361503D01*
X140033771Y-68361503D02*
X140033771Y-67980551D01*
X139557580Y-68980551D02*
X140557580Y-68980551D01*
X140557580Y-69647217D02*
X140557580Y-69837693D01*
X140557580Y-69837693D02*
X140509961Y-69932931D01*
X140509961Y-69932931D02*
X140414723Y-70028169D01*
X140414723Y-70028169D02*
X140224247Y-70075788D01*
X140224247Y-70075788D02*
X139890914Y-70075788D01*
X139890914Y-70075788D02*
X139700438Y-70028169D01*
X139700438Y-70028169D02*
X139605200Y-69932931D01*
X139605200Y-69932931D02*
X139557580Y-69837693D01*
X139557580Y-69837693D02*
X139557580Y-69647217D01*
X139557580Y-69647217D02*
X139605200Y-69551979D01*
X139605200Y-69551979D02*
X139700438Y-69456741D01*
X139700438Y-69456741D02*
X139890914Y-69409122D01*
X139890914Y-69409122D02*
X140224247Y-69409122D01*
X140224247Y-69409122D02*
X140414723Y-69456741D01*
X140414723Y-69456741D02*
X140509961Y-69551979D01*
X140509961Y-69551979D02*
X140557580Y-69647217D01*
X140557580Y-70694836D02*
X140557580Y-70790074D01*
X140557580Y-70790074D02*
X140509961Y-70885312D01*
X140509961Y-70885312D02*
X140462342Y-70932931D01*
X140462342Y-70932931D02*
X140367104Y-70980550D01*
X140367104Y-70980550D02*
X140176628Y-71028169D01*
X140176628Y-71028169D02*
X139938533Y-71028169D01*
X139938533Y-71028169D02*
X139748057Y-70980550D01*
X139748057Y-70980550D02*
X139652819Y-70932931D01*
X139652819Y-70932931D02*
X139605200Y-70885312D01*
X139605200Y-70885312D02*
X139557580Y-70790074D01*
X139557580Y-70790074D02*
X139557580Y-70694836D01*
X139557580Y-70694836D02*
X139605200Y-70599598D01*
X139605200Y-70599598D02*
X139652819Y-70551979D01*
X139652819Y-70551979D02*
X139748057Y-70504360D01*
X139748057Y-70504360D02*
X139938533Y-70456741D01*
X139938533Y-70456741D02*
X140176628Y-70456741D01*
X140176628Y-70456741D02*
X140367104Y-70504360D01*
X140367104Y-70504360D02*
X140462342Y-70551979D01*
X140462342Y-70551979D02*
X140509961Y-70599598D01*
X140509961Y-70599598D02*
X140557580Y-70694836D01*
X140557580Y-71361503D02*
X140557580Y-71980550D01*
X140557580Y-71980550D02*
X140176628Y-71647217D01*
X140176628Y-71647217D02*
X140176628Y-71790074D01*
X140176628Y-71790074D02*
X140129009Y-71885312D01*
X140129009Y-71885312D02*
X140081390Y-71932931D01*
X140081390Y-71932931D02*
X139986152Y-71980550D01*
X139986152Y-71980550D02*
X139748057Y-71980550D01*
X139748057Y-71980550D02*
X139652819Y-71932931D01*
X139652819Y-71932931D02*
X139605200Y-71885312D01*
X139605200Y-71885312D02*
X139557580Y-71790074D01*
X139557580Y-71790074D02*
X139557580Y-71504360D01*
X139557580Y-71504360D02*
X139605200Y-71409122D01*
X139605200Y-71409122D02*
X139652819Y-71361503D01*
X143217580Y-49631027D02*
X142217580Y-49964360D01*
X142217580Y-49964360D02*
X143217580Y-50297693D01*
X142217580Y-50631027D02*
X143217580Y-50631027D01*
X143217580Y-50631027D02*
X142217580Y-51202455D01*
X142217580Y-51202455D02*
X143217580Y-51202455D01*
X143265200Y-52392931D02*
X141979485Y-51535789D01*
X143169961Y-53250074D02*
X143217580Y-53154836D01*
X143217580Y-53154836D02*
X143217580Y-53011979D01*
X143217580Y-53011979D02*
X143169961Y-52869122D01*
X143169961Y-52869122D02*
X143074723Y-52773884D01*
X143074723Y-52773884D02*
X142979485Y-52726265D01*
X142979485Y-52726265D02*
X142789009Y-52678646D01*
X142789009Y-52678646D02*
X142646152Y-52678646D01*
X142646152Y-52678646D02*
X142455676Y-52726265D01*
X142455676Y-52726265D02*
X142360438Y-52773884D01*
X142360438Y-52773884D02*
X142265200Y-52869122D01*
X142265200Y-52869122D02*
X142217580Y-53011979D01*
X142217580Y-53011979D02*
X142217580Y-53107217D01*
X142217580Y-53107217D02*
X142265200Y-53250074D01*
X142265200Y-53250074D02*
X142312819Y-53297693D01*
X142312819Y-53297693D02*
X142646152Y-53297693D01*
X142646152Y-53297693D02*
X142646152Y-53107217D01*
X142217580Y-53726265D02*
X143217580Y-53726265D01*
X143217580Y-53726265D02*
X143217580Y-54107217D01*
X143217580Y-54107217D02*
X143169961Y-54202455D01*
X143169961Y-54202455D02*
X143122342Y-54250074D01*
X143122342Y-54250074D02*
X143027104Y-54297693D01*
X143027104Y-54297693D02*
X142884247Y-54297693D01*
X142884247Y-54297693D02*
X142789009Y-54250074D01*
X142789009Y-54250074D02*
X142741390Y-54202455D01*
X142741390Y-54202455D02*
X142693771Y-54107217D01*
X142693771Y-54107217D02*
X142693771Y-53726265D01*
X142217580Y-54726265D02*
X143217580Y-54726265D01*
X143217580Y-55392931D02*
X143217580Y-55583407D01*
X143217580Y-55583407D02*
X143169961Y-55678645D01*
X143169961Y-55678645D02*
X143074723Y-55773883D01*
X143074723Y-55773883D02*
X142884247Y-55821502D01*
X142884247Y-55821502D02*
X142550914Y-55821502D01*
X142550914Y-55821502D02*
X142360438Y-55773883D01*
X142360438Y-55773883D02*
X142265200Y-55678645D01*
X142265200Y-55678645D02*
X142217580Y-55583407D01*
X142217580Y-55583407D02*
X142217580Y-55392931D01*
X142217580Y-55392931D02*
X142265200Y-55297693D01*
X142265200Y-55297693D02*
X142360438Y-55202455D01*
X142360438Y-55202455D02*
X142550914Y-55154836D01*
X142550914Y-55154836D02*
X142884247Y-55154836D01*
X142884247Y-55154836D02*
X143074723Y-55202455D01*
X143074723Y-55202455D02*
X143169961Y-55297693D01*
X143169961Y-55297693D02*
X143217580Y-55392931D01*
X143217580Y-56154836D02*
X143217580Y-56773883D01*
X143217580Y-56773883D02*
X142836628Y-56440550D01*
X142836628Y-56440550D02*
X142836628Y-56583407D01*
X142836628Y-56583407D02*
X142789009Y-56678645D01*
X142789009Y-56678645D02*
X142741390Y-56726264D01*
X142741390Y-56726264D02*
X142646152Y-56773883D01*
X142646152Y-56773883D02*
X142408057Y-56773883D01*
X142408057Y-56773883D02*
X142312819Y-56726264D01*
X142312819Y-56726264D02*
X142265200Y-56678645D01*
X142265200Y-56678645D02*
X142217580Y-56583407D01*
X142217580Y-56583407D02*
X142217580Y-56297693D01*
X142217580Y-56297693D02*
X142265200Y-56202455D01*
X142265200Y-56202455D02*
X142312819Y-56154836D01*
X142217580Y-57250074D02*
X142217580Y-57440550D01*
X142217580Y-57440550D02*
X142265200Y-57535788D01*
X142265200Y-57535788D02*
X142312819Y-57583407D01*
X142312819Y-57583407D02*
X142455676Y-57678645D01*
X142455676Y-57678645D02*
X142646152Y-57726264D01*
X142646152Y-57726264D02*
X143027104Y-57726264D01*
X143027104Y-57726264D02*
X143122342Y-57678645D01*
X143122342Y-57678645D02*
X143169961Y-57631026D01*
X143169961Y-57631026D02*
X143217580Y-57535788D01*
X143217580Y-57535788D02*
X143217580Y-57345312D01*
X143217580Y-57345312D02*
X143169961Y-57250074D01*
X143169961Y-57250074D02*
X143122342Y-57202455D01*
X143122342Y-57202455D02*
X143027104Y-57154836D01*
X143027104Y-57154836D02*
X142789009Y-57154836D01*
X142789009Y-57154836D02*
X142693771Y-57202455D01*
X142693771Y-57202455D02*
X142646152Y-57250074D01*
X142646152Y-57250074D02*
X142598533Y-57345312D01*
X142598533Y-57345312D02*
X142598533Y-57535788D01*
X142598533Y-57535788D02*
X142646152Y-57631026D01*
X142646152Y-57631026D02*
X142693771Y-57678645D01*
X142693771Y-57678645D02*
X142789009Y-57726264D01*
X135399961Y-67504360D02*
X135447580Y-67409122D01*
X135447580Y-67409122D02*
X135447580Y-67266265D01*
X135447580Y-67266265D02*
X135399961Y-67123408D01*
X135399961Y-67123408D02*
X135304723Y-67028170D01*
X135304723Y-67028170D02*
X135209485Y-66980551D01*
X135209485Y-66980551D02*
X135019009Y-66932932D01*
X135019009Y-66932932D02*
X134876152Y-66932932D01*
X134876152Y-66932932D02*
X134685676Y-66980551D01*
X134685676Y-66980551D02*
X134590438Y-67028170D01*
X134590438Y-67028170D02*
X134495200Y-67123408D01*
X134495200Y-67123408D02*
X134447580Y-67266265D01*
X134447580Y-67266265D02*
X134447580Y-67361503D01*
X134447580Y-67361503D02*
X134495200Y-67504360D01*
X134495200Y-67504360D02*
X134542819Y-67551979D01*
X134542819Y-67551979D02*
X134876152Y-67551979D01*
X134876152Y-67551979D02*
X134876152Y-67361503D01*
X134447580Y-67980551D02*
X135447580Y-67980551D01*
X135447580Y-67980551D02*
X135447580Y-68361503D01*
X135447580Y-68361503D02*
X135399961Y-68456741D01*
X135399961Y-68456741D02*
X135352342Y-68504360D01*
X135352342Y-68504360D02*
X135257104Y-68551979D01*
X135257104Y-68551979D02*
X135114247Y-68551979D01*
X135114247Y-68551979D02*
X135019009Y-68504360D01*
X135019009Y-68504360D02*
X134971390Y-68456741D01*
X134971390Y-68456741D02*
X134923771Y-68361503D01*
X134923771Y-68361503D02*
X134923771Y-67980551D01*
X134447580Y-68980551D02*
X135447580Y-68980551D01*
X135447580Y-69647217D02*
X135447580Y-69837693D01*
X135447580Y-69837693D02*
X135399961Y-69932931D01*
X135399961Y-69932931D02*
X135304723Y-70028169D01*
X135304723Y-70028169D02*
X135114247Y-70075788D01*
X135114247Y-70075788D02*
X134780914Y-70075788D01*
X134780914Y-70075788D02*
X134590438Y-70028169D01*
X134590438Y-70028169D02*
X134495200Y-69932931D01*
X134495200Y-69932931D02*
X134447580Y-69837693D01*
X134447580Y-69837693D02*
X134447580Y-69647217D01*
X134447580Y-69647217D02*
X134495200Y-69551979D01*
X134495200Y-69551979D02*
X134590438Y-69456741D01*
X134590438Y-69456741D02*
X134780914Y-69409122D01*
X134780914Y-69409122D02*
X135114247Y-69409122D01*
X135114247Y-69409122D02*
X135304723Y-69456741D01*
X135304723Y-69456741D02*
X135399961Y-69551979D01*
X135399961Y-69551979D02*
X135447580Y-69647217D01*
X134447580Y-71028169D02*
X134447580Y-70456741D01*
X134447580Y-70742455D02*
X135447580Y-70742455D01*
X135447580Y-70742455D02*
X135304723Y-70647217D01*
X135304723Y-70647217D02*
X135209485Y-70551979D01*
X135209485Y-70551979D02*
X135161866Y-70456741D01*
X134447580Y-71504360D02*
X134447580Y-71694836D01*
X134447580Y-71694836D02*
X134495200Y-71790074D01*
X134495200Y-71790074D02*
X134542819Y-71837693D01*
X134542819Y-71837693D02*
X134685676Y-71932931D01*
X134685676Y-71932931D02*
X134876152Y-71980550D01*
X134876152Y-71980550D02*
X135257104Y-71980550D01*
X135257104Y-71980550D02*
X135352342Y-71932931D01*
X135352342Y-71932931D02*
X135399961Y-71885312D01*
X135399961Y-71885312D02*
X135447580Y-71790074D01*
X135447580Y-71790074D02*
X135447580Y-71599598D01*
X135447580Y-71599598D02*
X135399961Y-71504360D01*
X135399961Y-71504360D02*
X135352342Y-71456741D01*
X135352342Y-71456741D02*
X135257104Y-71409122D01*
X135257104Y-71409122D02*
X135019009Y-71409122D01*
X135019009Y-71409122D02*
X134923771Y-71456741D01*
X134923771Y-71456741D02*
X134876152Y-71504360D01*
X134876152Y-71504360D02*
X134828533Y-71599598D01*
X134828533Y-71599598D02*
X134828533Y-71790074D01*
X134828533Y-71790074D02*
X134876152Y-71885312D01*
X134876152Y-71885312D02*
X134923771Y-71932931D01*
X134923771Y-71932931D02*
X135019009Y-71980550D01*
X147447580Y-50345312D02*
X147923771Y-50011979D01*
X147447580Y-49773884D02*
X148447580Y-49773884D01*
X148447580Y-49773884D02*
X148447580Y-50154836D01*
X148447580Y-50154836D02*
X148399961Y-50250074D01*
X148399961Y-50250074D02*
X148352342Y-50297693D01*
X148352342Y-50297693D02*
X148257104Y-50345312D01*
X148257104Y-50345312D02*
X148114247Y-50345312D01*
X148114247Y-50345312D02*
X148019009Y-50297693D01*
X148019009Y-50297693D02*
X147971390Y-50250074D01*
X147971390Y-50250074D02*
X147923771Y-50154836D01*
X147923771Y-50154836D02*
X147923771Y-49773884D01*
X147495200Y-50726265D02*
X147447580Y-50869122D01*
X147447580Y-50869122D02*
X147447580Y-51107217D01*
X147447580Y-51107217D02*
X147495200Y-51202455D01*
X147495200Y-51202455D02*
X147542819Y-51250074D01*
X147542819Y-51250074D02*
X147638057Y-51297693D01*
X147638057Y-51297693D02*
X147733295Y-51297693D01*
X147733295Y-51297693D02*
X147828533Y-51250074D01*
X147828533Y-51250074D02*
X147876152Y-51202455D01*
X147876152Y-51202455D02*
X147923771Y-51107217D01*
X147923771Y-51107217D02*
X147971390Y-50916741D01*
X147971390Y-50916741D02*
X148019009Y-50821503D01*
X148019009Y-50821503D02*
X148066628Y-50773884D01*
X148066628Y-50773884D02*
X148161866Y-50726265D01*
X148161866Y-50726265D02*
X148257104Y-50726265D01*
X148257104Y-50726265D02*
X148352342Y-50773884D01*
X148352342Y-50773884D02*
X148399961Y-50821503D01*
X148399961Y-50821503D02*
X148447580Y-50916741D01*
X148447580Y-50916741D02*
X148447580Y-51154836D01*
X148447580Y-51154836D02*
X148399961Y-51297693D01*
X148447580Y-51583408D02*
X148447580Y-52154836D01*
X147447580Y-51869122D02*
X148447580Y-51869122D01*
X112767580Y-49631027D02*
X111767580Y-49964360D01*
X111767580Y-49964360D02*
X112767580Y-50297693D01*
X112291390Y-50964360D02*
X112243771Y-51107217D01*
X112243771Y-51107217D02*
X112196152Y-51154836D01*
X112196152Y-51154836D02*
X112100914Y-51202455D01*
X112100914Y-51202455D02*
X111958057Y-51202455D01*
X111958057Y-51202455D02*
X111862819Y-51154836D01*
X111862819Y-51154836D02*
X111815200Y-51107217D01*
X111815200Y-51107217D02*
X111767580Y-51011979D01*
X111767580Y-51011979D02*
X111767580Y-50631027D01*
X111767580Y-50631027D02*
X112767580Y-50631027D01*
X112767580Y-50631027D02*
X112767580Y-50964360D01*
X112767580Y-50964360D02*
X112719961Y-51059598D01*
X112719961Y-51059598D02*
X112672342Y-51107217D01*
X112672342Y-51107217D02*
X112577104Y-51154836D01*
X112577104Y-51154836D02*
X112481866Y-51154836D01*
X112481866Y-51154836D02*
X112386628Y-51107217D01*
X112386628Y-51107217D02*
X112339009Y-51059598D01*
X112339009Y-51059598D02*
X112291390Y-50964360D01*
X112291390Y-50964360D02*
X112291390Y-50631027D01*
X112053295Y-51583408D02*
X112053295Y-52059598D01*
X111767580Y-51488170D02*
X112767580Y-51821503D01*
X112767580Y-51821503D02*
X111767580Y-52154836D01*
X112767580Y-52345313D02*
X112767580Y-52916741D01*
X111767580Y-52631027D02*
X112767580Y-52631027D01*
X143257580Y-61171027D02*
X143257580Y-61742455D01*
X142257580Y-61456741D02*
X143257580Y-61456741D01*
X143257580Y-61980551D02*
X142257580Y-62647217D01*
X143257580Y-62647217D02*
X142257580Y-61980551D01*
X142257580Y-63028170D02*
X143257580Y-63028170D01*
X143257580Y-63028170D02*
X143257580Y-63266265D01*
X143257580Y-63266265D02*
X143209961Y-63409122D01*
X143209961Y-63409122D02*
X143114723Y-63504360D01*
X143114723Y-63504360D02*
X143019485Y-63551979D01*
X143019485Y-63551979D02*
X142829009Y-63599598D01*
X142829009Y-63599598D02*
X142686152Y-63599598D01*
X142686152Y-63599598D02*
X142495676Y-63551979D01*
X142495676Y-63551979D02*
X142400438Y-63504360D01*
X142400438Y-63504360D02*
X142305200Y-63409122D01*
X142305200Y-63409122D02*
X142257580Y-63266265D01*
X142257580Y-63266265D02*
X142257580Y-63028170D01*
X143257580Y-64218646D02*
X143257580Y-64313884D01*
X143257580Y-64313884D02*
X143209961Y-64409122D01*
X143209961Y-64409122D02*
X143162342Y-64456741D01*
X143162342Y-64456741D02*
X143067104Y-64504360D01*
X143067104Y-64504360D02*
X142876628Y-64551979D01*
X142876628Y-64551979D02*
X142638533Y-64551979D01*
X142638533Y-64551979D02*
X142448057Y-64504360D01*
X142448057Y-64504360D02*
X142352819Y-64456741D01*
X142352819Y-64456741D02*
X142305200Y-64409122D01*
X142305200Y-64409122D02*
X142257580Y-64313884D01*
X142257580Y-64313884D02*
X142257580Y-64218646D01*
X142257580Y-64218646D02*
X142305200Y-64123408D01*
X142305200Y-64123408D02*
X142352819Y-64075789D01*
X142352819Y-64075789D02*
X142448057Y-64028170D01*
X142448057Y-64028170D02*
X142638533Y-63980551D01*
X142638533Y-63980551D02*
X142876628Y-63980551D01*
X142876628Y-63980551D02*
X143067104Y-64028170D01*
X143067104Y-64028170D02*
X143162342Y-64075789D01*
X143162342Y-64075789D02*
X143209961Y-64123408D01*
X143209961Y-64123408D02*
X143257580Y-64218646D01*
X142257580Y-65504360D02*
X142257580Y-64932932D01*
X142257580Y-65218646D02*
X143257580Y-65218646D01*
X143257580Y-65218646D02*
X143114723Y-65123408D01*
X143114723Y-65123408D02*
X143019485Y-65028170D01*
X143019485Y-65028170D02*
X142971866Y-64932932D01*
X143305200Y-66647217D02*
X142019485Y-65790075D01*
X143209961Y-67504360D02*
X143257580Y-67409122D01*
X143257580Y-67409122D02*
X143257580Y-67266265D01*
X143257580Y-67266265D02*
X143209961Y-67123408D01*
X143209961Y-67123408D02*
X143114723Y-67028170D01*
X143114723Y-67028170D02*
X143019485Y-66980551D01*
X143019485Y-66980551D02*
X142829009Y-66932932D01*
X142829009Y-66932932D02*
X142686152Y-66932932D01*
X142686152Y-66932932D02*
X142495676Y-66980551D01*
X142495676Y-66980551D02*
X142400438Y-67028170D01*
X142400438Y-67028170D02*
X142305200Y-67123408D01*
X142305200Y-67123408D02*
X142257580Y-67266265D01*
X142257580Y-67266265D02*
X142257580Y-67361503D01*
X142257580Y-67361503D02*
X142305200Y-67504360D01*
X142305200Y-67504360D02*
X142352819Y-67551979D01*
X142352819Y-67551979D02*
X142686152Y-67551979D01*
X142686152Y-67551979D02*
X142686152Y-67361503D01*
X142257580Y-67980551D02*
X143257580Y-67980551D01*
X143257580Y-67980551D02*
X143257580Y-68361503D01*
X143257580Y-68361503D02*
X143209961Y-68456741D01*
X143209961Y-68456741D02*
X143162342Y-68504360D01*
X143162342Y-68504360D02*
X143067104Y-68551979D01*
X143067104Y-68551979D02*
X142924247Y-68551979D01*
X142924247Y-68551979D02*
X142829009Y-68504360D01*
X142829009Y-68504360D02*
X142781390Y-68456741D01*
X142781390Y-68456741D02*
X142733771Y-68361503D01*
X142733771Y-68361503D02*
X142733771Y-67980551D01*
X142257580Y-68980551D02*
X143257580Y-68980551D01*
X143257580Y-69647217D02*
X143257580Y-69837693D01*
X143257580Y-69837693D02*
X143209961Y-69932931D01*
X143209961Y-69932931D02*
X143114723Y-70028169D01*
X143114723Y-70028169D02*
X142924247Y-70075788D01*
X142924247Y-70075788D02*
X142590914Y-70075788D01*
X142590914Y-70075788D02*
X142400438Y-70028169D01*
X142400438Y-70028169D02*
X142305200Y-69932931D01*
X142305200Y-69932931D02*
X142257580Y-69837693D01*
X142257580Y-69837693D02*
X142257580Y-69647217D01*
X142257580Y-69647217D02*
X142305200Y-69551979D01*
X142305200Y-69551979D02*
X142400438Y-69456741D01*
X142400438Y-69456741D02*
X142590914Y-69409122D01*
X142590914Y-69409122D02*
X142924247Y-69409122D01*
X142924247Y-69409122D02*
X143114723Y-69456741D01*
X143114723Y-69456741D02*
X143209961Y-69551979D01*
X143209961Y-69551979D02*
X143257580Y-69647217D01*
X143257580Y-70694836D02*
X143257580Y-70790074D01*
X143257580Y-70790074D02*
X143209961Y-70885312D01*
X143209961Y-70885312D02*
X143162342Y-70932931D01*
X143162342Y-70932931D02*
X143067104Y-70980550D01*
X143067104Y-70980550D02*
X142876628Y-71028169D01*
X142876628Y-71028169D02*
X142638533Y-71028169D01*
X142638533Y-71028169D02*
X142448057Y-70980550D01*
X142448057Y-70980550D02*
X142352819Y-70932931D01*
X142352819Y-70932931D02*
X142305200Y-70885312D01*
X142305200Y-70885312D02*
X142257580Y-70790074D01*
X142257580Y-70790074D02*
X142257580Y-70694836D01*
X142257580Y-70694836D02*
X142305200Y-70599598D01*
X142305200Y-70599598D02*
X142352819Y-70551979D01*
X142352819Y-70551979D02*
X142448057Y-70504360D01*
X142448057Y-70504360D02*
X142638533Y-70456741D01*
X142638533Y-70456741D02*
X142876628Y-70456741D01*
X142876628Y-70456741D02*
X143067104Y-70504360D01*
X143067104Y-70504360D02*
X143162342Y-70551979D01*
X143162342Y-70551979D02*
X143209961Y-70599598D01*
X143209961Y-70599598D02*
X143257580Y-70694836D01*
X142257580Y-71980550D02*
X142257580Y-71409122D01*
X142257580Y-71694836D02*
X143257580Y-71694836D01*
X143257580Y-71694836D02*
X143114723Y-71599598D01*
X143114723Y-71599598D02*
X143019485Y-71504360D01*
X143019485Y-71504360D02*
X142971866Y-71409122D01*
X112679961Y-69885312D02*
X112727580Y-69790074D01*
X112727580Y-69790074D02*
X112727580Y-69647217D01*
X112727580Y-69647217D02*
X112679961Y-69504360D01*
X112679961Y-69504360D02*
X112584723Y-69409122D01*
X112584723Y-69409122D02*
X112489485Y-69361503D01*
X112489485Y-69361503D02*
X112299009Y-69313884D01*
X112299009Y-69313884D02*
X112156152Y-69313884D01*
X112156152Y-69313884D02*
X111965676Y-69361503D01*
X111965676Y-69361503D02*
X111870438Y-69409122D01*
X111870438Y-69409122D02*
X111775200Y-69504360D01*
X111775200Y-69504360D02*
X111727580Y-69647217D01*
X111727580Y-69647217D02*
X111727580Y-69742455D01*
X111727580Y-69742455D02*
X111775200Y-69885312D01*
X111775200Y-69885312D02*
X111822819Y-69932931D01*
X111822819Y-69932931D02*
X112156152Y-69932931D01*
X112156152Y-69932931D02*
X112156152Y-69742455D01*
X111727580Y-70361503D02*
X112727580Y-70361503D01*
X112727580Y-70361503D02*
X111727580Y-70932931D01*
X111727580Y-70932931D02*
X112727580Y-70932931D01*
X111727580Y-71409122D02*
X112727580Y-71409122D01*
X112727580Y-71409122D02*
X112727580Y-71647217D01*
X112727580Y-71647217D02*
X112679961Y-71790074D01*
X112679961Y-71790074D02*
X112584723Y-71885312D01*
X112584723Y-71885312D02*
X112489485Y-71932931D01*
X112489485Y-71932931D02*
X112299009Y-71980550D01*
X112299009Y-71980550D02*
X112156152Y-71980550D01*
X112156152Y-71980550D02*
X111965676Y-71932931D01*
X111965676Y-71932931D02*
X111870438Y-71885312D01*
X111870438Y-71885312D02*
X111775200Y-71790074D01*
X111775200Y-71790074D02*
X111727580Y-71647217D01*
X111727580Y-71647217D02*
X111727580Y-71409122D01*
X126917580Y-70361503D02*
X127917580Y-70361503D01*
X127917580Y-70361503D02*
X126917580Y-70932931D01*
X126917580Y-70932931D02*
X127917580Y-70932931D01*
X127012819Y-71980550D02*
X126965200Y-71932931D01*
X126965200Y-71932931D02*
X126917580Y-71790074D01*
X126917580Y-71790074D02*
X126917580Y-71694836D01*
X126917580Y-71694836D02*
X126965200Y-71551979D01*
X126965200Y-71551979D02*
X127060438Y-71456741D01*
X127060438Y-71456741D02*
X127155676Y-71409122D01*
X127155676Y-71409122D02*
X127346152Y-71361503D01*
X127346152Y-71361503D02*
X127489009Y-71361503D01*
X127489009Y-71361503D02*
X127679485Y-71409122D01*
X127679485Y-71409122D02*
X127774723Y-71456741D01*
X127774723Y-71456741D02*
X127869961Y-71551979D01*
X127869961Y-71551979D02*
X127917580Y-71694836D01*
X127917580Y-71694836D02*
X127917580Y-71790074D01*
X127917580Y-71790074D02*
X127869961Y-71932931D01*
X127869961Y-71932931D02*
X127822342Y-71980550D01*
X117719961Y-67504360D02*
X117767580Y-67409122D01*
X117767580Y-67409122D02*
X117767580Y-67266265D01*
X117767580Y-67266265D02*
X117719961Y-67123408D01*
X117719961Y-67123408D02*
X117624723Y-67028170D01*
X117624723Y-67028170D02*
X117529485Y-66980551D01*
X117529485Y-66980551D02*
X117339009Y-66932932D01*
X117339009Y-66932932D02*
X117196152Y-66932932D01*
X117196152Y-66932932D02*
X117005676Y-66980551D01*
X117005676Y-66980551D02*
X116910438Y-67028170D01*
X116910438Y-67028170D02*
X116815200Y-67123408D01*
X116815200Y-67123408D02*
X116767580Y-67266265D01*
X116767580Y-67266265D02*
X116767580Y-67361503D01*
X116767580Y-67361503D02*
X116815200Y-67504360D01*
X116815200Y-67504360D02*
X116862819Y-67551979D01*
X116862819Y-67551979D02*
X117196152Y-67551979D01*
X117196152Y-67551979D02*
X117196152Y-67361503D01*
X116767580Y-67980551D02*
X117767580Y-67980551D01*
X117767580Y-67980551D02*
X117767580Y-68361503D01*
X117767580Y-68361503D02*
X117719961Y-68456741D01*
X117719961Y-68456741D02*
X117672342Y-68504360D01*
X117672342Y-68504360D02*
X117577104Y-68551979D01*
X117577104Y-68551979D02*
X117434247Y-68551979D01*
X117434247Y-68551979D02*
X117339009Y-68504360D01*
X117339009Y-68504360D02*
X117291390Y-68456741D01*
X117291390Y-68456741D02*
X117243771Y-68361503D01*
X117243771Y-68361503D02*
X117243771Y-67980551D01*
X116767580Y-68980551D02*
X117767580Y-68980551D01*
X117767580Y-69647217D02*
X117767580Y-69837693D01*
X117767580Y-69837693D02*
X117719961Y-69932931D01*
X117719961Y-69932931D02*
X117624723Y-70028169D01*
X117624723Y-70028169D02*
X117434247Y-70075788D01*
X117434247Y-70075788D02*
X117100914Y-70075788D01*
X117100914Y-70075788D02*
X116910438Y-70028169D01*
X116910438Y-70028169D02*
X116815200Y-69932931D01*
X116815200Y-69932931D02*
X116767580Y-69837693D01*
X116767580Y-69837693D02*
X116767580Y-69647217D01*
X116767580Y-69647217D02*
X116815200Y-69551979D01*
X116815200Y-69551979D02*
X116910438Y-69456741D01*
X116910438Y-69456741D02*
X117100914Y-69409122D01*
X117100914Y-69409122D02*
X117434247Y-69409122D01*
X117434247Y-69409122D02*
X117624723Y-69456741D01*
X117624723Y-69456741D02*
X117719961Y-69551979D01*
X117719961Y-69551979D02*
X117767580Y-69647217D01*
X117767580Y-70694836D02*
X117767580Y-70790074D01*
X117767580Y-70790074D02*
X117719961Y-70885312D01*
X117719961Y-70885312D02*
X117672342Y-70932931D01*
X117672342Y-70932931D02*
X117577104Y-70980550D01*
X117577104Y-70980550D02*
X117386628Y-71028169D01*
X117386628Y-71028169D02*
X117148533Y-71028169D01*
X117148533Y-71028169D02*
X116958057Y-70980550D01*
X116958057Y-70980550D02*
X116862819Y-70932931D01*
X116862819Y-70932931D02*
X116815200Y-70885312D01*
X116815200Y-70885312D02*
X116767580Y-70790074D01*
X116767580Y-70790074D02*
X116767580Y-70694836D01*
X116767580Y-70694836D02*
X116815200Y-70599598D01*
X116815200Y-70599598D02*
X116862819Y-70551979D01*
X116862819Y-70551979D02*
X116958057Y-70504360D01*
X116958057Y-70504360D02*
X117148533Y-70456741D01*
X117148533Y-70456741D02*
X117386628Y-70456741D01*
X117386628Y-70456741D02*
X117577104Y-70504360D01*
X117577104Y-70504360D02*
X117672342Y-70551979D01*
X117672342Y-70551979D02*
X117719961Y-70599598D01*
X117719961Y-70599598D02*
X117767580Y-70694836D01*
X117672342Y-71409122D02*
X117719961Y-71456741D01*
X117719961Y-71456741D02*
X117767580Y-71551979D01*
X117767580Y-71551979D02*
X117767580Y-71790074D01*
X117767580Y-71790074D02*
X117719961Y-71885312D01*
X117719961Y-71885312D02*
X117672342Y-71932931D01*
X117672342Y-71932931D02*
X117577104Y-71980550D01*
X117577104Y-71980550D02*
X117481866Y-71980550D01*
X117481866Y-71980550D02*
X117339009Y-71932931D01*
X117339009Y-71932931D02*
X116767580Y-71361503D01*
X116767580Y-71361503D02*
X116767580Y-71980550D01*
X150907580Y-49678646D02*
X150907580Y-50297693D01*
X150907580Y-50297693D02*
X150526628Y-49964360D01*
X150526628Y-49964360D02*
X150526628Y-50107217D01*
X150526628Y-50107217D02*
X150479009Y-50202455D01*
X150479009Y-50202455D02*
X150431390Y-50250074D01*
X150431390Y-50250074D02*
X150336152Y-50297693D01*
X150336152Y-50297693D02*
X150098057Y-50297693D01*
X150098057Y-50297693D02*
X150002819Y-50250074D01*
X150002819Y-50250074D02*
X149955200Y-50202455D01*
X149955200Y-50202455D02*
X149907580Y-50107217D01*
X149907580Y-50107217D02*
X149907580Y-49821503D01*
X149907580Y-49821503D02*
X149955200Y-49726265D01*
X149955200Y-49726265D02*
X150002819Y-49678646D01*
X150907580Y-50583408D02*
X149907580Y-50916741D01*
X149907580Y-50916741D02*
X150907580Y-51250074D01*
X150907580Y-51488170D02*
X150907580Y-52107217D01*
X150907580Y-52107217D02*
X150526628Y-51773884D01*
X150526628Y-51773884D02*
X150526628Y-51916741D01*
X150526628Y-51916741D02*
X150479009Y-52011979D01*
X150479009Y-52011979D02*
X150431390Y-52059598D01*
X150431390Y-52059598D02*
X150336152Y-52107217D01*
X150336152Y-52107217D02*
X150098057Y-52107217D01*
X150098057Y-52107217D02*
X150002819Y-52059598D01*
X150002819Y-52059598D02*
X149955200Y-52011979D01*
X149955200Y-52011979D02*
X149907580Y-51916741D01*
X149907580Y-51916741D02*
X149907580Y-51631027D01*
X149907580Y-51631027D02*
X149955200Y-51535789D01*
X149955200Y-51535789D02*
X150002819Y-51488170D01*
X132889961Y-67504360D02*
X132937580Y-67409122D01*
X132937580Y-67409122D02*
X132937580Y-67266265D01*
X132937580Y-67266265D02*
X132889961Y-67123408D01*
X132889961Y-67123408D02*
X132794723Y-67028170D01*
X132794723Y-67028170D02*
X132699485Y-66980551D01*
X132699485Y-66980551D02*
X132509009Y-66932932D01*
X132509009Y-66932932D02*
X132366152Y-66932932D01*
X132366152Y-66932932D02*
X132175676Y-66980551D01*
X132175676Y-66980551D02*
X132080438Y-67028170D01*
X132080438Y-67028170D02*
X131985200Y-67123408D01*
X131985200Y-67123408D02*
X131937580Y-67266265D01*
X131937580Y-67266265D02*
X131937580Y-67361503D01*
X131937580Y-67361503D02*
X131985200Y-67504360D01*
X131985200Y-67504360D02*
X132032819Y-67551979D01*
X132032819Y-67551979D02*
X132366152Y-67551979D01*
X132366152Y-67551979D02*
X132366152Y-67361503D01*
X131937580Y-67980551D02*
X132937580Y-67980551D01*
X132937580Y-67980551D02*
X132937580Y-68361503D01*
X132937580Y-68361503D02*
X132889961Y-68456741D01*
X132889961Y-68456741D02*
X132842342Y-68504360D01*
X132842342Y-68504360D02*
X132747104Y-68551979D01*
X132747104Y-68551979D02*
X132604247Y-68551979D01*
X132604247Y-68551979D02*
X132509009Y-68504360D01*
X132509009Y-68504360D02*
X132461390Y-68456741D01*
X132461390Y-68456741D02*
X132413771Y-68361503D01*
X132413771Y-68361503D02*
X132413771Y-67980551D01*
X131937580Y-68980551D02*
X132937580Y-68980551D01*
X132937580Y-69647217D02*
X132937580Y-69837693D01*
X132937580Y-69837693D02*
X132889961Y-69932931D01*
X132889961Y-69932931D02*
X132794723Y-70028169D01*
X132794723Y-70028169D02*
X132604247Y-70075788D01*
X132604247Y-70075788D02*
X132270914Y-70075788D01*
X132270914Y-70075788D02*
X132080438Y-70028169D01*
X132080438Y-70028169D02*
X131985200Y-69932931D01*
X131985200Y-69932931D02*
X131937580Y-69837693D01*
X131937580Y-69837693D02*
X131937580Y-69647217D01*
X131937580Y-69647217D02*
X131985200Y-69551979D01*
X131985200Y-69551979D02*
X132080438Y-69456741D01*
X132080438Y-69456741D02*
X132270914Y-69409122D01*
X132270914Y-69409122D02*
X132604247Y-69409122D01*
X132604247Y-69409122D02*
X132794723Y-69456741D01*
X132794723Y-69456741D02*
X132889961Y-69551979D01*
X132889961Y-69551979D02*
X132937580Y-69647217D01*
X131937580Y-71028169D02*
X131937580Y-70456741D01*
X131937580Y-70742455D02*
X132937580Y-70742455D01*
X132937580Y-70742455D02*
X132794723Y-70647217D01*
X132794723Y-70647217D02*
X132699485Y-70551979D01*
X132699485Y-70551979D02*
X132651866Y-70456741D01*
X132509009Y-71599598D02*
X132556628Y-71504360D01*
X132556628Y-71504360D02*
X132604247Y-71456741D01*
X132604247Y-71456741D02*
X132699485Y-71409122D01*
X132699485Y-71409122D02*
X132747104Y-71409122D01*
X132747104Y-71409122D02*
X132842342Y-71456741D01*
X132842342Y-71456741D02*
X132889961Y-71504360D01*
X132889961Y-71504360D02*
X132937580Y-71599598D01*
X132937580Y-71599598D02*
X132937580Y-71790074D01*
X132937580Y-71790074D02*
X132889961Y-71885312D01*
X132889961Y-71885312D02*
X132842342Y-71932931D01*
X132842342Y-71932931D02*
X132747104Y-71980550D01*
X132747104Y-71980550D02*
X132699485Y-71980550D01*
X132699485Y-71980550D02*
X132604247Y-71932931D01*
X132604247Y-71932931D02*
X132556628Y-71885312D01*
X132556628Y-71885312D02*
X132509009Y-71790074D01*
X132509009Y-71790074D02*
X132509009Y-71599598D01*
X132509009Y-71599598D02*
X132461390Y-71504360D01*
X132461390Y-71504360D02*
X132413771Y-71456741D01*
X132413771Y-71456741D02*
X132318533Y-71409122D01*
X132318533Y-71409122D02*
X132128057Y-71409122D01*
X132128057Y-71409122D02*
X132032819Y-71456741D01*
X132032819Y-71456741D02*
X131985200Y-71504360D01*
X131985200Y-71504360D02*
X131937580Y-71599598D01*
X131937580Y-71599598D02*
X131937580Y-71790074D01*
X131937580Y-71790074D02*
X131985200Y-71885312D01*
X131985200Y-71885312D02*
X132032819Y-71932931D01*
X132032819Y-71932931D02*
X132128057Y-71980550D01*
X132128057Y-71980550D02*
X132318533Y-71980550D01*
X132318533Y-71980550D02*
X132413771Y-71932931D01*
X132413771Y-71932931D02*
X132461390Y-71885312D01*
X132461390Y-71885312D02*
X132509009Y-71790074D01*
X115307580Y-49631027D02*
X114307580Y-49964360D01*
X114307580Y-49964360D02*
X115307580Y-50297693D01*
X114831390Y-50964360D02*
X114783771Y-51107217D01*
X114783771Y-51107217D02*
X114736152Y-51154836D01*
X114736152Y-51154836D02*
X114640914Y-51202455D01*
X114640914Y-51202455D02*
X114498057Y-51202455D01*
X114498057Y-51202455D02*
X114402819Y-51154836D01*
X114402819Y-51154836D02*
X114355200Y-51107217D01*
X114355200Y-51107217D02*
X114307580Y-51011979D01*
X114307580Y-51011979D02*
X114307580Y-50631027D01*
X114307580Y-50631027D02*
X115307580Y-50631027D01*
X115307580Y-50631027D02*
X115307580Y-50964360D01*
X115307580Y-50964360D02*
X115259961Y-51059598D01*
X115259961Y-51059598D02*
X115212342Y-51107217D01*
X115212342Y-51107217D02*
X115117104Y-51154836D01*
X115117104Y-51154836D02*
X115021866Y-51154836D01*
X115021866Y-51154836D02*
X114926628Y-51107217D01*
X114926628Y-51107217D02*
X114879009Y-51059598D01*
X114879009Y-51059598D02*
X114831390Y-50964360D01*
X114831390Y-50964360D02*
X114831390Y-50631027D01*
X115307580Y-51631027D02*
X114498057Y-51631027D01*
X114498057Y-51631027D02*
X114402819Y-51678646D01*
X114402819Y-51678646D02*
X114355200Y-51726265D01*
X114355200Y-51726265D02*
X114307580Y-51821503D01*
X114307580Y-51821503D02*
X114307580Y-52011979D01*
X114307580Y-52011979D02*
X114355200Y-52107217D01*
X114355200Y-52107217D02*
X114402819Y-52154836D01*
X114402819Y-52154836D02*
X114498057Y-52202455D01*
X114498057Y-52202455D02*
X115307580Y-52202455D01*
X114355200Y-52631027D02*
X114307580Y-52773884D01*
X114307580Y-52773884D02*
X114307580Y-53011979D01*
X114307580Y-53011979D02*
X114355200Y-53107217D01*
X114355200Y-53107217D02*
X114402819Y-53154836D01*
X114402819Y-53154836D02*
X114498057Y-53202455D01*
X114498057Y-53202455D02*
X114593295Y-53202455D01*
X114593295Y-53202455D02*
X114688533Y-53154836D01*
X114688533Y-53154836D02*
X114736152Y-53107217D01*
X114736152Y-53107217D02*
X114783771Y-53011979D01*
X114783771Y-53011979D02*
X114831390Y-52821503D01*
X114831390Y-52821503D02*
X114879009Y-52726265D01*
X114879009Y-52726265D02*
X114926628Y-52678646D01*
X114926628Y-52678646D02*
X115021866Y-52631027D01*
X115021866Y-52631027D02*
X115117104Y-52631027D01*
X115117104Y-52631027D02*
X115212342Y-52678646D01*
X115212342Y-52678646D02*
X115259961Y-52726265D01*
X115259961Y-52726265D02*
X115307580Y-52821503D01*
X115307580Y-52821503D02*
X115307580Y-53059598D01*
X115307580Y-53059598D02*
X115259961Y-53202455D01*
X128009961Y-50297693D02*
X128057580Y-50202455D01*
X128057580Y-50202455D02*
X128057580Y-50059598D01*
X128057580Y-50059598D02*
X128009961Y-49916741D01*
X128009961Y-49916741D02*
X127914723Y-49821503D01*
X127914723Y-49821503D02*
X127819485Y-49773884D01*
X127819485Y-49773884D02*
X127629009Y-49726265D01*
X127629009Y-49726265D02*
X127486152Y-49726265D01*
X127486152Y-49726265D02*
X127295676Y-49773884D01*
X127295676Y-49773884D02*
X127200438Y-49821503D01*
X127200438Y-49821503D02*
X127105200Y-49916741D01*
X127105200Y-49916741D02*
X127057580Y-50059598D01*
X127057580Y-50059598D02*
X127057580Y-50154836D01*
X127057580Y-50154836D02*
X127105200Y-50297693D01*
X127105200Y-50297693D02*
X127152819Y-50345312D01*
X127152819Y-50345312D02*
X127486152Y-50345312D01*
X127486152Y-50345312D02*
X127486152Y-50154836D01*
X127057580Y-50773884D02*
X128057580Y-50773884D01*
X128057580Y-50773884D02*
X128057580Y-51154836D01*
X128057580Y-51154836D02*
X128009961Y-51250074D01*
X128009961Y-51250074D02*
X127962342Y-51297693D01*
X127962342Y-51297693D02*
X127867104Y-51345312D01*
X127867104Y-51345312D02*
X127724247Y-51345312D01*
X127724247Y-51345312D02*
X127629009Y-51297693D01*
X127629009Y-51297693D02*
X127581390Y-51250074D01*
X127581390Y-51250074D02*
X127533771Y-51154836D01*
X127533771Y-51154836D02*
X127533771Y-50773884D01*
X127057580Y-51773884D02*
X128057580Y-51773884D01*
X128057580Y-52440550D02*
X128057580Y-52631026D01*
X128057580Y-52631026D02*
X128009961Y-52726264D01*
X128009961Y-52726264D02*
X127914723Y-52821502D01*
X127914723Y-52821502D02*
X127724247Y-52869121D01*
X127724247Y-52869121D02*
X127390914Y-52869121D01*
X127390914Y-52869121D02*
X127200438Y-52821502D01*
X127200438Y-52821502D02*
X127105200Y-52726264D01*
X127105200Y-52726264D02*
X127057580Y-52631026D01*
X127057580Y-52631026D02*
X127057580Y-52440550D01*
X127057580Y-52440550D02*
X127105200Y-52345312D01*
X127105200Y-52345312D02*
X127200438Y-52250074D01*
X127200438Y-52250074D02*
X127390914Y-52202455D01*
X127390914Y-52202455D02*
X127724247Y-52202455D01*
X127724247Y-52202455D02*
X127914723Y-52250074D01*
X127914723Y-52250074D02*
X128009961Y-52345312D01*
X128009961Y-52345312D02*
X128057580Y-52440550D01*
X127962342Y-53250074D02*
X128009961Y-53297693D01*
X128009961Y-53297693D02*
X128057580Y-53392931D01*
X128057580Y-53392931D02*
X128057580Y-53631026D01*
X128057580Y-53631026D02*
X128009961Y-53726264D01*
X128009961Y-53726264D02*
X127962342Y-53773883D01*
X127962342Y-53773883D02*
X127867104Y-53821502D01*
X127867104Y-53821502D02*
X127771866Y-53821502D01*
X127771866Y-53821502D02*
X127629009Y-53773883D01*
X127629009Y-53773883D02*
X127057580Y-53202455D01*
X127057580Y-53202455D02*
X127057580Y-53821502D01*
X128057580Y-54154836D02*
X128057580Y-54821502D01*
X128057580Y-54821502D02*
X127057580Y-54392931D01*
X140689961Y-50297693D02*
X140737580Y-50202455D01*
X140737580Y-50202455D02*
X140737580Y-50059598D01*
X140737580Y-50059598D02*
X140689961Y-49916741D01*
X140689961Y-49916741D02*
X140594723Y-49821503D01*
X140594723Y-49821503D02*
X140499485Y-49773884D01*
X140499485Y-49773884D02*
X140309009Y-49726265D01*
X140309009Y-49726265D02*
X140166152Y-49726265D01*
X140166152Y-49726265D02*
X139975676Y-49773884D01*
X139975676Y-49773884D02*
X139880438Y-49821503D01*
X139880438Y-49821503D02*
X139785200Y-49916741D01*
X139785200Y-49916741D02*
X139737580Y-50059598D01*
X139737580Y-50059598D02*
X139737580Y-50154836D01*
X139737580Y-50154836D02*
X139785200Y-50297693D01*
X139785200Y-50297693D02*
X139832819Y-50345312D01*
X139832819Y-50345312D02*
X140166152Y-50345312D01*
X140166152Y-50345312D02*
X140166152Y-50154836D01*
X139737580Y-50773884D02*
X140737580Y-50773884D01*
X140737580Y-50773884D02*
X140737580Y-51154836D01*
X140737580Y-51154836D02*
X140689961Y-51250074D01*
X140689961Y-51250074D02*
X140642342Y-51297693D01*
X140642342Y-51297693D02*
X140547104Y-51345312D01*
X140547104Y-51345312D02*
X140404247Y-51345312D01*
X140404247Y-51345312D02*
X140309009Y-51297693D01*
X140309009Y-51297693D02*
X140261390Y-51250074D01*
X140261390Y-51250074D02*
X140213771Y-51154836D01*
X140213771Y-51154836D02*
X140213771Y-50773884D01*
X139737580Y-51773884D02*
X140737580Y-51773884D01*
X140737580Y-52440550D02*
X140737580Y-52631026D01*
X140737580Y-52631026D02*
X140689961Y-52726264D01*
X140689961Y-52726264D02*
X140594723Y-52821502D01*
X140594723Y-52821502D02*
X140404247Y-52869121D01*
X140404247Y-52869121D02*
X140070914Y-52869121D01*
X140070914Y-52869121D02*
X139880438Y-52821502D01*
X139880438Y-52821502D02*
X139785200Y-52726264D01*
X139785200Y-52726264D02*
X139737580Y-52631026D01*
X139737580Y-52631026D02*
X139737580Y-52440550D01*
X139737580Y-52440550D02*
X139785200Y-52345312D01*
X139785200Y-52345312D02*
X139880438Y-52250074D01*
X139880438Y-52250074D02*
X140070914Y-52202455D01*
X140070914Y-52202455D02*
X140404247Y-52202455D01*
X140404247Y-52202455D02*
X140594723Y-52250074D01*
X140594723Y-52250074D02*
X140689961Y-52345312D01*
X140689961Y-52345312D02*
X140737580Y-52440550D01*
X140737580Y-53202455D02*
X140737580Y-53821502D01*
X140737580Y-53821502D02*
X140356628Y-53488169D01*
X140356628Y-53488169D02*
X140356628Y-53631026D01*
X140356628Y-53631026D02*
X140309009Y-53726264D01*
X140309009Y-53726264D02*
X140261390Y-53773883D01*
X140261390Y-53773883D02*
X140166152Y-53821502D01*
X140166152Y-53821502D02*
X139928057Y-53821502D01*
X139928057Y-53821502D02*
X139832819Y-53773883D01*
X139832819Y-53773883D02*
X139785200Y-53726264D01*
X139785200Y-53726264D02*
X139737580Y-53631026D01*
X139737580Y-53631026D02*
X139737580Y-53345312D01*
X139737580Y-53345312D02*
X139785200Y-53250074D01*
X139785200Y-53250074D02*
X139832819Y-53202455D01*
X140404247Y-54678645D02*
X139737580Y-54678645D01*
X140785200Y-54440550D02*
X140070914Y-54202455D01*
X140070914Y-54202455D02*
X140070914Y-54821502D01*
X117491390Y-49773884D02*
X117491390Y-50107217D01*
X116967580Y-50250074D02*
X116967580Y-49773884D01*
X116967580Y-49773884D02*
X117967580Y-49773884D01*
X117967580Y-49773884D02*
X117967580Y-50250074D01*
X116967580Y-50678646D02*
X117967580Y-50678646D01*
X117967580Y-50678646D02*
X116967580Y-51250074D01*
X116967580Y-51250074D02*
X117967580Y-51250074D01*
X135539961Y-50297693D02*
X135587580Y-50202455D01*
X135587580Y-50202455D02*
X135587580Y-50059598D01*
X135587580Y-50059598D02*
X135539961Y-49916741D01*
X135539961Y-49916741D02*
X135444723Y-49821503D01*
X135444723Y-49821503D02*
X135349485Y-49773884D01*
X135349485Y-49773884D02*
X135159009Y-49726265D01*
X135159009Y-49726265D02*
X135016152Y-49726265D01*
X135016152Y-49726265D02*
X134825676Y-49773884D01*
X134825676Y-49773884D02*
X134730438Y-49821503D01*
X134730438Y-49821503D02*
X134635200Y-49916741D01*
X134635200Y-49916741D02*
X134587580Y-50059598D01*
X134587580Y-50059598D02*
X134587580Y-50154836D01*
X134587580Y-50154836D02*
X134635200Y-50297693D01*
X134635200Y-50297693D02*
X134682819Y-50345312D01*
X134682819Y-50345312D02*
X135016152Y-50345312D01*
X135016152Y-50345312D02*
X135016152Y-50154836D01*
X134587580Y-50773884D02*
X135587580Y-50773884D01*
X135587580Y-50773884D02*
X135587580Y-51154836D01*
X135587580Y-51154836D02*
X135539961Y-51250074D01*
X135539961Y-51250074D02*
X135492342Y-51297693D01*
X135492342Y-51297693D02*
X135397104Y-51345312D01*
X135397104Y-51345312D02*
X135254247Y-51345312D01*
X135254247Y-51345312D02*
X135159009Y-51297693D01*
X135159009Y-51297693D02*
X135111390Y-51250074D01*
X135111390Y-51250074D02*
X135063771Y-51154836D01*
X135063771Y-51154836D02*
X135063771Y-50773884D01*
X134587580Y-51773884D02*
X135587580Y-51773884D01*
X135587580Y-52440550D02*
X135587580Y-52631026D01*
X135587580Y-52631026D02*
X135539961Y-52726264D01*
X135539961Y-52726264D02*
X135444723Y-52821502D01*
X135444723Y-52821502D02*
X135254247Y-52869121D01*
X135254247Y-52869121D02*
X134920914Y-52869121D01*
X134920914Y-52869121D02*
X134730438Y-52821502D01*
X134730438Y-52821502D02*
X134635200Y-52726264D01*
X134635200Y-52726264D02*
X134587580Y-52631026D01*
X134587580Y-52631026D02*
X134587580Y-52440550D01*
X134587580Y-52440550D02*
X134635200Y-52345312D01*
X134635200Y-52345312D02*
X134730438Y-52250074D01*
X134730438Y-52250074D02*
X134920914Y-52202455D01*
X134920914Y-52202455D02*
X135254247Y-52202455D01*
X135254247Y-52202455D02*
X135444723Y-52250074D01*
X135444723Y-52250074D02*
X135539961Y-52345312D01*
X135539961Y-52345312D02*
X135587580Y-52440550D01*
X135587580Y-53202455D02*
X135587580Y-53821502D01*
X135587580Y-53821502D02*
X135206628Y-53488169D01*
X135206628Y-53488169D02*
X135206628Y-53631026D01*
X135206628Y-53631026D02*
X135159009Y-53726264D01*
X135159009Y-53726264D02*
X135111390Y-53773883D01*
X135111390Y-53773883D02*
X135016152Y-53821502D01*
X135016152Y-53821502D02*
X134778057Y-53821502D01*
X134778057Y-53821502D02*
X134682819Y-53773883D01*
X134682819Y-53773883D02*
X134635200Y-53726264D01*
X134635200Y-53726264D02*
X134587580Y-53631026D01*
X134587580Y-53631026D02*
X134587580Y-53345312D01*
X134587580Y-53345312D02*
X134635200Y-53250074D01*
X134635200Y-53250074D02*
X134682819Y-53202455D01*
X135587580Y-54154836D02*
X135587580Y-54773883D01*
X135587580Y-54773883D02*
X135206628Y-54440550D01*
X135206628Y-54440550D02*
X135206628Y-54583407D01*
X135206628Y-54583407D02*
X135159009Y-54678645D01*
X135159009Y-54678645D02*
X135111390Y-54726264D01*
X135111390Y-54726264D02*
X135016152Y-54773883D01*
X135016152Y-54773883D02*
X134778057Y-54773883D01*
X134778057Y-54773883D02*
X134682819Y-54726264D01*
X134682819Y-54726264D02*
X134635200Y-54678645D01*
X134635200Y-54678645D02*
X134587580Y-54583407D01*
X134587580Y-54583407D02*
X134587580Y-54297693D01*
X134587580Y-54297693D02*
X134635200Y-54202455D01*
X134635200Y-54202455D02*
X134682819Y-54154836D01*
X133149961Y-50297693D02*
X133197580Y-50202455D01*
X133197580Y-50202455D02*
X133197580Y-50059598D01*
X133197580Y-50059598D02*
X133149961Y-49916741D01*
X133149961Y-49916741D02*
X133054723Y-49821503D01*
X133054723Y-49821503D02*
X132959485Y-49773884D01*
X132959485Y-49773884D02*
X132769009Y-49726265D01*
X132769009Y-49726265D02*
X132626152Y-49726265D01*
X132626152Y-49726265D02*
X132435676Y-49773884D01*
X132435676Y-49773884D02*
X132340438Y-49821503D01*
X132340438Y-49821503D02*
X132245200Y-49916741D01*
X132245200Y-49916741D02*
X132197580Y-50059598D01*
X132197580Y-50059598D02*
X132197580Y-50154836D01*
X132197580Y-50154836D02*
X132245200Y-50297693D01*
X132245200Y-50297693D02*
X132292819Y-50345312D01*
X132292819Y-50345312D02*
X132626152Y-50345312D01*
X132626152Y-50345312D02*
X132626152Y-50154836D01*
X132197580Y-50773884D02*
X133197580Y-50773884D01*
X133197580Y-50773884D02*
X133197580Y-51154836D01*
X133197580Y-51154836D02*
X133149961Y-51250074D01*
X133149961Y-51250074D02*
X133102342Y-51297693D01*
X133102342Y-51297693D02*
X133007104Y-51345312D01*
X133007104Y-51345312D02*
X132864247Y-51345312D01*
X132864247Y-51345312D02*
X132769009Y-51297693D01*
X132769009Y-51297693D02*
X132721390Y-51250074D01*
X132721390Y-51250074D02*
X132673771Y-51154836D01*
X132673771Y-51154836D02*
X132673771Y-50773884D01*
X132197580Y-51773884D02*
X133197580Y-51773884D01*
X133197580Y-52440550D02*
X133197580Y-52631026D01*
X133197580Y-52631026D02*
X133149961Y-52726264D01*
X133149961Y-52726264D02*
X133054723Y-52821502D01*
X133054723Y-52821502D02*
X132864247Y-52869121D01*
X132864247Y-52869121D02*
X132530914Y-52869121D01*
X132530914Y-52869121D02*
X132340438Y-52821502D01*
X132340438Y-52821502D02*
X132245200Y-52726264D01*
X132245200Y-52726264D02*
X132197580Y-52631026D01*
X132197580Y-52631026D02*
X132197580Y-52440550D01*
X132197580Y-52440550D02*
X132245200Y-52345312D01*
X132245200Y-52345312D02*
X132340438Y-52250074D01*
X132340438Y-52250074D02*
X132530914Y-52202455D01*
X132530914Y-52202455D02*
X132864247Y-52202455D01*
X132864247Y-52202455D02*
X133054723Y-52250074D01*
X133054723Y-52250074D02*
X133149961Y-52345312D01*
X133149961Y-52345312D02*
X133197580Y-52440550D01*
X133102342Y-53250074D02*
X133149961Y-53297693D01*
X133149961Y-53297693D02*
X133197580Y-53392931D01*
X133197580Y-53392931D02*
X133197580Y-53631026D01*
X133197580Y-53631026D02*
X133149961Y-53726264D01*
X133149961Y-53726264D02*
X133102342Y-53773883D01*
X133102342Y-53773883D02*
X133007104Y-53821502D01*
X133007104Y-53821502D02*
X132911866Y-53821502D01*
X132911866Y-53821502D02*
X132769009Y-53773883D01*
X132769009Y-53773883D02*
X132197580Y-53202455D01*
X132197580Y-53202455D02*
X132197580Y-53821502D01*
X133197580Y-54726264D02*
X133197580Y-54250074D01*
X133197580Y-54250074D02*
X132721390Y-54202455D01*
X132721390Y-54202455D02*
X132769009Y-54250074D01*
X132769009Y-54250074D02*
X132816628Y-54345312D01*
X132816628Y-54345312D02*
X132816628Y-54583407D01*
X132816628Y-54583407D02*
X132769009Y-54678645D01*
X132769009Y-54678645D02*
X132721390Y-54726264D01*
X132721390Y-54726264D02*
X132626152Y-54773883D01*
X132626152Y-54773883D02*
X132388057Y-54773883D01*
X132388057Y-54773883D02*
X132292819Y-54726264D01*
X132292819Y-54726264D02*
X132245200Y-54678645D01*
X132245200Y-54678645D02*
X132197580Y-54583407D01*
X132197580Y-54583407D02*
X132197580Y-54345312D01*
X132197580Y-54345312D02*
X132245200Y-54250074D01*
X132245200Y-54250074D02*
X132292819Y-54202455D01*
X138079961Y-50297693D02*
X138127580Y-50202455D01*
X138127580Y-50202455D02*
X138127580Y-50059598D01*
X138127580Y-50059598D02*
X138079961Y-49916741D01*
X138079961Y-49916741D02*
X137984723Y-49821503D01*
X137984723Y-49821503D02*
X137889485Y-49773884D01*
X137889485Y-49773884D02*
X137699009Y-49726265D01*
X137699009Y-49726265D02*
X137556152Y-49726265D01*
X137556152Y-49726265D02*
X137365676Y-49773884D01*
X137365676Y-49773884D02*
X137270438Y-49821503D01*
X137270438Y-49821503D02*
X137175200Y-49916741D01*
X137175200Y-49916741D02*
X137127580Y-50059598D01*
X137127580Y-50059598D02*
X137127580Y-50154836D01*
X137127580Y-50154836D02*
X137175200Y-50297693D01*
X137175200Y-50297693D02*
X137222819Y-50345312D01*
X137222819Y-50345312D02*
X137556152Y-50345312D01*
X137556152Y-50345312D02*
X137556152Y-50154836D01*
X137127580Y-50773884D02*
X138127580Y-50773884D01*
X138127580Y-50773884D02*
X138127580Y-51154836D01*
X138127580Y-51154836D02*
X138079961Y-51250074D01*
X138079961Y-51250074D02*
X138032342Y-51297693D01*
X138032342Y-51297693D02*
X137937104Y-51345312D01*
X137937104Y-51345312D02*
X137794247Y-51345312D01*
X137794247Y-51345312D02*
X137699009Y-51297693D01*
X137699009Y-51297693D02*
X137651390Y-51250074D01*
X137651390Y-51250074D02*
X137603771Y-51154836D01*
X137603771Y-51154836D02*
X137603771Y-50773884D01*
X137127580Y-51773884D02*
X138127580Y-51773884D01*
X138127580Y-52440550D02*
X138127580Y-52631026D01*
X138127580Y-52631026D02*
X138079961Y-52726264D01*
X138079961Y-52726264D02*
X137984723Y-52821502D01*
X137984723Y-52821502D02*
X137794247Y-52869121D01*
X137794247Y-52869121D02*
X137460914Y-52869121D01*
X137460914Y-52869121D02*
X137270438Y-52821502D01*
X137270438Y-52821502D02*
X137175200Y-52726264D01*
X137175200Y-52726264D02*
X137127580Y-52631026D01*
X137127580Y-52631026D02*
X137127580Y-52440550D01*
X137127580Y-52440550D02*
X137175200Y-52345312D01*
X137175200Y-52345312D02*
X137270438Y-52250074D01*
X137270438Y-52250074D02*
X137460914Y-52202455D01*
X137460914Y-52202455D02*
X137794247Y-52202455D01*
X137794247Y-52202455D02*
X137984723Y-52250074D01*
X137984723Y-52250074D02*
X138079961Y-52345312D01*
X138079961Y-52345312D02*
X138127580Y-52440550D01*
X138127580Y-53202455D02*
X138127580Y-53821502D01*
X138127580Y-53821502D02*
X137746628Y-53488169D01*
X137746628Y-53488169D02*
X137746628Y-53631026D01*
X137746628Y-53631026D02*
X137699009Y-53726264D01*
X137699009Y-53726264D02*
X137651390Y-53773883D01*
X137651390Y-53773883D02*
X137556152Y-53821502D01*
X137556152Y-53821502D02*
X137318057Y-53821502D01*
X137318057Y-53821502D02*
X137222819Y-53773883D01*
X137222819Y-53773883D02*
X137175200Y-53726264D01*
X137175200Y-53726264D02*
X137127580Y-53631026D01*
X137127580Y-53631026D02*
X137127580Y-53345312D01*
X137127580Y-53345312D02*
X137175200Y-53250074D01*
X137175200Y-53250074D02*
X137222819Y-53202455D01*
X138032342Y-54202455D02*
X138079961Y-54250074D01*
X138079961Y-54250074D02*
X138127580Y-54345312D01*
X138127580Y-54345312D02*
X138127580Y-54583407D01*
X138127580Y-54583407D02*
X138079961Y-54678645D01*
X138079961Y-54678645D02*
X138032342Y-54726264D01*
X138032342Y-54726264D02*
X137937104Y-54773883D01*
X137937104Y-54773883D02*
X137841866Y-54773883D01*
X137841866Y-54773883D02*
X137699009Y-54726264D01*
X137699009Y-54726264D02*
X137127580Y-54154836D01*
X137127580Y-54154836D02*
X137127580Y-54773883D01*
X122589961Y-67504360D02*
X122637580Y-67409122D01*
X122637580Y-67409122D02*
X122637580Y-67266265D01*
X122637580Y-67266265D02*
X122589961Y-67123408D01*
X122589961Y-67123408D02*
X122494723Y-67028170D01*
X122494723Y-67028170D02*
X122399485Y-66980551D01*
X122399485Y-66980551D02*
X122209009Y-66932932D01*
X122209009Y-66932932D02*
X122066152Y-66932932D01*
X122066152Y-66932932D02*
X121875676Y-66980551D01*
X121875676Y-66980551D02*
X121780438Y-67028170D01*
X121780438Y-67028170D02*
X121685200Y-67123408D01*
X121685200Y-67123408D02*
X121637580Y-67266265D01*
X121637580Y-67266265D02*
X121637580Y-67361503D01*
X121637580Y-67361503D02*
X121685200Y-67504360D01*
X121685200Y-67504360D02*
X121732819Y-67551979D01*
X121732819Y-67551979D02*
X122066152Y-67551979D01*
X122066152Y-67551979D02*
X122066152Y-67361503D01*
X121637580Y-67980551D02*
X122637580Y-67980551D01*
X122637580Y-67980551D02*
X122637580Y-68361503D01*
X122637580Y-68361503D02*
X122589961Y-68456741D01*
X122589961Y-68456741D02*
X122542342Y-68504360D01*
X122542342Y-68504360D02*
X122447104Y-68551979D01*
X122447104Y-68551979D02*
X122304247Y-68551979D01*
X122304247Y-68551979D02*
X122209009Y-68504360D01*
X122209009Y-68504360D02*
X122161390Y-68456741D01*
X122161390Y-68456741D02*
X122113771Y-68361503D01*
X122113771Y-68361503D02*
X122113771Y-67980551D01*
X121637580Y-68980551D02*
X122637580Y-68980551D01*
X122637580Y-69647217D02*
X122637580Y-69837693D01*
X122637580Y-69837693D02*
X122589961Y-69932931D01*
X122589961Y-69932931D02*
X122494723Y-70028169D01*
X122494723Y-70028169D02*
X122304247Y-70075788D01*
X122304247Y-70075788D02*
X121970914Y-70075788D01*
X121970914Y-70075788D02*
X121780438Y-70028169D01*
X121780438Y-70028169D02*
X121685200Y-69932931D01*
X121685200Y-69932931D02*
X121637580Y-69837693D01*
X121637580Y-69837693D02*
X121637580Y-69647217D01*
X121637580Y-69647217D02*
X121685200Y-69551979D01*
X121685200Y-69551979D02*
X121780438Y-69456741D01*
X121780438Y-69456741D02*
X121970914Y-69409122D01*
X121970914Y-69409122D02*
X122304247Y-69409122D01*
X122304247Y-69409122D02*
X122494723Y-69456741D01*
X122494723Y-69456741D02*
X122589961Y-69551979D01*
X122589961Y-69551979D02*
X122637580Y-69647217D01*
X122637580Y-70694836D02*
X122637580Y-70790074D01*
X122637580Y-70790074D02*
X122589961Y-70885312D01*
X122589961Y-70885312D02*
X122542342Y-70932931D01*
X122542342Y-70932931D02*
X122447104Y-70980550D01*
X122447104Y-70980550D02*
X122256628Y-71028169D01*
X122256628Y-71028169D02*
X122018533Y-71028169D01*
X122018533Y-71028169D02*
X121828057Y-70980550D01*
X121828057Y-70980550D02*
X121732819Y-70932931D01*
X121732819Y-70932931D02*
X121685200Y-70885312D01*
X121685200Y-70885312D02*
X121637580Y-70790074D01*
X121637580Y-70790074D02*
X121637580Y-70694836D01*
X121637580Y-70694836D02*
X121685200Y-70599598D01*
X121685200Y-70599598D02*
X121732819Y-70551979D01*
X121732819Y-70551979D02*
X121828057Y-70504360D01*
X121828057Y-70504360D02*
X122018533Y-70456741D01*
X122018533Y-70456741D02*
X122256628Y-70456741D01*
X122256628Y-70456741D02*
X122447104Y-70504360D01*
X122447104Y-70504360D02*
X122542342Y-70551979D01*
X122542342Y-70551979D02*
X122589961Y-70599598D01*
X122589961Y-70599598D02*
X122637580Y-70694836D01*
X122304247Y-71885312D02*
X121637580Y-71885312D01*
X122685200Y-71647217D02*
X121970914Y-71409122D01*
X121970914Y-71409122D02*
X121970914Y-72028169D01*
X124197580Y-70361503D02*
X125197580Y-70361503D01*
X125197580Y-70361503D02*
X124197580Y-70932931D01*
X124197580Y-70932931D02*
X125197580Y-70932931D01*
X124292819Y-71980550D02*
X124245200Y-71932931D01*
X124245200Y-71932931D02*
X124197580Y-71790074D01*
X124197580Y-71790074D02*
X124197580Y-71694836D01*
X124197580Y-71694836D02*
X124245200Y-71551979D01*
X124245200Y-71551979D02*
X124340438Y-71456741D01*
X124340438Y-71456741D02*
X124435676Y-71409122D01*
X124435676Y-71409122D02*
X124626152Y-71361503D01*
X124626152Y-71361503D02*
X124769009Y-71361503D01*
X124769009Y-71361503D02*
X124959485Y-71409122D01*
X124959485Y-71409122D02*
X125054723Y-71456741D01*
X125054723Y-71456741D02*
X125149961Y-71551979D01*
X125149961Y-71551979D02*
X125197580Y-71694836D01*
X125197580Y-71694836D02*
X125197580Y-71790074D01*
X125197580Y-71790074D02*
X125149961Y-71932931D01*
X125149961Y-71932931D02*
X125102342Y-71980550D01*
X122979961Y-50297693D02*
X123027580Y-50202455D01*
X123027580Y-50202455D02*
X123027580Y-50059598D01*
X123027580Y-50059598D02*
X122979961Y-49916741D01*
X122979961Y-49916741D02*
X122884723Y-49821503D01*
X122884723Y-49821503D02*
X122789485Y-49773884D01*
X122789485Y-49773884D02*
X122599009Y-49726265D01*
X122599009Y-49726265D02*
X122456152Y-49726265D01*
X122456152Y-49726265D02*
X122265676Y-49773884D01*
X122265676Y-49773884D02*
X122170438Y-49821503D01*
X122170438Y-49821503D02*
X122075200Y-49916741D01*
X122075200Y-49916741D02*
X122027580Y-50059598D01*
X122027580Y-50059598D02*
X122027580Y-50154836D01*
X122027580Y-50154836D02*
X122075200Y-50297693D01*
X122075200Y-50297693D02*
X122122819Y-50345312D01*
X122122819Y-50345312D02*
X122456152Y-50345312D01*
X122456152Y-50345312D02*
X122456152Y-50154836D01*
X122027580Y-50773884D02*
X123027580Y-50773884D01*
X123027580Y-50773884D02*
X123027580Y-51154836D01*
X123027580Y-51154836D02*
X122979961Y-51250074D01*
X122979961Y-51250074D02*
X122932342Y-51297693D01*
X122932342Y-51297693D02*
X122837104Y-51345312D01*
X122837104Y-51345312D02*
X122694247Y-51345312D01*
X122694247Y-51345312D02*
X122599009Y-51297693D01*
X122599009Y-51297693D02*
X122551390Y-51250074D01*
X122551390Y-51250074D02*
X122503771Y-51154836D01*
X122503771Y-51154836D02*
X122503771Y-50773884D01*
X122027580Y-51773884D02*
X123027580Y-51773884D01*
X123027580Y-52440550D02*
X123027580Y-52631026D01*
X123027580Y-52631026D02*
X122979961Y-52726264D01*
X122979961Y-52726264D02*
X122884723Y-52821502D01*
X122884723Y-52821502D02*
X122694247Y-52869121D01*
X122694247Y-52869121D02*
X122360914Y-52869121D01*
X122360914Y-52869121D02*
X122170438Y-52821502D01*
X122170438Y-52821502D02*
X122075200Y-52726264D01*
X122075200Y-52726264D02*
X122027580Y-52631026D01*
X122027580Y-52631026D02*
X122027580Y-52440550D01*
X122027580Y-52440550D02*
X122075200Y-52345312D01*
X122075200Y-52345312D02*
X122170438Y-52250074D01*
X122170438Y-52250074D02*
X122360914Y-52202455D01*
X122360914Y-52202455D02*
X122694247Y-52202455D01*
X122694247Y-52202455D02*
X122884723Y-52250074D01*
X122884723Y-52250074D02*
X122979961Y-52345312D01*
X122979961Y-52345312D02*
X123027580Y-52440550D01*
X122027580Y-53821502D02*
X122027580Y-53250074D01*
X122027580Y-53535788D02*
X123027580Y-53535788D01*
X123027580Y-53535788D02*
X122884723Y-53440550D01*
X122884723Y-53440550D02*
X122789485Y-53345312D01*
X122789485Y-53345312D02*
X122741866Y-53250074D01*
X122932342Y-54202455D02*
X122979961Y-54250074D01*
X122979961Y-54250074D02*
X123027580Y-54345312D01*
X123027580Y-54345312D02*
X123027580Y-54583407D01*
X123027580Y-54583407D02*
X122979961Y-54678645D01*
X122979961Y-54678645D02*
X122932342Y-54726264D01*
X122932342Y-54726264D02*
X122837104Y-54773883D01*
X122837104Y-54773883D02*
X122741866Y-54773883D01*
X122741866Y-54773883D02*
X122599009Y-54726264D01*
X122599009Y-54726264D02*
X122027580Y-54154836D01*
X122027580Y-54154836D02*
X122027580Y-54773883D01*
X125379961Y-50297693D02*
X125427580Y-50202455D01*
X125427580Y-50202455D02*
X125427580Y-50059598D01*
X125427580Y-50059598D02*
X125379961Y-49916741D01*
X125379961Y-49916741D02*
X125284723Y-49821503D01*
X125284723Y-49821503D02*
X125189485Y-49773884D01*
X125189485Y-49773884D02*
X124999009Y-49726265D01*
X124999009Y-49726265D02*
X124856152Y-49726265D01*
X124856152Y-49726265D02*
X124665676Y-49773884D01*
X124665676Y-49773884D02*
X124570438Y-49821503D01*
X124570438Y-49821503D02*
X124475200Y-49916741D01*
X124475200Y-49916741D02*
X124427580Y-50059598D01*
X124427580Y-50059598D02*
X124427580Y-50154836D01*
X124427580Y-50154836D02*
X124475200Y-50297693D01*
X124475200Y-50297693D02*
X124522819Y-50345312D01*
X124522819Y-50345312D02*
X124856152Y-50345312D01*
X124856152Y-50345312D02*
X124856152Y-50154836D01*
X124427580Y-50773884D02*
X125427580Y-50773884D01*
X125427580Y-50773884D02*
X125427580Y-51154836D01*
X125427580Y-51154836D02*
X125379961Y-51250074D01*
X125379961Y-51250074D02*
X125332342Y-51297693D01*
X125332342Y-51297693D02*
X125237104Y-51345312D01*
X125237104Y-51345312D02*
X125094247Y-51345312D01*
X125094247Y-51345312D02*
X124999009Y-51297693D01*
X124999009Y-51297693D02*
X124951390Y-51250074D01*
X124951390Y-51250074D02*
X124903771Y-51154836D01*
X124903771Y-51154836D02*
X124903771Y-50773884D01*
X124427580Y-51773884D02*
X125427580Y-51773884D01*
X125427580Y-52440550D02*
X125427580Y-52631026D01*
X125427580Y-52631026D02*
X125379961Y-52726264D01*
X125379961Y-52726264D02*
X125284723Y-52821502D01*
X125284723Y-52821502D02*
X125094247Y-52869121D01*
X125094247Y-52869121D02*
X124760914Y-52869121D01*
X124760914Y-52869121D02*
X124570438Y-52821502D01*
X124570438Y-52821502D02*
X124475200Y-52726264D01*
X124475200Y-52726264D02*
X124427580Y-52631026D01*
X124427580Y-52631026D02*
X124427580Y-52440550D01*
X124427580Y-52440550D02*
X124475200Y-52345312D01*
X124475200Y-52345312D02*
X124570438Y-52250074D01*
X124570438Y-52250074D02*
X124760914Y-52202455D01*
X124760914Y-52202455D02*
X125094247Y-52202455D01*
X125094247Y-52202455D02*
X125284723Y-52250074D01*
X125284723Y-52250074D02*
X125379961Y-52345312D01*
X125379961Y-52345312D02*
X125427580Y-52440550D01*
X124427580Y-53821502D02*
X124427580Y-53250074D01*
X124427580Y-53535788D02*
X125427580Y-53535788D01*
X125427580Y-53535788D02*
X125284723Y-53440550D01*
X125284723Y-53440550D02*
X125189485Y-53345312D01*
X125189485Y-53345312D02*
X125141866Y-53250074D01*
X125094247Y-54678645D02*
X124427580Y-54678645D01*
X125475200Y-54440550D02*
X124760914Y-54202455D01*
X124760914Y-54202455D02*
X124760914Y-54821502D01*
X130639961Y-50297693D02*
X130687580Y-50202455D01*
X130687580Y-50202455D02*
X130687580Y-50059598D01*
X130687580Y-50059598D02*
X130639961Y-49916741D01*
X130639961Y-49916741D02*
X130544723Y-49821503D01*
X130544723Y-49821503D02*
X130449485Y-49773884D01*
X130449485Y-49773884D02*
X130259009Y-49726265D01*
X130259009Y-49726265D02*
X130116152Y-49726265D01*
X130116152Y-49726265D02*
X129925676Y-49773884D01*
X129925676Y-49773884D02*
X129830438Y-49821503D01*
X129830438Y-49821503D02*
X129735200Y-49916741D01*
X129735200Y-49916741D02*
X129687580Y-50059598D01*
X129687580Y-50059598D02*
X129687580Y-50154836D01*
X129687580Y-50154836D02*
X129735200Y-50297693D01*
X129735200Y-50297693D02*
X129782819Y-50345312D01*
X129782819Y-50345312D02*
X130116152Y-50345312D01*
X130116152Y-50345312D02*
X130116152Y-50154836D01*
X129687580Y-50773884D02*
X130687580Y-50773884D01*
X130687580Y-50773884D02*
X130687580Y-51154836D01*
X130687580Y-51154836D02*
X130639961Y-51250074D01*
X130639961Y-51250074D02*
X130592342Y-51297693D01*
X130592342Y-51297693D02*
X130497104Y-51345312D01*
X130497104Y-51345312D02*
X130354247Y-51345312D01*
X130354247Y-51345312D02*
X130259009Y-51297693D01*
X130259009Y-51297693D02*
X130211390Y-51250074D01*
X130211390Y-51250074D02*
X130163771Y-51154836D01*
X130163771Y-51154836D02*
X130163771Y-50773884D01*
X129687580Y-51773884D02*
X130687580Y-51773884D01*
X130687580Y-52440550D02*
X130687580Y-52631026D01*
X130687580Y-52631026D02*
X130639961Y-52726264D01*
X130639961Y-52726264D02*
X130544723Y-52821502D01*
X130544723Y-52821502D02*
X130354247Y-52869121D01*
X130354247Y-52869121D02*
X130020914Y-52869121D01*
X130020914Y-52869121D02*
X129830438Y-52821502D01*
X129830438Y-52821502D02*
X129735200Y-52726264D01*
X129735200Y-52726264D02*
X129687580Y-52631026D01*
X129687580Y-52631026D02*
X129687580Y-52440550D01*
X129687580Y-52440550D02*
X129735200Y-52345312D01*
X129735200Y-52345312D02*
X129830438Y-52250074D01*
X129830438Y-52250074D02*
X130020914Y-52202455D01*
X130020914Y-52202455D02*
X130354247Y-52202455D01*
X130354247Y-52202455D02*
X130544723Y-52250074D01*
X130544723Y-52250074D02*
X130639961Y-52345312D01*
X130639961Y-52345312D02*
X130687580Y-52440550D01*
X130592342Y-53250074D02*
X130639961Y-53297693D01*
X130639961Y-53297693D02*
X130687580Y-53392931D01*
X130687580Y-53392931D02*
X130687580Y-53631026D01*
X130687580Y-53631026D02*
X130639961Y-53726264D01*
X130639961Y-53726264D02*
X130592342Y-53773883D01*
X130592342Y-53773883D02*
X130497104Y-53821502D01*
X130497104Y-53821502D02*
X130401866Y-53821502D01*
X130401866Y-53821502D02*
X130259009Y-53773883D01*
X130259009Y-53773883D02*
X129687580Y-53202455D01*
X129687580Y-53202455D02*
X129687580Y-53821502D01*
X130687580Y-54678645D02*
X130687580Y-54488169D01*
X130687580Y-54488169D02*
X130639961Y-54392931D01*
X130639961Y-54392931D02*
X130592342Y-54345312D01*
X130592342Y-54345312D02*
X130449485Y-54250074D01*
X130449485Y-54250074D02*
X130259009Y-54202455D01*
X130259009Y-54202455D02*
X129878057Y-54202455D01*
X129878057Y-54202455D02*
X129782819Y-54250074D01*
X129782819Y-54250074D02*
X129735200Y-54297693D01*
X129735200Y-54297693D02*
X129687580Y-54392931D01*
X129687580Y-54392931D02*
X129687580Y-54583407D01*
X129687580Y-54583407D02*
X129735200Y-54678645D01*
X129735200Y-54678645D02*
X129782819Y-54726264D01*
X129782819Y-54726264D02*
X129878057Y-54773883D01*
X129878057Y-54773883D02*
X130116152Y-54773883D01*
X130116152Y-54773883D02*
X130211390Y-54726264D01*
X130211390Y-54726264D02*
X130259009Y-54678645D01*
X130259009Y-54678645D02*
X130306628Y-54583407D01*
X130306628Y-54583407D02*
X130306628Y-54392931D01*
X130306628Y-54392931D02*
X130259009Y-54297693D01*
X130259009Y-54297693D02*
X130211390Y-54250074D01*
X130211390Y-54250074D02*
X130116152Y-54202455D01*
X115179961Y-67504360D02*
X115227580Y-67409122D01*
X115227580Y-67409122D02*
X115227580Y-67266265D01*
X115227580Y-67266265D02*
X115179961Y-67123408D01*
X115179961Y-67123408D02*
X115084723Y-67028170D01*
X115084723Y-67028170D02*
X114989485Y-66980551D01*
X114989485Y-66980551D02*
X114799009Y-66932932D01*
X114799009Y-66932932D02*
X114656152Y-66932932D01*
X114656152Y-66932932D02*
X114465676Y-66980551D01*
X114465676Y-66980551D02*
X114370438Y-67028170D01*
X114370438Y-67028170D02*
X114275200Y-67123408D01*
X114275200Y-67123408D02*
X114227580Y-67266265D01*
X114227580Y-67266265D02*
X114227580Y-67361503D01*
X114227580Y-67361503D02*
X114275200Y-67504360D01*
X114275200Y-67504360D02*
X114322819Y-67551979D01*
X114322819Y-67551979D02*
X114656152Y-67551979D01*
X114656152Y-67551979D02*
X114656152Y-67361503D01*
X114227580Y-67980551D02*
X115227580Y-67980551D01*
X115227580Y-67980551D02*
X115227580Y-68361503D01*
X115227580Y-68361503D02*
X115179961Y-68456741D01*
X115179961Y-68456741D02*
X115132342Y-68504360D01*
X115132342Y-68504360D02*
X115037104Y-68551979D01*
X115037104Y-68551979D02*
X114894247Y-68551979D01*
X114894247Y-68551979D02*
X114799009Y-68504360D01*
X114799009Y-68504360D02*
X114751390Y-68456741D01*
X114751390Y-68456741D02*
X114703771Y-68361503D01*
X114703771Y-68361503D02*
X114703771Y-67980551D01*
X114227580Y-68980551D02*
X115227580Y-68980551D01*
X115227580Y-69647217D02*
X115227580Y-69837693D01*
X115227580Y-69837693D02*
X115179961Y-69932931D01*
X115179961Y-69932931D02*
X115084723Y-70028169D01*
X115084723Y-70028169D02*
X114894247Y-70075788D01*
X114894247Y-70075788D02*
X114560914Y-70075788D01*
X114560914Y-70075788D02*
X114370438Y-70028169D01*
X114370438Y-70028169D02*
X114275200Y-69932931D01*
X114275200Y-69932931D02*
X114227580Y-69837693D01*
X114227580Y-69837693D02*
X114227580Y-69647217D01*
X114227580Y-69647217D02*
X114275200Y-69551979D01*
X114275200Y-69551979D02*
X114370438Y-69456741D01*
X114370438Y-69456741D02*
X114560914Y-69409122D01*
X114560914Y-69409122D02*
X114894247Y-69409122D01*
X114894247Y-69409122D02*
X115084723Y-69456741D01*
X115084723Y-69456741D02*
X115179961Y-69551979D01*
X115179961Y-69551979D02*
X115227580Y-69647217D01*
X114227580Y-71028169D02*
X114227580Y-70456741D01*
X114227580Y-70742455D02*
X115227580Y-70742455D01*
X115227580Y-70742455D02*
X115084723Y-70647217D01*
X115084723Y-70647217D02*
X114989485Y-70551979D01*
X114989485Y-70551979D02*
X114941866Y-70456741D01*
X115227580Y-71932931D02*
X115227580Y-71456741D01*
X115227580Y-71456741D02*
X114751390Y-71409122D01*
X114751390Y-71409122D02*
X114799009Y-71456741D01*
X114799009Y-71456741D02*
X114846628Y-71551979D01*
X114846628Y-71551979D02*
X114846628Y-71790074D01*
X114846628Y-71790074D02*
X114799009Y-71885312D01*
X114799009Y-71885312D02*
X114751390Y-71932931D01*
X114751390Y-71932931D02*
X114656152Y-71980550D01*
X114656152Y-71980550D02*
X114418057Y-71980550D01*
X114418057Y-71980550D02*
X114322819Y-71932931D01*
X114322819Y-71932931D02*
X114275200Y-71885312D01*
X114275200Y-71885312D02*
X114227580Y-71790074D01*
X114227580Y-71790074D02*
X114227580Y-71551979D01*
X114227580Y-71551979D02*
X114275200Y-71456741D01*
X114275200Y-71456741D02*
X114322819Y-71409122D01*
X145907580Y-49631027D02*
X144907580Y-49964360D01*
X144907580Y-49964360D02*
X145907580Y-50297693D01*
X144907580Y-50631027D02*
X145907580Y-50631027D01*
X145907580Y-50631027D02*
X145907580Y-51011979D01*
X145907580Y-51011979D02*
X145859961Y-51107217D01*
X145859961Y-51107217D02*
X145812342Y-51154836D01*
X145812342Y-51154836D02*
X145717104Y-51202455D01*
X145717104Y-51202455D02*
X145574247Y-51202455D01*
X145574247Y-51202455D02*
X145479009Y-51154836D01*
X145479009Y-51154836D02*
X145431390Y-51107217D01*
X145431390Y-51107217D02*
X145383771Y-51011979D01*
X145383771Y-51011979D02*
X145383771Y-50631027D01*
X145955200Y-52345312D02*
X144669485Y-51488170D01*
X145859961Y-53202455D02*
X145907580Y-53107217D01*
X145907580Y-53107217D02*
X145907580Y-52964360D01*
X145907580Y-52964360D02*
X145859961Y-52821503D01*
X145859961Y-52821503D02*
X145764723Y-52726265D01*
X145764723Y-52726265D02*
X145669485Y-52678646D01*
X145669485Y-52678646D02*
X145479009Y-52631027D01*
X145479009Y-52631027D02*
X145336152Y-52631027D01*
X145336152Y-52631027D02*
X145145676Y-52678646D01*
X145145676Y-52678646D02*
X145050438Y-52726265D01*
X145050438Y-52726265D02*
X144955200Y-52821503D01*
X144955200Y-52821503D02*
X144907580Y-52964360D01*
X144907580Y-52964360D02*
X144907580Y-53059598D01*
X144907580Y-53059598D02*
X144955200Y-53202455D01*
X144955200Y-53202455D02*
X145002819Y-53250074D01*
X145002819Y-53250074D02*
X145336152Y-53250074D01*
X145336152Y-53250074D02*
X145336152Y-53059598D01*
X144907580Y-53678646D02*
X145907580Y-53678646D01*
X145907580Y-53678646D02*
X145907580Y-54059598D01*
X145907580Y-54059598D02*
X145859961Y-54154836D01*
X145859961Y-54154836D02*
X145812342Y-54202455D01*
X145812342Y-54202455D02*
X145717104Y-54250074D01*
X145717104Y-54250074D02*
X145574247Y-54250074D01*
X145574247Y-54250074D02*
X145479009Y-54202455D01*
X145479009Y-54202455D02*
X145431390Y-54154836D01*
X145431390Y-54154836D02*
X145383771Y-54059598D01*
X145383771Y-54059598D02*
X145383771Y-53678646D01*
X144907580Y-54678646D02*
X145907580Y-54678646D01*
X145907580Y-55345312D02*
X145907580Y-55535788D01*
X145907580Y-55535788D02*
X145859961Y-55631026D01*
X145859961Y-55631026D02*
X145764723Y-55726264D01*
X145764723Y-55726264D02*
X145574247Y-55773883D01*
X145574247Y-55773883D02*
X145240914Y-55773883D01*
X145240914Y-55773883D02*
X145050438Y-55726264D01*
X145050438Y-55726264D02*
X144955200Y-55631026D01*
X144955200Y-55631026D02*
X144907580Y-55535788D01*
X144907580Y-55535788D02*
X144907580Y-55345312D01*
X144907580Y-55345312D02*
X144955200Y-55250074D01*
X144955200Y-55250074D02*
X145050438Y-55154836D01*
X145050438Y-55154836D02*
X145240914Y-55107217D01*
X145240914Y-55107217D02*
X145574247Y-55107217D01*
X145574247Y-55107217D02*
X145764723Y-55154836D01*
X145764723Y-55154836D02*
X145859961Y-55250074D01*
X145859961Y-55250074D02*
X145907580Y-55345312D01*
X145907580Y-56107217D02*
X145907580Y-56726264D01*
X145907580Y-56726264D02*
X145526628Y-56392931D01*
X145526628Y-56392931D02*
X145526628Y-56535788D01*
X145526628Y-56535788D02*
X145479009Y-56631026D01*
X145479009Y-56631026D02*
X145431390Y-56678645D01*
X145431390Y-56678645D02*
X145336152Y-56726264D01*
X145336152Y-56726264D02*
X145098057Y-56726264D01*
X145098057Y-56726264D02*
X145002819Y-56678645D01*
X145002819Y-56678645D02*
X144955200Y-56631026D01*
X144955200Y-56631026D02*
X144907580Y-56535788D01*
X144907580Y-56535788D02*
X144907580Y-56250074D01*
X144907580Y-56250074D02*
X144955200Y-56154836D01*
X144955200Y-56154836D02*
X145002819Y-56107217D01*
X145907580Y-57583407D02*
X145907580Y-57392931D01*
X145907580Y-57392931D02*
X145859961Y-57297693D01*
X145859961Y-57297693D02*
X145812342Y-57250074D01*
X145812342Y-57250074D02*
X145669485Y-57154836D01*
X145669485Y-57154836D02*
X145479009Y-57107217D01*
X145479009Y-57107217D02*
X145098057Y-57107217D01*
X145098057Y-57107217D02*
X145002819Y-57154836D01*
X145002819Y-57154836D02*
X144955200Y-57202455D01*
X144955200Y-57202455D02*
X144907580Y-57297693D01*
X144907580Y-57297693D02*
X144907580Y-57488169D01*
X144907580Y-57488169D02*
X144955200Y-57583407D01*
X144955200Y-57583407D02*
X145002819Y-57631026D01*
X145002819Y-57631026D02*
X145098057Y-57678645D01*
X145098057Y-57678645D02*
X145336152Y-57678645D01*
X145336152Y-57678645D02*
X145431390Y-57631026D01*
X145431390Y-57631026D02*
X145479009Y-57583407D01*
X145479009Y-57583407D02*
X145526628Y-57488169D01*
X145526628Y-57488169D02*
X145526628Y-57297693D01*
X145526628Y-57297693D02*
X145479009Y-57202455D01*
X145479009Y-57202455D02*
X145431390Y-57154836D01*
X145431390Y-57154836D02*
X145336152Y-57107217D01*
X92527217Y-48918609D02*
X92670074Y-48966228D01*
X92670074Y-48966228D02*
X92717693Y-49013847D01*
X92717693Y-49013847D02*
X92765312Y-49109085D01*
X92765312Y-49109085D02*
X92765312Y-49251942D01*
X92765312Y-49251942D02*
X92717693Y-49347180D01*
X92717693Y-49347180D02*
X92670074Y-49394800D01*
X92670074Y-49394800D02*
X92574836Y-49442419D01*
X92574836Y-49442419D02*
X92193884Y-49442419D01*
X92193884Y-49442419D02*
X92193884Y-48442419D01*
X92193884Y-48442419D02*
X92527217Y-48442419D01*
X92527217Y-48442419D02*
X92622455Y-48490038D01*
X92622455Y-48490038D02*
X92670074Y-48537657D01*
X92670074Y-48537657D02*
X92717693Y-48632895D01*
X92717693Y-48632895D02*
X92717693Y-48728133D01*
X92717693Y-48728133D02*
X92670074Y-48823371D01*
X92670074Y-48823371D02*
X92622455Y-48870990D01*
X92622455Y-48870990D02*
X92527217Y-48918609D01*
X92527217Y-48918609D02*
X92193884Y-48918609D01*
X93622455Y-49442419D02*
X93622455Y-48918609D01*
X93622455Y-48918609D02*
X93574836Y-48823371D01*
X93574836Y-48823371D02*
X93479598Y-48775752D01*
X93479598Y-48775752D02*
X93289122Y-48775752D01*
X93289122Y-48775752D02*
X93193884Y-48823371D01*
X93622455Y-49394800D02*
X93527217Y-49442419D01*
X93527217Y-49442419D02*
X93289122Y-49442419D01*
X93289122Y-49442419D02*
X93193884Y-49394800D01*
X93193884Y-49394800D02*
X93146265Y-49299561D01*
X93146265Y-49299561D02*
X93146265Y-49204323D01*
X93146265Y-49204323D02*
X93193884Y-49109085D01*
X93193884Y-49109085D02*
X93289122Y-49061466D01*
X93289122Y-49061466D02*
X93527217Y-49061466D01*
X93527217Y-49061466D02*
X93622455Y-49013847D01*
X93955789Y-48775752D02*
X94336741Y-48775752D01*
X94098646Y-48442419D02*
X94098646Y-49299561D01*
X94098646Y-49299561D02*
X94146265Y-49394800D01*
X94146265Y-49394800D02*
X94241503Y-49442419D01*
X94241503Y-49442419D02*
X94336741Y-49442419D01*
X94527218Y-48775752D02*
X94908170Y-48775752D01*
X94670075Y-48442419D02*
X94670075Y-49299561D01*
X94670075Y-49299561D02*
X94717694Y-49394800D01*
X94717694Y-49394800D02*
X94812932Y-49442419D01*
X94812932Y-49442419D02*
X94908170Y-49442419D01*
X95622456Y-49394800D02*
X95527218Y-49442419D01*
X95527218Y-49442419D02*
X95336742Y-49442419D01*
X95336742Y-49442419D02*
X95241504Y-49394800D01*
X95241504Y-49394800D02*
X95193885Y-49299561D01*
X95193885Y-49299561D02*
X95193885Y-48918609D01*
X95193885Y-48918609D02*
X95241504Y-48823371D01*
X95241504Y-48823371D02*
X95336742Y-48775752D01*
X95336742Y-48775752D02*
X95527218Y-48775752D01*
X95527218Y-48775752D02*
X95622456Y-48823371D01*
X95622456Y-48823371D02*
X95670075Y-48918609D01*
X95670075Y-48918609D02*
X95670075Y-49013847D01*
X95670075Y-49013847D02*
X95193885Y-49109085D01*
X96098647Y-49442419D02*
X96098647Y-48775752D01*
X96098647Y-48966228D02*
X96146266Y-48870990D01*
X96146266Y-48870990D02*
X96193885Y-48823371D01*
X96193885Y-48823371D02*
X96289123Y-48775752D01*
X96289123Y-48775752D02*
X96384361Y-48775752D01*
X96622457Y-48775752D02*
X96860552Y-49442419D01*
X97098647Y-48775752D02*
X96860552Y-49442419D01*
X96860552Y-49442419D02*
X96765314Y-49680514D01*
X96765314Y-49680514D02*
X96717695Y-49728133D01*
X96717695Y-49728133D02*
X96622457Y-49775752D01*
X145649961Y-67504360D02*
X145697580Y-67409122D01*
X145697580Y-67409122D02*
X145697580Y-67266265D01*
X145697580Y-67266265D02*
X145649961Y-67123408D01*
X145649961Y-67123408D02*
X145554723Y-67028170D01*
X145554723Y-67028170D02*
X145459485Y-66980551D01*
X145459485Y-66980551D02*
X145269009Y-66932932D01*
X145269009Y-66932932D02*
X145126152Y-66932932D01*
X145126152Y-66932932D02*
X144935676Y-66980551D01*
X144935676Y-66980551D02*
X144840438Y-67028170D01*
X144840438Y-67028170D02*
X144745200Y-67123408D01*
X144745200Y-67123408D02*
X144697580Y-67266265D01*
X144697580Y-67266265D02*
X144697580Y-67361503D01*
X144697580Y-67361503D02*
X144745200Y-67504360D01*
X144745200Y-67504360D02*
X144792819Y-67551979D01*
X144792819Y-67551979D02*
X145126152Y-67551979D01*
X145126152Y-67551979D02*
X145126152Y-67361503D01*
X144697580Y-67980551D02*
X145697580Y-67980551D01*
X145697580Y-67980551D02*
X145697580Y-68361503D01*
X145697580Y-68361503D02*
X145649961Y-68456741D01*
X145649961Y-68456741D02*
X145602342Y-68504360D01*
X145602342Y-68504360D02*
X145507104Y-68551979D01*
X145507104Y-68551979D02*
X145364247Y-68551979D01*
X145364247Y-68551979D02*
X145269009Y-68504360D01*
X145269009Y-68504360D02*
X145221390Y-68456741D01*
X145221390Y-68456741D02*
X145173771Y-68361503D01*
X145173771Y-68361503D02*
X145173771Y-67980551D01*
X144697580Y-68980551D02*
X145697580Y-68980551D01*
X145697580Y-69647217D02*
X145697580Y-69837693D01*
X145697580Y-69837693D02*
X145649961Y-69932931D01*
X145649961Y-69932931D02*
X145554723Y-70028169D01*
X145554723Y-70028169D02*
X145364247Y-70075788D01*
X145364247Y-70075788D02*
X145030914Y-70075788D01*
X145030914Y-70075788D02*
X144840438Y-70028169D01*
X144840438Y-70028169D02*
X144745200Y-69932931D01*
X144745200Y-69932931D02*
X144697580Y-69837693D01*
X144697580Y-69837693D02*
X144697580Y-69647217D01*
X144697580Y-69647217D02*
X144745200Y-69551979D01*
X144745200Y-69551979D02*
X144840438Y-69456741D01*
X144840438Y-69456741D02*
X145030914Y-69409122D01*
X145030914Y-69409122D02*
X145364247Y-69409122D01*
X145364247Y-69409122D02*
X145554723Y-69456741D01*
X145554723Y-69456741D02*
X145649961Y-69551979D01*
X145649961Y-69551979D02*
X145697580Y-69647217D01*
X145602342Y-70456741D02*
X145649961Y-70504360D01*
X145649961Y-70504360D02*
X145697580Y-70599598D01*
X145697580Y-70599598D02*
X145697580Y-70837693D01*
X145697580Y-70837693D02*
X145649961Y-70932931D01*
X145649961Y-70932931D02*
X145602342Y-70980550D01*
X145602342Y-70980550D02*
X145507104Y-71028169D01*
X145507104Y-71028169D02*
X145411866Y-71028169D01*
X145411866Y-71028169D02*
X145269009Y-70980550D01*
X145269009Y-70980550D02*
X144697580Y-70409122D01*
X144697580Y-70409122D02*
X144697580Y-71028169D01*
X145602342Y-71409122D02*
X145649961Y-71456741D01*
X145649961Y-71456741D02*
X145697580Y-71551979D01*
X145697580Y-71551979D02*
X145697580Y-71790074D01*
X145697580Y-71790074D02*
X145649961Y-71885312D01*
X145649961Y-71885312D02*
X145602342Y-71932931D01*
X145602342Y-71932931D02*
X145507104Y-71980550D01*
X145507104Y-71980550D02*
X145411866Y-71980550D01*
X145411866Y-71980550D02*
X145269009Y-71932931D01*
X145269009Y-71932931D02*
X144697580Y-71361503D01*
X144697580Y-71361503D02*
X144697580Y-71980550D01*
X93427580Y-59103884D02*
X92618057Y-59103884D01*
X92618057Y-59103884D02*
X92522819Y-59151503D01*
X92522819Y-59151503D02*
X92475200Y-59199122D01*
X92475200Y-59199122D02*
X92427580Y-59294360D01*
X92427580Y-59294360D02*
X92427580Y-59484836D01*
X92427580Y-59484836D02*
X92475200Y-59580074D01*
X92475200Y-59580074D02*
X92522819Y-59627693D01*
X92522819Y-59627693D02*
X92618057Y-59675312D01*
X92618057Y-59675312D02*
X93427580Y-59675312D01*
X92475200Y-60103884D02*
X92427580Y-60246741D01*
X92427580Y-60246741D02*
X92427580Y-60484836D01*
X92427580Y-60484836D02*
X92475200Y-60580074D01*
X92475200Y-60580074D02*
X92522819Y-60627693D01*
X92522819Y-60627693D02*
X92618057Y-60675312D01*
X92618057Y-60675312D02*
X92713295Y-60675312D01*
X92713295Y-60675312D02*
X92808533Y-60627693D01*
X92808533Y-60627693D02*
X92856152Y-60580074D01*
X92856152Y-60580074D02*
X92903771Y-60484836D01*
X92903771Y-60484836D02*
X92951390Y-60294360D01*
X92951390Y-60294360D02*
X92999009Y-60199122D01*
X92999009Y-60199122D02*
X93046628Y-60151503D01*
X93046628Y-60151503D02*
X93141866Y-60103884D01*
X93141866Y-60103884D02*
X93237104Y-60103884D01*
X93237104Y-60103884D02*
X93332342Y-60151503D01*
X93332342Y-60151503D02*
X93379961Y-60199122D01*
X93379961Y-60199122D02*
X93427580Y-60294360D01*
X93427580Y-60294360D02*
X93427580Y-60532455D01*
X93427580Y-60532455D02*
X93379961Y-60675312D01*
X92951390Y-61437217D02*
X92903771Y-61580074D01*
X92903771Y-61580074D02*
X92856152Y-61627693D01*
X92856152Y-61627693D02*
X92760914Y-61675312D01*
X92760914Y-61675312D02*
X92618057Y-61675312D01*
X92618057Y-61675312D02*
X92522819Y-61627693D01*
X92522819Y-61627693D02*
X92475200Y-61580074D01*
X92475200Y-61580074D02*
X92427580Y-61484836D01*
X92427580Y-61484836D02*
X92427580Y-61103884D01*
X92427580Y-61103884D02*
X93427580Y-61103884D01*
X93427580Y-61103884D02*
X93427580Y-61437217D01*
X93427580Y-61437217D02*
X93379961Y-61532455D01*
X93379961Y-61532455D02*
X93332342Y-61580074D01*
X93332342Y-61580074D02*
X93237104Y-61627693D01*
X93237104Y-61627693D02*
X93141866Y-61627693D01*
X93141866Y-61627693D02*
X93046628Y-61580074D01*
X93046628Y-61580074D02*
X92999009Y-61532455D01*
X92999009Y-61532455D02*
X92951390Y-61437217D01*
X92951390Y-61437217D02*
X92951390Y-61103884D01*
X98576265Y-70984800D02*
X98719122Y-71032419D01*
X98719122Y-71032419D02*
X98957217Y-71032419D01*
X98957217Y-71032419D02*
X99052455Y-70984800D01*
X99052455Y-70984800D02*
X99100074Y-70937180D01*
X99100074Y-70937180D02*
X99147693Y-70841942D01*
X99147693Y-70841942D02*
X99147693Y-70746704D01*
X99147693Y-70746704D02*
X99100074Y-70651466D01*
X99100074Y-70651466D02*
X99052455Y-70603847D01*
X99052455Y-70603847D02*
X98957217Y-70556228D01*
X98957217Y-70556228D02*
X98766741Y-70508609D01*
X98766741Y-70508609D02*
X98671503Y-70460990D01*
X98671503Y-70460990D02*
X98623884Y-70413371D01*
X98623884Y-70413371D02*
X98576265Y-70318133D01*
X98576265Y-70318133D02*
X98576265Y-70222895D01*
X98576265Y-70222895D02*
X98623884Y-70127657D01*
X98623884Y-70127657D02*
X98671503Y-70080038D01*
X98671503Y-70080038D02*
X98766741Y-70032419D01*
X98766741Y-70032419D02*
X99004836Y-70032419D01*
X99004836Y-70032419D02*
X99147693Y-70080038D01*
X99576265Y-71032419D02*
X99576265Y-70032419D01*
X99576265Y-70032419D02*
X99814360Y-70032419D01*
X99814360Y-70032419D02*
X99957217Y-70080038D01*
X99957217Y-70080038D02*
X100052455Y-70175276D01*
X100052455Y-70175276D02*
X100100074Y-70270514D01*
X100100074Y-70270514D02*
X100147693Y-70460990D01*
X100147693Y-70460990D02*
X100147693Y-70603847D01*
X100147693Y-70603847D02*
X100100074Y-70794323D01*
X100100074Y-70794323D02*
X100052455Y-70889561D01*
X100052455Y-70889561D02*
X99957217Y-70984800D01*
X99957217Y-70984800D02*
X99814360Y-71032419D01*
X99814360Y-71032419D02*
X99576265Y-71032419D01*
X101147693Y-70937180D02*
X101100074Y-70984800D01*
X101100074Y-70984800D02*
X100957217Y-71032419D01*
X100957217Y-71032419D02*
X100861979Y-71032419D01*
X100861979Y-71032419D02*
X100719122Y-70984800D01*
X100719122Y-70984800D02*
X100623884Y-70889561D01*
X100623884Y-70889561D02*
X100576265Y-70794323D01*
X100576265Y-70794323D02*
X100528646Y-70603847D01*
X100528646Y-70603847D02*
X100528646Y-70460990D01*
X100528646Y-70460990D02*
X100576265Y-70270514D01*
X100576265Y-70270514D02*
X100623884Y-70175276D01*
X100623884Y-70175276D02*
X100719122Y-70080038D01*
X100719122Y-70080038D02*
X100861979Y-70032419D01*
X100861979Y-70032419D02*
X100957217Y-70032419D01*
X100957217Y-70032419D02*
X101100074Y-70080038D01*
X101100074Y-70080038D02*
X101147693Y-70127657D01*
X102004836Y-71032419D02*
X102004836Y-70508609D01*
X102004836Y-70508609D02*
X101957217Y-70413371D01*
X101957217Y-70413371D02*
X101861979Y-70365752D01*
X101861979Y-70365752D02*
X101671503Y-70365752D01*
X101671503Y-70365752D02*
X101576265Y-70413371D01*
X102004836Y-70984800D02*
X101909598Y-71032419D01*
X101909598Y-71032419D02*
X101671503Y-71032419D01*
X101671503Y-71032419D02*
X101576265Y-70984800D01*
X101576265Y-70984800D02*
X101528646Y-70889561D01*
X101528646Y-70889561D02*
X101528646Y-70794323D01*
X101528646Y-70794323D02*
X101576265Y-70699085D01*
X101576265Y-70699085D02*
X101671503Y-70651466D01*
X101671503Y-70651466D02*
X101909598Y-70651466D01*
X101909598Y-70651466D02*
X102004836Y-70603847D01*
X102481027Y-71032419D02*
X102481027Y-70365752D01*
X102481027Y-70556228D02*
X102528646Y-70460990D01*
X102528646Y-70460990D02*
X102576265Y-70413371D01*
X102576265Y-70413371D02*
X102671503Y-70365752D01*
X102671503Y-70365752D02*
X102766741Y-70365752D01*
X103528646Y-71032419D02*
X103528646Y-70032419D01*
X103528646Y-70984800D02*
X103433408Y-71032419D01*
X103433408Y-71032419D02*
X103242932Y-71032419D01*
X103242932Y-71032419D02*
X103147694Y-70984800D01*
X103147694Y-70984800D02*
X103100075Y-70937180D01*
X103100075Y-70937180D02*
X103052456Y-70841942D01*
X103052456Y-70841942D02*
X103052456Y-70556228D01*
X103052456Y-70556228D02*
X103100075Y-70460990D01*
X103100075Y-70460990D02*
X103147694Y-70413371D01*
X103147694Y-70413371D02*
X103242932Y-70365752D01*
X103242932Y-70365752D02*
X103433408Y-70365752D01*
X103433408Y-70365752D02*
X103528646Y-70413371D01*
X148059961Y-67504360D02*
X148107580Y-67409122D01*
X148107580Y-67409122D02*
X148107580Y-67266265D01*
X148107580Y-67266265D02*
X148059961Y-67123408D01*
X148059961Y-67123408D02*
X147964723Y-67028170D01*
X147964723Y-67028170D02*
X147869485Y-66980551D01*
X147869485Y-66980551D02*
X147679009Y-66932932D01*
X147679009Y-66932932D02*
X147536152Y-66932932D01*
X147536152Y-66932932D02*
X147345676Y-66980551D01*
X147345676Y-66980551D02*
X147250438Y-67028170D01*
X147250438Y-67028170D02*
X147155200Y-67123408D01*
X147155200Y-67123408D02*
X147107580Y-67266265D01*
X147107580Y-67266265D02*
X147107580Y-67361503D01*
X147107580Y-67361503D02*
X147155200Y-67504360D01*
X147155200Y-67504360D02*
X147202819Y-67551979D01*
X147202819Y-67551979D02*
X147536152Y-67551979D01*
X147536152Y-67551979D02*
X147536152Y-67361503D01*
X147107580Y-67980551D02*
X148107580Y-67980551D01*
X148107580Y-67980551D02*
X148107580Y-68361503D01*
X148107580Y-68361503D02*
X148059961Y-68456741D01*
X148059961Y-68456741D02*
X148012342Y-68504360D01*
X148012342Y-68504360D02*
X147917104Y-68551979D01*
X147917104Y-68551979D02*
X147774247Y-68551979D01*
X147774247Y-68551979D02*
X147679009Y-68504360D01*
X147679009Y-68504360D02*
X147631390Y-68456741D01*
X147631390Y-68456741D02*
X147583771Y-68361503D01*
X147583771Y-68361503D02*
X147583771Y-67980551D01*
X147107580Y-68980551D02*
X148107580Y-68980551D01*
X148107580Y-69647217D02*
X148107580Y-69837693D01*
X148107580Y-69837693D02*
X148059961Y-69932931D01*
X148059961Y-69932931D02*
X147964723Y-70028169D01*
X147964723Y-70028169D02*
X147774247Y-70075788D01*
X147774247Y-70075788D02*
X147440914Y-70075788D01*
X147440914Y-70075788D02*
X147250438Y-70028169D01*
X147250438Y-70028169D02*
X147155200Y-69932931D01*
X147155200Y-69932931D02*
X147107580Y-69837693D01*
X147107580Y-69837693D02*
X147107580Y-69647217D01*
X147107580Y-69647217D02*
X147155200Y-69551979D01*
X147155200Y-69551979D02*
X147250438Y-69456741D01*
X147250438Y-69456741D02*
X147440914Y-69409122D01*
X147440914Y-69409122D02*
X147774247Y-69409122D01*
X147774247Y-69409122D02*
X147964723Y-69456741D01*
X147964723Y-69456741D02*
X148059961Y-69551979D01*
X148059961Y-69551979D02*
X148107580Y-69647217D01*
X148012342Y-70456741D02*
X148059961Y-70504360D01*
X148059961Y-70504360D02*
X148107580Y-70599598D01*
X148107580Y-70599598D02*
X148107580Y-70837693D01*
X148107580Y-70837693D02*
X148059961Y-70932931D01*
X148059961Y-70932931D02*
X148012342Y-70980550D01*
X148012342Y-70980550D02*
X147917104Y-71028169D01*
X147917104Y-71028169D02*
X147821866Y-71028169D01*
X147821866Y-71028169D02*
X147679009Y-70980550D01*
X147679009Y-70980550D02*
X147107580Y-70409122D01*
X147107580Y-70409122D02*
X147107580Y-71028169D01*
X148107580Y-71361503D02*
X148107580Y-71980550D01*
X148107580Y-71980550D02*
X147726628Y-71647217D01*
X147726628Y-71647217D02*
X147726628Y-71790074D01*
X147726628Y-71790074D02*
X147679009Y-71885312D01*
X147679009Y-71885312D02*
X147631390Y-71932931D01*
X147631390Y-71932931D02*
X147536152Y-71980550D01*
X147536152Y-71980550D02*
X147298057Y-71980550D01*
X147298057Y-71980550D02*
X147202819Y-71932931D01*
X147202819Y-71932931D02*
X147155200Y-71885312D01*
X147155200Y-71885312D02*
X147107580Y-71790074D01*
X147107580Y-71790074D02*
X147107580Y-71504360D01*
X147107580Y-71504360D02*
X147155200Y-71409122D01*
X147155200Y-71409122D02*
X147202819Y-71361503D01*
X130439961Y-67504360D02*
X130487580Y-67409122D01*
X130487580Y-67409122D02*
X130487580Y-67266265D01*
X130487580Y-67266265D02*
X130439961Y-67123408D01*
X130439961Y-67123408D02*
X130344723Y-67028170D01*
X130344723Y-67028170D02*
X130249485Y-66980551D01*
X130249485Y-66980551D02*
X130059009Y-66932932D01*
X130059009Y-66932932D02*
X129916152Y-66932932D01*
X129916152Y-66932932D02*
X129725676Y-66980551D01*
X129725676Y-66980551D02*
X129630438Y-67028170D01*
X129630438Y-67028170D02*
X129535200Y-67123408D01*
X129535200Y-67123408D02*
X129487580Y-67266265D01*
X129487580Y-67266265D02*
X129487580Y-67361503D01*
X129487580Y-67361503D02*
X129535200Y-67504360D01*
X129535200Y-67504360D02*
X129582819Y-67551979D01*
X129582819Y-67551979D02*
X129916152Y-67551979D01*
X129916152Y-67551979D02*
X129916152Y-67361503D01*
X129487580Y-67980551D02*
X130487580Y-67980551D01*
X130487580Y-67980551D02*
X130487580Y-68361503D01*
X130487580Y-68361503D02*
X130439961Y-68456741D01*
X130439961Y-68456741D02*
X130392342Y-68504360D01*
X130392342Y-68504360D02*
X130297104Y-68551979D01*
X130297104Y-68551979D02*
X130154247Y-68551979D01*
X130154247Y-68551979D02*
X130059009Y-68504360D01*
X130059009Y-68504360D02*
X130011390Y-68456741D01*
X130011390Y-68456741D02*
X129963771Y-68361503D01*
X129963771Y-68361503D02*
X129963771Y-67980551D01*
X129487580Y-68980551D02*
X130487580Y-68980551D01*
X130487580Y-69647217D02*
X130487580Y-69837693D01*
X130487580Y-69837693D02*
X130439961Y-69932931D01*
X130439961Y-69932931D02*
X130344723Y-70028169D01*
X130344723Y-70028169D02*
X130154247Y-70075788D01*
X130154247Y-70075788D02*
X129820914Y-70075788D01*
X129820914Y-70075788D02*
X129630438Y-70028169D01*
X129630438Y-70028169D02*
X129535200Y-69932931D01*
X129535200Y-69932931D02*
X129487580Y-69837693D01*
X129487580Y-69837693D02*
X129487580Y-69647217D01*
X129487580Y-69647217D02*
X129535200Y-69551979D01*
X129535200Y-69551979D02*
X129630438Y-69456741D01*
X129630438Y-69456741D02*
X129820914Y-69409122D01*
X129820914Y-69409122D02*
X130154247Y-69409122D01*
X130154247Y-69409122D02*
X130344723Y-69456741D01*
X130344723Y-69456741D02*
X130439961Y-69551979D01*
X130439961Y-69551979D02*
X130487580Y-69647217D01*
X130487580Y-70694836D02*
X130487580Y-70790074D01*
X130487580Y-70790074D02*
X130439961Y-70885312D01*
X130439961Y-70885312D02*
X130392342Y-70932931D01*
X130392342Y-70932931D02*
X130297104Y-70980550D01*
X130297104Y-70980550D02*
X130106628Y-71028169D01*
X130106628Y-71028169D02*
X129868533Y-71028169D01*
X129868533Y-71028169D02*
X129678057Y-70980550D01*
X129678057Y-70980550D02*
X129582819Y-70932931D01*
X129582819Y-70932931D02*
X129535200Y-70885312D01*
X129535200Y-70885312D02*
X129487580Y-70790074D01*
X129487580Y-70790074D02*
X129487580Y-70694836D01*
X129487580Y-70694836D02*
X129535200Y-70599598D01*
X129535200Y-70599598D02*
X129582819Y-70551979D01*
X129582819Y-70551979D02*
X129678057Y-70504360D01*
X129678057Y-70504360D02*
X129868533Y-70456741D01*
X129868533Y-70456741D02*
X130106628Y-70456741D01*
X130106628Y-70456741D02*
X130297104Y-70504360D01*
X130297104Y-70504360D02*
X130392342Y-70551979D01*
X130392342Y-70551979D02*
X130439961Y-70599598D01*
X130439961Y-70599598D02*
X130487580Y-70694836D01*
X130487580Y-71932931D02*
X130487580Y-71456741D01*
X130487580Y-71456741D02*
X130011390Y-71409122D01*
X130011390Y-71409122D02*
X130059009Y-71456741D01*
X130059009Y-71456741D02*
X130106628Y-71551979D01*
X130106628Y-71551979D02*
X130106628Y-71790074D01*
X130106628Y-71790074D02*
X130059009Y-71885312D01*
X130059009Y-71885312D02*
X130011390Y-71932931D01*
X130011390Y-71932931D02*
X129916152Y-71980550D01*
X129916152Y-71980550D02*
X129678057Y-71980550D01*
X129678057Y-71980550D02*
X129582819Y-71932931D01*
X129582819Y-71932931D02*
X129535200Y-71885312D01*
X129535200Y-71885312D02*
X129487580Y-71790074D01*
X129487580Y-71790074D02*
X129487580Y-71551979D01*
X129487580Y-71551979D02*
X129535200Y-71456741D01*
X129535200Y-71456741D02*
X129582819Y-71409122D01*
X120129961Y-67504360D02*
X120177580Y-67409122D01*
X120177580Y-67409122D02*
X120177580Y-67266265D01*
X120177580Y-67266265D02*
X120129961Y-67123408D01*
X120129961Y-67123408D02*
X120034723Y-67028170D01*
X120034723Y-67028170D02*
X119939485Y-66980551D01*
X119939485Y-66980551D02*
X119749009Y-66932932D01*
X119749009Y-66932932D02*
X119606152Y-66932932D01*
X119606152Y-66932932D02*
X119415676Y-66980551D01*
X119415676Y-66980551D02*
X119320438Y-67028170D01*
X119320438Y-67028170D02*
X119225200Y-67123408D01*
X119225200Y-67123408D02*
X119177580Y-67266265D01*
X119177580Y-67266265D02*
X119177580Y-67361503D01*
X119177580Y-67361503D02*
X119225200Y-67504360D01*
X119225200Y-67504360D02*
X119272819Y-67551979D01*
X119272819Y-67551979D02*
X119606152Y-67551979D01*
X119606152Y-67551979D02*
X119606152Y-67361503D01*
X119177580Y-67980551D02*
X120177580Y-67980551D01*
X120177580Y-67980551D02*
X120177580Y-68361503D01*
X120177580Y-68361503D02*
X120129961Y-68456741D01*
X120129961Y-68456741D02*
X120082342Y-68504360D01*
X120082342Y-68504360D02*
X119987104Y-68551979D01*
X119987104Y-68551979D02*
X119844247Y-68551979D01*
X119844247Y-68551979D02*
X119749009Y-68504360D01*
X119749009Y-68504360D02*
X119701390Y-68456741D01*
X119701390Y-68456741D02*
X119653771Y-68361503D01*
X119653771Y-68361503D02*
X119653771Y-67980551D01*
X119177580Y-68980551D02*
X120177580Y-68980551D01*
X120177580Y-69647217D02*
X120177580Y-69837693D01*
X120177580Y-69837693D02*
X120129961Y-69932931D01*
X120129961Y-69932931D02*
X120034723Y-70028169D01*
X120034723Y-70028169D02*
X119844247Y-70075788D01*
X119844247Y-70075788D02*
X119510914Y-70075788D01*
X119510914Y-70075788D02*
X119320438Y-70028169D01*
X119320438Y-70028169D02*
X119225200Y-69932931D01*
X119225200Y-69932931D02*
X119177580Y-69837693D01*
X119177580Y-69837693D02*
X119177580Y-69647217D01*
X119177580Y-69647217D02*
X119225200Y-69551979D01*
X119225200Y-69551979D02*
X119320438Y-69456741D01*
X119320438Y-69456741D02*
X119510914Y-69409122D01*
X119510914Y-69409122D02*
X119844247Y-69409122D01*
X119844247Y-69409122D02*
X120034723Y-69456741D01*
X120034723Y-69456741D02*
X120129961Y-69551979D01*
X120129961Y-69551979D02*
X120177580Y-69647217D01*
X120177580Y-70694836D02*
X120177580Y-70790074D01*
X120177580Y-70790074D02*
X120129961Y-70885312D01*
X120129961Y-70885312D02*
X120082342Y-70932931D01*
X120082342Y-70932931D02*
X119987104Y-70980550D01*
X119987104Y-70980550D02*
X119796628Y-71028169D01*
X119796628Y-71028169D02*
X119558533Y-71028169D01*
X119558533Y-71028169D02*
X119368057Y-70980550D01*
X119368057Y-70980550D02*
X119272819Y-70932931D01*
X119272819Y-70932931D02*
X119225200Y-70885312D01*
X119225200Y-70885312D02*
X119177580Y-70790074D01*
X119177580Y-70790074D02*
X119177580Y-70694836D01*
X119177580Y-70694836D02*
X119225200Y-70599598D01*
X119225200Y-70599598D02*
X119272819Y-70551979D01*
X119272819Y-70551979D02*
X119368057Y-70504360D01*
X119368057Y-70504360D02*
X119558533Y-70456741D01*
X119558533Y-70456741D02*
X119796628Y-70456741D01*
X119796628Y-70456741D02*
X119987104Y-70504360D01*
X119987104Y-70504360D02*
X120082342Y-70551979D01*
X120082342Y-70551979D02*
X120129961Y-70599598D01*
X120129961Y-70599598D02*
X120177580Y-70694836D01*
X120177580Y-71647217D02*
X120177580Y-71742455D01*
X120177580Y-71742455D02*
X120129961Y-71837693D01*
X120129961Y-71837693D02*
X120082342Y-71885312D01*
X120082342Y-71885312D02*
X119987104Y-71932931D01*
X119987104Y-71932931D02*
X119796628Y-71980550D01*
X119796628Y-71980550D02*
X119558533Y-71980550D01*
X119558533Y-71980550D02*
X119368057Y-71932931D01*
X119368057Y-71932931D02*
X119272819Y-71885312D01*
X119272819Y-71885312D02*
X119225200Y-71837693D01*
X119225200Y-71837693D02*
X119177580Y-71742455D01*
X119177580Y-71742455D02*
X119177580Y-71647217D01*
X119177580Y-71647217D02*
X119225200Y-71551979D01*
X119225200Y-71551979D02*
X119272819Y-71504360D01*
X119272819Y-71504360D02*
X119368057Y-71456741D01*
X119368057Y-71456741D02*
X119558533Y-71409122D01*
X119558533Y-71409122D02*
X119796628Y-71409122D01*
X119796628Y-71409122D02*
X119987104Y-71456741D01*
X119987104Y-71456741D02*
X120082342Y-71504360D01*
X120082342Y-71504360D02*
X120129961Y-71551979D01*
X120129961Y-71551979D02*
X120177580Y-71647217D01*
X120349961Y-50297693D02*
X120397580Y-50202455D01*
X120397580Y-50202455D02*
X120397580Y-50059598D01*
X120397580Y-50059598D02*
X120349961Y-49916741D01*
X120349961Y-49916741D02*
X120254723Y-49821503D01*
X120254723Y-49821503D02*
X120159485Y-49773884D01*
X120159485Y-49773884D02*
X119969009Y-49726265D01*
X119969009Y-49726265D02*
X119826152Y-49726265D01*
X119826152Y-49726265D02*
X119635676Y-49773884D01*
X119635676Y-49773884D02*
X119540438Y-49821503D01*
X119540438Y-49821503D02*
X119445200Y-49916741D01*
X119445200Y-49916741D02*
X119397580Y-50059598D01*
X119397580Y-50059598D02*
X119397580Y-50154836D01*
X119397580Y-50154836D02*
X119445200Y-50297693D01*
X119445200Y-50297693D02*
X119492819Y-50345312D01*
X119492819Y-50345312D02*
X119826152Y-50345312D01*
X119826152Y-50345312D02*
X119826152Y-50154836D01*
X119397580Y-50773884D02*
X120397580Y-50773884D01*
X120397580Y-50773884D02*
X120397580Y-51154836D01*
X120397580Y-51154836D02*
X120349961Y-51250074D01*
X120349961Y-51250074D02*
X120302342Y-51297693D01*
X120302342Y-51297693D02*
X120207104Y-51345312D01*
X120207104Y-51345312D02*
X120064247Y-51345312D01*
X120064247Y-51345312D02*
X119969009Y-51297693D01*
X119969009Y-51297693D02*
X119921390Y-51250074D01*
X119921390Y-51250074D02*
X119873771Y-51154836D01*
X119873771Y-51154836D02*
X119873771Y-50773884D01*
X119397580Y-51773884D02*
X120397580Y-51773884D01*
X120397580Y-52440550D02*
X120397580Y-52631026D01*
X120397580Y-52631026D02*
X120349961Y-52726264D01*
X120349961Y-52726264D02*
X120254723Y-52821502D01*
X120254723Y-52821502D02*
X120064247Y-52869121D01*
X120064247Y-52869121D02*
X119730914Y-52869121D01*
X119730914Y-52869121D02*
X119540438Y-52821502D01*
X119540438Y-52821502D02*
X119445200Y-52726264D01*
X119445200Y-52726264D02*
X119397580Y-52631026D01*
X119397580Y-52631026D02*
X119397580Y-52440550D01*
X119397580Y-52440550D02*
X119445200Y-52345312D01*
X119445200Y-52345312D02*
X119540438Y-52250074D01*
X119540438Y-52250074D02*
X119730914Y-52202455D01*
X119730914Y-52202455D02*
X120064247Y-52202455D01*
X120064247Y-52202455D02*
X120254723Y-52250074D01*
X120254723Y-52250074D02*
X120349961Y-52345312D01*
X120349961Y-52345312D02*
X120397580Y-52440550D01*
X119397580Y-53821502D02*
X119397580Y-53250074D01*
X119397580Y-53535788D02*
X120397580Y-53535788D01*
X120397580Y-53535788D02*
X120254723Y-53440550D01*
X120254723Y-53440550D02*
X120159485Y-53345312D01*
X120159485Y-53345312D02*
X120111866Y-53250074D01*
X120397580Y-54154836D02*
X120397580Y-54773883D01*
X120397580Y-54773883D02*
X120016628Y-54440550D01*
X120016628Y-54440550D02*
X120016628Y-54583407D01*
X120016628Y-54583407D02*
X119969009Y-54678645D01*
X119969009Y-54678645D02*
X119921390Y-54726264D01*
X119921390Y-54726264D02*
X119826152Y-54773883D01*
X119826152Y-54773883D02*
X119588057Y-54773883D01*
X119588057Y-54773883D02*
X119492819Y-54726264D01*
X119492819Y-54726264D02*
X119445200Y-54678645D01*
X119445200Y-54678645D02*
X119397580Y-54583407D01*
X119397580Y-54583407D02*
X119397580Y-54297693D01*
X119397580Y-54297693D02*
X119445200Y-54202455D01*
X119445200Y-54202455D02*
X119492819Y-54154836D01*
X150779961Y-69885312D02*
X150827580Y-69790074D01*
X150827580Y-69790074D02*
X150827580Y-69647217D01*
X150827580Y-69647217D02*
X150779961Y-69504360D01*
X150779961Y-69504360D02*
X150684723Y-69409122D01*
X150684723Y-69409122D02*
X150589485Y-69361503D01*
X150589485Y-69361503D02*
X150399009Y-69313884D01*
X150399009Y-69313884D02*
X150256152Y-69313884D01*
X150256152Y-69313884D02*
X150065676Y-69361503D01*
X150065676Y-69361503D02*
X149970438Y-69409122D01*
X149970438Y-69409122D02*
X149875200Y-69504360D01*
X149875200Y-69504360D02*
X149827580Y-69647217D01*
X149827580Y-69647217D02*
X149827580Y-69742455D01*
X149827580Y-69742455D02*
X149875200Y-69885312D01*
X149875200Y-69885312D02*
X149922819Y-69932931D01*
X149922819Y-69932931D02*
X150256152Y-69932931D01*
X150256152Y-69932931D02*
X150256152Y-69742455D01*
X149827580Y-70361503D02*
X150827580Y-70361503D01*
X150827580Y-70361503D02*
X149827580Y-70932931D01*
X149827580Y-70932931D02*
X150827580Y-70932931D01*
X149827580Y-71409122D02*
X150827580Y-71409122D01*
X150827580Y-71409122D02*
X150827580Y-71647217D01*
X150827580Y-71647217D02*
X150779961Y-71790074D01*
X150779961Y-71790074D02*
X150684723Y-71885312D01*
X150684723Y-71885312D02*
X150589485Y-71932931D01*
X150589485Y-71932931D02*
X150399009Y-71980550D01*
X150399009Y-71980550D02*
X150256152Y-71980550D01*
X150256152Y-71980550D02*
X150065676Y-71932931D01*
X150065676Y-71932931D02*
X149970438Y-71885312D01*
X149970438Y-71885312D02*
X149875200Y-71790074D01*
X149875200Y-71790074D02*
X149827580Y-71647217D01*
X149827580Y-71647217D02*
X149827580Y-71409122D01*
X137799961Y-67504360D02*
X137847580Y-67409122D01*
X137847580Y-67409122D02*
X137847580Y-67266265D01*
X137847580Y-67266265D02*
X137799961Y-67123408D01*
X137799961Y-67123408D02*
X137704723Y-67028170D01*
X137704723Y-67028170D02*
X137609485Y-66980551D01*
X137609485Y-66980551D02*
X137419009Y-66932932D01*
X137419009Y-66932932D02*
X137276152Y-66932932D01*
X137276152Y-66932932D02*
X137085676Y-66980551D01*
X137085676Y-66980551D02*
X136990438Y-67028170D01*
X136990438Y-67028170D02*
X136895200Y-67123408D01*
X136895200Y-67123408D02*
X136847580Y-67266265D01*
X136847580Y-67266265D02*
X136847580Y-67361503D01*
X136847580Y-67361503D02*
X136895200Y-67504360D01*
X136895200Y-67504360D02*
X136942819Y-67551979D01*
X136942819Y-67551979D02*
X137276152Y-67551979D01*
X137276152Y-67551979D02*
X137276152Y-67361503D01*
X136847580Y-67980551D02*
X137847580Y-67980551D01*
X137847580Y-67980551D02*
X137847580Y-68361503D01*
X137847580Y-68361503D02*
X137799961Y-68456741D01*
X137799961Y-68456741D02*
X137752342Y-68504360D01*
X137752342Y-68504360D02*
X137657104Y-68551979D01*
X137657104Y-68551979D02*
X137514247Y-68551979D01*
X137514247Y-68551979D02*
X137419009Y-68504360D01*
X137419009Y-68504360D02*
X137371390Y-68456741D01*
X137371390Y-68456741D02*
X137323771Y-68361503D01*
X137323771Y-68361503D02*
X137323771Y-67980551D01*
X136847580Y-68980551D02*
X137847580Y-68980551D01*
X137847580Y-69647217D02*
X137847580Y-69837693D01*
X137847580Y-69837693D02*
X137799961Y-69932931D01*
X137799961Y-69932931D02*
X137704723Y-70028169D01*
X137704723Y-70028169D02*
X137514247Y-70075788D01*
X137514247Y-70075788D02*
X137180914Y-70075788D01*
X137180914Y-70075788D02*
X136990438Y-70028169D01*
X136990438Y-70028169D02*
X136895200Y-69932931D01*
X136895200Y-69932931D02*
X136847580Y-69837693D01*
X136847580Y-69837693D02*
X136847580Y-69647217D01*
X136847580Y-69647217D02*
X136895200Y-69551979D01*
X136895200Y-69551979D02*
X136990438Y-69456741D01*
X136990438Y-69456741D02*
X137180914Y-69409122D01*
X137180914Y-69409122D02*
X137514247Y-69409122D01*
X137514247Y-69409122D02*
X137704723Y-69456741D01*
X137704723Y-69456741D02*
X137799961Y-69551979D01*
X137799961Y-69551979D02*
X137847580Y-69647217D01*
X137752342Y-70456741D02*
X137799961Y-70504360D01*
X137799961Y-70504360D02*
X137847580Y-70599598D01*
X137847580Y-70599598D02*
X137847580Y-70837693D01*
X137847580Y-70837693D02*
X137799961Y-70932931D01*
X137799961Y-70932931D02*
X137752342Y-70980550D01*
X137752342Y-70980550D02*
X137657104Y-71028169D01*
X137657104Y-71028169D02*
X137561866Y-71028169D01*
X137561866Y-71028169D02*
X137419009Y-70980550D01*
X137419009Y-70980550D02*
X136847580Y-70409122D01*
X136847580Y-70409122D02*
X136847580Y-71028169D01*
X136847580Y-71980550D02*
X136847580Y-71409122D01*
X136847580Y-71694836D02*
X137847580Y-71694836D01*
X137847580Y-71694836D02*
X137704723Y-71599598D01*
X137704723Y-71599598D02*
X137609485Y-71504360D01*
X137609485Y-71504360D02*
X137561866Y-71409122D01*
X171019286Y-40476704D02*
X171495476Y-40476704D01*
X170924048Y-40762419D02*
X171257381Y-39762419D01*
X171257381Y-39762419D02*
X171590714Y-40762419D01*
X171924048Y-40762419D02*
X171924048Y-39762419D01*
X171924048Y-39762419D02*
X172257381Y-40476704D01*
X172257381Y-40476704D02*
X172590714Y-39762419D01*
X172590714Y-39762419D02*
X172590714Y-40762419D01*
X173066905Y-40762419D02*
X173066905Y-39762419D01*
X173066905Y-39762419D02*
X173447857Y-39762419D01*
X173447857Y-39762419D02*
X173543095Y-39810038D01*
X173543095Y-39810038D02*
X173590714Y-39857657D01*
X173590714Y-39857657D02*
X173638333Y-39952895D01*
X173638333Y-39952895D02*
X173638333Y-40095752D01*
X173638333Y-40095752D02*
X173590714Y-40190990D01*
X173590714Y-40190990D02*
X173543095Y-40238609D01*
X173543095Y-40238609D02*
X173447857Y-40286228D01*
X173447857Y-40286228D02*
X173066905Y-40286228D01*
X174590714Y-40762419D02*
X174019286Y-40762419D01*
X174305000Y-40762419D02*
X174305000Y-39762419D01*
X174305000Y-39762419D02*
X174209762Y-39905276D01*
X174209762Y-39905276D02*
X174114524Y-40000514D01*
X174114524Y-40000514D02*
X174019286Y-40048133D01*
X167198884Y-38511466D02*
X167960789Y-38511466D01*
X170877419Y-49486115D02*
X169877419Y-49486115D01*
X169877419Y-49486115D02*
X169877419Y-49248020D01*
X169877419Y-49248020D02*
X169925038Y-49105163D01*
X169925038Y-49105163D02*
X170020276Y-49009925D01*
X170020276Y-49009925D02*
X170115514Y-48962306D01*
X170115514Y-48962306D02*
X170305990Y-48914687D01*
X170305990Y-48914687D02*
X170448847Y-48914687D01*
X170448847Y-48914687D02*
X170639323Y-48962306D01*
X170639323Y-48962306D02*
X170734561Y-49009925D01*
X170734561Y-49009925D02*
X170829800Y-49105163D01*
X170829800Y-49105163D02*
X170877419Y-49248020D01*
X170877419Y-49248020D02*
X170877419Y-49486115D01*
X170877419Y-48486115D02*
X169877419Y-48486115D01*
X170877419Y-48009925D02*
X169877419Y-48009925D01*
X169877419Y-48009925D02*
X170877419Y-47438497D01*
X170877419Y-47438497D02*
X169877419Y-47438497D01*
X172425038Y-48962306D02*
X172377419Y-49057544D01*
X172377419Y-49057544D02*
X172377419Y-49200401D01*
X172377419Y-49200401D02*
X172425038Y-49343258D01*
X172425038Y-49343258D02*
X172520276Y-49438496D01*
X172520276Y-49438496D02*
X172615514Y-49486115D01*
X172615514Y-49486115D02*
X172805990Y-49533734D01*
X172805990Y-49533734D02*
X172948847Y-49533734D01*
X172948847Y-49533734D02*
X173139323Y-49486115D01*
X173139323Y-49486115D02*
X173234561Y-49438496D01*
X173234561Y-49438496D02*
X173329800Y-49343258D01*
X173329800Y-49343258D02*
X173377419Y-49200401D01*
X173377419Y-49200401D02*
X173377419Y-49105163D01*
X173377419Y-49105163D02*
X173329800Y-48962306D01*
X173329800Y-48962306D02*
X173282180Y-48914687D01*
X173282180Y-48914687D02*
X172948847Y-48914687D01*
X172948847Y-48914687D02*
X172948847Y-49105163D01*
X173091704Y-48533734D02*
X173091704Y-48057544D01*
X173377419Y-48628972D02*
X172377419Y-48295639D01*
X172377419Y-48295639D02*
X173377419Y-47962306D01*
X173377419Y-47628972D02*
X172377419Y-47628972D01*
X173377419Y-47152782D02*
X172377419Y-47152782D01*
X172377419Y-47152782D02*
X173377419Y-46581354D01*
X173377419Y-46581354D02*
X172377419Y-46581354D01*
X177728884Y-38511466D02*
X178490789Y-38511466D01*
X178109836Y-38892419D02*
X178109836Y-38130514D01*
X165677419Y-49009925D02*
X165677419Y-49486115D01*
X165677419Y-49486115D02*
X164677419Y-49486115D01*
X165677419Y-48105163D02*
X165201228Y-48438496D01*
X165677419Y-48676591D02*
X164677419Y-48676591D01*
X164677419Y-48676591D02*
X164677419Y-48295639D01*
X164677419Y-48295639D02*
X164725038Y-48200401D01*
X164725038Y-48200401D02*
X164772657Y-48152782D01*
X164772657Y-48152782D02*
X164867895Y-48105163D01*
X164867895Y-48105163D02*
X165010752Y-48105163D01*
X165010752Y-48105163D02*
X165105990Y-48152782D01*
X165105990Y-48152782D02*
X165153609Y-48200401D01*
X165153609Y-48200401D02*
X165201228Y-48295639D01*
X165201228Y-48295639D02*
X165201228Y-48676591D01*
X165582180Y-47105163D02*
X165629800Y-47152782D01*
X165629800Y-47152782D02*
X165677419Y-47295639D01*
X165677419Y-47295639D02*
X165677419Y-47390877D01*
X165677419Y-47390877D02*
X165629800Y-47533734D01*
X165629800Y-47533734D02*
X165534561Y-47628972D01*
X165534561Y-47628972D02*
X165439323Y-47676591D01*
X165439323Y-47676591D02*
X165248847Y-47724210D01*
X165248847Y-47724210D02*
X165105990Y-47724210D01*
X165105990Y-47724210D02*
X164915514Y-47676591D01*
X164915514Y-47676591D02*
X164820276Y-47628972D01*
X164820276Y-47628972D02*
X164725038Y-47533734D01*
X164725038Y-47533734D02*
X164677419Y-47390877D01*
X164677419Y-47390877D02*
X164677419Y-47295639D01*
X164677419Y-47295639D02*
X164725038Y-47152782D01*
X164725038Y-47152782D02*
X164772657Y-47105163D01*
X179977419Y-49528972D02*
X180977419Y-49195639D01*
X180977419Y-49195639D02*
X179977419Y-48862306D01*
X180977419Y-48528972D02*
X179977419Y-48528972D01*
X180977419Y-48052782D02*
X179977419Y-48052782D01*
X179977419Y-48052782D02*
X180977419Y-47481354D01*
X180977419Y-47481354D02*
X179977419Y-47481354D01*
X167753609Y-49152782D02*
X167801228Y-49009925D01*
X167801228Y-49009925D02*
X167848847Y-48962306D01*
X167848847Y-48962306D02*
X167944085Y-48914687D01*
X167944085Y-48914687D02*
X168086942Y-48914687D01*
X168086942Y-48914687D02*
X168182180Y-48962306D01*
X168182180Y-48962306D02*
X168229800Y-49009925D01*
X168229800Y-49009925D02*
X168277419Y-49105163D01*
X168277419Y-49105163D02*
X168277419Y-49486115D01*
X168277419Y-49486115D02*
X167277419Y-49486115D01*
X167277419Y-49486115D02*
X167277419Y-49152782D01*
X167277419Y-49152782D02*
X167325038Y-49057544D01*
X167325038Y-49057544D02*
X167372657Y-49009925D01*
X167372657Y-49009925D02*
X167467895Y-48962306D01*
X167467895Y-48962306D02*
X167563133Y-48962306D01*
X167563133Y-48962306D02*
X167658371Y-49009925D01*
X167658371Y-49009925D02*
X167705990Y-49057544D01*
X167705990Y-49057544D02*
X167753609Y-49152782D01*
X167753609Y-49152782D02*
X167753609Y-49486115D01*
X168182180Y-47914687D02*
X168229800Y-47962306D01*
X168229800Y-47962306D02*
X168277419Y-48105163D01*
X168277419Y-48105163D02*
X168277419Y-48200401D01*
X168277419Y-48200401D02*
X168229800Y-48343258D01*
X168229800Y-48343258D02*
X168134561Y-48438496D01*
X168134561Y-48438496D02*
X168039323Y-48486115D01*
X168039323Y-48486115D02*
X167848847Y-48533734D01*
X167848847Y-48533734D02*
X167705990Y-48533734D01*
X167705990Y-48533734D02*
X167515514Y-48486115D01*
X167515514Y-48486115D02*
X167420276Y-48438496D01*
X167420276Y-48438496D02*
X167325038Y-48343258D01*
X167325038Y-48343258D02*
X167277419Y-48200401D01*
X167277419Y-48200401D02*
X167277419Y-48105163D01*
X167277419Y-48105163D02*
X167325038Y-47962306D01*
X167325038Y-47962306D02*
X167372657Y-47914687D01*
X168277419Y-47009925D02*
X168277419Y-47486115D01*
X168277419Y-47486115D02*
X167277419Y-47486115D01*
X168277419Y-46676591D02*
X167277419Y-46676591D01*
X168277419Y-46105163D02*
X167705990Y-46533734D01*
X167277419Y-46105163D02*
X167848847Y-46676591D01*
X177425038Y-48962306D02*
X177377419Y-49057544D01*
X177377419Y-49057544D02*
X177377419Y-49200401D01*
X177377419Y-49200401D02*
X177425038Y-49343258D01*
X177425038Y-49343258D02*
X177520276Y-49438496D01*
X177520276Y-49438496D02*
X177615514Y-49486115D01*
X177615514Y-49486115D02*
X177805990Y-49533734D01*
X177805990Y-49533734D02*
X177948847Y-49533734D01*
X177948847Y-49533734D02*
X178139323Y-49486115D01*
X178139323Y-49486115D02*
X178234561Y-49438496D01*
X178234561Y-49438496D02*
X178329800Y-49343258D01*
X178329800Y-49343258D02*
X178377419Y-49200401D01*
X178377419Y-49200401D02*
X178377419Y-49105163D01*
X178377419Y-49105163D02*
X178329800Y-48962306D01*
X178329800Y-48962306D02*
X178282180Y-48914687D01*
X178282180Y-48914687D02*
X177948847Y-48914687D01*
X177948847Y-48914687D02*
X177948847Y-49105163D01*
X178377419Y-48486115D02*
X177377419Y-48486115D01*
X177377419Y-48486115D02*
X178377419Y-47914687D01*
X178377419Y-47914687D02*
X177377419Y-47914687D01*
X178377419Y-47438496D02*
X177377419Y-47438496D01*
X177377419Y-47438496D02*
X177377419Y-47200401D01*
X177377419Y-47200401D02*
X177425038Y-47057544D01*
X177425038Y-47057544D02*
X177520276Y-46962306D01*
X177520276Y-46962306D02*
X177615514Y-46914687D01*
X177615514Y-46914687D02*
X177805990Y-46867068D01*
X177805990Y-46867068D02*
X177948847Y-46867068D01*
X177948847Y-46867068D02*
X178139323Y-46914687D01*
X178139323Y-46914687D02*
X178234561Y-46962306D01*
X178234561Y-46962306D02*
X178329800Y-47057544D01*
X178329800Y-47057544D02*
X178377419Y-47200401D01*
X178377419Y-47200401D02*
X178377419Y-47438496D01*
X171481265Y-36774800D02*
X171624122Y-36822419D01*
X171624122Y-36822419D02*
X171862217Y-36822419D01*
X171862217Y-36822419D02*
X171957455Y-36774800D01*
X171957455Y-36774800D02*
X172005074Y-36727180D01*
X172005074Y-36727180D02*
X172052693Y-36631942D01*
X172052693Y-36631942D02*
X172052693Y-36536704D01*
X172052693Y-36536704D02*
X172005074Y-36441466D01*
X172005074Y-36441466D02*
X171957455Y-36393847D01*
X171957455Y-36393847D02*
X171862217Y-36346228D01*
X171862217Y-36346228D02*
X171671741Y-36298609D01*
X171671741Y-36298609D02*
X171576503Y-36250990D01*
X171576503Y-36250990D02*
X171528884Y-36203371D01*
X171528884Y-36203371D02*
X171481265Y-36108133D01*
X171481265Y-36108133D02*
X171481265Y-36012895D01*
X171481265Y-36012895D02*
X171528884Y-35917657D01*
X171528884Y-35917657D02*
X171576503Y-35870038D01*
X171576503Y-35870038D02*
X171671741Y-35822419D01*
X171671741Y-35822419D02*
X171909836Y-35822419D01*
X171909836Y-35822419D02*
X172052693Y-35870038D01*
X172481265Y-36822419D02*
X172481265Y-35822419D01*
X172481265Y-35822419D02*
X172862217Y-35822419D01*
X172862217Y-35822419D02*
X172957455Y-35870038D01*
X172957455Y-35870038D02*
X173005074Y-35917657D01*
X173005074Y-35917657D02*
X173052693Y-36012895D01*
X173052693Y-36012895D02*
X173052693Y-36155752D01*
X173052693Y-36155752D02*
X173005074Y-36250990D01*
X173005074Y-36250990D02*
X172957455Y-36298609D01*
X172957455Y-36298609D02*
X172862217Y-36346228D01*
X172862217Y-36346228D02*
X172481265Y-36346228D01*
X173481265Y-36822419D02*
X173481265Y-35822419D01*
X174052693Y-36822419D02*
X173624122Y-36250990D01*
X174052693Y-35822419D02*
X173481265Y-36393847D01*
X175829800Y-49533734D02*
X175877419Y-49390877D01*
X175877419Y-49390877D02*
X175877419Y-49152782D01*
X175877419Y-49152782D02*
X175829800Y-49057544D01*
X175829800Y-49057544D02*
X175782180Y-49009925D01*
X175782180Y-49009925D02*
X175686942Y-48962306D01*
X175686942Y-48962306D02*
X175591704Y-48962306D01*
X175591704Y-48962306D02*
X175496466Y-49009925D01*
X175496466Y-49009925D02*
X175448847Y-49057544D01*
X175448847Y-49057544D02*
X175401228Y-49152782D01*
X175401228Y-49152782D02*
X175353609Y-49343258D01*
X175353609Y-49343258D02*
X175305990Y-49438496D01*
X175305990Y-49438496D02*
X175258371Y-49486115D01*
X175258371Y-49486115D02*
X175163133Y-49533734D01*
X175163133Y-49533734D02*
X175067895Y-49533734D01*
X175067895Y-49533734D02*
X174972657Y-49486115D01*
X174972657Y-49486115D02*
X174925038Y-49438496D01*
X174925038Y-49438496D02*
X174877419Y-49343258D01*
X174877419Y-49343258D02*
X174877419Y-49105163D01*
X174877419Y-49105163D02*
X174925038Y-48962306D01*
X175877419Y-48533734D02*
X174877419Y-48533734D01*
X174877419Y-48533734D02*
X174877419Y-48295639D01*
X174877419Y-48295639D02*
X174925038Y-48152782D01*
X174925038Y-48152782D02*
X175020276Y-48057544D01*
X175020276Y-48057544D02*
X175115514Y-48009925D01*
X175115514Y-48009925D02*
X175305990Y-47962306D01*
X175305990Y-47962306D02*
X175448847Y-47962306D01*
X175448847Y-47962306D02*
X175639323Y-48009925D01*
X175639323Y-48009925D02*
X175734561Y-48057544D01*
X175734561Y-48057544D02*
X175829800Y-48152782D01*
X175829800Y-48152782D02*
X175877419Y-48295639D01*
X175877419Y-48295639D02*
X175877419Y-48533734D01*
D12*
%TO.C,BT1Con1*%
X125280000Y-36390000D02*
X125280000Y-37640000D01*
X125580000Y-36690000D02*
X125580000Y-41410000D01*
X125580000Y-38000000D02*
X126190000Y-38000000D01*
X125580000Y-39300000D02*
X126190000Y-39300000D01*
X125580000Y-41410000D02*
X131700000Y-41410000D01*
X126190000Y-37300000D02*
X126190000Y-40800000D01*
X126190000Y-40800000D02*
X131090000Y-40800000D01*
X126530000Y-36390000D02*
X125280000Y-36390000D01*
X127040000Y-36490000D02*
X127040000Y-36690000D01*
X127340000Y-36490000D02*
X127040000Y-36490000D01*
X127340000Y-36590000D02*
X127040000Y-36590000D01*
X127340000Y-36690000D02*
X127340000Y-36490000D01*
X128140000Y-36690000D02*
X128140000Y-37300000D01*
X128140000Y-37300000D02*
X126190000Y-37300000D01*
X128540000Y-40300000D02*
X128740000Y-40300000D01*
X128540000Y-40800000D02*
X128540000Y-40300000D01*
X128640000Y-40800000D02*
X128640000Y-40300000D01*
X128740000Y-40300000D02*
X128740000Y-40800000D01*
X129140000Y-37300000D02*
X129140000Y-36690000D01*
X131090000Y-37300000D02*
X129140000Y-37300000D01*
X131090000Y-40800000D02*
X131090000Y-37300000D01*
X131700000Y-36690000D02*
X125580000Y-36690000D01*
X131700000Y-38000000D02*
X131090000Y-38000000D01*
X131700000Y-39300000D02*
X131090000Y-39300000D01*
X131700000Y-41410000D02*
X131700000Y-36690000D01*
%TO.C,D32Pro1*%
D10*
X95960000Y-57660000D02*
X90220000Y-57660000D01*
X90220000Y-63160000D01*
X95960000Y-63160000D01*
X95960000Y-57660000D01*
X97450000Y-46390000D02*
X91710000Y-46390000D01*
X91710000Y-51890000D01*
X97450000Y-51890000D01*
X97450000Y-46390000D01*
X106310000Y-67460000D02*
X95620000Y-67460000D01*
X95620000Y-74860000D01*
X106310000Y-74860000D01*
X106310000Y-67460000D01*
X155190000Y-46380000D02*
X90190000Y-46380000D01*
X90190000Y-74880000D01*
X155190000Y-74880000D01*
X155190000Y-46380000D01*
%TO.C,AMP1*%
X163855000Y-33690000D02*
X181725000Y-33690000D01*
X181725000Y-52950000D01*
X163855000Y-52950000D01*
X163855000Y-33690000D01*
X168315000Y-33690000D02*
X177425000Y-33690000D01*
X177425000Y-39020000D01*
X168315000Y-39020000D01*
X168315000Y-33690000D01*
X167605000Y-35740000D02*
G75*
G02*
X164305000Y-35740000I-1650000J0D01*
G01*
X164305000Y-35740000D02*
G75*
G02*
X167605000Y-35740000I1650000J0D01*
G01*
X181295000Y-35720000D02*
G75*
G02*
X177995000Y-35720000I-1650000J0D01*
G01*
X177995000Y-35720000D02*
G75*
G02*
X181295000Y-35720000I1650000J0D01*
G01*
D12*
%TO.C,RFIDCon1*%
X95230000Y-36390000D02*
X95230000Y-37640000D01*
X95530000Y-36690000D02*
X95530000Y-41410000D01*
X95530000Y-38000000D02*
X96140000Y-38000000D01*
X95530000Y-39300000D02*
X96140000Y-39300000D01*
X95530000Y-41410000D02*
X109650000Y-41410000D01*
X96140000Y-37300000D02*
X96140000Y-40800000D01*
X96140000Y-40800000D02*
X109040000Y-40800000D01*
X96480000Y-36390000D02*
X95230000Y-36390000D01*
X96990000Y-36490000D02*
X96990000Y-36690000D01*
X97290000Y-36490000D02*
X96990000Y-36490000D01*
X97290000Y-36590000D02*
X96990000Y-36590000D01*
X97290000Y-36690000D02*
X97290000Y-36490000D01*
X98090000Y-36690000D02*
X98090000Y-37300000D01*
X98090000Y-37300000D02*
X96140000Y-37300000D01*
X98490000Y-40300000D02*
X98690000Y-40300000D01*
X98490000Y-40800000D02*
X98490000Y-40300000D01*
X98590000Y-40800000D02*
X98590000Y-40300000D01*
X98690000Y-40300000D02*
X98690000Y-40800000D01*
X100490000Y-40300000D02*
X100690000Y-40300000D01*
X100490000Y-40800000D02*
X100490000Y-40300000D01*
X100590000Y-40800000D02*
X100590000Y-40300000D01*
X100690000Y-40300000D02*
X100690000Y-40800000D01*
X102490000Y-40300000D02*
X102690000Y-40300000D01*
X102490000Y-40800000D02*
X102490000Y-40300000D01*
X102590000Y-40800000D02*
X102590000Y-40300000D01*
X102690000Y-40300000D02*
X102690000Y-40800000D01*
X104490000Y-40300000D02*
X104690000Y-40300000D01*
X104490000Y-40800000D02*
X104490000Y-40300000D01*
X104590000Y-40800000D02*
X104590000Y-40300000D01*
X104690000Y-40300000D02*
X104690000Y-40800000D01*
X106490000Y-40300000D02*
X106690000Y-40300000D01*
X106490000Y-40800000D02*
X106490000Y-40300000D01*
X106590000Y-40800000D02*
X106590000Y-40300000D01*
X106690000Y-40300000D02*
X106690000Y-40800000D01*
X107090000Y-37300000D02*
X107090000Y-36690000D01*
X109040000Y-37300000D02*
X107090000Y-37300000D01*
X109040000Y-40800000D02*
X109040000Y-37300000D01*
X109650000Y-36690000D02*
X95530000Y-36690000D01*
X109650000Y-38000000D02*
X109040000Y-38000000D01*
X109650000Y-39300000D02*
X109040000Y-39300000D01*
X109650000Y-41410000D02*
X109650000Y-36690000D01*
%TO.C,BT3Con1*%
X143990000Y-36390000D02*
X143990000Y-37640000D01*
X144290000Y-36690000D02*
X144290000Y-41410000D01*
X144290000Y-38000000D02*
X144900000Y-38000000D01*
X144290000Y-39300000D02*
X144900000Y-39300000D01*
X144290000Y-41410000D02*
X150410000Y-41410000D01*
X144900000Y-37300000D02*
X144900000Y-40800000D01*
X144900000Y-40800000D02*
X149800000Y-40800000D01*
X145240000Y-36390000D02*
X143990000Y-36390000D01*
X145750000Y-36490000D02*
X145750000Y-36690000D01*
X146050000Y-36490000D02*
X145750000Y-36490000D01*
X146050000Y-36590000D02*
X145750000Y-36590000D01*
X146050000Y-36690000D02*
X146050000Y-36490000D01*
X146850000Y-36690000D02*
X146850000Y-37300000D01*
X146850000Y-37300000D02*
X144900000Y-37300000D01*
X147250000Y-40300000D02*
X147450000Y-40300000D01*
X147250000Y-40800000D02*
X147250000Y-40300000D01*
X147350000Y-40800000D02*
X147350000Y-40300000D01*
X147450000Y-40300000D02*
X147450000Y-40800000D01*
X147850000Y-37300000D02*
X147850000Y-36690000D01*
X149800000Y-37300000D02*
X147850000Y-37300000D01*
X149800000Y-40800000D02*
X149800000Y-37300000D01*
X150410000Y-36690000D02*
X144290000Y-36690000D01*
X150410000Y-38000000D02*
X149800000Y-38000000D01*
X150410000Y-39300000D02*
X149800000Y-39300000D01*
X150410000Y-41410000D02*
X150410000Y-36690000D01*
%TO.C,NeoPixelCon1*%
X113150000Y-36390000D02*
X113150000Y-37640000D01*
X113450000Y-36690000D02*
X113450000Y-41410000D01*
X113450000Y-38000000D02*
X114060000Y-38000000D01*
X113450000Y-39300000D02*
X114060000Y-39300000D01*
X113450000Y-41410000D02*
X121570000Y-41410000D01*
X114060000Y-37300000D02*
X114060000Y-40800000D01*
X114060000Y-40800000D02*
X120960000Y-40800000D01*
X114400000Y-36390000D02*
X113150000Y-36390000D01*
X114910000Y-36490000D02*
X114910000Y-36690000D01*
X115210000Y-36490000D02*
X114910000Y-36490000D01*
X115210000Y-36590000D02*
X114910000Y-36590000D01*
X115210000Y-36690000D02*
X115210000Y-36490000D01*
X116010000Y-36690000D02*
X116010000Y-37300000D01*
X116010000Y-37300000D02*
X114060000Y-37300000D01*
X116410000Y-40300000D02*
X116610000Y-40300000D01*
X116410000Y-40800000D02*
X116410000Y-40300000D01*
X116510000Y-40800000D02*
X116510000Y-40300000D01*
X116610000Y-40300000D02*
X116610000Y-40800000D01*
X118410000Y-40300000D02*
X118610000Y-40300000D01*
X118410000Y-40800000D02*
X118410000Y-40300000D01*
X118510000Y-40800000D02*
X118510000Y-40300000D01*
X118610000Y-40300000D02*
X118610000Y-40800000D01*
X119010000Y-37300000D02*
X119010000Y-36690000D01*
X120960000Y-37300000D02*
X119010000Y-37300000D01*
X120960000Y-40800000D02*
X120960000Y-37300000D01*
X121570000Y-36690000D02*
X113450000Y-36690000D01*
X121570000Y-38000000D02*
X120960000Y-38000000D01*
X121570000Y-39300000D02*
X120960000Y-39300000D01*
X121570000Y-41410000D02*
X121570000Y-36690000D01*
%TO.C,BT2Con1*%
X134640000Y-36390000D02*
X134640000Y-37640000D01*
X134940000Y-36690000D02*
X134940000Y-41410000D01*
X134940000Y-38000000D02*
X135550000Y-38000000D01*
X134940000Y-39300000D02*
X135550000Y-39300000D01*
X134940000Y-41410000D02*
X141060000Y-41410000D01*
X135550000Y-37300000D02*
X135550000Y-40800000D01*
X135550000Y-40800000D02*
X140450000Y-40800000D01*
X135890000Y-36390000D02*
X134640000Y-36390000D01*
X136400000Y-36490000D02*
X136400000Y-36690000D01*
X136700000Y-36490000D02*
X136400000Y-36490000D01*
X136700000Y-36590000D02*
X136400000Y-36590000D01*
X136700000Y-36690000D02*
X136700000Y-36490000D01*
X137500000Y-36690000D02*
X137500000Y-37300000D01*
X137500000Y-37300000D02*
X135550000Y-37300000D01*
X137900000Y-40300000D02*
X138100000Y-40300000D01*
X137900000Y-40800000D02*
X137900000Y-40300000D01*
X138000000Y-40800000D02*
X138000000Y-40300000D01*
X138100000Y-40300000D02*
X138100000Y-40800000D01*
X138500000Y-37300000D02*
X138500000Y-36690000D01*
X140450000Y-37300000D02*
X138500000Y-37300000D01*
X140450000Y-40800000D02*
X140450000Y-37300000D01*
X141060000Y-36690000D02*
X134940000Y-36690000D01*
X141060000Y-38000000D02*
X140450000Y-38000000D01*
X141060000Y-39300000D02*
X140450000Y-39300000D01*
X141060000Y-41410000D02*
X141060000Y-36690000D01*
%TD*%
M02*
