%TF.GenerationSoftware,KiCad,Pcbnew,9.0.2*%
%TF.CreationDate,2025-06-23T22:15:15+02:00*%
%TF.ProjectId,musicbox,6d757369-6362-46f7-982e-6b696361645f,rev?*%
%TF.SameCoordinates,Original*%
%TF.FileFunction,Soldermask,Top*%
%TF.FilePolarity,Negative*%
%FSLAX46Y46*%
G04 Gerber Fmt 4.6, Leading zero omitted, Abs format (unit mm)*
G04 Created by KiCad (PCBNEW 9.0.2) date 2025-06-23 22:15:15*
%MOMM*%
%LPD*%
G01*
G04 APERTURE LIST*
G04 Aperture macros list*
%AMRoundRect*
0 Rectangle with rounded corners*
0 $1 Rounding radius*
0 $2 $3 $4 $5 $6 $7 $8 $9 X,Y pos of 4 corners*
0 Add a 4 corners polygon primitive as box body*
4,1,4,$2,$3,$4,$5,$6,$7,$8,$9,$2,$3,0*
0 Add four circle primitives for the rounded corners*
1,1,$1+$1,$2,$3*
1,1,$1+$1,$4,$5*
1,1,$1+$1,$6,$7*
1,1,$1+$1,$8,$9*
0 Add four rect primitives between the rounded corners*
20,1,$1+$1,$2,$3,$4,$5,0*
20,1,$1+$1,$4,$5,$6,$7,0*
20,1,$1+$1,$6,$7,$8,$9,0*
20,1,$1+$1,$8,$9,$2,$3,0*%
G04 Aperture macros list end*
%ADD10C,1.920000*%
%ADD11RoundRect,0.250000X-0.350000X-0.625000X0.350000X-0.625000X0.350000X0.625000X-0.350000X0.625000X0*%
%ADD12O,1.200000X1.750000*%
G04 APERTURE END LIST*
D10*
%TO.C,D32Pro1*%
X148780049Y-44799964D03*
X146240049Y-44799964D03*
X143700049Y-44799964D03*
X141160049Y-44799964D03*
X138620049Y-44799964D03*
X136080049Y-44799964D03*
X133540049Y-44799964D03*
X131000049Y-44799964D03*
X128460049Y-44799964D03*
X125920049Y-44799964D03*
X123380049Y-44799964D03*
X120840049Y-44799964D03*
X118300049Y-44799964D03*
X115760049Y-44799964D03*
X113220049Y-44799964D03*
X110680049Y-44799964D03*
X148780049Y-67659964D03*
X146240049Y-67659964D03*
X143700049Y-67659964D03*
X141160049Y-67659964D03*
X138620049Y-67659964D03*
X136080049Y-67659964D03*
X133540049Y-67659964D03*
X131000049Y-67659964D03*
X128460049Y-67659964D03*
X125920049Y-67659964D03*
X123380049Y-67659964D03*
X120840049Y-67659964D03*
X118300049Y-67659964D03*
X115760049Y-67659964D03*
X113220049Y-67659964D03*
X110680049Y-67659964D03*
%TD*%
D11*
%TO.C,BT1Con1*%
X132370000Y-38940000D03*
D12*
X134370000Y-38940000D03*
%TD*%
D10*
%TO.C,AMP1*%
X165285000Y-51510000D03*
X167825000Y-51510000D03*
X170365000Y-51510000D03*
X172905000Y-51510000D03*
X175445000Y-51510000D03*
X177985000Y-51510000D03*
X180525000Y-51510000D03*
%TD*%
D11*
%TO.C,RFIDCon1*%
X102320000Y-38940000D03*
D12*
X104320000Y-38940000D03*
X106320000Y-38940000D03*
X108320000Y-38940000D03*
X110320000Y-38940000D03*
X112320000Y-38940000D03*
%TD*%
D11*
%TO.C,BT3Con1*%
X151080000Y-38940000D03*
D12*
X153080000Y-38940000D03*
%TD*%
D11*
%TO.C,NeoPixelCon1*%
X120240000Y-38940000D03*
D12*
X122240000Y-38940000D03*
X124240000Y-38940000D03*
%TD*%
D11*
%TO.C,BT2Con1*%
X141730000Y-38940000D03*
D12*
X143730000Y-38940000D03*
%TD*%
M02*
