%TF.GenerationSoftware,KiCad,Pcbnew,9.0.2*%
%TF.CreationDate,2025-06-13T16:26:22+02:00*%
%TF.ProjectId,musicbox,6d757369-6362-46f7-982e-6b696361645f,rev?*%
%TF.SameCoordinates,Original*%
%TF.FileFunction,Copper,L2,Bot*%
%TF.FilePolarity,Positive*%
%FSLAX46Y46*%
G04 Gerber Fmt 4.6, Leading zero omitted, Abs format (unit mm)*
G04 Created by KiCad (PCBNEW 9.0.2) date 2025-06-13 16:26:22*
%MOMM*%
%LPD*%
G01*
G04 APERTURE LIST*
G04 Aperture macros list*
%AMRoundRect*
0 Rectangle with rounded corners*
0 $1 Rounding radius*
0 $2 $3 $4 $5 $6 $7 $8 $9 X,Y pos of 4 corners*
0 Add a 4 corners polygon primitive as box body*
4,1,4,$2,$3,$4,$5,$6,$7,$8,$9,$2,$3,0*
0 Add four circle primitives for the rounded corners*
1,1,$1+$1,$2,$3*
1,1,$1+$1,$4,$5*
1,1,$1+$1,$6,$7*
1,1,$1+$1,$8,$9*
0 Add four rect primitives between the rounded corners*
20,1,$1+$1,$2,$3,$4,$5,0*
20,1,$1+$1,$4,$5,$6,$7,0*
20,1,$1+$1,$6,$7,$8,$9,0*
20,1,$1+$1,$8,$9,$2,$3,0*%
G04 Aperture macros list end*
%TA.AperFunction,ComponentPad*%
%ADD10RoundRect,0.250000X-0.350000X-0.625000X0.350000X-0.625000X0.350000X0.625000X-0.350000X0.625000X0*%
%TD*%
%TA.AperFunction,ComponentPad*%
%ADD11O,1.200000X1.750000*%
%TD*%
%TA.AperFunction,ComponentPad*%
%ADD12C,1.920000*%
%TD*%
%TA.AperFunction,ViaPad*%
%ADD13C,0.600000*%
%TD*%
%TA.AperFunction,Conductor*%
%ADD14C,0.400000*%
%TD*%
%TA.AperFunction,Conductor*%
%ADD15C,0.200000*%
%TD*%
G04 APERTURE END LIST*
D10*
%TO.P,BT1Con1,1,Pin_1*%
%TO.N,/BT1*%
X127640000Y-38500000D03*
D11*
%TO.P,BT1Con1,2,Pin_2*%
%TO.N,3V3*%
X129640000Y-38500000D03*
%TD*%
D12*
%TO.P,D32Pro1,1,3V3*%
%TO.N,3V3*%
X151550000Y-48500000D03*
%TO.P,D32Pro1,2,RESET*%
%TO.N,unconnected-(D32Pro1-RESET-Pad2)*%
X149010000Y-48500000D03*
%TO.P,D32Pro1,3,VP/GPIO36*%
%TO.N,unconnected-(D32Pro1-VP{slash}GPIO36-Pad3)*%
X146470000Y-48500000D03*
%TO.P,D32Pro1,4,VN/GPIO39*%
%TO.N,unconnected-(D32Pro1-VN{slash}GPIO39-Pad4)*%
X143930000Y-48500000D03*
%TO.P,D32Pro1,5,GPIO34*%
%TO.N,unconnected-(D32Pro1-GPIO34-Pad5)*%
X141390000Y-48500000D03*
%TO.P,D32Pro1,6,GPIO32*%
%TO.N,/RFID_RST*%
X138850000Y-48500000D03*
%TO.P,D32Pro1,7,GPIO33*%
%TO.N,/RFID_IRQ*%
X136310000Y-48500000D03*
%TO.P,D32Pro1,8,GPIO25*%
%TO.N,/ADR_LED*%
X133770000Y-48500000D03*
%TO.P,D32Pro1,9,GPIO26*%
%TO.N,/I2S_BCK*%
X131230000Y-48500000D03*
%TO.P,D32Pro1,10,GPIO27*%
%TO.N,/I2S_DIN*%
X128690000Y-48500000D03*
%TO.P,D32Pro1,11,GPIO14*%
%TO.N,/I2S_WS*%
X126150000Y-48500000D03*
%TO.P,D32Pro1,12,GPIO12*%
%TO.N,/BT1*%
X123610000Y-48500000D03*
%TO.P,D32Pro1,13,GPIO13*%
%TO.N,/BT2*%
X121070000Y-48500000D03*
%TO.P,D32Pro1,14,EN*%
%TO.N,unconnected-(D32Pro1-EN-Pad14)*%
X118530000Y-48500000D03*
%TO.P,D32Pro1,15,VBUS*%
%TO.N,unconnected-(D32Pro1-VBUS-Pad15)*%
X115990000Y-48500000D03*
%TO.P,D32Pro1,16,VBAT*%
%TO.N,VBAT*%
X113450000Y-48500000D03*
%TO.P,D32Pro1,17,GND*%
%TO.N,GND*%
X151550000Y-73900000D03*
%TO.P,D32Pro1,18,GPIO23*%
%TO.N,/SPI_MOSI*%
X149010000Y-73900000D03*
%TO.P,D32Pro1,19,GPIO22*%
%TO.N,/I2C_SCL*%
X146470000Y-73900000D03*
%TO.P,D32Pro1,20,TXD01/GPIO01*%
%TO.N,unconnected-(D32Pro1-TXD01{slash}GPIO01-Pad20)*%
X143930000Y-73900000D03*
%TO.P,D32Pro1,21,RXD01/GPIO03*%
%TO.N,unconnected-(D32Pro1-RXD01{slash}GPIO03-Pad21)*%
X141390000Y-73900000D03*
%TO.P,D32Pro1,22,GPIO21*%
%TO.N,/I2C_SDA*%
X138850000Y-73900000D03*
%TO.P,D32Pro1,23,GPIO19*%
%TO.N,/SPI_MISO*%
X136310000Y-73900000D03*
%TO.P,D32Pro1,24,GPIO18*%
%TO.N,/SPI_SCK*%
X133770000Y-73900000D03*
%TO.P,D32Pro1,25,GPIO05*%
%TO.N,unconnected-(D32Pro1-GPIO05-Pad25)*%
X131230000Y-73900000D03*
%TO.P,D32Pro1,26,NC1*%
%TO.N,unconnected-(D32Pro1-NC1-Pad26)*%
X128690000Y-73900000D03*
%TO.P,D32Pro1,27,NC2*%
%TO.N,unconnected-(D32Pro1-NC2-Pad27)*%
X126150000Y-73900000D03*
%TO.P,D32Pro1,28,GPIO04*%
%TO.N,/SPI_SS*%
X123610000Y-73900000D03*
%TO.P,D32Pro1,29,GPIO00*%
%TO.N,unconnected-(D32Pro1-GPIO00-Pad29)*%
X121070000Y-73900000D03*
%TO.P,D32Pro1,30,GPIO02*%
%TO.N,unconnected-(D32Pro1-GPIO02-Pad30)*%
X118530000Y-73900000D03*
%TO.P,D32Pro1,31,GPIO15*%
%TO.N,/BT3*%
X115990000Y-73900000D03*
%TO.P,D32Pro1,32,GND*%
%TO.N,GND*%
X113450000Y-73900000D03*
%TD*%
%TO.P,AMP1,1,LRC*%
%TO.N,/I2S_WS*%
X165285000Y-51510000D03*
%TO.P,AMP1,2,BCLK*%
%TO.N,/I2S_BCK*%
X167825000Y-51510000D03*
%TO.P,AMP1,3,DIN*%
%TO.N,/I2S_DIN*%
X170365000Y-51510000D03*
%TO.P,AMP1,4,GAIN*%
%TO.N,GND*%
X172905000Y-51510000D03*
%TO.P,AMP1,5,SD*%
%TO.N,unconnected-(AMP1-SD-Pad5)*%
X175445000Y-51510000D03*
%TO.P,AMP1,6,GND*%
%TO.N,GND*%
X177985000Y-51510000D03*
%TO.P,AMP1,7,VIN*%
%TO.N,VBAT*%
X180525000Y-51510000D03*
%TD*%
D10*
%TO.P,RFIDCon1,1,Pin_1*%
%TO.N,/I2C_SDA*%
X97590000Y-38500000D03*
D11*
%TO.P,RFIDCon1,2,Pin_2*%
%TO.N,/I2C_SCL*%
X99590000Y-38500000D03*
%TO.P,RFIDCon1,3,Pin_3*%
%TO.N,/RFID_IRQ*%
X101590000Y-38500000D03*
%TO.P,RFIDCon1,4,Pin_4*%
%TO.N,/RFID_RST*%
X103590000Y-38500000D03*
%TO.P,RFIDCon1,5,Pin_5*%
%TO.N,3V3*%
X105590000Y-38500000D03*
%TO.P,RFIDCon1,6,Pin_6*%
%TO.N,GND*%
X107590000Y-38500000D03*
%TD*%
D10*
%TO.P,BT3Con1,1,Pin_1*%
%TO.N,/BT3*%
X146350000Y-38500000D03*
D11*
%TO.P,BT3Con1,2,Pin_2*%
%TO.N,3V3*%
X148350000Y-38500000D03*
%TD*%
D10*
%TO.P,NeoPixelCon1,1,Pin_1*%
%TO.N,3V3*%
X115510000Y-38500000D03*
D11*
%TO.P,NeoPixelCon1,2,Pin_2*%
%TO.N,/ADR_LED*%
X117510000Y-38500000D03*
%TO.P,NeoPixelCon1,3,Pin_3*%
%TO.N,GND*%
X119510000Y-38500000D03*
%TD*%
D10*
%TO.P,BT2Con1,1,Pin_1*%
%TO.N,/BT2*%
X137000000Y-38500000D03*
D11*
%TO.P,BT2Con1,2,Pin_2*%
%TO.N,3V3*%
X139000000Y-38500000D03*
%TD*%
D13*
%TO.N,VBAT*%
X115151800Y-44982800D03*
%TO.N,/RFID_RST*%
X139751400Y-45515300D03*
%TO.N,/I2S_DIN*%
X127507400Y-46193900D03*
%TO.N,/I2S_BCK*%
X134687700Y-46518800D03*
%TD*%
D14*
%TO.N,3V3*%
X140201700Y-38500000D02*
X141714800Y-36986900D01*
X139000000Y-38500000D02*
X140201700Y-38500000D01*
X105590000Y-38500000D02*
X107122100Y-36967900D01*
X130841700Y-38500000D02*
X132328800Y-37012900D01*
X129640000Y-38500000D02*
X130841700Y-38500000D01*
X132328800Y-37012900D02*
X116997100Y-37012900D01*
X140201700Y-38500000D02*
X138714600Y-37012900D01*
X113977900Y-36967900D02*
X115510000Y-38500000D01*
X148350000Y-38500000D02*
X148350000Y-37023300D01*
X148313600Y-36986900D02*
X148350000Y-37023300D01*
X138714600Y-37012900D02*
X132328800Y-37012900D01*
X141714800Y-36986900D02*
X148313600Y-36986900D01*
X107122100Y-36967900D02*
X113977900Y-36967900D01*
X116997100Y-37012900D02*
X115510000Y-38500000D01*
%TO.N,VBAT*%
X180525000Y-51510000D02*
X173628600Y-44613600D01*
X115521000Y-44613600D02*
X115151800Y-44982800D01*
X173628600Y-44613600D02*
X115521000Y-44613600D01*
D15*
%TO.N,/RFID_IRQ*%
X102491700Y-38500000D02*
X102491700Y-39063600D01*
X134117800Y-46799700D02*
X135818100Y-48500000D01*
X110227800Y-46799700D02*
X134117800Y-46799700D01*
X135818100Y-48500000D02*
X136310000Y-48500000D01*
X101590000Y-38500000D02*
X102491700Y-38500000D01*
X102491700Y-39063600D02*
X110227800Y-46799700D01*
%TO.N,/I2C_SDA*%
X130755200Y-71665200D02*
X136615200Y-71665200D01*
X97590000Y-38500000D02*
X130755200Y-71665200D01*
X136615200Y-71665200D02*
X138850000Y-73900000D01*
%TO.N,/RFID_RST*%
X115753100Y-45515300D02*
X115483900Y-45784500D01*
X115483900Y-45784500D02*
X110874500Y-45784500D01*
X110874500Y-45784500D02*
X103590000Y-38500000D01*
X139751400Y-45515300D02*
X115753100Y-45515300D01*
%TO.N,/I2C_SCL*%
X135049800Y-62479800D02*
X146470000Y-73900000D01*
X100491700Y-39063600D02*
X123907900Y-62479800D01*
X123907900Y-62479800D02*
X135049800Y-62479800D01*
X100491700Y-38500000D02*
X100491700Y-39063600D01*
X99590000Y-38500000D02*
X100491700Y-38500000D01*
%TO.N,/I2S_WS*%
X127438000Y-49788000D02*
X126150000Y-48500000D01*
X147000900Y-49788000D02*
X127438000Y-49788000D01*
X165285000Y-51510000D02*
X160793200Y-47018200D01*
X147740100Y-47968900D02*
X147740100Y-49048800D01*
X148690800Y-47018200D02*
X160793200Y-47018200D01*
X148690800Y-47018200D02*
X147740100Y-47968900D01*
X147740100Y-49048800D02*
X147000900Y-49788000D01*
%TO.N,/I2S_DIN*%
X170365000Y-51510000D02*
X164972100Y-46117100D01*
X134936900Y-45917100D02*
X127784200Y-45917100D01*
X164972100Y-46117100D02*
X135136900Y-46117100D01*
X127784200Y-45917100D02*
X127507400Y-46193900D01*
X135136900Y-46117100D02*
X134936900Y-45917100D01*
%TO.N,/I2S_BCK*%
X167825000Y-51510000D02*
X162833800Y-46518800D01*
X162833800Y-46518800D02*
X134687700Y-46518800D01*
%TD*%
%TA.AperFunction,Conductor*%
%TO.N,GND*%
G36*
X182642681Y-33619946D02*
G01*
X182688676Y-33672541D01*
X182700118Y-33724448D01*
X182722911Y-57680187D01*
X182703290Y-57747245D01*
X182650530Y-57793050D01*
X182599343Y-57804304D01*
X163124432Y-57872127D01*
X163057324Y-57852676D01*
X163011386Y-57800032D01*
X163000000Y-57748128D01*
X163000000Y-50373597D01*
X163019685Y-50306558D01*
X163072489Y-50260803D01*
X163141647Y-50250859D01*
X163205203Y-50279884D01*
X163211681Y-50285916D01*
X163863945Y-50938180D01*
X163897430Y-50999503D01*
X163894195Y-51064179D01*
X163860463Y-51167994D01*
X163860463Y-51167997D01*
X163824500Y-51395056D01*
X163824500Y-51624943D01*
X163860463Y-51852002D01*
X163860463Y-51852005D01*
X163931500Y-52070634D01*
X164035871Y-52275472D01*
X164170987Y-52461445D01*
X164170991Y-52461450D01*
X164333549Y-52624008D01*
X164333554Y-52624012D01*
X164443678Y-52704021D01*
X164519531Y-52759131D01*
X164723450Y-52863033D01*
X164724365Y-52863499D01*
X164928294Y-52929759D01*
X164942999Y-52934537D01*
X165170056Y-52970500D01*
X165170057Y-52970500D01*
X165399943Y-52970500D01*
X165399944Y-52970500D01*
X165627001Y-52934537D01*
X165627004Y-52934536D01*
X165627005Y-52934536D01*
X165845634Y-52863499D01*
X165845634Y-52863498D01*
X165845637Y-52863498D01*
X166050469Y-52759131D01*
X166236452Y-52624007D01*
X166399007Y-52461452D01*
X166454682Y-52384820D01*
X166510011Y-52342156D01*
X166579624Y-52336177D01*
X166641420Y-52368782D01*
X166655314Y-52384816D01*
X166710988Y-52461445D01*
X166710993Y-52461452D01*
X166873549Y-52624008D01*
X166873554Y-52624012D01*
X166983678Y-52704021D01*
X167059531Y-52759131D01*
X167263450Y-52863033D01*
X167264365Y-52863499D01*
X167468294Y-52929759D01*
X167482999Y-52934537D01*
X167710056Y-52970500D01*
X167710057Y-52970500D01*
X167939943Y-52970500D01*
X167939944Y-52970500D01*
X168167001Y-52934537D01*
X168167004Y-52934536D01*
X168167005Y-52934536D01*
X168385634Y-52863499D01*
X168385634Y-52863498D01*
X168385637Y-52863498D01*
X168590469Y-52759131D01*
X168776452Y-52624007D01*
X168939007Y-52461452D01*
X168994682Y-52384820D01*
X169050011Y-52342156D01*
X169119624Y-52336177D01*
X169181420Y-52368782D01*
X169195314Y-52384816D01*
X169250988Y-52461445D01*
X169250993Y-52461452D01*
X169413549Y-52624008D01*
X169413554Y-52624012D01*
X169523678Y-52704021D01*
X169599531Y-52759131D01*
X169803450Y-52863033D01*
X169804365Y-52863499D01*
X170008294Y-52929759D01*
X170022999Y-52934537D01*
X170250056Y-52970500D01*
X170250057Y-52970500D01*
X170479943Y-52970500D01*
X170479944Y-52970500D01*
X170707001Y-52934537D01*
X170707004Y-52934536D01*
X170707005Y-52934536D01*
X170925634Y-52863499D01*
X170925634Y-52863498D01*
X170925637Y-52863498D01*
X171130469Y-52759131D01*
X171316452Y-52624007D01*
X171479007Y-52461452D01*
X171534990Y-52384396D01*
X171590318Y-52341732D01*
X171659931Y-52335751D01*
X171683767Y-52348327D01*
X171710977Y-52350469D01*
X172340387Y-51721059D01*
X172345889Y-51741591D01*
X172424881Y-51878408D01*
X172536592Y-51990119D01*
X172673409Y-52069111D01*
X172693939Y-52074612D01*
X172064529Y-52704021D01*
X172139792Y-52758703D01*
X172344549Y-52863033D01*
X172563115Y-52934049D01*
X172790096Y-52970000D01*
X173019904Y-52970000D01*
X173246884Y-52934049D01*
X173465450Y-52863033D01*
X173670206Y-52758704D01*
X173745468Y-52704021D01*
X173745469Y-52704021D01*
X173116059Y-52074612D01*
X173136591Y-52069111D01*
X173273408Y-51990119D01*
X173385119Y-51878408D01*
X173464111Y-51741591D01*
X173469612Y-51721060D01*
X174099021Y-52350469D01*
X174120566Y-52348773D01*
X174129697Y-52341732D01*
X174199311Y-52335750D01*
X174261107Y-52368353D01*
X174275008Y-52384396D01*
X174330987Y-52461445D01*
X174330991Y-52461450D01*
X174493549Y-52624008D01*
X174493554Y-52624012D01*
X174603678Y-52704021D01*
X174679531Y-52759131D01*
X174883450Y-52863033D01*
X174884365Y-52863499D01*
X175088294Y-52929759D01*
X175102999Y-52934537D01*
X175330056Y-52970500D01*
X175330057Y-52970500D01*
X175559943Y-52970500D01*
X175559944Y-52970500D01*
X175787001Y-52934537D01*
X175787004Y-52934536D01*
X175787005Y-52934536D01*
X176005634Y-52863499D01*
X176005634Y-52863498D01*
X176005637Y-52863498D01*
X176210469Y-52759131D01*
X176396452Y-52624007D01*
X176559007Y-52461452D01*
X176614990Y-52384396D01*
X176670318Y-52341732D01*
X176739931Y-52335751D01*
X176763767Y-52348327D01*
X176790977Y-52350469D01*
X177420387Y-51721059D01*
X177425889Y-51741591D01*
X177504881Y-51878408D01*
X177616592Y-51990119D01*
X177753409Y-52069111D01*
X177773939Y-52074612D01*
X177144529Y-52704021D01*
X177219792Y-52758703D01*
X177424549Y-52863033D01*
X177643115Y-52934049D01*
X177870096Y-52970000D01*
X178099904Y-52970000D01*
X178326884Y-52934049D01*
X178545450Y-52863033D01*
X178750206Y-52758704D01*
X178825468Y-52704021D01*
X178825469Y-52704021D01*
X178196059Y-52074612D01*
X178216591Y-52069111D01*
X178353408Y-51990119D01*
X178465119Y-51878408D01*
X178544111Y-51741591D01*
X178549612Y-51721059D01*
X179179021Y-52350469D01*
X179200566Y-52348773D01*
X179209697Y-52341732D01*
X179279311Y-52335750D01*
X179341107Y-52368353D01*
X179355008Y-52384396D01*
X179410987Y-52461445D01*
X179410991Y-52461450D01*
X179573549Y-52624008D01*
X179573554Y-52624012D01*
X179683678Y-52704021D01*
X179759531Y-52759131D01*
X179963450Y-52863033D01*
X179964365Y-52863499D01*
X180168294Y-52929759D01*
X180182999Y-52934537D01*
X180410056Y-52970500D01*
X180410057Y-52970500D01*
X180639943Y-52970500D01*
X180639944Y-52970500D01*
X180867001Y-52934537D01*
X180867004Y-52934536D01*
X180867005Y-52934536D01*
X181085634Y-52863499D01*
X181085634Y-52863498D01*
X181085637Y-52863498D01*
X181290469Y-52759131D01*
X181476452Y-52624007D01*
X181639007Y-52461452D01*
X181774131Y-52275469D01*
X181878498Y-52070637D01*
X181949537Y-51852001D01*
X181985500Y-51624944D01*
X181985500Y-51395056D01*
X181949537Y-51167999D01*
X181949536Y-51167995D01*
X181949536Y-51167994D01*
X181878499Y-50949365D01*
X181872800Y-50938180D01*
X181774131Y-50744531D01*
X181725989Y-50678269D01*
X181639012Y-50558554D01*
X181639008Y-50558549D01*
X181476450Y-50395991D01*
X181476445Y-50395987D01*
X181290472Y-50260871D01*
X181290471Y-50260870D01*
X181290469Y-50260869D01*
X181188053Y-50208685D01*
X181085634Y-50156500D01*
X180867003Y-50085463D01*
X180681620Y-50056101D01*
X180639944Y-50049500D01*
X180410056Y-50049500D01*
X180368380Y-50056101D01*
X180182995Y-50085463D01*
X180178256Y-50086601D01*
X180177814Y-50084762D01*
X180115999Y-50086488D01*
X180059919Y-50054263D01*
X174075146Y-44069488D01*
X174075145Y-44069487D01*
X173960407Y-43992822D01*
X173832932Y-43940021D01*
X173832922Y-43940018D01*
X173697596Y-43913100D01*
X173697594Y-43913100D01*
X173697593Y-43913100D01*
X115589994Y-43913100D01*
X115452006Y-43913100D01*
X115452004Y-43913100D01*
X115316677Y-43940018D01*
X115316667Y-43940021D01*
X115189191Y-43992823D01*
X115074457Y-44069485D01*
X115074453Y-44069489D01*
X114957210Y-44186730D01*
X114916983Y-44213609D01*
X114772624Y-44273404D01*
X114772614Y-44273409D01*
X114641511Y-44361010D01*
X114641507Y-44361013D01*
X114530013Y-44472507D01*
X114530010Y-44472511D01*
X114442409Y-44603614D01*
X114442402Y-44603627D01*
X114382064Y-44749298D01*
X114382061Y-44749310D01*
X114351300Y-44903953D01*
X114351300Y-45060000D01*
X114331615Y-45127039D01*
X114278811Y-45172794D01*
X114227300Y-45184000D01*
X111174598Y-45184000D01*
X111107559Y-45164315D01*
X111086917Y-45147681D01*
X105945449Y-40006214D01*
X105911964Y-39944891D01*
X105916948Y-39875199D01*
X105958820Y-39819266D01*
X105994810Y-39800602D01*
X106012445Y-39794873D01*
X106166788Y-39716232D01*
X106306928Y-39614414D01*
X106429414Y-39491928D01*
X106489991Y-39408550D01*
X106545321Y-39365885D01*
X106614934Y-39359906D01*
X106676729Y-39392512D01*
X106690628Y-39408551D01*
X106750967Y-39491602D01*
X106873397Y-39614032D01*
X107013475Y-39715804D01*
X107167744Y-39794408D01*
X107332415Y-39847914D01*
X107332414Y-39847914D01*
X107339999Y-39849115D01*
X107340000Y-39849114D01*
X107340000Y-38780330D01*
X107359745Y-38800075D01*
X107445255Y-38849444D01*
X107540630Y-38875000D01*
X107639370Y-38875000D01*
X107734745Y-38849444D01*
X107820255Y-38800075D01*
X107840000Y-38780330D01*
X107840000Y-39849115D01*
X107847584Y-39847914D01*
X108012255Y-39794408D01*
X108166524Y-39715804D01*
X108306602Y-39614032D01*
X108429032Y-39491602D01*
X108530804Y-39351524D01*
X108609408Y-39197257D01*
X108662914Y-39032584D01*
X108690000Y-38861571D01*
X108690000Y-38750000D01*
X107870330Y-38750000D01*
X107890075Y-38730255D01*
X107939444Y-38644745D01*
X107965000Y-38549370D01*
X107965000Y-38450630D01*
X107939444Y-38355255D01*
X107890075Y-38269745D01*
X107870330Y-38250000D01*
X108690000Y-38250000D01*
X108690000Y-38138428D01*
X108662914Y-37967415D01*
X108618498Y-37830719D01*
X108616503Y-37760878D01*
X108652583Y-37701045D01*
X108715284Y-37670216D01*
X108736429Y-37668400D01*
X113636381Y-37668400D01*
X113703420Y-37688085D01*
X113724062Y-37704719D01*
X114373181Y-38353838D01*
X114406666Y-38415161D01*
X114409500Y-38441519D01*
X114409500Y-39175001D01*
X114409501Y-39175019D01*
X114420000Y-39277796D01*
X114420001Y-39277799D01*
X114475185Y-39444331D01*
X114475187Y-39444336D01*
X114498870Y-39482732D01*
X114567288Y-39593656D01*
X114691344Y-39717712D01*
X114840666Y-39809814D01*
X115007203Y-39864999D01*
X115109991Y-39875500D01*
X115910008Y-39875499D01*
X115910016Y-39875498D01*
X115910019Y-39875498D01*
X115966302Y-39869748D01*
X116012797Y-39864999D01*
X116179334Y-39809814D01*
X116328656Y-39717712D01*
X116452712Y-39593656D01*
X116492310Y-39529456D01*
X116544258Y-39482732D01*
X116613220Y-39471509D01*
X116677303Y-39499352D01*
X116685530Y-39506872D01*
X116793072Y-39614414D01*
X116933212Y-39716232D01*
X117087555Y-39794873D01*
X117252299Y-39848402D01*
X117423389Y-39875500D01*
X117423390Y-39875500D01*
X117596610Y-39875500D01*
X117596611Y-39875500D01*
X117767701Y-39848402D01*
X117932445Y-39794873D01*
X118086788Y-39716232D01*
X118226928Y-39614414D01*
X118349414Y-39491928D01*
X118409991Y-39408550D01*
X118465321Y-39365885D01*
X118534934Y-39359906D01*
X118596729Y-39392512D01*
X118610628Y-39408551D01*
X118670967Y-39491602D01*
X118793397Y-39614032D01*
X118933475Y-39715804D01*
X119087744Y-39794408D01*
X119252415Y-39847914D01*
X119252414Y-39847914D01*
X119259999Y-39849115D01*
X119260000Y-39849114D01*
X119260000Y-38780330D01*
X119279745Y-38800075D01*
X119365255Y-38849444D01*
X119460630Y-38875000D01*
X119559370Y-38875000D01*
X119654745Y-38849444D01*
X119740255Y-38800075D01*
X119760000Y-38780330D01*
X119760000Y-39849115D01*
X119767584Y-39847914D01*
X119932255Y-39794408D01*
X120086524Y-39715804D01*
X120226602Y-39614032D01*
X120349032Y-39491602D01*
X120450804Y-39351524D01*
X120529408Y-39197257D01*
X120582914Y-39032584D01*
X120610000Y-38861571D01*
X120610000Y-38750000D01*
X119790330Y-38750000D01*
X119810075Y-38730255D01*
X119859444Y-38644745D01*
X119885000Y-38549370D01*
X119885000Y-38450630D01*
X119859444Y-38355255D01*
X119810075Y-38269745D01*
X119790330Y-38250000D01*
X120610000Y-38250000D01*
X120610000Y-38138428D01*
X120582913Y-37967414D01*
X120582913Y-37967411D01*
X120553120Y-37875718D01*
X120551125Y-37805877D01*
X120587205Y-37746044D01*
X120649906Y-37715216D01*
X120671051Y-37713400D01*
X126415500Y-37713400D01*
X126482539Y-37733085D01*
X126528294Y-37785889D01*
X126539500Y-37837400D01*
X126539500Y-39175001D01*
X126539501Y-39175018D01*
X126550000Y-39277796D01*
X126550001Y-39277799D01*
X126605185Y-39444331D01*
X126605187Y-39444336D01*
X126628870Y-39482732D01*
X126697288Y-39593656D01*
X126821344Y-39717712D01*
X126970666Y-39809814D01*
X127137203Y-39864999D01*
X127239991Y-39875500D01*
X128040008Y-39875499D01*
X128040016Y-39875498D01*
X128040019Y-39875498D01*
X128096302Y-39869748D01*
X128142797Y-39864999D01*
X128309334Y-39809814D01*
X128458656Y-39717712D01*
X128582712Y-39593656D01*
X128622310Y-39529456D01*
X128674258Y-39482732D01*
X128743220Y-39471509D01*
X128807303Y-39499352D01*
X128815530Y-39506872D01*
X128923072Y-39614414D01*
X129063212Y-39716232D01*
X129217555Y-39794873D01*
X129382299Y-39848402D01*
X129553389Y-39875500D01*
X129553390Y-39875500D01*
X129726610Y-39875500D01*
X129726611Y-39875500D01*
X129897701Y-39848402D01*
X130062445Y-39794873D01*
X130216788Y-39716232D01*
X130356928Y-39614414D01*
X130479414Y-39491928D01*
X130581232Y-39351788D01*
X130623819Y-39268204D01*
X130671792Y-39217410D01*
X130734303Y-39200500D01*
X130910696Y-39200500D01*
X131001740Y-39182389D01*
X131046028Y-39173580D01*
X131109769Y-39147177D01*
X131173507Y-39120777D01*
X131173508Y-39120776D01*
X131173511Y-39120775D01*
X131288243Y-39044114D01*
X132582638Y-37749719D01*
X132643961Y-37716234D01*
X132670319Y-37713400D01*
X135775500Y-37713400D01*
X135842539Y-37733085D01*
X135888294Y-37785889D01*
X135899500Y-37837400D01*
X135899500Y-39175001D01*
X135899501Y-39175018D01*
X135910000Y-39277796D01*
X135910001Y-39277799D01*
X135965185Y-39444331D01*
X135965187Y-39444336D01*
X135988870Y-39482732D01*
X136057288Y-39593656D01*
X136181344Y-39717712D01*
X136330666Y-39809814D01*
X136497203Y-39864999D01*
X136599991Y-39875500D01*
X137400008Y-39875499D01*
X137400016Y-39875498D01*
X137400019Y-39875498D01*
X137456302Y-39869748D01*
X137502797Y-39864999D01*
X137669334Y-39809814D01*
X137818656Y-39717712D01*
X137942712Y-39593656D01*
X137982310Y-39529456D01*
X138034258Y-39482732D01*
X138103220Y-39471509D01*
X138167303Y-39499352D01*
X138175530Y-39506872D01*
X138283072Y-39614414D01*
X138423212Y-39716232D01*
X138577555Y-39794873D01*
X138742299Y-39848402D01*
X138913389Y-39875500D01*
X138913390Y-39875500D01*
X139086610Y-39875500D01*
X139086611Y-39875500D01*
X139257701Y-39848402D01*
X139422445Y-39794873D01*
X139576788Y-39716232D01*
X139716928Y-39614414D01*
X139839414Y-39491928D01*
X139941232Y-39351788D01*
X139983819Y-39268204D01*
X140031792Y-39217410D01*
X140094303Y-39200500D01*
X140270696Y-39200500D01*
X140361740Y-39182389D01*
X140406028Y-39173580D01*
X140469769Y-39147177D01*
X140533507Y-39120777D01*
X140533508Y-39120776D01*
X140533511Y-39120775D01*
X140648243Y-39044114D01*
X140745814Y-38946543D01*
X140745815Y-38946542D01*
X141968638Y-37723719D01*
X142029961Y-37690234D01*
X142056319Y-37687400D01*
X145126243Y-37687400D01*
X145193282Y-37707085D01*
X145239037Y-37759889D01*
X145249238Y-37821812D01*
X145249661Y-37821834D01*
X145249562Y-37823777D01*
X145249600Y-37824008D01*
X145249501Y-37824976D01*
X145249500Y-37824996D01*
X145249500Y-39175001D01*
X145249501Y-39175018D01*
X145260000Y-39277796D01*
X145260001Y-39277799D01*
X145315185Y-39444331D01*
X145315187Y-39444336D01*
X145338870Y-39482732D01*
X145407288Y-39593656D01*
X145531344Y-39717712D01*
X145680666Y-39809814D01*
X145847203Y-39864999D01*
X145949991Y-39875500D01*
X146750008Y-39875499D01*
X146750016Y-39875498D01*
X146750019Y-39875498D01*
X146806302Y-39869748D01*
X146852797Y-39864999D01*
X147019334Y-39809814D01*
X147168656Y-39717712D01*
X147292712Y-39593656D01*
X147332310Y-39529456D01*
X147384258Y-39482732D01*
X147453220Y-39471509D01*
X147517303Y-39499352D01*
X147525530Y-39506872D01*
X147633072Y-39614414D01*
X147773212Y-39716232D01*
X147927555Y-39794873D01*
X148092299Y-39848402D01*
X148263389Y-39875500D01*
X148263390Y-39875500D01*
X148436610Y-39875500D01*
X148436611Y-39875500D01*
X148607701Y-39848402D01*
X148772445Y-39794873D01*
X148926788Y-39716232D01*
X149066928Y-39614414D01*
X149189414Y-39491928D01*
X149291232Y-39351788D01*
X149369873Y-39197445D01*
X149423402Y-39032701D01*
X149450500Y-38861611D01*
X149450500Y-38138389D01*
X149423402Y-37967299D01*
X149369873Y-37802555D01*
X149291232Y-37648212D01*
X149189414Y-37508072D01*
X149086818Y-37405476D01*
X149053334Y-37344153D01*
X149050500Y-37317795D01*
X149050500Y-36954304D01*
X149023581Y-36818976D01*
X149023580Y-36818975D01*
X149023580Y-36818972D01*
X149019272Y-36808572D01*
X149000632Y-36763571D01*
X148970775Y-36691489D01*
X148970774Y-36691487D01*
X148970773Y-36691485D01*
X148894115Y-36576759D01*
X148894114Y-36576758D01*
X148838713Y-36521357D01*
X148838711Y-36521355D01*
X148838710Y-36521353D01*
X148760142Y-36442785D01*
X148645407Y-36366122D01*
X148517932Y-36313321D01*
X148517922Y-36313318D01*
X148382596Y-36286400D01*
X148382594Y-36286400D01*
X148382593Y-36286400D01*
X141783794Y-36286400D01*
X141645807Y-36286400D01*
X141645805Y-36286400D01*
X141510477Y-36313318D01*
X141510467Y-36313321D01*
X141382992Y-36366122D01*
X141268254Y-36442787D01*
X141268253Y-36442788D01*
X140289381Y-37421661D01*
X140228058Y-37455146D01*
X140158366Y-37450162D01*
X140114019Y-37421661D01*
X139161145Y-36468787D01*
X139046407Y-36392122D01*
X138918932Y-36339321D01*
X138918922Y-36339318D01*
X138783596Y-36312400D01*
X138783594Y-36312400D01*
X138783593Y-36312400D01*
X132397794Y-36312400D01*
X132397793Y-36312400D01*
X117066094Y-36312400D01*
X116928106Y-36312400D01*
X116928104Y-36312400D01*
X116792777Y-36339318D01*
X116792767Y-36339321D01*
X116665292Y-36392122D01*
X116550554Y-36468787D01*
X116550553Y-36468788D01*
X115931161Y-37088181D01*
X115869838Y-37121666D01*
X115843480Y-37124500D01*
X115176519Y-37124500D01*
X115109480Y-37104815D01*
X115088838Y-37088181D01*
X114424446Y-36423788D01*
X114424445Y-36423787D01*
X114309707Y-36347122D01*
X114182232Y-36294321D01*
X114182222Y-36294318D01*
X114046896Y-36267400D01*
X114046894Y-36267400D01*
X114046893Y-36267400D01*
X107191094Y-36267400D01*
X107053106Y-36267400D01*
X107053104Y-36267400D01*
X106917777Y-36294318D01*
X106917767Y-36294321D01*
X106790292Y-36347122D01*
X106675554Y-36423787D01*
X105976941Y-37122400D01*
X105915618Y-37155885D01*
X105852445Y-37152727D01*
X105852444Y-37152736D01*
X105852399Y-37152725D01*
X105850952Y-37152653D01*
X105847707Y-37151599D01*
X105847704Y-37151598D01*
X105719383Y-37131274D01*
X105676611Y-37124500D01*
X105503389Y-37124500D01*
X105463728Y-37130781D01*
X105332302Y-37151597D01*
X105167552Y-37205128D01*
X105013211Y-37283768D01*
X104966378Y-37317795D01*
X104873072Y-37385586D01*
X104873070Y-37385588D01*
X104873069Y-37385588D01*
X104750588Y-37508069D01*
X104750581Y-37508078D01*
X104690317Y-37591023D01*
X104634987Y-37633689D01*
X104565374Y-37639667D01*
X104503579Y-37607061D01*
X104489683Y-37591023D01*
X104429418Y-37508078D01*
X104429414Y-37508072D01*
X104306928Y-37385586D01*
X104166788Y-37283768D01*
X104012445Y-37205127D01*
X103847701Y-37151598D01*
X103847699Y-37151597D01*
X103847698Y-37151597D01*
X103716271Y-37130781D01*
X103676611Y-37124500D01*
X103503389Y-37124500D01*
X103463728Y-37130781D01*
X103332302Y-37151597D01*
X103167552Y-37205128D01*
X103013211Y-37283768D01*
X102966378Y-37317795D01*
X102873072Y-37385586D01*
X102873070Y-37385588D01*
X102873069Y-37385588D01*
X102750588Y-37508069D01*
X102750581Y-37508078D01*
X102690317Y-37591023D01*
X102634987Y-37633689D01*
X102565374Y-37639667D01*
X102503579Y-37607061D01*
X102489683Y-37591023D01*
X102429418Y-37508078D01*
X102429414Y-37508072D01*
X102306928Y-37385586D01*
X102166788Y-37283768D01*
X102012445Y-37205127D01*
X101847701Y-37151598D01*
X101847699Y-37151597D01*
X101847698Y-37151597D01*
X101716271Y-37130781D01*
X101676611Y-37124500D01*
X101503389Y-37124500D01*
X101463728Y-37130781D01*
X101332302Y-37151597D01*
X101167552Y-37205128D01*
X101013211Y-37283768D01*
X100966378Y-37317795D01*
X100873072Y-37385586D01*
X100873070Y-37385588D01*
X100873069Y-37385588D01*
X100750588Y-37508069D01*
X100750581Y-37508078D01*
X100690317Y-37591023D01*
X100634987Y-37633689D01*
X100565374Y-37639667D01*
X100503579Y-37607061D01*
X100489683Y-37591023D01*
X100429418Y-37508078D01*
X100429414Y-37508072D01*
X100306928Y-37385586D01*
X100166788Y-37283768D01*
X100012445Y-37205127D01*
X99847701Y-37151598D01*
X99847699Y-37151597D01*
X99847698Y-37151597D01*
X99716271Y-37130781D01*
X99676611Y-37124500D01*
X99503389Y-37124500D01*
X99463728Y-37130781D01*
X99332302Y-37151597D01*
X99167552Y-37205128D01*
X99013211Y-37283768D01*
X98873073Y-37385585D01*
X98765530Y-37493128D01*
X98704207Y-37526612D01*
X98634515Y-37521628D01*
X98578582Y-37479756D01*
X98572310Y-37470543D01*
X98532712Y-37406344D01*
X98408656Y-37282288D01*
X98283559Y-37205128D01*
X98259336Y-37190187D01*
X98259331Y-37190185D01*
X98257862Y-37189698D01*
X98092797Y-37135001D01*
X98092795Y-37135000D01*
X97990010Y-37124500D01*
X97189998Y-37124500D01*
X97189980Y-37124501D01*
X97087203Y-37135000D01*
X97087200Y-37135001D01*
X96920668Y-37190185D01*
X96920663Y-37190187D01*
X96771342Y-37282289D01*
X96647289Y-37406342D01*
X96555187Y-37555663D01*
X96555186Y-37555666D01*
X96500001Y-37722203D01*
X96500001Y-37722204D01*
X96500000Y-37722204D01*
X96489500Y-37824983D01*
X96489500Y-39175001D01*
X96489501Y-39175018D01*
X96500000Y-39277796D01*
X96500001Y-39277799D01*
X96555185Y-39444331D01*
X96555187Y-39444336D01*
X96578870Y-39482732D01*
X96647288Y-39593656D01*
X96771344Y-39717712D01*
X96920666Y-39809814D01*
X97087203Y-39864999D01*
X97189991Y-39875500D01*
X97990008Y-39875499D01*
X98045944Y-39869785D01*
X98114637Y-39882555D01*
X98146226Y-39905461D01*
X130386484Y-72145720D01*
X130386486Y-72145721D01*
X130386490Y-72145724D01*
X130523409Y-72224773D01*
X130523416Y-72224777D01*
X130676143Y-72265701D01*
X130676145Y-72265701D01*
X130750673Y-72265701D01*
X130817712Y-72285386D01*
X130863467Y-72338190D01*
X130873411Y-72407348D01*
X130844386Y-72470904D01*
X130788991Y-72507632D01*
X130669365Y-72546500D01*
X130464527Y-72650871D01*
X130278554Y-72785987D01*
X130278549Y-72785991D01*
X130115991Y-72948549D01*
X130115987Y-72948554D01*
X130060318Y-73025177D01*
X130004988Y-73067843D01*
X129935375Y-73073822D01*
X129873580Y-73041217D01*
X129859682Y-73025177D01*
X129804012Y-72948554D01*
X129804008Y-72948549D01*
X129641450Y-72785991D01*
X129641445Y-72785987D01*
X129455472Y-72650871D01*
X129455471Y-72650870D01*
X129455469Y-72650869D01*
X129353053Y-72598685D01*
X129250634Y-72546500D01*
X129032003Y-72475463D01*
X128880629Y-72451487D01*
X128804944Y-72439500D01*
X128575056Y-72439500D01*
X128499370Y-72451487D01*
X128347997Y-72475463D01*
X128347994Y-72475463D01*
X128129365Y-72546500D01*
X127924527Y-72650871D01*
X127738554Y-72785987D01*
X127738549Y-72785991D01*
X127575991Y-72948549D01*
X127575987Y-72948554D01*
X127520318Y-73025177D01*
X127464988Y-73067843D01*
X127395375Y-73073822D01*
X127333580Y-73041217D01*
X127319682Y-73025177D01*
X127264012Y-72948554D01*
X127264008Y-72948549D01*
X127101450Y-72785991D01*
X127101445Y-72785987D01*
X126915472Y-72650871D01*
X126915471Y-72650870D01*
X126915469Y-72650869D01*
X126813053Y-72598685D01*
X126710634Y-72546500D01*
X126492003Y-72475463D01*
X126340629Y-72451487D01*
X126264944Y-72439500D01*
X126035056Y-72439500D01*
X125959370Y-72451487D01*
X125807997Y-72475463D01*
X125807994Y-72475463D01*
X125589365Y-72546500D01*
X125384527Y-72650871D01*
X125198554Y-72785987D01*
X125198549Y-72785991D01*
X125035991Y-72948549D01*
X125035987Y-72948554D01*
X124980318Y-73025177D01*
X124924988Y-73067843D01*
X124855375Y-73073822D01*
X124793580Y-73041217D01*
X124779682Y-73025177D01*
X124724012Y-72948554D01*
X124724008Y-72948549D01*
X124561450Y-72785991D01*
X124561445Y-72785987D01*
X124375472Y-72650871D01*
X124375471Y-72650870D01*
X124375469Y-72650869D01*
X124273053Y-72598685D01*
X124170634Y-72546500D01*
X123952003Y-72475463D01*
X123800629Y-72451487D01*
X123724944Y-72439500D01*
X123495056Y-72439500D01*
X123419370Y-72451487D01*
X123267997Y-72475463D01*
X123267994Y-72475463D01*
X123049365Y-72546500D01*
X122844527Y-72650871D01*
X122658554Y-72785987D01*
X122658549Y-72785991D01*
X122495991Y-72948549D01*
X122495987Y-72948554D01*
X122440318Y-73025177D01*
X122384988Y-73067843D01*
X122315375Y-73073822D01*
X122253580Y-73041217D01*
X122239682Y-73025177D01*
X122184012Y-72948554D01*
X122184008Y-72948549D01*
X122021450Y-72785991D01*
X122021445Y-72785987D01*
X121835472Y-72650871D01*
X121835471Y-72650870D01*
X121835469Y-72650869D01*
X121733053Y-72598685D01*
X121630634Y-72546500D01*
X121412003Y-72475463D01*
X121260629Y-72451487D01*
X121184944Y-72439500D01*
X120955056Y-72439500D01*
X120879370Y-72451487D01*
X120727997Y-72475463D01*
X120727994Y-72475463D01*
X120509365Y-72546500D01*
X120304527Y-72650871D01*
X120118554Y-72785987D01*
X120118549Y-72785991D01*
X119955991Y-72948549D01*
X119955987Y-72948554D01*
X119900318Y-73025177D01*
X119844988Y-73067843D01*
X119775375Y-73073822D01*
X119713580Y-73041217D01*
X119699682Y-73025177D01*
X119644012Y-72948554D01*
X119644008Y-72948549D01*
X119481450Y-72785991D01*
X119481445Y-72785987D01*
X119295472Y-72650871D01*
X119295471Y-72650870D01*
X119295469Y-72650869D01*
X119193053Y-72598685D01*
X119090634Y-72546500D01*
X118872003Y-72475463D01*
X118720629Y-72451487D01*
X118644944Y-72439500D01*
X118415056Y-72439500D01*
X118339370Y-72451487D01*
X118187997Y-72475463D01*
X118187994Y-72475463D01*
X117969365Y-72546500D01*
X117764527Y-72650871D01*
X117578554Y-72785987D01*
X117578549Y-72785991D01*
X117415991Y-72948549D01*
X117415987Y-72948554D01*
X117360318Y-73025177D01*
X117304988Y-73067843D01*
X117235375Y-73073822D01*
X117173580Y-73041217D01*
X117159682Y-73025177D01*
X117104012Y-72948554D01*
X117104008Y-72948549D01*
X116941450Y-72785991D01*
X116941445Y-72785987D01*
X116755472Y-72650871D01*
X116755471Y-72650870D01*
X116755469Y-72650869D01*
X116653053Y-72598685D01*
X116550634Y-72546500D01*
X116332003Y-72475463D01*
X116180629Y-72451487D01*
X116104944Y-72439500D01*
X115875056Y-72439500D01*
X115799370Y-72451487D01*
X115647997Y-72475463D01*
X115647994Y-72475463D01*
X115429365Y-72546500D01*
X115224527Y-72650871D01*
X115038554Y-72785987D01*
X115038549Y-72785991D01*
X114875991Y-72948549D01*
X114820008Y-73025604D01*
X114764678Y-73068269D01*
X114695065Y-73074248D01*
X114671229Y-73061671D01*
X114644021Y-73059529D01*
X114014612Y-73688939D01*
X114009111Y-73668409D01*
X113930119Y-73531592D01*
X113818408Y-73419881D01*
X113681591Y-73340889D01*
X113661058Y-73335387D01*
X114290469Y-72705977D01*
X114290468Y-72705975D01*
X114215210Y-72651298D01*
X114010450Y-72546966D01*
X113791884Y-72475950D01*
X113564904Y-72440000D01*
X113335096Y-72440000D01*
X113108115Y-72475950D01*
X112889549Y-72546966D01*
X112684796Y-72651294D01*
X112609530Y-72705977D01*
X112609530Y-72705978D01*
X113238940Y-73335387D01*
X113218409Y-73340889D01*
X113081592Y-73419881D01*
X112969881Y-73531592D01*
X112890889Y-73668409D01*
X112885387Y-73688940D01*
X112255978Y-73059530D01*
X112255977Y-73059530D01*
X112201294Y-73134796D01*
X112096966Y-73339549D01*
X112025950Y-73558115D01*
X111990000Y-73785095D01*
X111990000Y-74014904D01*
X112025950Y-74241884D01*
X112096966Y-74460450D01*
X112201298Y-74665210D01*
X112255975Y-74740468D01*
X112255977Y-74740469D01*
X112885387Y-74111059D01*
X112890889Y-74131591D01*
X112969881Y-74268408D01*
X113081592Y-74380119D01*
X113218409Y-74459111D01*
X113238939Y-74464612D01*
X112609529Y-75094021D01*
X112684792Y-75148703D01*
X112889549Y-75253033D01*
X113108115Y-75324049D01*
X113335096Y-75360000D01*
X113564904Y-75360000D01*
X113791884Y-75324049D01*
X114010450Y-75253033D01*
X114215206Y-75148704D01*
X114290468Y-75094021D01*
X114290469Y-75094021D01*
X113661059Y-74464612D01*
X113681591Y-74459111D01*
X113818408Y-74380119D01*
X113930119Y-74268408D01*
X114009111Y-74131591D01*
X114014612Y-74111060D01*
X114644021Y-74740469D01*
X114665566Y-74738773D01*
X114674697Y-74731732D01*
X114744311Y-74725750D01*
X114806107Y-74758353D01*
X114820008Y-74774396D01*
X114875987Y-74851445D01*
X114875991Y-74851450D01*
X115038549Y-75014008D01*
X115038554Y-75014012D01*
X115148678Y-75094021D01*
X115224531Y-75149131D01*
X115428450Y-75253033D01*
X115429365Y-75253499D01*
X115633294Y-75319759D01*
X115647999Y-75324537D01*
X115875056Y-75360500D01*
X115875057Y-75360500D01*
X116104943Y-75360500D01*
X116104944Y-75360500D01*
X116332001Y-75324537D01*
X116332004Y-75324536D01*
X116332005Y-75324536D01*
X116550634Y-75253499D01*
X116550634Y-75253498D01*
X116550637Y-75253498D01*
X116755469Y-75149131D01*
X116941452Y-75014007D01*
X117104007Y-74851452D01*
X117159682Y-74774820D01*
X117215011Y-74732156D01*
X117284624Y-74726177D01*
X117346420Y-74758782D01*
X117360314Y-74774816D01*
X117415988Y-74851445D01*
X117415993Y-74851452D01*
X117578549Y-75014008D01*
X117578554Y-75014012D01*
X117688678Y-75094021D01*
X117764531Y-75149131D01*
X117968450Y-75253033D01*
X117969365Y-75253499D01*
X118173294Y-75319759D01*
X118187999Y-75324537D01*
X118415056Y-75360500D01*
X118415057Y-75360500D01*
X118644943Y-75360500D01*
X118644944Y-75360500D01*
X118872001Y-75324537D01*
X118872004Y-75324536D01*
X118872005Y-75324536D01*
X119090634Y-75253499D01*
X119090634Y-75253498D01*
X119090637Y-75253498D01*
X119295469Y-75149131D01*
X119481452Y-75014007D01*
X119644007Y-74851452D01*
X119699682Y-74774820D01*
X119755011Y-74732156D01*
X119824624Y-74726177D01*
X119886420Y-74758782D01*
X119900314Y-74774816D01*
X119955988Y-74851445D01*
X119955993Y-74851452D01*
X120118549Y-75014008D01*
X120118554Y-75014012D01*
X120228678Y-75094021D01*
X120304531Y-75149131D01*
X120508450Y-75253033D01*
X120509365Y-75253499D01*
X120713294Y-75319759D01*
X120727999Y-75324537D01*
X120955056Y-75360500D01*
X120955057Y-75360500D01*
X121184943Y-75360500D01*
X121184944Y-75360500D01*
X121412001Y-75324537D01*
X121412004Y-75324536D01*
X121412005Y-75324536D01*
X121630634Y-75253499D01*
X121630634Y-75253498D01*
X121630637Y-75253498D01*
X121835469Y-75149131D01*
X122021452Y-75014007D01*
X122184007Y-74851452D01*
X122239682Y-74774820D01*
X122295011Y-74732156D01*
X122364624Y-74726177D01*
X122426420Y-74758782D01*
X122440314Y-74774816D01*
X122495988Y-74851445D01*
X122495993Y-74851452D01*
X122658549Y-75014008D01*
X122658554Y-75014012D01*
X122768678Y-75094021D01*
X122844531Y-75149131D01*
X123048450Y-75253033D01*
X123049365Y-75253499D01*
X123253294Y-75319759D01*
X123267999Y-75324537D01*
X123495056Y-75360500D01*
X123495057Y-75360500D01*
X123724943Y-75360500D01*
X123724944Y-75360500D01*
X123952001Y-75324537D01*
X123952004Y-75324536D01*
X123952005Y-75324536D01*
X124170634Y-75253499D01*
X124170634Y-75253498D01*
X124170637Y-75253498D01*
X124375469Y-75149131D01*
X124561452Y-75014007D01*
X124724007Y-74851452D01*
X124779682Y-74774820D01*
X124835011Y-74732156D01*
X124904624Y-74726177D01*
X124966420Y-74758782D01*
X124980314Y-74774816D01*
X125035988Y-74851445D01*
X125035993Y-74851452D01*
X125198549Y-75014008D01*
X125198554Y-75014012D01*
X125308678Y-75094021D01*
X125384531Y-75149131D01*
X125588450Y-75253033D01*
X125589365Y-75253499D01*
X125793294Y-75319759D01*
X125807999Y-75324537D01*
X126035056Y-75360500D01*
X126035057Y-75360500D01*
X126264943Y-75360500D01*
X126264944Y-75360500D01*
X126492001Y-75324537D01*
X126492004Y-75324536D01*
X126492005Y-75324536D01*
X126710634Y-75253499D01*
X126710634Y-75253498D01*
X126710637Y-75253498D01*
X126915469Y-75149131D01*
X127101452Y-75014007D01*
X127264007Y-74851452D01*
X127319682Y-74774820D01*
X127375011Y-74732156D01*
X127444624Y-74726177D01*
X127506420Y-74758782D01*
X127520314Y-74774816D01*
X127575988Y-74851445D01*
X127575993Y-74851452D01*
X127738549Y-75014008D01*
X127738554Y-75014012D01*
X127848678Y-75094021D01*
X127924531Y-75149131D01*
X128128450Y-75253033D01*
X128129365Y-75253499D01*
X128333294Y-75319759D01*
X128347999Y-75324537D01*
X128575056Y-75360500D01*
X128575057Y-75360500D01*
X128804943Y-75360500D01*
X128804944Y-75360500D01*
X129032001Y-75324537D01*
X129032004Y-75324536D01*
X129032005Y-75324536D01*
X129250634Y-75253499D01*
X129250634Y-75253498D01*
X129250637Y-75253498D01*
X129455469Y-75149131D01*
X129641452Y-75014007D01*
X129804007Y-74851452D01*
X129859682Y-74774820D01*
X129915011Y-74732156D01*
X129984624Y-74726177D01*
X130046420Y-74758782D01*
X130060314Y-74774816D01*
X130115988Y-74851445D01*
X130115993Y-74851452D01*
X130278549Y-75014008D01*
X130278554Y-75014012D01*
X130388678Y-75094021D01*
X130464531Y-75149131D01*
X130668450Y-75253033D01*
X130669365Y-75253499D01*
X130873294Y-75319759D01*
X130887999Y-75324537D01*
X131115056Y-75360500D01*
X131115057Y-75360500D01*
X131344943Y-75360500D01*
X131344944Y-75360500D01*
X131572001Y-75324537D01*
X131572004Y-75324536D01*
X131572005Y-75324536D01*
X131790634Y-75253499D01*
X131790634Y-75253498D01*
X131790637Y-75253498D01*
X131995469Y-75149131D01*
X132181452Y-75014007D01*
X132344007Y-74851452D01*
X132399682Y-74774820D01*
X132455011Y-74732156D01*
X132524624Y-74726177D01*
X132586420Y-74758782D01*
X132600314Y-74774816D01*
X132655988Y-74851445D01*
X132655993Y-74851452D01*
X132818549Y-75014008D01*
X132818554Y-75014012D01*
X132928678Y-75094021D01*
X133004531Y-75149131D01*
X133208450Y-75253033D01*
X133209365Y-75253499D01*
X133413294Y-75319759D01*
X133427999Y-75324537D01*
X133655056Y-75360500D01*
X133655057Y-75360500D01*
X133884943Y-75360500D01*
X133884944Y-75360500D01*
X134112001Y-75324537D01*
X134112004Y-75324536D01*
X134112005Y-75324536D01*
X134330634Y-75253499D01*
X134330634Y-75253498D01*
X134330637Y-75253498D01*
X134535469Y-75149131D01*
X134721452Y-75014007D01*
X134884007Y-74851452D01*
X134939682Y-74774820D01*
X134995011Y-74732156D01*
X135064624Y-74726177D01*
X135126420Y-74758782D01*
X135140314Y-74774816D01*
X135195988Y-74851445D01*
X135195993Y-74851452D01*
X135358549Y-75014008D01*
X135358554Y-75014012D01*
X135468678Y-75094021D01*
X135544531Y-75149131D01*
X135748450Y-75253033D01*
X135749365Y-75253499D01*
X135953294Y-75319759D01*
X135967999Y-75324537D01*
X136195056Y-75360500D01*
X136195057Y-75360500D01*
X136424943Y-75360500D01*
X136424944Y-75360500D01*
X136652001Y-75324537D01*
X136652004Y-75324536D01*
X136652005Y-75324536D01*
X136870634Y-75253499D01*
X136870634Y-75253498D01*
X136870637Y-75253498D01*
X137075469Y-75149131D01*
X137261452Y-75014007D01*
X137424007Y-74851452D01*
X137479682Y-74774820D01*
X137535011Y-74732156D01*
X137604624Y-74726177D01*
X137666420Y-74758782D01*
X137680314Y-74774816D01*
X137735988Y-74851445D01*
X137735993Y-74851452D01*
X137898549Y-75014008D01*
X137898554Y-75014012D01*
X138008678Y-75094021D01*
X138084531Y-75149131D01*
X138288450Y-75253033D01*
X138289365Y-75253499D01*
X138493294Y-75319759D01*
X138507999Y-75324537D01*
X138735056Y-75360500D01*
X138735057Y-75360500D01*
X138964943Y-75360500D01*
X138964944Y-75360500D01*
X139192001Y-75324537D01*
X139192004Y-75324536D01*
X139192005Y-75324536D01*
X139410634Y-75253499D01*
X139410634Y-75253498D01*
X139410637Y-75253498D01*
X139615469Y-75149131D01*
X139801452Y-75014007D01*
X139964007Y-74851452D01*
X140019682Y-74774820D01*
X140075011Y-74732156D01*
X140144624Y-74726177D01*
X140206420Y-74758782D01*
X140220314Y-74774816D01*
X140275988Y-74851445D01*
X140275993Y-74851452D01*
X140438549Y-75014008D01*
X140438554Y-75014012D01*
X140548678Y-75094021D01*
X140624531Y-75149131D01*
X140828450Y-75253033D01*
X140829365Y-75253499D01*
X141033294Y-75319759D01*
X141047999Y-75324537D01*
X141275056Y-75360500D01*
X141275057Y-75360500D01*
X141504943Y-75360500D01*
X141504944Y-75360500D01*
X141732001Y-75324537D01*
X141732004Y-75324536D01*
X141732005Y-75324536D01*
X141950634Y-75253499D01*
X141950634Y-75253498D01*
X141950637Y-75253498D01*
X142155469Y-75149131D01*
X142341452Y-75014007D01*
X142504007Y-74851452D01*
X142559682Y-74774820D01*
X142615011Y-74732156D01*
X142684624Y-74726177D01*
X142746420Y-74758782D01*
X142760314Y-74774816D01*
X142815988Y-74851445D01*
X142815993Y-74851452D01*
X142978549Y-75014008D01*
X142978554Y-75014012D01*
X143088678Y-75094021D01*
X143164531Y-75149131D01*
X143368450Y-75253033D01*
X143369365Y-75253499D01*
X143573294Y-75319759D01*
X143587999Y-75324537D01*
X143815056Y-75360500D01*
X143815057Y-75360500D01*
X144044943Y-75360500D01*
X144044944Y-75360500D01*
X144272001Y-75324537D01*
X144272004Y-75324536D01*
X144272005Y-75324536D01*
X144490634Y-75253499D01*
X144490634Y-75253498D01*
X144490637Y-75253498D01*
X144695469Y-75149131D01*
X144881452Y-75014007D01*
X145044007Y-74851452D01*
X145099682Y-74774820D01*
X145155011Y-74732156D01*
X145224624Y-74726177D01*
X145286420Y-74758782D01*
X145300314Y-74774816D01*
X145355988Y-74851445D01*
X145355993Y-74851452D01*
X145518549Y-75014008D01*
X145518554Y-75014012D01*
X145628678Y-75094021D01*
X145704531Y-75149131D01*
X145908450Y-75253033D01*
X145909365Y-75253499D01*
X146113294Y-75319759D01*
X146127999Y-75324537D01*
X146355056Y-75360500D01*
X146355057Y-75360500D01*
X146584943Y-75360500D01*
X146584944Y-75360500D01*
X146812001Y-75324537D01*
X146812004Y-75324536D01*
X146812005Y-75324536D01*
X147030634Y-75253499D01*
X147030634Y-75253498D01*
X147030637Y-75253498D01*
X147235469Y-75149131D01*
X147421452Y-75014007D01*
X147584007Y-74851452D01*
X147639682Y-74774820D01*
X147695011Y-74732156D01*
X147764624Y-74726177D01*
X147826420Y-74758782D01*
X147840314Y-74774816D01*
X147895988Y-74851445D01*
X147895993Y-74851452D01*
X148058549Y-75014008D01*
X148058554Y-75014012D01*
X148168678Y-75094021D01*
X148244531Y-75149131D01*
X148448450Y-75253033D01*
X148449365Y-75253499D01*
X148653294Y-75319759D01*
X148667999Y-75324537D01*
X148895056Y-75360500D01*
X148895057Y-75360500D01*
X149124943Y-75360500D01*
X149124944Y-75360500D01*
X149352001Y-75324537D01*
X149352004Y-75324536D01*
X149352005Y-75324536D01*
X149570634Y-75253499D01*
X149570634Y-75253498D01*
X149570637Y-75253498D01*
X149775469Y-75149131D01*
X149961452Y-75014007D01*
X150124007Y-74851452D01*
X150179990Y-74774396D01*
X150235318Y-74731732D01*
X150304931Y-74725751D01*
X150328767Y-74738327D01*
X150355977Y-74740469D01*
X150985387Y-74111058D01*
X150990889Y-74131591D01*
X151069881Y-74268408D01*
X151181592Y-74380119D01*
X151318409Y-74459111D01*
X151338939Y-74464612D01*
X150709529Y-75094021D01*
X150784792Y-75148703D01*
X150989549Y-75253033D01*
X151208115Y-75324049D01*
X151435096Y-75360000D01*
X151664904Y-75360000D01*
X151891884Y-75324049D01*
X152110450Y-75253033D01*
X152315206Y-75148704D01*
X152390468Y-75094021D01*
X152390469Y-75094021D01*
X151761059Y-74464612D01*
X151781591Y-74459111D01*
X151918408Y-74380119D01*
X152030119Y-74268408D01*
X152109111Y-74131591D01*
X152114612Y-74111059D01*
X152744021Y-74740469D01*
X152744021Y-74740468D01*
X152798704Y-74665206D01*
X152903033Y-74460450D01*
X152974049Y-74241884D01*
X153010000Y-74014904D01*
X153010000Y-74004000D01*
X153029685Y-73936961D01*
X153082489Y-73891206D01*
X153134000Y-73880000D01*
X182776000Y-73880000D01*
X182843039Y-73899685D01*
X182888794Y-73952489D01*
X182900000Y-74004000D01*
X182900000Y-81276000D01*
X182880315Y-81343039D01*
X182827511Y-81388794D01*
X182776000Y-81400000D01*
X95024000Y-81400000D01*
X94956961Y-81380315D01*
X94911206Y-81327511D01*
X94900000Y-81276000D01*
X94900000Y-77000000D01*
X90924000Y-77000000D01*
X90856961Y-76980315D01*
X90811206Y-76927511D01*
X90800000Y-76876000D01*
X90800000Y-38024000D01*
X90819685Y-37956961D01*
X90872489Y-37911206D01*
X90924000Y-37900000D01*
X95000000Y-37900000D01*
X95000000Y-34123436D01*
X95019685Y-34056397D01*
X95072489Y-34010642D01*
X95123433Y-33999437D01*
X182575554Y-33600567D01*
X182642681Y-33619946D01*
G37*
%TD.AperFunction*%
%TA.AperFunction,Conductor*%
G36*
X173354120Y-45333785D02*
G01*
X173374762Y-45350419D01*
X176182342Y-48157999D01*
X177874333Y-49849989D01*
X177907818Y-49911312D01*
X177902834Y-49981004D01*
X177860962Y-50036937D01*
X177806050Y-50060143D01*
X177643115Y-50085949D01*
X177424549Y-50156966D01*
X177219796Y-50261294D01*
X177144530Y-50315977D01*
X177144530Y-50315978D01*
X177773940Y-50945387D01*
X177753409Y-50950889D01*
X177616592Y-51029881D01*
X177504881Y-51141592D01*
X177425889Y-51278409D01*
X177420387Y-51298940D01*
X176790978Y-50669530D01*
X176769426Y-50671226D01*
X176760292Y-50678270D01*
X176690678Y-50684246D01*
X176628884Y-50651638D01*
X176614991Y-50635604D01*
X176559007Y-50558548D01*
X176396452Y-50395993D01*
X176396450Y-50395991D01*
X176396445Y-50395987D01*
X176210472Y-50260871D01*
X176210471Y-50260870D01*
X176210469Y-50260869D01*
X176108053Y-50208685D01*
X176005634Y-50156500D01*
X175787003Y-50085463D01*
X175601620Y-50056101D01*
X175559944Y-50049500D01*
X175330056Y-50049500D01*
X175288380Y-50056101D01*
X175102997Y-50085463D01*
X175102994Y-50085463D01*
X174884365Y-50156500D01*
X174679527Y-50260871D01*
X174493554Y-50395987D01*
X174493549Y-50395991D01*
X174330991Y-50558549D01*
X174275008Y-50635604D01*
X174219678Y-50678269D01*
X174150065Y-50684248D01*
X174126229Y-50671671D01*
X174099021Y-50669529D01*
X173469612Y-51298939D01*
X173464111Y-51278409D01*
X173385119Y-51141592D01*
X173273408Y-51029881D01*
X173136591Y-50950889D01*
X173116058Y-50945387D01*
X173745469Y-50315977D01*
X173745468Y-50315975D01*
X173670210Y-50261298D01*
X173465450Y-50156966D01*
X173246884Y-50085950D01*
X173019904Y-50050000D01*
X172790096Y-50050000D01*
X172563115Y-50085950D01*
X172344549Y-50156966D01*
X172139796Y-50261294D01*
X172064530Y-50315977D01*
X172064530Y-50315978D01*
X172693940Y-50945387D01*
X172673409Y-50950889D01*
X172536592Y-51029881D01*
X172424881Y-51141592D01*
X172345889Y-51278409D01*
X172340387Y-51298940D01*
X171710978Y-50669530D01*
X171689426Y-50671226D01*
X171680292Y-50678270D01*
X171610678Y-50684246D01*
X171548884Y-50651638D01*
X171534991Y-50635604D01*
X171479007Y-50558548D01*
X171316452Y-50395993D01*
X171316450Y-50395991D01*
X171316445Y-50395987D01*
X171130472Y-50260871D01*
X171130471Y-50260870D01*
X171130469Y-50260869D01*
X171028053Y-50208685D01*
X170925634Y-50156500D01*
X170707003Y-50085463D01*
X170521620Y-50056101D01*
X170479944Y-50049500D01*
X170250056Y-50049500D01*
X170208380Y-50056101D01*
X170022997Y-50085463D01*
X170022994Y-50085463D01*
X169919179Y-50119195D01*
X169849337Y-50121190D01*
X169793180Y-50088945D01*
X165459690Y-45755455D01*
X165459688Y-45755452D01*
X165340817Y-45636581D01*
X165340809Y-45636575D01*
X165244520Y-45580983D01*
X165244507Y-45580976D01*
X165241723Y-45579369D01*
X165203885Y-45557523D01*
X165192585Y-45554495D01*
X165180952Y-45548562D01*
X165164668Y-45533170D01*
X165145535Y-45521508D01*
X165139767Y-45509635D01*
X165130175Y-45500568D01*
X165124797Y-45478815D01*
X165115007Y-45458660D01*
X165116574Y-45445553D01*
X165113407Y-45432740D01*
X165120643Y-45411533D01*
X165123304Y-45389285D01*
X165131708Y-45379106D01*
X165135971Y-45366614D01*
X165153523Y-45352686D01*
X165167790Y-45335408D01*
X165180363Y-45331388D01*
X165190703Y-45323185D01*
X165212997Y-45320957D01*
X165234343Y-45314135D01*
X165237291Y-45314100D01*
X173287081Y-45314100D01*
X173354120Y-45333785D01*
G37*
%TD.AperFunction*%
%TD*%
M02*
