%TF.GenerationSoftware,KiCad,Pcbnew,9.0.2*%
%TF.CreationDate,2025-06-23T12:28:33+02:00*%
%TF.ProjectId,musicbox,6d757369-6362-46f7-982e-6b696361645f,rev?*%
%TF.SameCoordinates,Original*%
%TF.FileFunction,Copper,L1,Top*%
%TF.FilePolarity,Positive*%
%FSLAX46Y46*%
G04 Gerber Fmt 4.6, Leading zero omitted, Abs format (unit mm)*
G04 Created by KiCad (PCBNEW 9.0.2) date 2025-06-23 12:28:33*
%MOMM*%
%LPD*%
G01*
G04 APERTURE LIST*
G04 Aperture macros list*
%AMRoundRect*
0 Rectangle with rounded corners*
0 $1 Rounding radius*
0 $2 $3 $4 $5 $6 $7 $8 $9 X,Y pos of 4 corners*
0 Add a 4 corners polygon primitive as box body*
4,1,4,$2,$3,$4,$5,$6,$7,$8,$9,$2,$3,0*
0 Add four circle primitives for the rounded corners*
1,1,$1+$1,$2,$3*
1,1,$1+$1,$4,$5*
1,1,$1+$1,$6,$7*
1,1,$1+$1,$8,$9*
0 Add four rect primitives between the rounded corners*
20,1,$1+$1,$2,$3,$4,$5,0*
20,1,$1+$1,$4,$5,$6,$7,0*
20,1,$1+$1,$6,$7,$8,$9,0*
20,1,$1+$1,$8,$9,$2,$3,0*%
G04 Aperture macros list end*
%TA.AperFunction,ComponentPad*%
%ADD10RoundRect,0.250000X-0.350000X-0.625000X0.350000X-0.625000X0.350000X0.625000X-0.350000X0.625000X0*%
%TD*%
%TA.AperFunction,ComponentPad*%
%ADD11O,1.200000X1.750000*%
%TD*%
%TA.AperFunction,ComponentPad*%
%ADD12C,1.920000*%
%TD*%
%TA.AperFunction,ViaPad*%
%ADD13C,0.600000*%
%TD*%
%TA.AperFunction,Conductor*%
%ADD14C,0.200000*%
%TD*%
%TA.AperFunction,Conductor*%
%ADD15C,0.400000*%
%TD*%
G04 APERTURE END LIST*
D10*
%TO.P,BT1Con1,1,Pin_1*%
%TO.N,/BT1*%
X127640000Y-38500000D03*
D11*
%TO.P,BT1Con1,2,Pin_2*%
%TO.N,3V3*%
X129640000Y-38500000D03*
%TD*%
D12*
%TO.P,D32Pro1,1,3V3*%
%TO.N,3V3*%
X150250000Y-48000000D03*
%TO.P,D32Pro1,2,RESET*%
%TO.N,unconnected-(D32Pro1-RESET-Pad2)*%
X147710000Y-48000000D03*
%TO.P,D32Pro1,3,VP/GPIO36*%
%TO.N,unconnected-(D32Pro1-VP{slash}GPIO36-Pad3)*%
X145170000Y-48000000D03*
%TO.P,D32Pro1,4,VN/GPIO39*%
%TO.N,unconnected-(D32Pro1-VN{slash}GPIO39-Pad4)*%
X142630000Y-48000000D03*
%TO.P,D32Pro1,5,GPIO34*%
%TO.N,unconnected-(D32Pro1-GPIO34-Pad5)*%
X140090000Y-48000000D03*
%TO.P,D32Pro1,6,GPIO32*%
%TO.N,/RFID_RST*%
X137550000Y-48000000D03*
%TO.P,D32Pro1,7,GPIO33*%
%TO.N,/RFID_IRQ*%
X135010000Y-48000000D03*
%TO.P,D32Pro1,8,GPIO25*%
%TO.N,/ADR_LED*%
X132470000Y-48000000D03*
%TO.P,D32Pro1,9,GPIO26*%
%TO.N,/I2S_BCK*%
X129930000Y-48000000D03*
%TO.P,D32Pro1,10,GPIO27*%
%TO.N,/I2S_DIN*%
X127390000Y-48000000D03*
%TO.P,D32Pro1,11,GPIO14*%
%TO.N,/I2S_WS*%
X124850000Y-48000000D03*
%TO.P,D32Pro1,12,GPIO12*%
%TO.N,/BT1*%
X122310000Y-48000000D03*
%TO.P,D32Pro1,13,GPIO13*%
%TO.N,/BT2*%
X119770000Y-48000000D03*
%TO.P,D32Pro1,14,EN*%
%TO.N,unconnected-(D32Pro1-EN-Pad14)*%
X117230000Y-48000000D03*
%TO.P,D32Pro1,15,VBUS*%
%TO.N,unconnected-(D32Pro1-VBUS-Pad15)*%
X114690000Y-48000000D03*
%TO.P,D32Pro1,16,VBAT*%
%TO.N,VBAT*%
X112150000Y-48000000D03*
%TO.P,D32Pro1,17,GND*%
%TO.N,GND*%
X150250000Y-73400000D03*
%TO.P,D32Pro1,18,GPIO23*%
%TO.N,/SPI_MOSI*%
X147710000Y-73400000D03*
%TO.P,D32Pro1,19,GPIO22*%
%TO.N,/I2C_SCL*%
X145170000Y-73400000D03*
%TO.P,D32Pro1,20,TXD01/GPIO01*%
%TO.N,unconnected-(D32Pro1-TXD01{slash}GPIO01-Pad20)*%
X142630000Y-73400000D03*
%TO.P,D32Pro1,21,RXD01/GPIO03*%
%TO.N,unconnected-(D32Pro1-RXD01{slash}GPIO03-Pad21)*%
X140090000Y-73400000D03*
%TO.P,D32Pro1,22,GPIO21*%
%TO.N,/I2C_SDA*%
X137550000Y-73400000D03*
%TO.P,D32Pro1,23,GPIO19*%
%TO.N,/SPI_MISO*%
X135010000Y-73400000D03*
%TO.P,D32Pro1,24,GPIO18*%
%TO.N,/SPI_SCK*%
X132470000Y-73400000D03*
%TO.P,D32Pro1,25,GPIO05*%
%TO.N,unconnected-(D32Pro1-GPIO05-Pad25)*%
X129930000Y-73400000D03*
%TO.P,D32Pro1,26,NC1*%
%TO.N,unconnected-(D32Pro1-NC1-Pad26)*%
X127390000Y-73400000D03*
%TO.P,D32Pro1,27,NC2*%
%TO.N,unconnected-(D32Pro1-NC2-Pad27)*%
X124850000Y-73400000D03*
%TO.P,D32Pro1,28,GPIO04*%
%TO.N,/SPI_SS*%
X122310000Y-73400000D03*
%TO.P,D32Pro1,29,GPIO00*%
%TO.N,unconnected-(D32Pro1-GPIO00-Pad29)*%
X119770000Y-73400000D03*
%TO.P,D32Pro1,30,GPIO02*%
%TO.N,unconnected-(D32Pro1-GPIO02-Pad30)*%
X117230000Y-73400000D03*
%TO.P,D32Pro1,31,GPIO15*%
%TO.N,/BT3*%
X114690000Y-73400000D03*
%TO.P,D32Pro1,32,GND*%
%TO.N,GND*%
X112150000Y-73400000D03*
%TD*%
%TO.P,AMP1,1,LRC*%
%TO.N,/I2S_WS*%
X165285000Y-51510000D03*
%TO.P,AMP1,2,BCLK*%
%TO.N,/I2S_BCK*%
X167825000Y-51510000D03*
%TO.P,AMP1,3,DIN*%
%TO.N,/I2S_DIN*%
X170365000Y-51510000D03*
%TO.P,AMP1,4,GAIN*%
%TO.N,GND*%
X172905000Y-51510000D03*
%TO.P,AMP1,5,SD*%
%TO.N,unconnected-(AMP1-SD-Pad5)*%
X175445000Y-51510000D03*
%TO.P,AMP1,6,GND*%
%TO.N,GND*%
X177985000Y-51510000D03*
%TO.P,AMP1,7,VIN*%
%TO.N,VBAT*%
X180525000Y-51510000D03*
%TD*%
D10*
%TO.P,RFIDCon1,1,Pin_1*%
%TO.N,/I2C_SDA*%
X97590000Y-38500000D03*
D11*
%TO.P,RFIDCon1,2,Pin_2*%
%TO.N,/I2C_SCL*%
X99590000Y-38500000D03*
%TO.P,RFIDCon1,3,Pin_3*%
%TO.N,/RFID_IRQ*%
X101590000Y-38500000D03*
%TO.P,RFIDCon1,4,Pin_4*%
%TO.N,/RFID_RST*%
X103590000Y-38500000D03*
%TO.P,RFIDCon1,5,Pin_5*%
%TO.N,3V3*%
X105590000Y-38500000D03*
%TO.P,RFIDCon1,6,Pin_6*%
%TO.N,GND*%
X107590000Y-38500000D03*
%TD*%
D10*
%TO.P,BT3Con1,1,Pin_1*%
%TO.N,/BT3*%
X146350000Y-38500000D03*
D11*
%TO.P,BT3Con1,2,Pin_2*%
%TO.N,3V3*%
X148350000Y-38500000D03*
%TD*%
D10*
%TO.P,NeoPixelCon1,1,Pin_1*%
%TO.N,3V3*%
X115510000Y-38500000D03*
D11*
%TO.P,NeoPixelCon1,2,Pin_2*%
%TO.N,/ADR_LED*%
X117510000Y-38500000D03*
%TO.P,NeoPixelCon1,3,Pin_3*%
%TO.N,GND*%
X119510000Y-38500000D03*
%TD*%
D10*
%TO.P,BT2Con1,1,Pin_1*%
%TO.N,/BT2*%
X137000000Y-38500000D03*
D11*
%TO.P,BT2Con1,2,Pin_2*%
%TO.N,3V3*%
X139000000Y-38500000D03*
%TD*%
D13*
%TO.N,/I2C_SCL*%
X117317000Y-71861900D03*
%TO.N,/RFID_RST*%
X136570100Y-40431800D03*
%TO.N,/I2C_SDA*%
X103329800Y-71978200D03*
%TO.N,/RFID_IRQ*%
X132884800Y-43030200D03*
%TO.N,/ADR_LED*%
X118606400Y-46111800D03*
%TO.N,/BT3*%
X141751300Y-71183800D03*
%TO.N,/BT2*%
X121325300Y-40110000D03*
%TD*%
D14*
%TO.N,/I2S_BCK*%
X162402100Y-46087100D02*
X167825000Y-51510000D01*
X131842900Y-46087100D02*
X162402100Y-46087100D01*
X129930000Y-48000000D02*
X131842900Y-46087100D01*
%TO.N,/I2S_DIN*%
X129704600Y-45685400D02*
X127390000Y-48000000D01*
X164540400Y-45685400D02*
X129704600Y-45685400D01*
X170365000Y-51510000D02*
X164540400Y-45685400D01*
%TO.N,/I2S_WS*%
X160265600Y-46490600D02*
X165285000Y-51510000D01*
X147390100Y-46490600D02*
X160265600Y-46490600D01*
X146440000Y-47440700D02*
X147390100Y-46490600D01*
X146440000Y-48577900D02*
X146440000Y-47440700D01*
X145338600Y-49679300D02*
X146440000Y-48577900D01*
X126529300Y-49679300D02*
X145338600Y-49679300D01*
X124850000Y-48000000D02*
X126529300Y-49679300D01*
%TO.N,/I2C_SCL*%
X143631900Y-71861900D02*
X145170000Y-73400000D01*
X117317000Y-71861900D02*
X143631900Y-71861900D01*
%TO.N,/RFID_RST*%
X136275900Y-40726000D02*
X136570100Y-40431800D01*
X105816000Y-40726000D02*
X136275900Y-40726000D01*
X103590000Y-38500000D02*
X105816000Y-40726000D01*
%TO.N,/I2C_SDA*%
X106214600Y-74863000D02*
X103329800Y-71978200D01*
X136087000Y-74863000D02*
X106214600Y-74863000D01*
X137550000Y-73400000D02*
X136087000Y-74863000D01*
%TO.N,/RFID_IRQ*%
X102491700Y-38986500D02*
X102491700Y-38500000D01*
X106535400Y-43030200D02*
X102491700Y-38986500D01*
X132884800Y-43030200D02*
X106535400Y-43030200D01*
X101590000Y-38500000D02*
X102491700Y-38500000D01*
%TO.N,/ADR_LED*%
X124813800Y-46111800D02*
X118606400Y-46111800D01*
X126120000Y-47418000D02*
X124813800Y-46111800D01*
X126120000Y-48548300D02*
X126120000Y-47418000D01*
X126849300Y-49277600D02*
X126120000Y-48548300D01*
X131192400Y-49277600D02*
X126849300Y-49277600D01*
X132470000Y-48000000D02*
X131192400Y-49277600D01*
D15*
%TO.N,VBAT*%
X115166300Y-44983700D02*
X112150000Y-48000000D01*
X173998700Y-44983700D02*
X115166300Y-44983700D01*
X180525000Y-51510000D02*
X173998700Y-44983700D01*
D14*
%TO.N,/BT3*%
X116906200Y-71183800D02*
X141751300Y-71183800D01*
X114690000Y-73400000D02*
X116906200Y-71183800D01*
%TO.N,/BT2*%
X135390000Y-40110000D02*
X121325300Y-40110000D01*
X137000000Y-38500000D02*
X135390000Y-40110000D01*
D15*
%TO.N,3V3*%
X129640000Y-38500000D02*
X130841700Y-38500000D01*
X139000000Y-38500000D02*
X139000000Y-37023300D01*
X148350000Y-38500000D02*
X148350000Y-37023300D01*
X139000000Y-36986900D02*
X139000000Y-37023300D01*
X148313600Y-36986900D02*
X148350000Y-37023300D01*
X139000000Y-36986900D02*
X148313600Y-36986900D01*
X107066700Y-37023300D02*
X105590000Y-38500000D01*
X114033300Y-37023300D02*
X107066700Y-37023300D01*
X115510000Y-38500000D02*
X114033300Y-37023300D01*
X130841700Y-38500000D02*
X130841700Y-36986900D01*
X139000000Y-36986900D02*
X130841700Y-36986900D01*
X117023100Y-36986900D02*
X115510000Y-38500000D01*
X130841700Y-36986900D02*
X117023100Y-36986900D01*
%TD*%
M02*
