%TF.GenerationSoftware,KiCad,Pcbnew,9.0.2*%
%TF.CreationDate,2025-06-23T22:15:14+02:00*%
%TF.ProjectId,musicbox,6d757369-6362-46f7-982e-6b696361645f,rev?*%
%TF.SameCoordinates,Original*%
%TF.FileFunction,Copper,L2,Bot*%
%TF.FilePolarity,Positive*%
%FSLAX46Y46*%
G04 Gerber Fmt 4.6, Leading zero omitted, Abs format (unit mm)*
G04 Created by KiCad (PCBNEW 9.0.2) date 2025-06-23 22:15:14*
%MOMM*%
%LPD*%
G01*
G04 APERTURE LIST*
G04 Aperture macros list*
%AMRoundRect*
0 Rectangle with rounded corners*
0 $1 Rounding radius*
0 $2 $3 $4 $5 $6 $7 $8 $9 X,Y pos of 4 corners*
0 Add a 4 corners polygon primitive as box body*
4,1,4,$2,$3,$4,$5,$6,$7,$8,$9,$2,$3,0*
0 Add four circle primitives for the rounded corners*
1,1,$1+$1,$2,$3*
1,1,$1+$1,$4,$5*
1,1,$1+$1,$6,$7*
1,1,$1+$1,$8,$9*
0 Add four rect primitives between the rounded corners*
20,1,$1+$1,$2,$3,$4,$5,0*
20,1,$1+$1,$4,$5,$6,$7,0*
20,1,$1+$1,$6,$7,$8,$9,0*
20,1,$1+$1,$8,$9,$2,$3,0*%
G04 Aperture macros list end*
%TA.AperFunction,ComponentPad*%
%ADD10C,1.920000*%
%TD*%
%TA.AperFunction,ComponentPad*%
%ADD11RoundRect,0.250000X-0.350000X-0.625000X0.350000X-0.625000X0.350000X0.625000X-0.350000X0.625000X0*%
%TD*%
%TA.AperFunction,ComponentPad*%
%ADD12O,1.200000X1.750000*%
%TD*%
%TA.AperFunction,ViaPad*%
%ADD13C,0.600000*%
%TD*%
%TA.AperFunction,Conductor*%
%ADD14C,0.200000*%
%TD*%
%TA.AperFunction,Conductor*%
%ADD15C,0.400000*%
%TD*%
G04 APERTURE END LIST*
D10*
%TO.P,D32Pro1,1,3V3*%
%TO.N,3V3*%
X148780049Y-44799964D03*
%TO.P,D32Pro1,2,RESET*%
%TO.N,unconnected-(D32Pro1-RESET-Pad2)*%
X146240049Y-44799964D03*
%TO.P,D32Pro1,3,VP/GPIO36*%
%TO.N,unconnected-(D32Pro1-VP{slash}GPIO36-Pad3)*%
X143700049Y-44799964D03*
%TO.P,D32Pro1,4,VN/GPIO39*%
%TO.N,unconnected-(D32Pro1-VN{slash}GPIO39-Pad4)*%
X141160049Y-44799964D03*
%TO.P,D32Pro1,5,GPIO34*%
%TO.N,unconnected-(D32Pro1-GPIO34-Pad5)*%
X138620049Y-44799964D03*
%TO.P,D32Pro1,6,GPIO32*%
%TO.N,/RFID_RST*%
X136080049Y-44799964D03*
%TO.P,D32Pro1,7,GPIO33*%
%TO.N,/RFID_IRQ*%
X133540049Y-44799964D03*
%TO.P,D32Pro1,8,GPIO25*%
%TO.N,/ADR_LED*%
X131000049Y-44799964D03*
%TO.P,D32Pro1,9,GPIO26*%
%TO.N,/I2S_BCK*%
X128460049Y-44799964D03*
%TO.P,D32Pro1,10,GPIO27*%
%TO.N,/I2S_DIN*%
X125920049Y-44799964D03*
%TO.P,D32Pro1,11,GPIO14*%
%TO.N,/I2S_WS*%
X123380049Y-44799964D03*
%TO.P,D32Pro1,12,GPIO12*%
%TO.N,/BT1*%
X120840049Y-44799964D03*
%TO.P,D32Pro1,13,GPIO13*%
%TO.N,/BT2*%
X118300049Y-44799964D03*
%TO.P,D32Pro1,14,EN*%
%TO.N,unconnected-(D32Pro1-EN-Pad14)*%
X115760049Y-44799964D03*
%TO.P,D32Pro1,15,VBUS*%
%TO.N,unconnected-(D32Pro1-VBUS-Pad15)*%
X113220049Y-44799964D03*
%TO.P,D32Pro1,16,VBAT*%
%TO.N,VBAT*%
X110680049Y-44799964D03*
%TO.P,D32Pro1,17,GND*%
%TO.N,GND*%
X148780049Y-67659964D03*
%TO.P,D32Pro1,18,GPIO23*%
%TO.N,/SPI_MOSI*%
X146240049Y-67659964D03*
%TO.P,D32Pro1,19,GPIO22*%
%TO.N,/I2C_SCL*%
X143700049Y-67659964D03*
%TO.P,D32Pro1,20,TXD01/GPIO01*%
%TO.N,unconnected-(D32Pro1-TXD01{slash}GPIO01-Pad20)*%
X141160049Y-67659964D03*
%TO.P,D32Pro1,21,RXD01/GPIO03*%
%TO.N,unconnected-(D32Pro1-RXD01{slash}GPIO03-Pad21)*%
X138620049Y-67659964D03*
%TO.P,D32Pro1,22,GPIO21*%
%TO.N,/I2C_SDA*%
X136080049Y-67659964D03*
%TO.P,D32Pro1,23,GPIO19*%
%TO.N,/SPI_MISO*%
X133540049Y-67659964D03*
%TO.P,D32Pro1,24,GPIO18*%
%TO.N,/SPI_SCK*%
X131000049Y-67659964D03*
%TO.P,D32Pro1,25,GPIO05*%
%TO.N,unconnected-(D32Pro1-GPIO05-Pad25)*%
X128460049Y-67659964D03*
%TO.P,D32Pro1,26,NC1*%
%TO.N,unconnected-(D32Pro1-NC1-Pad26)*%
X125920049Y-67659964D03*
%TO.P,D32Pro1,27,NC2*%
%TO.N,unconnected-(D32Pro1-NC2-Pad27)*%
X123380049Y-67659964D03*
%TO.P,D32Pro1,28,GPIO04*%
%TO.N,/SPI_SS*%
X120840049Y-67659964D03*
%TO.P,D32Pro1,29,GPIO00*%
%TO.N,unconnected-(D32Pro1-GPIO00-Pad29)*%
X118300049Y-67659964D03*
%TO.P,D32Pro1,30,GPIO02*%
%TO.N,unconnected-(D32Pro1-GPIO02-Pad30)*%
X115760049Y-67659964D03*
%TO.P,D32Pro1,31,GPIO15*%
%TO.N,/BT3*%
X113220049Y-67659964D03*
%TO.P,D32Pro1,32,GND*%
%TO.N,GND*%
X110680049Y-67659964D03*
%TD*%
D11*
%TO.P,BT1Con1,1,Pin_1*%
%TO.N,/BT1*%
X132370000Y-38940000D03*
D12*
%TO.P,BT1Con1,2,Pin_2*%
%TO.N,3V3*%
X134370000Y-38940000D03*
%TD*%
D10*
%TO.P,AMP1,1,LRC*%
%TO.N,/I2S_WS*%
X165285000Y-51510000D03*
%TO.P,AMP1,2,BCLK*%
%TO.N,/I2S_BCK*%
X167825000Y-51510000D03*
%TO.P,AMP1,3,DIN*%
%TO.N,/I2S_DIN*%
X170365000Y-51510000D03*
%TO.P,AMP1,4,GAIN*%
%TO.N,GND*%
X172905000Y-51510000D03*
%TO.P,AMP1,5,SD*%
%TO.N,unconnected-(AMP1-SD-Pad5)*%
X175445000Y-51510000D03*
%TO.P,AMP1,6,GND*%
%TO.N,GND*%
X177985000Y-51510000D03*
%TO.P,AMP1,7,VIN*%
%TO.N,VBAT*%
X180525000Y-51510000D03*
%TD*%
D11*
%TO.P,RFIDCon1,1,Pin_1*%
%TO.N,/I2C_SDA*%
X102320000Y-38940000D03*
D12*
%TO.P,RFIDCon1,2,Pin_2*%
%TO.N,/I2C_SCL*%
X104320000Y-38940000D03*
%TO.P,RFIDCon1,3,Pin_3*%
%TO.N,/RFID_IRQ*%
X106320000Y-38940000D03*
%TO.P,RFIDCon1,4,Pin_4*%
%TO.N,/RFID_RST*%
X108320000Y-38940000D03*
%TO.P,RFIDCon1,5,Pin_5*%
%TO.N,3V3*%
X110320000Y-38940000D03*
%TO.P,RFIDCon1,6,Pin_6*%
%TO.N,GND*%
X112320000Y-38940000D03*
%TD*%
D11*
%TO.P,BT3Con1,1,Pin_1*%
%TO.N,/BT3*%
X151080000Y-38940000D03*
D12*
%TO.P,BT3Con1,2,Pin_2*%
%TO.N,3V3*%
X153080000Y-38940000D03*
%TD*%
D11*
%TO.P,NeoPixelCon1,1,Pin_1*%
%TO.N,VBAT*%
X120240000Y-38940000D03*
D12*
%TO.P,NeoPixelCon1,2,Pin_2*%
%TO.N,/ADR_LED*%
X122240000Y-38940000D03*
%TO.P,NeoPixelCon1,3,Pin_3*%
%TO.N,GND*%
X124240000Y-38940000D03*
%TD*%
D11*
%TO.P,BT2Con1,1,Pin_1*%
%TO.N,/BT2*%
X141730000Y-38940000D03*
D12*
%TO.P,BT2Con1,2,Pin_2*%
%TO.N,3V3*%
X143730000Y-38940000D03*
%TD*%
D13*
%TO.N,/I2S_WS*%
X163225600Y-42944000D03*
%TO.N,/I2C_SCL*%
X106286900Y-63552400D03*
%TO.N,/RFID_RST*%
X136080000Y-40957500D03*
%TO.N,/I2C_SDA*%
X108891700Y-66127600D03*
%TO.N,VBAT*%
X177217300Y-37278700D03*
%TO.N,GND*%
X171306300Y-66471700D03*
%TO.N,/BT3*%
X121385100Y-42420700D03*
%TO.N,/BT2*%
X120733700Y-41819000D03*
%TD*%
D14*
%TO.N,/I2S_WS*%
X165285000Y-45003400D02*
X165285000Y-51510000D01*
X163225600Y-42944000D02*
X165285000Y-45003400D01*
%TO.N,/I2C_SCL*%
X104320000Y-38940000D02*
X105221700Y-38940000D01*
X105223200Y-38941500D02*
X105221700Y-38940000D01*
X105223300Y-38941500D02*
X105223200Y-38941500D01*
X105223300Y-62488800D02*
X105223300Y-38941500D01*
X106286900Y-63552400D02*
X105223300Y-62488800D01*
%TO.N,/RFID_RST*%
X136080000Y-44800000D02*
X136080000Y-40957500D01*
%TO.N,/I2C_SDA*%
X102320000Y-60447300D02*
X102320000Y-38940000D01*
X108000300Y-66127600D02*
X102320000Y-60447300D01*
X108000300Y-66127600D02*
X108891700Y-66127600D01*
%TO.N,/ADR_LED*%
X124269400Y-40969400D02*
X122240000Y-38940000D01*
X127169500Y-40969400D02*
X124269400Y-40969400D01*
X131000100Y-44800000D02*
X127169500Y-40969400D01*
D15*
%TO.N,VBAT*%
X116540000Y-38940000D02*
X110680000Y-44800000D01*
X120240000Y-38940000D02*
X116540000Y-38940000D01*
X180525000Y-40586400D02*
X177217300Y-37278700D01*
X180525000Y-51510000D02*
X180525000Y-40586400D01*
%TO.N,GND*%
X122759700Y-37459700D02*
X124240000Y-38940000D01*
X115002000Y-37459700D02*
X122759700Y-37459700D01*
X113521700Y-38940000D02*
X115002000Y-37459700D01*
X174467200Y-49947800D02*
X172905000Y-51510000D01*
X176197900Y-49947800D02*
X174467200Y-49947800D01*
X177760100Y-51510000D02*
X176197900Y-49947800D01*
X177985000Y-51510000D02*
X177760100Y-51510000D01*
X177760100Y-60017900D02*
X171306300Y-66471700D01*
X177760100Y-51510000D02*
X177760100Y-60017900D01*
X112320000Y-38940000D02*
X112920900Y-38940000D01*
X112920900Y-38940000D02*
X113521700Y-38940000D01*
X110680000Y-65612400D02*
X110680000Y-67660000D01*
X109111000Y-64043400D02*
X110680000Y-65612400D01*
X109111000Y-42749900D02*
X109111000Y-64043400D01*
X112920900Y-38940000D02*
X109111000Y-42749900D01*
D14*
%TO.N,/BT3*%
X119561800Y-44244000D02*
X121385100Y-42420700D01*
X119561800Y-61318200D02*
X119561800Y-44244000D01*
X113220000Y-67660000D02*
X119561800Y-61318200D01*
%TO.N,/BT2*%
X118300100Y-44252600D02*
X120763700Y-41789000D01*
X118300100Y-44800000D02*
X118300100Y-44252600D01*
X120763700Y-41789000D02*
X120733700Y-41819000D01*
%TO.N,/BT1*%
X132270100Y-39039900D02*
X132370000Y-38940000D01*
X132270100Y-45344200D02*
X132270100Y-39039900D01*
X131502400Y-46111900D02*
X132270100Y-45344200D01*
X122152000Y-46111900D02*
X131502400Y-46111900D01*
X120840100Y-44800000D02*
X122152000Y-46111900D01*
D15*
%TO.N,3V3*%
X153080000Y-40500000D02*
X148780000Y-44800000D01*
X153080000Y-38940000D02*
X153080000Y-40500000D01*
X148780000Y-42788300D02*
X144931700Y-38940000D01*
X148780000Y-44800000D02*
X148780000Y-42788300D01*
X143730000Y-38940000D02*
X144931700Y-38940000D01*
X143728800Y-37462100D02*
X143730000Y-37463300D01*
X137049600Y-37462100D02*
X143728800Y-37462100D01*
X135571700Y-38940000D02*
X137049600Y-37462100D01*
X134370000Y-38940000D02*
X135571700Y-38940000D01*
X143730000Y-38940000D02*
X143730000Y-37463300D01*
%TD*%
%TA.AperFunction,Conductor*%
%TO.N,GND*%
G36*
X183126213Y-33629789D02*
G01*
X183193217Y-33649588D01*
X183238882Y-33702469D01*
X183250000Y-33753789D01*
X183250000Y-34902356D01*
X183240561Y-34949809D01*
X183221605Y-34995571D01*
X183221602Y-34995581D01*
X183153730Y-35248885D01*
X183119500Y-35508872D01*
X183119500Y-35771127D01*
X183140436Y-35930140D01*
X183153730Y-36031116D01*
X183175178Y-36111161D01*
X183221601Y-36284417D01*
X183240561Y-36330189D01*
X183250000Y-36377642D01*
X183250000Y-37580000D01*
X184726116Y-37606699D01*
X184740046Y-37607739D01*
X184988880Y-37640500D01*
X184988887Y-37640500D01*
X185251120Y-37640500D01*
X185404259Y-37620338D01*
X185422663Y-37619298D01*
X186837746Y-37644894D01*
X186904415Y-37665787D01*
X186949207Y-37719410D01*
X186959500Y-37768873D01*
X186959500Y-69251283D01*
X186939815Y-69318322D01*
X186887011Y-69364077D01*
X186834365Y-69375278D01*
X182980000Y-69340000D01*
X182980000Y-73045500D01*
X182960315Y-73112539D01*
X182907511Y-73158294D01*
X182856000Y-73169500D01*
X95102595Y-73169500D01*
X95035556Y-73149815D01*
X94989801Y-73097011D01*
X94978597Y-73046185D01*
X94960000Y-69680000D01*
X93700456Y-69680000D01*
X93638456Y-69663387D01*
X93566699Y-69621958D01*
X93566690Y-69621953D01*
X93324428Y-69521605D01*
X93324421Y-69521603D01*
X93324419Y-69521602D01*
X93071116Y-69453730D01*
X93013339Y-69446123D01*
X92811127Y-69419500D01*
X92811120Y-69419500D01*
X92548880Y-69419500D01*
X92548872Y-69419500D01*
X92317772Y-69449926D01*
X92288884Y-69453730D01*
X92035581Y-69521602D01*
X92035571Y-69521605D01*
X91793309Y-69621953D01*
X91793300Y-69621958D01*
X91721544Y-69663387D01*
X91659544Y-69680000D01*
X90884137Y-69680000D01*
X90817098Y-69660315D01*
X90771343Y-69607511D01*
X90760137Y-69555863D01*
X90760964Y-68806589D01*
X90763142Y-66833786D01*
X90781489Y-50211310D01*
X90794674Y-38264983D01*
X101219500Y-38264983D01*
X101219500Y-39615001D01*
X101219501Y-39615018D01*
X101230000Y-39717796D01*
X101230001Y-39717799D01*
X101285185Y-39884331D01*
X101285187Y-39884336D01*
X101313955Y-39930977D01*
X101377288Y-40033656D01*
X101501344Y-40157712D01*
X101650666Y-40249814D01*
X101650667Y-40249814D01*
X101656813Y-40253605D01*
X101655706Y-40255399D01*
X101700337Y-40294687D01*
X101719500Y-40360908D01*
X101719500Y-60360630D01*
X101719499Y-60360648D01*
X101719499Y-60526354D01*
X101719498Y-60526354D01*
X101760424Y-60679089D01*
X101760425Y-60679090D01*
X101782716Y-60717698D01*
X101782717Y-60717700D01*
X101839475Y-60816009D01*
X101839481Y-60816017D01*
X101958349Y-60934885D01*
X101958355Y-60934890D01*
X107515439Y-66491974D01*
X107515449Y-66491985D01*
X107519779Y-66496315D01*
X107519780Y-66496316D01*
X107631584Y-66608120D01*
X107683147Y-66637889D01*
X107718395Y-66658239D01*
X107718397Y-66658241D01*
X107768513Y-66687176D01*
X107768515Y-66687177D01*
X107921242Y-66728100D01*
X107921243Y-66728100D01*
X108311934Y-66728100D01*
X108378973Y-66747785D01*
X108380825Y-66748998D01*
X108512514Y-66836990D01*
X108512527Y-66836997D01*
X108639828Y-66889726D01*
X108658203Y-66897337D01*
X108812853Y-66928099D01*
X108812856Y-66928100D01*
X108812858Y-66928100D01*
X108970544Y-66928100D01*
X108970545Y-66928099D01*
X109125197Y-66897337D01*
X109201045Y-66865919D01*
X109270514Y-66858451D01*
X109332993Y-66889726D01*
X109368645Y-66949815D01*
X109366151Y-67019640D01*
X109358982Y-67036775D01*
X109327016Y-67099510D01*
X109255999Y-67318079D01*
X109220049Y-67545059D01*
X109220049Y-67774868D01*
X109255999Y-68001848D01*
X109327015Y-68220414D01*
X109431347Y-68425174D01*
X109486024Y-68500432D01*
X109486026Y-68500433D01*
X110115436Y-67871022D01*
X110120938Y-67891555D01*
X110199930Y-68028372D01*
X110311641Y-68140083D01*
X110448458Y-68219075D01*
X110468988Y-68224576D01*
X109839578Y-68853985D01*
X109914841Y-68908667D01*
X110119598Y-69012997D01*
X110338164Y-69084013D01*
X110565145Y-69119964D01*
X110794953Y-69119964D01*
X111021933Y-69084013D01*
X111240499Y-69012997D01*
X111445255Y-68908668D01*
X111520517Y-68853985D01*
X111520518Y-68853985D01*
X110891108Y-68224576D01*
X110911640Y-68219075D01*
X111048457Y-68140083D01*
X111160168Y-68028372D01*
X111239160Y-67891555D01*
X111244661Y-67871024D01*
X111874070Y-68500433D01*
X111895615Y-68498737D01*
X111904746Y-68491696D01*
X111974360Y-68485714D01*
X112036156Y-68518317D01*
X112050057Y-68534360D01*
X112106036Y-68611409D01*
X112106040Y-68611414D01*
X112268598Y-68773972D01*
X112268603Y-68773976D01*
X112378727Y-68853985D01*
X112454580Y-68909095D01*
X112658499Y-69012997D01*
X112659414Y-69013463D01*
X112863343Y-69079723D01*
X112878048Y-69084501D01*
X113105105Y-69120464D01*
X113105106Y-69120464D01*
X113334992Y-69120464D01*
X113334993Y-69120464D01*
X113562050Y-69084501D01*
X113562053Y-69084500D01*
X113562054Y-69084500D01*
X113780683Y-69013463D01*
X113780683Y-69013462D01*
X113780686Y-69013462D01*
X113985518Y-68909095D01*
X114171501Y-68773971D01*
X114334056Y-68611416D01*
X114389731Y-68534784D01*
X114445060Y-68492120D01*
X114514673Y-68486141D01*
X114576469Y-68518746D01*
X114590363Y-68534780D01*
X114646037Y-68611409D01*
X114646042Y-68611416D01*
X114808598Y-68773972D01*
X114808603Y-68773976D01*
X114918727Y-68853985D01*
X114994580Y-68909095D01*
X115198499Y-69012997D01*
X115199414Y-69013463D01*
X115403343Y-69079723D01*
X115418048Y-69084501D01*
X115645105Y-69120464D01*
X115645106Y-69120464D01*
X115874992Y-69120464D01*
X115874993Y-69120464D01*
X116102050Y-69084501D01*
X116102053Y-69084500D01*
X116102054Y-69084500D01*
X116320683Y-69013463D01*
X116320683Y-69013462D01*
X116320686Y-69013462D01*
X116525518Y-68909095D01*
X116711501Y-68773971D01*
X116874056Y-68611416D01*
X116929731Y-68534784D01*
X116985060Y-68492120D01*
X117054673Y-68486141D01*
X117116469Y-68518746D01*
X117130363Y-68534780D01*
X117186037Y-68611409D01*
X117186042Y-68611416D01*
X117348598Y-68773972D01*
X117348603Y-68773976D01*
X117458727Y-68853985D01*
X117534580Y-68909095D01*
X117738499Y-69012997D01*
X117739414Y-69013463D01*
X117943343Y-69079723D01*
X117958048Y-69084501D01*
X118185105Y-69120464D01*
X118185106Y-69120464D01*
X118414992Y-69120464D01*
X118414993Y-69120464D01*
X118642050Y-69084501D01*
X118642053Y-69084500D01*
X118642054Y-69084500D01*
X118860683Y-69013463D01*
X118860683Y-69013462D01*
X118860686Y-69013462D01*
X119065518Y-68909095D01*
X119251501Y-68773971D01*
X119414056Y-68611416D01*
X119469731Y-68534784D01*
X119525060Y-68492120D01*
X119594673Y-68486141D01*
X119656469Y-68518746D01*
X119670363Y-68534780D01*
X119726037Y-68611409D01*
X119726042Y-68611416D01*
X119888598Y-68773972D01*
X119888603Y-68773976D01*
X119998727Y-68853985D01*
X120074580Y-68909095D01*
X120278499Y-69012997D01*
X120279414Y-69013463D01*
X120483343Y-69079723D01*
X120498048Y-69084501D01*
X120725105Y-69120464D01*
X120725106Y-69120464D01*
X120954992Y-69120464D01*
X120954993Y-69120464D01*
X121182050Y-69084501D01*
X121182053Y-69084500D01*
X121182054Y-69084500D01*
X121400683Y-69013463D01*
X121400683Y-69013462D01*
X121400686Y-69013462D01*
X121605518Y-68909095D01*
X121791501Y-68773971D01*
X121954056Y-68611416D01*
X122009731Y-68534784D01*
X122065060Y-68492120D01*
X122134673Y-68486141D01*
X122196469Y-68518746D01*
X122210363Y-68534780D01*
X122266037Y-68611409D01*
X122266042Y-68611416D01*
X122428598Y-68773972D01*
X122428603Y-68773976D01*
X122538727Y-68853985D01*
X122614580Y-68909095D01*
X122818499Y-69012997D01*
X122819414Y-69013463D01*
X123023343Y-69079723D01*
X123038048Y-69084501D01*
X123265105Y-69120464D01*
X123265106Y-69120464D01*
X123494992Y-69120464D01*
X123494993Y-69120464D01*
X123722050Y-69084501D01*
X123722053Y-69084500D01*
X123722054Y-69084500D01*
X123940683Y-69013463D01*
X123940683Y-69013462D01*
X123940686Y-69013462D01*
X124145518Y-68909095D01*
X124331501Y-68773971D01*
X124494056Y-68611416D01*
X124549731Y-68534784D01*
X124605060Y-68492120D01*
X124674673Y-68486141D01*
X124736469Y-68518746D01*
X124750363Y-68534780D01*
X124806037Y-68611409D01*
X124806042Y-68611416D01*
X124968598Y-68773972D01*
X124968603Y-68773976D01*
X125078727Y-68853985D01*
X125154580Y-68909095D01*
X125358499Y-69012997D01*
X125359414Y-69013463D01*
X125563343Y-69079723D01*
X125578048Y-69084501D01*
X125805105Y-69120464D01*
X125805106Y-69120464D01*
X126034992Y-69120464D01*
X126034993Y-69120464D01*
X126262050Y-69084501D01*
X126262053Y-69084500D01*
X126262054Y-69084500D01*
X126480683Y-69013463D01*
X126480683Y-69013462D01*
X126480686Y-69013462D01*
X126685518Y-68909095D01*
X126871501Y-68773971D01*
X127034056Y-68611416D01*
X127089731Y-68534784D01*
X127145060Y-68492120D01*
X127214673Y-68486141D01*
X127276469Y-68518746D01*
X127290363Y-68534780D01*
X127346037Y-68611409D01*
X127346042Y-68611416D01*
X127508598Y-68773972D01*
X127508603Y-68773976D01*
X127618727Y-68853985D01*
X127694580Y-68909095D01*
X127898499Y-69012997D01*
X127899414Y-69013463D01*
X128103343Y-69079723D01*
X128118048Y-69084501D01*
X128345105Y-69120464D01*
X128345106Y-69120464D01*
X128574992Y-69120464D01*
X128574993Y-69120464D01*
X128802050Y-69084501D01*
X128802053Y-69084500D01*
X128802054Y-69084500D01*
X129020683Y-69013463D01*
X129020683Y-69013462D01*
X129020686Y-69013462D01*
X129225518Y-68909095D01*
X129411501Y-68773971D01*
X129574056Y-68611416D01*
X129629731Y-68534784D01*
X129685060Y-68492120D01*
X129754673Y-68486141D01*
X129816469Y-68518746D01*
X129830363Y-68534780D01*
X129886037Y-68611409D01*
X129886042Y-68611416D01*
X130048598Y-68773972D01*
X130048603Y-68773976D01*
X130158727Y-68853985D01*
X130234580Y-68909095D01*
X130438499Y-69012997D01*
X130439414Y-69013463D01*
X130643343Y-69079723D01*
X130658048Y-69084501D01*
X130885105Y-69120464D01*
X130885106Y-69120464D01*
X131114992Y-69120464D01*
X131114993Y-69120464D01*
X131342050Y-69084501D01*
X131342053Y-69084500D01*
X131342054Y-69084500D01*
X131560683Y-69013463D01*
X131560683Y-69013462D01*
X131560686Y-69013462D01*
X131765518Y-68909095D01*
X131951501Y-68773971D01*
X132114056Y-68611416D01*
X132169731Y-68534784D01*
X132225060Y-68492120D01*
X132294673Y-68486141D01*
X132356469Y-68518746D01*
X132370363Y-68534780D01*
X132426037Y-68611409D01*
X132426042Y-68611416D01*
X132588598Y-68773972D01*
X132588603Y-68773976D01*
X132698727Y-68853985D01*
X132774580Y-68909095D01*
X132978499Y-69012997D01*
X132979414Y-69013463D01*
X133183343Y-69079723D01*
X133198048Y-69084501D01*
X133425105Y-69120464D01*
X133425106Y-69120464D01*
X133654992Y-69120464D01*
X133654993Y-69120464D01*
X133882050Y-69084501D01*
X133882053Y-69084500D01*
X133882054Y-69084500D01*
X134100683Y-69013463D01*
X134100683Y-69013462D01*
X134100686Y-69013462D01*
X134305518Y-68909095D01*
X134491501Y-68773971D01*
X134654056Y-68611416D01*
X134709731Y-68534784D01*
X134765060Y-68492120D01*
X134834673Y-68486141D01*
X134896469Y-68518746D01*
X134910363Y-68534780D01*
X134966037Y-68611409D01*
X134966042Y-68611416D01*
X135128598Y-68773972D01*
X135128603Y-68773976D01*
X135238727Y-68853985D01*
X135314580Y-68909095D01*
X135518499Y-69012997D01*
X135519414Y-69013463D01*
X135723343Y-69079723D01*
X135738048Y-69084501D01*
X135965105Y-69120464D01*
X135965106Y-69120464D01*
X136194992Y-69120464D01*
X136194993Y-69120464D01*
X136422050Y-69084501D01*
X136422053Y-69084500D01*
X136422054Y-69084500D01*
X136640683Y-69013463D01*
X136640683Y-69013462D01*
X136640686Y-69013462D01*
X136845518Y-68909095D01*
X137031501Y-68773971D01*
X137194056Y-68611416D01*
X137249731Y-68534784D01*
X137305060Y-68492120D01*
X137374673Y-68486141D01*
X137436469Y-68518746D01*
X137450363Y-68534780D01*
X137506037Y-68611409D01*
X137506042Y-68611416D01*
X137668598Y-68773972D01*
X137668603Y-68773976D01*
X137778727Y-68853985D01*
X137854580Y-68909095D01*
X138058499Y-69012997D01*
X138059414Y-69013463D01*
X138263343Y-69079723D01*
X138278048Y-69084501D01*
X138505105Y-69120464D01*
X138505106Y-69120464D01*
X138734992Y-69120464D01*
X138734993Y-69120464D01*
X138962050Y-69084501D01*
X138962053Y-69084500D01*
X138962054Y-69084500D01*
X139180683Y-69013463D01*
X139180683Y-69013462D01*
X139180686Y-69013462D01*
X139385518Y-68909095D01*
X139571501Y-68773971D01*
X139734056Y-68611416D01*
X139789731Y-68534784D01*
X139845060Y-68492120D01*
X139914673Y-68486141D01*
X139976469Y-68518746D01*
X139990363Y-68534780D01*
X140046037Y-68611409D01*
X140046042Y-68611416D01*
X140208598Y-68773972D01*
X140208603Y-68773976D01*
X140318727Y-68853985D01*
X140394580Y-68909095D01*
X140598499Y-69012997D01*
X140599414Y-69013463D01*
X140803343Y-69079723D01*
X140818048Y-69084501D01*
X141045105Y-69120464D01*
X141045106Y-69120464D01*
X141274992Y-69120464D01*
X141274993Y-69120464D01*
X141502050Y-69084501D01*
X141502053Y-69084500D01*
X141502054Y-69084500D01*
X141720683Y-69013463D01*
X141720683Y-69013462D01*
X141720686Y-69013462D01*
X141925518Y-68909095D01*
X142111501Y-68773971D01*
X142274056Y-68611416D01*
X142329731Y-68534784D01*
X142385060Y-68492120D01*
X142454673Y-68486141D01*
X142516469Y-68518746D01*
X142530363Y-68534780D01*
X142586037Y-68611409D01*
X142586042Y-68611416D01*
X142748598Y-68773972D01*
X142748603Y-68773976D01*
X142858727Y-68853985D01*
X142934580Y-68909095D01*
X143138499Y-69012997D01*
X143139414Y-69013463D01*
X143343343Y-69079723D01*
X143358048Y-69084501D01*
X143585105Y-69120464D01*
X143585106Y-69120464D01*
X143814992Y-69120464D01*
X143814993Y-69120464D01*
X144042050Y-69084501D01*
X144042053Y-69084500D01*
X144042054Y-69084500D01*
X144260683Y-69013463D01*
X144260683Y-69013462D01*
X144260686Y-69013462D01*
X144465518Y-68909095D01*
X144651501Y-68773971D01*
X144814056Y-68611416D01*
X144869731Y-68534784D01*
X144925060Y-68492120D01*
X144994673Y-68486141D01*
X145056469Y-68518746D01*
X145070363Y-68534780D01*
X145126037Y-68611409D01*
X145126042Y-68611416D01*
X145288598Y-68773972D01*
X145288603Y-68773976D01*
X145398727Y-68853985D01*
X145474580Y-68909095D01*
X145678499Y-69012997D01*
X145679414Y-69013463D01*
X145883343Y-69079723D01*
X145898048Y-69084501D01*
X146125105Y-69120464D01*
X146125106Y-69120464D01*
X146354992Y-69120464D01*
X146354993Y-69120464D01*
X146582050Y-69084501D01*
X146582053Y-69084500D01*
X146582054Y-69084500D01*
X146800683Y-69013463D01*
X146800683Y-69013462D01*
X146800686Y-69013462D01*
X147005518Y-68909095D01*
X147191501Y-68773971D01*
X147354056Y-68611416D01*
X147410039Y-68534360D01*
X147465367Y-68491696D01*
X147534980Y-68485715D01*
X147558816Y-68498291D01*
X147586026Y-68500433D01*
X148215436Y-67871023D01*
X148220938Y-67891555D01*
X148299930Y-68028372D01*
X148411641Y-68140083D01*
X148548458Y-68219075D01*
X148568988Y-68224576D01*
X147939578Y-68853985D01*
X148014841Y-68908667D01*
X148219598Y-69012997D01*
X148438164Y-69084013D01*
X148665145Y-69119964D01*
X148894953Y-69119964D01*
X149121933Y-69084013D01*
X149340499Y-69012997D01*
X149545255Y-68908668D01*
X149620517Y-68853985D01*
X149620518Y-68853985D01*
X148991108Y-68224576D01*
X149011640Y-68219075D01*
X149148457Y-68140083D01*
X149260168Y-68028372D01*
X149339160Y-67891555D01*
X149344661Y-67871024D01*
X149974070Y-68500433D01*
X149974070Y-68500432D01*
X150028753Y-68425170D01*
X150133082Y-68220414D01*
X150204098Y-68001848D01*
X150240049Y-67774868D01*
X150240049Y-67545059D01*
X150204098Y-67318079D01*
X150133082Y-67099513D01*
X150028752Y-66894756D01*
X149974070Y-66819494D01*
X149974070Y-66819493D01*
X149344661Y-67448903D01*
X149339160Y-67428373D01*
X149260168Y-67291556D01*
X149148457Y-67179845D01*
X149011640Y-67100853D01*
X148991107Y-67095351D01*
X149620518Y-66465941D01*
X149620517Y-66465939D01*
X149545259Y-66411262D01*
X149340499Y-66306930D01*
X149121933Y-66235914D01*
X148894953Y-66199964D01*
X148665145Y-66199964D01*
X148438164Y-66235914D01*
X148219598Y-66306930D01*
X148014845Y-66411258D01*
X147939579Y-66465941D01*
X147939579Y-66465942D01*
X148568989Y-67095351D01*
X148548458Y-67100853D01*
X148411641Y-67179845D01*
X148299930Y-67291556D01*
X148220938Y-67428373D01*
X148215436Y-67448904D01*
X147586027Y-66819494D01*
X147564475Y-66821190D01*
X147555341Y-66828234D01*
X147485727Y-66834210D01*
X147423933Y-66801602D01*
X147410040Y-66785568D01*
X147354056Y-66708512D01*
X147191501Y-66545957D01*
X147191499Y-66545955D01*
X147191494Y-66545951D01*
X147005521Y-66410835D01*
X147005520Y-66410834D01*
X147005518Y-66410833D01*
X146862169Y-66337793D01*
X146800683Y-66306464D01*
X146582052Y-66235427D01*
X146399049Y-66206442D01*
X146354993Y-66199464D01*
X146125105Y-66199464D01*
X146081049Y-66206442D01*
X145898046Y-66235427D01*
X145898043Y-66235427D01*
X145679414Y-66306464D01*
X145474576Y-66410835D01*
X145288603Y-66545951D01*
X145288598Y-66545955D01*
X145126040Y-66708513D01*
X145126036Y-66708518D01*
X145070367Y-66785141D01*
X145015037Y-66827807D01*
X144945424Y-66833786D01*
X144883629Y-66801181D01*
X144869731Y-66785141D01*
X144814061Y-66708518D01*
X144814057Y-66708513D01*
X144651499Y-66545955D01*
X144651494Y-66545951D01*
X144465521Y-66410835D01*
X144465520Y-66410834D01*
X144465518Y-66410833D01*
X144322169Y-66337793D01*
X144260683Y-66306464D01*
X144042052Y-66235427D01*
X143859049Y-66206442D01*
X143814993Y-66199464D01*
X143585105Y-66199464D01*
X143541049Y-66206442D01*
X143358046Y-66235427D01*
X143358043Y-66235427D01*
X143139414Y-66306464D01*
X142934576Y-66410835D01*
X142748603Y-66545951D01*
X142748598Y-66545955D01*
X142586040Y-66708513D01*
X142586036Y-66708518D01*
X142530367Y-66785141D01*
X142475037Y-66827807D01*
X142405424Y-66833786D01*
X142343629Y-66801181D01*
X142329731Y-66785141D01*
X142274061Y-66708518D01*
X142274057Y-66708513D01*
X142111499Y-66545955D01*
X142111494Y-66545951D01*
X141925521Y-66410835D01*
X141925520Y-66410834D01*
X141925518Y-66410833D01*
X141782169Y-66337793D01*
X141720683Y-66306464D01*
X141502052Y-66235427D01*
X141319049Y-66206442D01*
X141274993Y-66199464D01*
X141045105Y-66199464D01*
X141001049Y-66206442D01*
X140818046Y-66235427D01*
X140818043Y-66235427D01*
X140599414Y-66306464D01*
X140394576Y-66410835D01*
X140208603Y-66545951D01*
X140208598Y-66545955D01*
X140046040Y-66708513D01*
X140046036Y-66708518D01*
X139990367Y-66785141D01*
X139935037Y-66827807D01*
X139865424Y-66833786D01*
X139803629Y-66801181D01*
X139789731Y-66785141D01*
X139734061Y-66708518D01*
X139734057Y-66708513D01*
X139571499Y-66545955D01*
X139571494Y-66545951D01*
X139385521Y-66410835D01*
X139385520Y-66410834D01*
X139385518Y-66410833D01*
X139242169Y-66337793D01*
X139180683Y-66306464D01*
X138962052Y-66235427D01*
X138779049Y-66206442D01*
X138734993Y-66199464D01*
X138505105Y-66199464D01*
X138461049Y-66206442D01*
X138278046Y-66235427D01*
X138278043Y-66235427D01*
X138059414Y-66306464D01*
X137854576Y-66410835D01*
X137668603Y-66545951D01*
X137668598Y-66545955D01*
X137506040Y-66708513D01*
X137506036Y-66708518D01*
X137450367Y-66785141D01*
X137395037Y-66827807D01*
X137325424Y-66833786D01*
X137263629Y-66801181D01*
X137249731Y-66785141D01*
X137194061Y-66708518D01*
X137194057Y-66708513D01*
X137031499Y-66545955D01*
X137031494Y-66545951D01*
X136845521Y-66410835D01*
X136845520Y-66410834D01*
X136845518Y-66410833D01*
X136702169Y-66337793D01*
X136640683Y-66306464D01*
X136422052Y-66235427D01*
X136239049Y-66206442D01*
X136194993Y-66199464D01*
X135965105Y-66199464D01*
X135921049Y-66206442D01*
X135738046Y-66235427D01*
X135738043Y-66235427D01*
X135519414Y-66306464D01*
X135314576Y-66410835D01*
X135128603Y-66545951D01*
X135128598Y-66545955D01*
X134966040Y-66708513D01*
X134966036Y-66708518D01*
X134910367Y-66785141D01*
X134855037Y-66827807D01*
X134785424Y-66833786D01*
X134723629Y-66801181D01*
X134709731Y-66785141D01*
X134654061Y-66708518D01*
X134654057Y-66708513D01*
X134491499Y-66545955D01*
X134491494Y-66545951D01*
X134305521Y-66410835D01*
X134305520Y-66410834D01*
X134305518Y-66410833D01*
X134162169Y-66337793D01*
X134100683Y-66306464D01*
X133882052Y-66235427D01*
X133699049Y-66206442D01*
X133654993Y-66199464D01*
X133425105Y-66199464D01*
X133381049Y-66206442D01*
X133198046Y-66235427D01*
X133198043Y-66235427D01*
X132979414Y-66306464D01*
X132774576Y-66410835D01*
X132588603Y-66545951D01*
X132588598Y-66545955D01*
X132426040Y-66708513D01*
X132426036Y-66708518D01*
X132370367Y-66785141D01*
X132315037Y-66827807D01*
X132245424Y-66833786D01*
X132183629Y-66801181D01*
X132169731Y-66785141D01*
X132114061Y-66708518D01*
X132114057Y-66708513D01*
X131951499Y-66545955D01*
X131951494Y-66545951D01*
X131765521Y-66410835D01*
X131765520Y-66410834D01*
X131765518Y-66410833D01*
X131622169Y-66337793D01*
X131560683Y-66306464D01*
X131342052Y-66235427D01*
X131159049Y-66206442D01*
X131114993Y-66199464D01*
X130885105Y-66199464D01*
X130841049Y-66206442D01*
X130658046Y-66235427D01*
X130658043Y-66235427D01*
X130439414Y-66306464D01*
X130234576Y-66410835D01*
X130048603Y-66545951D01*
X130048598Y-66545955D01*
X129886040Y-66708513D01*
X129886036Y-66708518D01*
X129830367Y-66785141D01*
X129775037Y-66827807D01*
X129705424Y-66833786D01*
X129643629Y-66801181D01*
X129629731Y-66785141D01*
X129574061Y-66708518D01*
X129574057Y-66708513D01*
X129411499Y-66545955D01*
X129411494Y-66545951D01*
X129225521Y-66410835D01*
X129225520Y-66410834D01*
X129225518Y-66410833D01*
X129082169Y-66337793D01*
X129020683Y-66306464D01*
X128802052Y-66235427D01*
X128619049Y-66206442D01*
X128574993Y-66199464D01*
X128345105Y-66199464D01*
X128301049Y-66206442D01*
X128118046Y-66235427D01*
X128118043Y-66235427D01*
X127899414Y-66306464D01*
X127694576Y-66410835D01*
X127508603Y-66545951D01*
X127508598Y-66545955D01*
X127346040Y-66708513D01*
X127346036Y-66708518D01*
X127290367Y-66785141D01*
X127235037Y-66827807D01*
X127165424Y-66833786D01*
X127103629Y-66801181D01*
X127089731Y-66785141D01*
X127034061Y-66708518D01*
X127034057Y-66708513D01*
X126871499Y-66545955D01*
X126871494Y-66545951D01*
X126685521Y-66410835D01*
X126685520Y-66410834D01*
X126685518Y-66410833D01*
X126542169Y-66337793D01*
X126480683Y-66306464D01*
X126262052Y-66235427D01*
X126079049Y-66206442D01*
X126034993Y-66199464D01*
X125805105Y-66199464D01*
X125761049Y-66206442D01*
X125578046Y-66235427D01*
X125578043Y-66235427D01*
X125359414Y-66306464D01*
X125154576Y-66410835D01*
X124968603Y-66545951D01*
X124968598Y-66545955D01*
X124806040Y-66708513D01*
X124806036Y-66708518D01*
X124750367Y-66785141D01*
X124695037Y-66827807D01*
X124625424Y-66833786D01*
X124563629Y-66801181D01*
X124549731Y-66785141D01*
X124494061Y-66708518D01*
X124494057Y-66708513D01*
X124331499Y-66545955D01*
X124331494Y-66545951D01*
X124145521Y-66410835D01*
X124145520Y-66410834D01*
X124145518Y-66410833D01*
X124002169Y-66337793D01*
X123940683Y-66306464D01*
X123722052Y-66235427D01*
X123539049Y-66206442D01*
X123494993Y-66199464D01*
X123265105Y-66199464D01*
X123221049Y-66206442D01*
X123038046Y-66235427D01*
X123038043Y-66235427D01*
X122819414Y-66306464D01*
X122614576Y-66410835D01*
X122428603Y-66545951D01*
X122428598Y-66545955D01*
X122266040Y-66708513D01*
X122266036Y-66708518D01*
X122210367Y-66785141D01*
X122155037Y-66827807D01*
X122085424Y-66833786D01*
X122023629Y-66801181D01*
X122009731Y-66785141D01*
X121954061Y-66708518D01*
X121954057Y-66708513D01*
X121791499Y-66545955D01*
X121791494Y-66545951D01*
X121605521Y-66410835D01*
X121605520Y-66410834D01*
X121605518Y-66410833D01*
X121462169Y-66337793D01*
X121400683Y-66306464D01*
X121182052Y-66235427D01*
X120999049Y-66206442D01*
X120954993Y-66199464D01*
X120725105Y-66199464D01*
X120681049Y-66206442D01*
X120498046Y-66235427D01*
X120498043Y-66235427D01*
X120279414Y-66306464D01*
X120074576Y-66410835D01*
X119888603Y-66545951D01*
X119888598Y-66545955D01*
X119726040Y-66708513D01*
X119726036Y-66708518D01*
X119670367Y-66785141D01*
X119615037Y-66827807D01*
X119545424Y-66833786D01*
X119483629Y-66801181D01*
X119469731Y-66785141D01*
X119414061Y-66708518D01*
X119414057Y-66708513D01*
X119251499Y-66545955D01*
X119251494Y-66545951D01*
X119065521Y-66410835D01*
X119065520Y-66410834D01*
X119065518Y-66410833D01*
X118922169Y-66337793D01*
X118860683Y-66306464D01*
X118642052Y-66235427D01*
X118459049Y-66206442D01*
X118414993Y-66199464D01*
X118185105Y-66199464D01*
X118141049Y-66206442D01*
X117958046Y-66235427D01*
X117958043Y-66235427D01*
X117739414Y-66306464D01*
X117534576Y-66410835D01*
X117348603Y-66545951D01*
X117348598Y-66545955D01*
X117186040Y-66708513D01*
X117186036Y-66708518D01*
X117130367Y-66785141D01*
X117075037Y-66827807D01*
X117005424Y-66833786D01*
X116943629Y-66801181D01*
X116929731Y-66785141D01*
X116874061Y-66708518D01*
X116874057Y-66708513D01*
X116711499Y-66545955D01*
X116711494Y-66545951D01*
X116525521Y-66410835D01*
X116525520Y-66410834D01*
X116525518Y-66410833D01*
X116382169Y-66337793D01*
X116320683Y-66306464D01*
X116102052Y-66235427D01*
X115919049Y-66206442D01*
X115874993Y-66199464D01*
X115829133Y-66199464D01*
X115762094Y-66179779D01*
X115716339Y-66126975D01*
X115706395Y-66057817D01*
X115735420Y-65994261D01*
X115741452Y-65987783D01*
X116559235Y-65170000D01*
X147460000Y-65170000D01*
X147460000Y-65170001D01*
X151225712Y-66797886D01*
X151279437Y-66842556D01*
X151300483Y-66909180D01*
X151300507Y-66910928D01*
X151302382Y-67210000D01*
X157000000Y-67210000D01*
X161959999Y-67210000D01*
X161960000Y-67210000D01*
X162250000Y-45300000D01*
X162249999Y-45299999D01*
X151339999Y-45209999D01*
X149695095Y-46246632D01*
X149661874Y-46267568D01*
X149661873Y-46267567D01*
X147500001Y-47629998D01*
X147500000Y-47630000D01*
X147460000Y-65170000D01*
X116559235Y-65170000D01*
X117676790Y-64052445D01*
X120042320Y-61686916D01*
X120121377Y-61549984D01*
X120162301Y-61397257D01*
X120162301Y-61239142D01*
X120162301Y-61231547D01*
X120162300Y-61231529D01*
X120162300Y-46286081D01*
X120181985Y-46219042D01*
X120234789Y-46173287D01*
X120303947Y-46163343D01*
X120324612Y-46168148D01*
X120438107Y-46205025D01*
X120498047Y-46224501D01*
X120611576Y-46242482D01*
X120725105Y-46260464D01*
X120725106Y-46260464D01*
X120954992Y-46260464D01*
X120954993Y-46260464D01*
X121182050Y-46224501D01*
X121285880Y-46190763D01*
X121355720Y-46188769D01*
X121411878Y-46221014D01*
X121783284Y-46592420D01*
X121783286Y-46592421D01*
X121783290Y-46592424D01*
X121920209Y-46671473D01*
X121920216Y-46671477D01*
X122072943Y-46712401D01*
X122072945Y-46712401D01*
X122238654Y-46712401D01*
X122238670Y-46712400D01*
X131415731Y-46712400D01*
X131415747Y-46712401D01*
X131423343Y-46712401D01*
X131581454Y-46712401D01*
X131581457Y-46712401D01*
X131734185Y-46671477D01*
X131784304Y-46642539D01*
X131871116Y-46592420D01*
X131982920Y-46480616D01*
X131982920Y-46480614D01*
X131993128Y-46470407D01*
X131993130Y-46470404D01*
X132491103Y-45972430D01*
X132552424Y-45938947D01*
X132622116Y-45943931D01*
X132651667Y-45959795D01*
X132760689Y-46039003D01*
X132774580Y-46049095D01*
X132979412Y-46153462D01*
X132979414Y-46153463D01*
X133181247Y-46219042D01*
X133198048Y-46224501D01*
X133425105Y-46260464D01*
X133425106Y-46260464D01*
X133654992Y-46260464D01*
X133654993Y-46260464D01*
X133882050Y-46224501D01*
X133882053Y-46224500D01*
X133882054Y-46224500D01*
X134100683Y-46153463D01*
X134100683Y-46153462D01*
X134100686Y-46153462D01*
X134305518Y-46049095D01*
X134491501Y-45913971D01*
X134654056Y-45751416D01*
X134709731Y-45674784D01*
X134765060Y-45632120D01*
X134834673Y-45626141D01*
X134896469Y-45658746D01*
X134910363Y-45674780D01*
X134966037Y-45751409D01*
X134966042Y-45751416D01*
X135128598Y-45913972D01*
X135128603Y-45913976D01*
X135209062Y-45972432D01*
X135314580Y-46049095D01*
X135519412Y-46153462D01*
X135519414Y-46153463D01*
X135721247Y-46219042D01*
X135738048Y-46224501D01*
X135965105Y-46260464D01*
X135965106Y-46260464D01*
X136194992Y-46260464D01*
X136194993Y-46260464D01*
X136422050Y-46224501D01*
X136422053Y-46224500D01*
X136422054Y-46224500D01*
X136640683Y-46153463D01*
X136640683Y-46153462D01*
X136640686Y-46153462D01*
X136845518Y-46049095D01*
X137031501Y-45913971D01*
X137194056Y-45751416D01*
X137249731Y-45674784D01*
X137305060Y-45632120D01*
X137374673Y-45626141D01*
X137436469Y-45658746D01*
X137450363Y-45674780D01*
X137506037Y-45751409D01*
X137506042Y-45751416D01*
X137668598Y-45913972D01*
X137668603Y-45913976D01*
X137749062Y-45972432D01*
X137854580Y-46049095D01*
X138059412Y-46153462D01*
X138059414Y-46153463D01*
X138261247Y-46219042D01*
X138278048Y-46224501D01*
X138505105Y-46260464D01*
X138505106Y-46260464D01*
X138734992Y-46260464D01*
X138734993Y-46260464D01*
X138962050Y-46224501D01*
X138962053Y-46224500D01*
X138962054Y-46224500D01*
X139180683Y-46153463D01*
X139180683Y-46153462D01*
X139180686Y-46153462D01*
X139385518Y-46049095D01*
X139571501Y-45913971D01*
X139734056Y-45751416D01*
X139789731Y-45674784D01*
X139845060Y-45632120D01*
X139914673Y-45626141D01*
X139976469Y-45658746D01*
X139990363Y-45674780D01*
X140046037Y-45751409D01*
X140046042Y-45751416D01*
X140208598Y-45913972D01*
X140208603Y-45913976D01*
X140289062Y-45972432D01*
X140394580Y-46049095D01*
X140599412Y-46153462D01*
X140599414Y-46153463D01*
X140801247Y-46219042D01*
X140818048Y-46224501D01*
X141045105Y-46260464D01*
X141045106Y-46260464D01*
X141274992Y-46260464D01*
X141274993Y-46260464D01*
X141502050Y-46224501D01*
X141502053Y-46224500D01*
X141502054Y-46224500D01*
X141720683Y-46153463D01*
X141720683Y-46153462D01*
X141720686Y-46153462D01*
X141925518Y-46049095D01*
X142111501Y-45913971D01*
X142274056Y-45751416D01*
X142329731Y-45674784D01*
X142385060Y-45632120D01*
X142454673Y-45626141D01*
X142516469Y-45658746D01*
X142530363Y-45674780D01*
X142586037Y-45751409D01*
X142586042Y-45751416D01*
X142748598Y-45913972D01*
X142748603Y-45913976D01*
X142829062Y-45972432D01*
X142934580Y-46049095D01*
X143139412Y-46153462D01*
X143139414Y-46153463D01*
X143341247Y-46219042D01*
X143358048Y-46224501D01*
X143585105Y-46260464D01*
X143585106Y-46260464D01*
X143814992Y-46260464D01*
X143814993Y-46260464D01*
X144042050Y-46224501D01*
X144042053Y-46224500D01*
X144042054Y-46224500D01*
X144260683Y-46153463D01*
X144260683Y-46153462D01*
X144260686Y-46153462D01*
X144465518Y-46049095D01*
X144651501Y-45913971D01*
X144814056Y-45751416D01*
X144869731Y-45674784D01*
X144925060Y-45632120D01*
X144994673Y-45626141D01*
X145056469Y-45658746D01*
X145070363Y-45674780D01*
X145126037Y-45751409D01*
X145126042Y-45751416D01*
X145288598Y-45913972D01*
X145288603Y-45913976D01*
X145369062Y-45972432D01*
X145474580Y-46049095D01*
X145679412Y-46153462D01*
X145679414Y-46153463D01*
X145881247Y-46219042D01*
X145898048Y-46224501D01*
X146125105Y-46260464D01*
X146125106Y-46260464D01*
X146354992Y-46260464D01*
X146354993Y-46260464D01*
X146582050Y-46224501D01*
X146582053Y-46224500D01*
X146582054Y-46224500D01*
X146800683Y-46153463D01*
X146800683Y-46153462D01*
X146800686Y-46153462D01*
X147005518Y-46049095D01*
X147191501Y-45913971D01*
X147354056Y-45751416D01*
X147409731Y-45674784D01*
X147465060Y-45632120D01*
X147534673Y-45626141D01*
X147596469Y-45658746D01*
X147610363Y-45674780D01*
X147666037Y-45751409D01*
X147666042Y-45751416D01*
X147828598Y-45913972D01*
X147828603Y-45913976D01*
X147909062Y-45972432D01*
X148014580Y-46049095D01*
X148219412Y-46153462D01*
X148219414Y-46153463D01*
X148421247Y-46219042D01*
X148438048Y-46224501D01*
X148665105Y-46260464D01*
X148665106Y-46260464D01*
X148894992Y-46260464D01*
X148894993Y-46260464D01*
X149122050Y-46224501D01*
X149122053Y-46224500D01*
X149122054Y-46224500D01*
X149340683Y-46153463D01*
X149340683Y-46153462D01*
X149340686Y-46153462D01*
X149545518Y-46049095D01*
X149731501Y-45913971D01*
X149894056Y-45751416D01*
X150029180Y-45565433D01*
X150133547Y-45360601D01*
X150152101Y-45303497D01*
X150204585Y-45141969D01*
X150204585Y-45141968D01*
X150204586Y-45141965D01*
X150240549Y-44914908D01*
X150240549Y-44685020D01*
X150204586Y-44457963D01*
X150204583Y-44457954D01*
X150203449Y-44453228D01*
X150205301Y-44452783D01*
X150203533Y-44391042D01*
X150235779Y-44334876D01*
X151705502Y-42865153D01*
X162425100Y-42865153D01*
X162425100Y-43022846D01*
X162455861Y-43177489D01*
X162455864Y-43177501D01*
X162516202Y-43323172D01*
X162516209Y-43323185D01*
X162603810Y-43454288D01*
X162603813Y-43454292D01*
X162715307Y-43565786D01*
X162715311Y-43565789D01*
X162846414Y-43653390D01*
X162846427Y-43653397D01*
X162992098Y-43713735D01*
X162992103Y-43713737D01*
X163056747Y-43726595D01*
X163147449Y-43744638D01*
X163209360Y-43777023D01*
X163210939Y-43778574D01*
X164648181Y-45215816D01*
X164681666Y-45277139D01*
X164684500Y-45303497D01*
X164684500Y-50100825D01*
X164664815Y-50167864D01*
X164616795Y-50211310D01*
X164519527Y-50260871D01*
X164333554Y-50395987D01*
X164333549Y-50395991D01*
X164170991Y-50558549D01*
X164170987Y-50558554D01*
X164035871Y-50744527D01*
X163931500Y-50949365D01*
X163860463Y-51167994D01*
X163860463Y-51167997D01*
X163824500Y-51395056D01*
X163824500Y-51624943D01*
X163860463Y-51852002D01*
X163860463Y-51852005D01*
X163931500Y-52070634D01*
X164035871Y-52275472D01*
X164170987Y-52461445D01*
X164170991Y-52461450D01*
X164333549Y-52624008D01*
X164333554Y-52624012D01*
X164443678Y-52704021D01*
X164519531Y-52759131D01*
X164723450Y-52863033D01*
X164724365Y-52863499D01*
X164928294Y-52929759D01*
X164942999Y-52934537D01*
X165170056Y-52970500D01*
X165170057Y-52970500D01*
X165399943Y-52970500D01*
X165399944Y-52970500D01*
X165627001Y-52934537D01*
X165627004Y-52934536D01*
X165627005Y-52934536D01*
X165845634Y-52863499D01*
X165845634Y-52863498D01*
X165845637Y-52863498D01*
X166050469Y-52759131D01*
X166236452Y-52624007D01*
X166399007Y-52461452D01*
X166454682Y-52384820D01*
X166510011Y-52342156D01*
X166579624Y-52336177D01*
X166641420Y-52368782D01*
X166655314Y-52384816D01*
X166710988Y-52461445D01*
X166710993Y-52461452D01*
X166873549Y-52624008D01*
X166873554Y-52624012D01*
X166983678Y-52704021D01*
X167059531Y-52759131D01*
X167263450Y-52863033D01*
X167264365Y-52863499D01*
X167468294Y-52929759D01*
X167482999Y-52934537D01*
X167710056Y-52970500D01*
X167710057Y-52970500D01*
X167939943Y-52970500D01*
X167939944Y-52970500D01*
X168167001Y-52934537D01*
X168167004Y-52934536D01*
X168167005Y-52934536D01*
X168385634Y-52863499D01*
X168385634Y-52863498D01*
X168385637Y-52863498D01*
X168590469Y-52759131D01*
X168776452Y-52624007D01*
X168939007Y-52461452D01*
X168994682Y-52384820D01*
X169050011Y-52342156D01*
X169119624Y-52336177D01*
X169181420Y-52368782D01*
X169195314Y-52384816D01*
X169250988Y-52461445D01*
X169250993Y-52461452D01*
X169413549Y-52624008D01*
X169413554Y-52624012D01*
X169523678Y-52704021D01*
X169599531Y-52759131D01*
X169803450Y-52863033D01*
X169804365Y-52863499D01*
X170008294Y-52929759D01*
X170022999Y-52934537D01*
X170250056Y-52970500D01*
X170250057Y-52970500D01*
X170479943Y-52970500D01*
X170479944Y-52970500D01*
X170707001Y-52934537D01*
X170707004Y-52934536D01*
X170707005Y-52934536D01*
X170925634Y-52863499D01*
X170925634Y-52863498D01*
X170925637Y-52863498D01*
X171130469Y-52759131D01*
X171316452Y-52624007D01*
X171479007Y-52461452D01*
X171534990Y-52384396D01*
X171590318Y-52341732D01*
X171659931Y-52335751D01*
X171683767Y-52348327D01*
X171710977Y-52350469D01*
X172340387Y-51721059D01*
X172345889Y-51741591D01*
X172424881Y-51878408D01*
X172536592Y-51990119D01*
X172673409Y-52069111D01*
X172693939Y-52074612D01*
X172064529Y-52704021D01*
X172139792Y-52758703D01*
X172344549Y-52863033D01*
X172563115Y-52934049D01*
X172790096Y-52970000D01*
X173019904Y-52970000D01*
X173246884Y-52934049D01*
X173465450Y-52863033D01*
X173670206Y-52758704D01*
X173745468Y-52704021D01*
X173745469Y-52704021D01*
X173116059Y-52074612D01*
X173136591Y-52069111D01*
X173273408Y-51990119D01*
X173385119Y-51878408D01*
X173464111Y-51741591D01*
X173469612Y-51721060D01*
X174099021Y-52350469D01*
X174120566Y-52348773D01*
X174129697Y-52341732D01*
X174199311Y-52335750D01*
X174261107Y-52368353D01*
X174275008Y-52384396D01*
X174330987Y-52461445D01*
X174330991Y-52461450D01*
X174493549Y-52624008D01*
X174493554Y-52624012D01*
X174603678Y-52704021D01*
X174679531Y-52759131D01*
X174883450Y-52863033D01*
X174884365Y-52863499D01*
X175088294Y-52929759D01*
X175102999Y-52934537D01*
X175330056Y-52970500D01*
X175330057Y-52970500D01*
X175559943Y-52970500D01*
X175559944Y-52970500D01*
X175787001Y-52934537D01*
X175787004Y-52934536D01*
X175787005Y-52934536D01*
X176005634Y-52863499D01*
X176005634Y-52863498D01*
X176005637Y-52863498D01*
X176210469Y-52759131D01*
X176396452Y-52624007D01*
X176559007Y-52461452D01*
X176614990Y-52384396D01*
X176670318Y-52341732D01*
X176739931Y-52335751D01*
X176763767Y-52348327D01*
X176790977Y-52350469D01*
X177420387Y-51721059D01*
X177425889Y-51741591D01*
X177504881Y-51878408D01*
X177616592Y-51990119D01*
X177753409Y-52069111D01*
X177773939Y-52074612D01*
X177144529Y-52704021D01*
X177219792Y-52758703D01*
X177424549Y-52863033D01*
X177643115Y-52934049D01*
X177870096Y-52970000D01*
X178099904Y-52970000D01*
X178326884Y-52934049D01*
X178545450Y-52863033D01*
X178750206Y-52758704D01*
X178825468Y-52704021D01*
X178825469Y-52704021D01*
X178196059Y-52074612D01*
X178216591Y-52069111D01*
X178353408Y-51990119D01*
X178465119Y-51878408D01*
X178544111Y-51741591D01*
X178549612Y-51721059D01*
X179179021Y-52350469D01*
X179200566Y-52348773D01*
X179209697Y-52341732D01*
X179279311Y-52335750D01*
X179341107Y-52368353D01*
X179355008Y-52384396D01*
X179410987Y-52461445D01*
X179410991Y-52461450D01*
X179573549Y-52624008D01*
X179573554Y-52624012D01*
X179683678Y-52704021D01*
X179759531Y-52759131D01*
X179963450Y-52863033D01*
X179964365Y-52863499D01*
X180168294Y-52929759D01*
X180182999Y-52934537D01*
X180410056Y-52970500D01*
X180410057Y-52970500D01*
X180639943Y-52970500D01*
X180639944Y-52970500D01*
X180867001Y-52934537D01*
X180867004Y-52934536D01*
X180867005Y-52934536D01*
X181085634Y-52863499D01*
X181085634Y-52863498D01*
X181085637Y-52863498D01*
X181290469Y-52759131D01*
X181476452Y-52624007D01*
X181639007Y-52461452D01*
X181774131Y-52275469D01*
X181878498Y-52070637D01*
X181949537Y-51852001D01*
X181985500Y-51624944D01*
X181985500Y-51395056D01*
X181949537Y-51167999D01*
X181949536Y-51167995D01*
X181949536Y-51167994D01*
X181878499Y-50949365D01*
X181878498Y-50949363D01*
X181774131Y-50744531D01*
X181725680Y-50677843D01*
X181639012Y-50558554D01*
X181639008Y-50558549D01*
X181476450Y-50395991D01*
X181476445Y-50395987D01*
X181290468Y-50260868D01*
X181286317Y-50258324D01*
X181287311Y-50256700D01*
X181242403Y-50214277D01*
X181225500Y-50151778D01*
X181225500Y-40517404D01*
X181225499Y-40517402D01*
X181198581Y-40382077D01*
X181198580Y-40382076D01*
X181198580Y-40382072D01*
X181198150Y-40381035D01*
X181188576Y-40357922D01*
X181145778Y-40254596D01*
X181145777Y-40254595D01*
X181145775Y-40254589D01*
X181069114Y-40139857D01*
X181069112Y-40139854D01*
X181069111Y-40139853D01*
X178013371Y-37084114D01*
X177986491Y-37043885D01*
X177926697Y-36899527D01*
X177926690Y-36899514D01*
X177839089Y-36768411D01*
X177839086Y-36768407D01*
X177727592Y-36656913D01*
X177727588Y-36656910D01*
X177596485Y-36569309D01*
X177596472Y-36569302D01*
X177450801Y-36508964D01*
X177450789Y-36508961D01*
X177296145Y-36478200D01*
X177296142Y-36478200D01*
X177138458Y-36478200D01*
X177138455Y-36478200D01*
X176983810Y-36508961D01*
X176983798Y-36508964D01*
X176838127Y-36569302D01*
X176838114Y-36569309D01*
X176707011Y-36656910D01*
X176707007Y-36656913D01*
X176595513Y-36768407D01*
X176595510Y-36768411D01*
X176507909Y-36899514D01*
X176507902Y-36899527D01*
X176447564Y-37045198D01*
X176447561Y-37045210D01*
X176416800Y-37199853D01*
X176416800Y-37357546D01*
X176447561Y-37512189D01*
X176447564Y-37512201D01*
X176507902Y-37657872D01*
X176507909Y-37657885D01*
X176595510Y-37788988D01*
X176595513Y-37788992D01*
X176707007Y-37900486D01*
X176707011Y-37900489D01*
X176838114Y-37988090D01*
X176838127Y-37988097D01*
X176982485Y-38047891D01*
X177022714Y-38074771D01*
X179788181Y-40840238D01*
X179821666Y-40901561D01*
X179824500Y-40927919D01*
X179824500Y-50151778D01*
X179804815Y-50218817D01*
X179762780Y-50256851D01*
X179763683Y-50258324D01*
X179759531Y-50260868D01*
X179573554Y-50395987D01*
X179573549Y-50395991D01*
X179410991Y-50558549D01*
X179355008Y-50635604D01*
X179299678Y-50678269D01*
X179230065Y-50684248D01*
X179206229Y-50671671D01*
X179179021Y-50669529D01*
X178549612Y-51298939D01*
X178544111Y-51278409D01*
X178465119Y-51141592D01*
X178353408Y-51029881D01*
X178216591Y-50950889D01*
X178196058Y-50945387D01*
X178825469Y-50315977D01*
X178825468Y-50315975D01*
X178750210Y-50261298D01*
X178545450Y-50156966D01*
X178326884Y-50085950D01*
X178099904Y-50050000D01*
X177870096Y-50050000D01*
X177643115Y-50085950D01*
X177424549Y-50156966D01*
X177219796Y-50261294D01*
X177144530Y-50315977D01*
X177144530Y-50315978D01*
X177773940Y-50945387D01*
X177753409Y-50950889D01*
X177616592Y-51029881D01*
X177504881Y-51141592D01*
X177425889Y-51278409D01*
X177420387Y-51298940D01*
X176790978Y-50669530D01*
X176769426Y-50671226D01*
X176760292Y-50678270D01*
X176690678Y-50684246D01*
X176628884Y-50651638D01*
X176614991Y-50635604D01*
X176559007Y-50558548D01*
X176396452Y-50395993D01*
X176396450Y-50395991D01*
X176396445Y-50395987D01*
X176210472Y-50260871D01*
X176210471Y-50260870D01*
X176210469Y-50260869D01*
X176045500Y-50176813D01*
X176005634Y-50156500D01*
X175787003Y-50085463D01*
X175635629Y-50061487D01*
X175559944Y-50049500D01*
X175330056Y-50049500D01*
X175254370Y-50061487D01*
X175102997Y-50085463D01*
X175102994Y-50085463D01*
X174884365Y-50156500D01*
X174679527Y-50260871D01*
X174493554Y-50395987D01*
X174493549Y-50395991D01*
X174330991Y-50558549D01*
X174275008Y-50635604D01*
X174219678Y-50678269D01*
X174150065Y-50684248D01*
X174126229Y-50671671D01*
X174099021Y-50669529D01*
X173469612Y-51298939D01*
X173464111Y-51278409D01*
X173385119Y-51141592D01*
X173273408Y-51029881D01*
X173136591Y-50950889D01*
X173116058Y-50945387D01*
X173745469Y-50315977D01*
X173745468Y-50315975D01*
X173670210Y-50261298D01*
X173465450Y-50156966D01*
X173246884Y-50085950D01*
X173019904Y-50050000D01*
X172790096Y-50050000D01*
X172563115Y-50085950D01*
X172344549Y-50156966D01*
X172139796Y-50261294D01*
X172064530Y-50315977D01*
X172064530Y-50315978D01*
X172693940Y-50945387D01*
X172673409Y-50950889D01*
X172536592Y-51029881D01*
X172424881Y-51141592D01*
X172345889Y-51278409D01*
X172340387Y-51298940D01*
X171710978Y-50669530D01*
X171689426Y-50671226D01*
X171680292Y-50678270D01*
X171610678Y-50684246D01*
X171548884Y-50651638D01*
X171534991Y-50635604D01*
X171479007Y-50558548D01*
X171316452Y-50395993D01*
X171316450Y-50395991D01*
X171316445Y-50395987D01*
X171130472Y-50260871D01*
X171130471Y-50260870D01*
X171130469Y-50260869D01*
X170965500Y-50176813D01*
X170925634Y-50156500D01*
X170707003Y-50085463D01*
X170555629Y-50061487D01*
X170479944Y-50049500D01*
X170250056Y-50049500D01*
X170174370Y-50061487D01*
X170022997Y-50085463D01*
X170022994Y-50085463D01*
X169804365Y-50156500D01*
X169599527Y-50260871D01*
X169413554Y-50395987D01*
X169413549Y-50395991D01*
X169250991Y-50558549D01*
X169250987Y-50558554D01*
X169195318Y-50635177D01*
X169139988Y-50677843D01*
X169070375Y-50683822D01*
X169008580Y-50651217D01*
X168994682Y-50635177D01*
X168939012Y-50558554D01*
X168939008Y-50558549D01*
X168776450Y-50395991D01*
X168776445Y-50395987D01*
X168590472Y-50260871D01*
X168590471Y-50260870D01*
X168590469Y-50260869D01*
X168425500Y-50176813D01*
X168385634Y-50156500D01*
X168167003Y-50085463D01*
X168015629Y-50061487D01*
X167939944Y-50049500D01*
X167710056Y-50049500D01*
X167634370Y-50061487D01*
X167482997Y-50085463D01*
X167482994Y-50085463D01*
X167264365Y-50156500D01*
X167059527Y-50260871D01*
X166873554Y-50395987D01*
X166873549Y-50395991D01*
X166710991Y-50558549D01*
X166710987Y-50558554D01*
X166655318Y-50635177D01*
X166599988Y-50677843D01*
X166530375Y-50683822D01*
X166468580Y-50651217D01*
X166454682Y-50635177D01*
X166399012Y-50558554D01*
X166399008Y-50558549D01*
X166236450Y-50395991D01*
X166236445Y-50395987D01*
X166050472Y-50260871D01*
X166050471Y-50260870D01*
X166050469Y-50260869D01*
X165985499Y-50227765D01*
X165953205Y-50211310D01*
X165902409Y-50163335D01*
X165885500Y-50100825D01*
X165885500Y-44924345D01*
X165885500Y-44924343D01*
X165844577Y-44771616D01*
X165844573Y-44771609D01*
X165765524Y-44634690D01*
X165765521Y-44634686D01*
X165765520Y-44634684D01*
X165653716Y-44522880D01*
X165653715Y-44522879D01*
X165649385Y-44518549D01*
X165649374Y-44518539D01*
X164060174Y-42929339D01*
X164026689Y-42868016D01*
X164026238Y-42865849D01*
X163997088Y-42719307D01*
X163995337Y-42710503D01*
X163972016Y-42654201D01*
X163934997Y-42564827D01*
X163934990Y-42564814D01*
X163847389Y-42433710D01*
X163735892Y-42322213D01*
X163735888Y-42322210D01*
X163604785Y-42234609D01*
X163604772Y-42234602D01*
X163459101Y-42174264D01*
X163459089Y-42174261D01*
X163304445Y-42143500D01*
X163304442Y-42143500D01*
X163146758Y-42143500D01*
X163146755Y-42143500D01*
X162992110Y-42174261D01*
X162992098Y-42174264D01*
X162846427Y-42234602D01*
X162846414Y-42234609D01*
X162715311Y-42322210D01*
X162715307Y-42322213D01*
X162603813Y-42433707D01*
X162603811Y-42433710D01*
X162516209Y-42564814D01*
X162516202Y-42564827D01*
X162455864Y-42710498D01*
X162455861Y-42710510D01*
X162425100Y-42865153D01*
X151705502Y-42865153D01*
X153624113Y-40946543D01*
X153630510Y-40936968D01*
X153643044Y-40918212D01*
X153643044Y-40918211D01*
X153654169Y-40901561D01*
X153700775Y-40831811D01*
X153744721Y-40725716D01*
X153753580Y-40704329D01*
X153758934Y-40677409D01*
X153780500Y-40568993D01*
X153780500Y-40122204D01*
X153800185Y-40055165D01*
X153816819Y-40034523D01*
X153817687Y-40033655D01*
X153919414Y-39931928D01*
X154021232Y-39791788D01*
X154099873Y-39637445D01*
X154153402Y-39472701D01*
X154180500Y-39301611D01*
X154180500Y-38578389D01*
X154153402Y-38407299D01*
X154099873Y-38242555D01*
X154021232Y-38088212D01*
X153919414Y-37948072D01*
X153796928Y-37825586D01*
X153656788Y-37723768D01*
X153502445Y-37645127D01*
X153337701Y-37591598D01*
X153337699Y-37591597D01*
X153337698Y-37591597D01*
X153206271Y-37570781D01*
X153166611Y-37564500D01*
X152993389Y-37564500D01*
X152953728Y-37570781D01*
X152822302Y-37591597D01*
X152657552Y-37645128D01*
X152503211Y-37723768D01*
X152363073Y-37825585D01*
X152255530Y-37933128D01*
X152194207Y-37966612D01*
X152124515Y-37961628D01*
X152068582Y-37919756D01*
X152062310Y-37910543D01*
X152056107Y-37900486D01*
X152022712Y-37846344D01*
X151898656Y-37722288D01*
X151805888Y-37665069D01*
X151749336Y-37630187D01*
X151749331Y-37630185D01*
X151747862Y-37629698D01*
X151582797Y-37575001D01*
X151582795Y-37575000D01*
X151480010Y-37564500D01*
X150679998Y-37564500D01*
X150679980Y-37564501D01*
X150577203Y-37575000D01*
X150577200Y-37575001D01*
X150410668Y-37630185D01*
X150410663Y-37630187D01*
X150261342Y-37722289D01*
X150137289Y-37846342D01*
X150045187Y-37995663D01*
X150045185Y-37995668D01*
X150030103Y-38041183D01*
X149990001Y-38162203D01*
X149990001Y-38162204D01*
X149990000Y-38162204D01*
X149979500Y-38264983D01*
X149979500Y-39615001D01*
X149979501Y-39615018D01*
X149990000Y-39717796D01*
X149990001Y-39717799D01*
X150045185Y-39884331D01*
X150045187Y-39884336D01*
X150073955Y-39930977D01*
X150137288Y-40033656D01*
X150261344Y-40157712D01*
X150410666Y-40249814D01*
X150577203Y-40304999D01*
X150679991Y-40315500D01*
X151480008Y-40315499D01*
X151480016Y-40315498D01*
X151480019Y-40315498D01*
X151536302Y-40309748D01*
X151582797Y-40304999D01*
X151749334Y-40249814D01*
X151898656Y-40157712D01*
X152022712Y-40033656D01*
X152062310Y-39969456D01*
X152079601Y-39953904D01*
X152093539Y-39935286D01*
X152105091Y-39930977D01*
X152114258Y-39922732D01*
X152137213Y-39918996D01*
X152159003Y-39910869D01*
X152171049Y-39913489D01*
X152183220Y-39911509D01*
X152204553Y-39920777D01*
X152227276Y-39925721D01*
X152242969Y-39937469D01*
X152247303Y-39939352D01*
X152255530Y-39946872D01*
X152343181Y-40034523D01*
X152376666Y-40095846D01*
X152379500Y-40122204D01*
X152379500Y-40158481D01*
X152359815Y-40225520D01*
X152343181Y-40246162D01*
X149692181Y-42897162D01*
X149630858Y-42930647D01*
X149561166Y-42925663D01*
X149505233Y-42883791D01*
X149480816Y-42818327D01*
X149480500Y-42809481D01*
X149480500Y-42719304D01*
X149453581Y-42583977D01*
X149453580Y-42583976D01*
X149453580Y-42583972D01*
X149445650Y-42564827D01*
X149400777Y-42456493D01*
X149400773Y-42456486D01*
X149385555Y-42433710D01*
X149324115Y-42341758D01*
X149324109Y-42341751D01*
X145378245Y-38395887D01*
X145263507Y-38319222D01*
X145136032Y-38266421D01*
X145136022Y-38266418D01*
X145000696Y-38239500D01*
X145000694Y-38239500D01*
X145000693Y-38239500D01*
X144824303Y-38239500D01*
X144757264Y-38219815D01*
X144713819Y-38171795D01*
X144671232Y-38088212D01*
X144671230Y-38088209D01*
X144671229Y-38088207D01*
X144623835Y-38022976D01*
X144569414Y-37948072D01*
X144466818Y-37845476D01*
X144433334Y-37784153D01*
X144430500Y-37757795D01*
X144430500Y-37394438D01*
X144430500Y-37394307D01*
X144430261Y-37393107D01*
X144403580Y-37258972D01*
X144350775Y-37131489D01*
X144274114Y-37016757D01*
X144274112Y-37016754D01*
X144175345Y-36917987D01*
X144060607Y-36841322D01*
X143933132Y-36788521D01*
X143933122Y-36788518D01*
X143797796Y-36761600D01*
X143797794Y-36761600D01*
X143797793Y-36761600D01*
X136980607Y-36761600D01*
X136980603Y-36761600D01*
X136872190Y-36783165D01*
X136872189Y-36783165D01*
X136845281Y-36788518D01*
X136845271Y-36788520D01*
X136717790Y-36841324D01*
X136603054Y-36917987D01*
X135465062Y-38055979D01*
X135403739Y-38089464D01*
X135334047Y-38084480D01*
X135278114Y-38042608D01*
X135277063Y-38041183D01*
X135269681Y-38031023D01*
X135209414Y-37948072D01*
X135086928Y-37825586D01*
X134946788Y-37723768D01*
X134792445Y-37645127D01*
X134627701Y-37591598D01*
X134627699Y-37591597D01*
X134627698Y-37591597D01*
X134496271Y-37570781D01*
X134456611Y-37564500D01*
X134283389Y-37564500D01*
X134243728Y-37570781D01*
X134112302Y-37591597D01*
X133947552Y-37645128D01*
X133793211Y-37723768D01*
X133653073Y-37825585D01*
X133545530Y-37933128D01*
X133484207Y-37966612D01*
X133414515Y-37961628D01*
X133358582Y-37919756D01*
X133352310Y-37910543D01*
X133346107Y-37900486D01*
X133312712Y-37846344D01*
X133188656Y-37722288D01*
X133095888Y-37665069D01*
X133039336Y-37630187D01*
X133039331Y-37630185D01*
X133037862Y-37629698D01*
X132872797Y-37575001D01*
X132872795Y-37575000D01*
X132770010Y-37564500D01*
X131969998Y-37564500D01*
X131969980Y-37564501D01*
X131867203Y-37575000D01*
X131867200Y-37575001D01*
X131700668Y-37630185D01*
X131700663Y-37630187D01*
X131551342Y-37722289D01*
X131427289Y-37846342D01*
X131335187Y-37995663D01*
X131335185Y-37995668D01*
X131320103Y-38041183D01*
X131280001Y-38162203D01*
X131280001Y-38162204D01*
X131280000Y-38162204D01*
X131269500Y-38264983D01*
X131269500Y-39615001D01*
X131269501Y-39615018D01*
X131280000Y-39717796D01*
X131280001Y-39717799D01*
X131335185Y-39884331D01*
X131335187Y-39884336D01*
X131363955Y-39930977D01*
X131427287Y-40033655D01*
X131427289Y-40033657D01*
X131551345Y-40157713D01*
X131561047Y-40163697D01*
X131610696Y-40194320D01*
X131657421Y-40246266D01*
X131669600Y-40299858D01*
X131669600Y-43311182D01*
X131649915Y-43378221D01*
X131597111Y-43423976D01*
X131527953Y-43433920D01*
X131507282Y-43429113D01*
X131342053Y-43375427D01*
X131171757Y-43348454D01*
X131114993Y-43339464D01*
X130885105Y-43339464D01*
X130855052Y-43344224D01*
X130658044Y-43375427D01*
X130554238Y-43409155D01*
X130484397Y-43411150D01*
X130428240Y-43378905D01*
X127657090Y-40607755D01*
X127657088Y-40607752D01*
X127538217Y-40488881D01*
X127538216Y-40488880D01*
X127451404Y-40438760D01*
X127451404Y-40438759D01*
X127451400Y-40438758D01*
X127401285Y-40409823D01*
X127248557Y-40368899D01*
X127090443Y-40368899D01*
X127082847Y-40368899D01*
X127082831Y-40368900D01*
X124904857Y-40368900D01*
X124837818Y-40349215D01*
X124792063Y-40296411D01*
X124782119Y-40227253D01*
X124811144Y-40163697D01*
X124831972Y-40144582D01*
X124956596Y-40054038D01*
X125079032Y-39931602D01*
X125180804Y-39791524D01*
X125259408Y-39637257D01*
X125312914Y-39472584D01*
X125340000Y-39301571D01*
X125340000Y-39190000D01*
X124520330Y-39190000D01*
X124540075Y-39170255D01*
X124589444Y-39084745D01*
X124615000Y-38989370D01*
X124615000Y-38890630D01*
X124589444Y-38795255D01*
X124540075Y-38709745D01*
X124520330Y-38690000D01*
X125340000Y-38690000D01*
X125340000Y-38578428D01*
X125312914Y-38407415D01*
X125259408Y-38242742D01*
X125180804Y-38088475D01*
X125079032Y-37948397D01*
X124956602Y-37825967D01*
X124816524Y-37724195D01*
X124662257Y-37645591D01*
X124497589Y-37592087D01*
X124497581Y-37592085D01*
X124490000Y-37590884D01*
X124490000Y-38659670D01*
X124470255Y-38639925D01*
X124384745Y-38590556D01*
X124289370Y-38565000D01*
X124190630Y-38565000D01*
X124095255Y-38590556D01*
X124009745Y-38639925D01*
X123990000Y-38659670D01*
X123990000Y-37590884D01*
X123989999Y-37590884D01*
X123982418Y-37592085D01*
X123982410Y-37592087D01*
X123817742Y-37645591D01*
X123663475Y-37724195D01*
X123523397Y-37825967D01*
X123400965Y-37948399D01*
X123400961Y-37948404D01*
X123340627Y-38031448D01*
X123285297Y-38074114D01*
X123215684Y-38080093D01*
X123153889Y-38047488D01*
X123139991Y-38031449D01*
X123139990Y-38031448D01*
X123079414Y-37948072D01*
X122956928Y-37825586D01*
X122816788Y-37723768D01*
X122662445Y-37645127D01*
X122497701Y-37591598D01*
X122497699Y-37591597D01*
X122497698Y-37591597D01*
X122366271Y-37570781D01*
X122326611Y-37564500D01*
X122153389Y-37564500D01*
X122113728Y-37570781D01*
X121982302Y-37591597D01*
X121817552Y-37645128D01*
X121663211Y-37723768D01*
X121523073Y-37825585D01*
X121415530Y-37933128D01*
X121354207Y-37966612D01*
X121284515Y-37961628D01*
X121228582Y-37919756D01*
X121222310Y-37910543D01*
X121216107Y-37900486D01*
X121182712Y-37846344D01*
X121058656Y-37722288D01*
X120965888Y-37665069D01*
X120909336Y-37630187D01*
X120909331Y-37630185D01*
X120907862Y-37629698D01*
X120742797Y-37575001D01*
X120742795Y-37575000D01*
X120640010Y-37564500D01*
X119839998Y-37564500D01*
X119839980Y-37564501D01*
X119737203Y-37575000D01*
X119737200Y-37575001D01*
X119570668Y-37630185D01*
X119570663Y-37630187D01*
X119421342Y-37722289D01*
X119297289Y-37846342D01*
X119205187Y-37995663D01*
X119205186Y-37995666D01*
X119152551Y-38154506D01*
X119112781Y-38211949D01*
X119048265Y-38238772D01*
X119034847Y-38239500D01*
X116471004Y-38239500D01*
X116368175Y-38259953D01*
X116368176Y-38259954D01*
X116335675Y-38266418D01*
X116335660Y-38266423D01*
X116282865Y-38288292D01*
X116208191Y-38319223D01*
X116114357Y-38381922D01*
X116093457Y-38395886D01*
X116093451Y-38395891D01*
X111145117Y-43344224D01*
X111083794Y-43377709D01*
X111027197Y-43374878D01*
X111026793Y-43376565D01*
X111022053Y-43375427D01*
X110851757Y-43348454D01*
X110794993Y-43339464D01*
X110565105Y-43339464D01*
X110496274Y-43350366D01*
X110338046Y-43375427D01*
X110338043Y-43375427D01*
X110119414Y-43446464D01*
X109914576Y-43550835D01*
X109728603Y-43685951D01*
X109728598Y-43685955D01*
X109566040Y-43848513D01*
X109566036Y-43848518D01*
X109430920Y-44034491D01*
X109326549Y-44239329D01*
X109255512Y-44457958D01*
X109255512Y-44457961D01*
X109245916Y-44518549D01*
X109219549Y-44685020D01*
X109219549Y-44914908D01*
X109221044Y-44924345D01*
X109255512Y-45141966D01*
X109255512Y-45141969D01*
X109326549Y-45360598D01*
X109430920Y-45565436D01*
X109566036Y-45751409D01*
X109566040Y-45751414D01*
X109728598Y-45913972D01*
X109728603Y-45913976D01*
X109809062Y-45972432D01*
X109914580Y-46049095D01*
X110119412Y-46153462D01*
X110119414Y-46153463D01*
X110321247Y-46219042D01*
X110338048Y-46224501D01*
X110565105Y-46260464D01*
X110565106Y-46260464D01*
X110794992Y-46260464D01*
X110794993Y-46260464D01*
X111022050Y-46224501D01*
X111022053Y-46224500D01*
X111022054Y-46224500D01*
X111240683Y-46153463D01*
X111240683Y-46153462D01*
X111240686Y-46153462D01*
X111445518Y-46049095D01*
X111631501Y-45913971D01*
X111794056Y-45751416D01*
X111849731Y-45674784D01*
X111905060Y-45632120D01*
X111974673Y-45626141D01*
X112036469Y-45658746D01*
X112050363Y-45674780D01*
X112106037Y-45751409D01*
X112106042Y-45751416D01*
X112268598Y-45913972D01*
X112268603Y-45913976D01*
X112349062Y-45972432D01*
X112454580Y-46049095D01*
X112659412Y-46153462D01*
X112659414Y-46153463D01*
X112861247Y-46219042D01*
X112878048Y-46224501D01*
X113105105Y-46260464D01*
X113105106Y-46260464D01*
X113334992Y-46260464D01*
X113334993Y-46260464D01*
X113562050Y-46224501D01*
X113562053Y-46224500D01*
X113562054Y-46224500D01*
X113780683Y-46153463D01*
X113780683Y-46153462D01*
X113780686Y-46153462D01*
X113985518Y-46049095D01*
X114171501Y-45913971D01*
X114334056Y-45751416D01*
X114389731Y-45674784D01*
X114445060Y-45632120D01*
X114514673Y-45626141D01*
X114576469Y-45658746D01*
X114590363Y-45674780D01*
X114646037Y-45751409D01*
X114646042Y-45751416D01*
X114808598Y-45913972D01*
X114808603Y-45913976D01*
X114889062Y-45972432D01*
X114994580Y-46049095D01*
X115199412Y-46153462D01*
X115199414Y-46153463D01*
X115401247Y-46219042D01*
X115418048Y-46224501D01*
X115645105Y-46260464D01*
X115645106Y-46260464D01*
X115874992Y-46260464D01*
X115874993Y-46260464D01*
X116102050Y-46224501D01*
X116102053Y-46224500D01*
X116102054Y-46224500D01*
X116320683Y-46153463D01*
X116320683Y-46153462D01*
X116320686Y-46153462D01*
X116525518Y-46049095D01*
X116711501Y-45913971D01*
X116874056Y-45751416D01*
X116929731Y-45674784D01*
X116985060Y-45632120D01*
X117054673Y-45626141D01*
X117116469Y-45658746D01*
X117130363Y-45674780D01*
X117186037Y-45751409D01*
X117186042Y-45751416D01*
X117348598Y-45913972D01*
X117348603Y-45913976D01*
X117429062Y-45972432D01*
X117534580Y-46049095D01*
X117739412Y-46153462D01*
X117739414Y-46153463D01*
X117941247Y-46219042D01*
X117958048Y-46224501D01*
X118185105Y-46260464D01*
X118185106Y-46260464D01*
X118414992Y-46260464D01*
X118414993Y-46260464D01*
X118642050Y-46224501D01*
X118798984Y-46173509D01*
X118868822Y-46171515D01*
X118928655Y-46207595D01*
X118959484Y-46270295D01*
X118961300Y-46291441D01*
X118961300Y-61018102D01*
X118941615Y-61085141D01*
X118924981Y-61105783D01*
X113791858Y-66238905D01*
X113730535Y-66272390D01*
X113665860Y-66269155D01*
X113562053Y-66235427D01*
X113379049Y-66206442D01*
X113334993Y-66199464D01*
X113105105Y-66199464D01*
X113061049Y-66206442D01*
X112878046Y-66235427D01*
X112878043Y-66235427D01*
X112659414Y-66306464D01*
X112454576Y-66410835D01*
X112268603Y-66545951D01*
X112268598Y-66545955D01*
X112106040Y-66708513D01*
X112050057Y-66785568D01*
X111994727Y-66828233D01*
X111925114Y-66834212D01*
X111901278Y-66821635D01*
X111874070Y-66819493D01*
X111244661Y-67448903D01*
X111239160Y-67428373D01*
X111160168Y-67291556D01*
X111048457Y-67179845D01*
X110911640Y-67100853D01*
X110891107Y-67095351D01*
X111520518Y-66465941D01*
X111520517Y-66465939D01*
X111445259Y-66411262D01*
X111240499Y-66306930D01*
X111021933Y-66235914D01*
X110794953Y-66199964D01*
X110565145Y-66199964D01*
X110338164Y-66235914D01*
X110119598Y-66306930D01*
X109914839Y-66411261D01*
X109863274Y-66448725D01*
X109797468Y-66472204D01*
X109729414Y-66456378D01*
X109680720Y-66406272D01*
X109666845Y-66337793D01*
X109668771Y-66324223D01*
X109686338Y-66235914D01*
X109692200Y-66206444D01*
X109692200Y-66048755D01*
X109692199Y-66048753D01*
X109661438Y-65894110D01*
X109661437Y-65894103D01*
X109661435Y-65894098D01*
X109601097Y-65748427D01*
X109601090Y-65748414D01*
X109513489Y-65617311D01*
X109513486Y-65617307D01*
X109401992Y-65505813D01*
X109401988Y-65505810D01*
X109270885Y-65418209D01*
X109270872Y-65418202D01*
X109125201Y-65357864D01*
X109125189Y-65357861D01*
X108970545Y-65327100D01*
X108970542Y-65327100D01*
X108812858Y-65327100D01*
X108812855Y-65327100D01*
X108658210Y-65357861D01*
X108658198Y-65357864D01*
X108512527Y-65418202D01*
X108512514Y-65418209D01*
X108380825Y-65506202D01*
X108362778Y-65511852D01*
X108346869Y-65522077D01*
X108315907Y-65526528D01*
X108314147Y-65527080D01*
X108311934Y-65527100D01*
X108300397Y-65527100D01*
X108233358Y-65507415D01*
X108212716Y-65490781D01*
X106930953Y-64209018D01*
X106897468Y-64147695D01*
X106902452Y-64078003D01*
X106915526Y-64052456D01*
X106996294Y-63931579D01*
X107056637Y-63785897D01*
X107087400Y-63631242D01*
X107087400Y-63473558D01*
X107087400Y-63473555D01*
X107087399Y-63473553D01*
X107056638Y-63318910D01*
X107056637Y-63318903D01*
X107056635Y-63318898D01*
X106996297Y-63173227D01*
X106996290Y-63173214D01*
X106908689Y-63042111D01*
X106908686Y-63042107D01*
X106797192Y-62930613D01*
X106797188Y-62930610D01*
X106666085Y-62843009D01*
X106666072Y-62843002D01*
X106520401Y-62782664D01*
X106520391Y-62782661D01*
X106365051Y-62751762D01*
X106303141Y-62719377D01*
X106301562Y-62717826D01*
X105860119Y-62276383D01*
X105826634Y-62215060D01*
X105823800Y-62188702D01*
X105823800Y-40381579D01*
X105843485Y-40314540D01*
X105896289Y-40268785D01*
X105965447Y-40258841D01*
X105986103Y-40263644D01*
X106062299Y-40288402D01*
X106233389Y-40315500D01*
X106233390Y-40315500D01*
X106406610Y-40315500D01*
X106406611Y-40315500D01*
X106577701Y-40288402D01*
X106742445Y-40234873D01*
X106896788Y-40156232D01*
X107036928Y-40054414D01*
X107159414Y-39931928D01*
X107219682Y-39848975D01*
X107275012Y-39806311D01*
X107344626Y-39800332D01*
X107406421Y-39832938D01*
X107420315Y-39848973D01*
X107480586Y-39931928D01*
X107603072Y-40054414D01*
X107743212Y-40156232D01*
X107897555Y-40234873D01*
X108062299Y-40288402D01*
X108233389Y-40315500D01*
X108233390Y-40315500D01*
X108406610Y-40315500D01*
X108406611Y-40315500D01*
X108577701Y-40288402D01*
X108742445Y-40234873D01*
X108896788Y-40156232D01*
X109036928Y-40054414D01*
X109159414Y-39931928D01*
X109219682Y-39848975D01*
X109275012Y-39806311D01*
X109344626Y-39800332D01*
X109406421Y-39832938D01*
X109420315Y-39848973D01*
X109480586Y-39931928D01*
X109603072Y-40054414D01*
X109743212Y-40156232D01*
X109897555Y-40234873D01*
X110062299Y-40288402D01*
X110233389Y-40315500D01*
X110233390Y-40315500D01*
X110406610Y-40315500D01*
X110406611Y-40315500D01*
X110577701Y-40288402D01*
X110742445Y-40234873D01*
X110896788Y-40156232D01*
X111036928Y-40054414D01*
X111159414Y-39931928D01*
X111219991Y-39848550D01*
X111275321Y-39805885D01*
X111344934Y-39799906D01*
X111406729Y-39832512D01*
X111420628Y-39848551D01*
X111480967Y-39931602D01*
X111603397Y-40054032D01*
X111743475Y-40155804D01*
X111897744Y-40234408D01*
X112062415Y-40287914D01*
X112062414Y-40287914D01*
X112069999Y-40289115D01*
X112070000Y-40289114D01*
X112070000Y-39220330D01*
X112089745Y-39240075D01*
X112175255Y-39289444D01*
X112270630Y-39315000D01*
X112369370Y-39315000D01*
X112464745Y-39289444D01*
X112550255Y-39240075D01*
X112570000Y-39220330D01*
X112570000Y-40289115D01*
X112577584Y-40287914D01*
X112742255Y-40234408D01*
X112896524Y-40155804D01*
X113036602Y-40054032D01*
X113159032Y-39931602D01*
X113260804Y-39791524D01*
X113339408Y-39637257D01*
X113392914Y-39472584D01*
X113420000Y-39301571D01*
X113420000Y-39190000D01*
X112600330Y-39190000D01*
X112620075Y-39170255D01*
X112669444Y-39084745D01*
X112695000Y-38989370D01*
X112695000Y-38890630D01*
X112669444Y-38795255D01*
X112620075Y-38709745D01*
X112600330Y-38690000D01*
X113420000Y-38690000D01*
X113420000Y-38578428D01*
X113392914Y-38407415D01*
X113339408Y-38242742D01*
X113260804Y-38088475D01*
X113159032Y-37948397D01*
X113036602Y-37825967D01*
X112896524Y-37724195D01*
X112742257Y-37645591D01*
X112577589Y-37592087D01*
X112577581Y-37592085D01*
X112570000Y-37590884D01*
X112570000Y-38659670D01*
X112550255Y-38639925D01*
X112464745Y-38590556D01*
X112369370Y-38565000D01*
X112270630Y-38565000D01*
X112175255Y-38590556D01*
X112089745Y-38639925D01*
X112070000Y-38659670D01*
X112070000Y-37590884D01*
X112069999Y-37590884D01*
X112062418Y-37592085D01*
X112062410Y-37592087D01*
X111897742Y-37645591D01*
X111743475Y-37724195D01*
X111603397Y-37825967D01*
X111480965Y-37948399D01*
X111480961Y-37948404D01*
X111420627Y-38031448D01*
X111365297Y-38074114D01*
X111295684Y-38080093D01*
X111233889Y-38047488D01*
X111219991Y-38031449D01*
X111219990Y-38031448D01*
X111159414Y-37948072D01*
X111036928Y-37825586D01*
X110896788Y-37723768D01*
X110742445Y-37645127D01*
X110577701Y-37591598D01*
X110577699Y-37591597D01*
X110577698Y-37591597D01*
X110446271Y-37570781D01*
X110406611Y-37564500D01*
X110233389Y-37564500D01*
X110193728Y-37570781D01*
X110062302Y-37591597D01*
X109897552Y-37645128D01*
X109743211Y-37723768D01*
X109696378Y-37757795D01*
X109603072Y-37825586D01*
X109603070Y-37825588D01*
X109603069Y-37825588D01*
X109480588Y-37948069D01*
X109480581Y-37948078D01*
X109420317Y-38031023D01*
X109364987Y-38073689D01*
X109295374Y-38079667D01*
X109233579Y-38047061D01*
X109219683Y-38031023D01*
X109159655Y-37948404D01*
X109159414Y-37948072D01*
X109036928Y-37825586D01*
X108896788Y-37723768D01*
X108742445Y-37645127D01*
X108577701Y-37591598D01*
X108577699Y-37591597D01*
X108577698Y-37591597D01*
X108446271Y-37570781D01*
X108406611Y-37564500D01*
X108233389Y-37564500D01*
X108193728Y-37570781D01*
X108062302Y-37591597D01*
X107897552Y-37645128D01*
X107743211Y-37723768D01*
X107696378Y-37757795D01*
X107603072Y-37825586D01*
X107603070Y-37825588D01*
X107603069Y-37825588D01*
X107480588Y-37948069D01*
X107480581Y-37948078D01*
X107420317Y-38031023D01*
X107364987Y-38073689D01*
X107295374Y-38079667D01*
X107233579Y-38047061D01*
X107219683Y-38031023D01*
X107159655Y-37948404D01*
X107159414Y-37948072D01*
X107036928Y-37825586D01*
X106896788Y-37723768D01*
X106742445Y-37645127D01*
X106577701Y-37591598D01*
X106577699Y-37591597D01*
X106577698Y-37591597D01*
X106446271Y-37570781D01*
X106406611Y-37564500D01*
X106233389Y-37564500D01*
X106193728Y-37570781D01*
X106062302Y-37591597D01*
X105897552Y-37645128D01*
X105743211Y-37723768D01*
X105696378Y-37757795D01*
X105603072Y-37825586D01*
X105603070Y-37825588D01*
X105603069Y-37825588D01*
X105480588Y-37948069D01*
X105480581Y-37948078D01*
X105420317Y-38031023D01*
X105364987Y-38073689D01*
X105295374Y-38079667D01*
X105233579Y-38047061D01*
X105219683Y-38031023D01*
X105159655Y-37948404D01*
X105159414Y-37948072D01*
X105036928Y-37825586D01*
X104896788Y-37723768D01*
X104742445Y-37645127D01*
X104577701Y-37591598D01*
X104577699Y-37591597D01*
X104577698Y-37591597D01*
X104446271Y-37570781D01*
X104406611Y-37564500D01*
X104233389Y-37564500D01*
X104193728Y-37570781D01*
X104062302Y-37591597D01*
X103897552Y-37645128D01*
X103743211Y-37723768D01*
X103603073Y-37825585D01*
X103495530Y-37933128D01*
X103434207Y-37966612D01*
X103364515Y-37961628D01*
X103308582Y-37919756D01*
X103302310Y-37910543D01*
X103296107Y-37900486D01*
X103262712Y-37846344D01*
X103138656Y-37722288D01*
X103045888Y-37665069D01*
X102989336Y-37630187D01*
X102989331Y-37630185D01*
X102987862Y-37629698D01*
X102822797Y-37575001D01*
X102822795Y-37575000D01*
X102720010Y-37564500D01*
X101919998Y-37564500D01*
X101919980Y-37564501D01*
X101817203Y-37575000D01*
X101817200Y-37575001D01*
X101650668Y-37630185D01*
X101650663Y-37630187D01*
X101501342Y-37722289D01*
X101377289Y-37846342D01*
X101285187Y-37995663D01*
X101285185Y-37995668D01*
X101270103Y-38041183D01*
X101230001Y-38162203D01*
X101230001Y-38162204D01*
X101230000Y-38162204D01*
X101219500Y-38264983D01*
X90794674Y-38264983D01*
X90794678Y-38261697D01*
X90795276Y-37719410D01*
X90795626Y-37402464D01*
X90815385Y-37335447D01*
X90868239Y-37289751D01*
X90918752Y-37278605D01*
X91778711Y-37272578D01*
X91827031Y-37282014D01*
X91887170Y-37306924D01*
X92035581Y-37368398D01*
X92288884Y-37436270D01*
X92548880Y-37470500D01*
X92548887Y-37470500D01*
X92811113Y-37470500D01*
X92811120Y-37470500D01*
X93071116Y-37436270D01*
X93324419Y-37368398D01*
X93563970Y-37269172D01*
X93610541Y-37259738D01*
X95000000Y-37250000D01*
X95000000Y-33624500D01*
X95019685Y-33557461D01*
X95072489Y-33511706D01*
X95124000Y-33500500D01*
X107060833Y-33500500D01*
X183126213Y-33629789D01*
G37*
%TD.AperFunction*%
%TD*%
M02*
