%TF.GenerationSoftware,KiCad,Pcbnew,9.0.2*%
%TF.CreationDate,2025-06-23T12:28:33+02:00*%
%TF.ProjectId,musicbox,6d757369-6362-46f7-982e-6b696361645f,rev?*%
%TF.SameCoordinates,Original*%
%TF.FileFunction,Copper,L2,Bot*%
%TF.FilePolarity,Positive*%
%FSLAX46Y46*%
G04 Gerber Fmt 4.6, Leading zero omitted, Abs format (unit mm)*
G04 Created by KiCad (PCBNEW 9.0.2) date 2025-06-23 12:28:33*
%MOMM*%
%LPD*%
G01*
G04 APERTURE LIST*
G04 Aperture macros list*
%AMRoundRect*
0 Rectangle with rounded corners*
0 $1 Rounding radius*
0 $2 $3 $4 $5 $6 $7 $8 $9 X,Y pos of 4 corners*
0 Add a 4 corners polygon primitive as box body*
4,1,4,$2,$3,$4,$5,$6,$7,$8,$9,$2,$3,0*
0 Add four circle primitives for the rounded corners*
1,1,$1+$1,$2,$3*
1,1,$1+$1,$4,$5*
1,1,$1+$1,$6,$7*
1,1,$1+$1,$8,$9*
0 Add four rect primitives between the rounded corners*
20,1,$1+$1,$2,$3,$4,$5,0*
20,1,$1+$1,$4,$5,$6,$7,0*
20,1,$1+$1,$6,$7,$8,$9,0*
20,1,$1+$1,$8,$9,$2,$3,0*%
G04 Aperture macros list end*
%TA.AperFunction,ComponentPad*%
%ADD10RoundRect,0.250000X-0.350000X-0.625000X0.350000X-0.625000X0.350000X0.625000X-0.350000X0.625000X0*%
%TD*%
%TA.AperFunction,ComponentPad*%
%ADD11O,1.200000X1.750000*%
%TD*%
%TA.AperFunction,ComponentPad*%
%ADD12C,1.920000*%
%TD*%
%TA.AperFunction,ViaPad*%
%ADD13C,0.600000*%
%TD*%
%TA.AperFunction,Conductor*%
%ADD14C,0.200000*%
%TD*%
%TA.AperFunction,Conductor*%
%ADD15C,0.400000*%
%TD*%
G04 APERTURE END LIST*
D10*
%TO.P,BT1Con1,1,Pin_1*%
%TO.N,/BT1*%
X127640000Y-38500000D03*
D11*
%TO.P,BT1Con1,2,Pin_2*%
%TO.N,3V3*%
X129640000Y-38500000D03*
%TD*%
D12*
%TO.P,D32Pro1,1,3V3*%
%TO.N,3V3*%
X150250000Y-48000000D03*
%TO.P,D32Pro1,2,RESET*%
%TO.N,unconnected-(D32Pro1-RESET-Pad2)*%
X147710000Y-48000000D03*
%TO.P,D32Pro1,3,VP/GPIO36*%
%TO.N,unconnected-(D32Pro1-VP{slash}GPIO36-Pad3)*%
X145170000Y-48000000D03*
%TO.P,D32Pro1,4,VN/GPIO39*%
%TO.N,unconnected-(D32Pro1-VN{slash}GPIO39-Pad4)*%
X142630000Y-48000000D03*
%TO.P,D32Pro1,5,GPIO34*%
%TO.N,unconnected-(D32Pro1-GPIO34-Pad5)*%
X140090000Y-48000000D03*
%TO.P,D32Pro1,6,GPIO32*%
%TO.N,/RFID_RST*%
X137550000Y-48000000D03*
%TO.P,D32Pro1,7,GPIO33*%
%TO.N,/RFID_IRQ*%
X135010000Y-48000000D03*
%TO.P,D32Pro1,8,GPIO25*%
%TO.N,/ADR_LED*%
X132470000Y-48000000D03*
%TO.P,D32Pro1,9,GPIO26*%
%TO.N,/I2S_BCK*%
X129930000Y-48000000D03*
%TO.P,D32Pro1,10,GPIO27*%
%TO.N,/I2S_DIN*%
X127390000Y-48000000D03*
%TO.P,D32Pro1,11,GPIO14*%
%TO.N,/I2S_WS*%
X124850000Y-48000000D03*
%TO.P,D32Pro1,12,GPIO12*%
%TO.N,/BT1*%
X122310000Y-48000000D03*
%TO.P,D32Pro1,13,GPIO13*%
%TO.N,/BT2*%
X119770000Y-48000000D03*
%TO.P,D32Pro1,14,EN*%
%TO.N,unconnected-(D32Pro1-EN-Pad14)*%
X117230000Y-48000000D03*
%TO.P,D32Pro1,15,VBUS*%
%TO.N,unconnected-(D32Pro1-VBUS-Pad15)*%
X114690000Y-48000000D03*
%TO.P,D32Pro1,16,VBAT*%
%TO.N,VBAT*%
X112150000Y-48000000D03*
%TO.P,D32Pro1,17,GND*%
%TO.N,GND*%
X150250000Y-73400000D03*
%TO.P,D32Pro1,18,GPIO23*%
%TO.N,/SPI_MOSI*%
X147710000Y-73400000D03*
%TO.P,D32Pro1,19,GPIO22*%
%TO.N,/I2C_SCL*%
X145170000Y-73400000D03*
%TO.P,D32Pro1,20,TXD01/GPIO01*%
%TO.N,unconnected-(D32Pro1-TXD01{slash}GPIO01-Pad20)*%
X142630000Y-73400000D03*
%TO.P,D32Pro1,21,RXD01/GPIO03*%
%TO.N,unconnected-(D32Pro1-RXD01{slash}GPIO03-Pad21)*%
X140090000Y-73400000D03*
%TO.P,D32Pro1,22,GPIO21*%
%TO.N,/I2C_SDA*%
X137550000Y-73400000D03*
%TO.P,D32Pro1,23,GPIO19*%
%TO.N,/SPI_MISO*%
X135010000Y-73400000D03*
%TO.P,D32Pro1,24,GPIO18*%
%TO.N,/SPI_SCK*%
X132470000Y-73400000D03*
%TO.P,D32Pro1,25,GPIO05*%
%TO.N,unconnected-(D32Pro1-GPIO05-Pad25)*%
X129930000Y-73400000D03*
%TO.P,D32Pro1,26,NC1*%
%TO.N,unconnected-(D32Pro1-NC1-Pad26)*%
X127390000Y-73400000D03*
%TO.P,D32Pro1,27,NC2*%
%TO.N,unconnected-(D32Pro1-NC2-Pad27)*%
X124850000Y-73400000D03*
%TO.P,D32Pro1,28,GPIO04*%
%TO.N,/SPI_SS*%
X122310000Y-73400000D03*
%TO.P,D32Pro1,29,GPIO00*%
%TO.N,unconnected-(D32Pro1-GPIO00-Pad29)*%
X119770000Y-73400000D03*
%TO.P,D32Pro1,30,GPIO02*%
%TO.N,unconnected-(D32Pro1-GPIO02-Pad30)*%
X117230000Y-73400000D03*
%TO.P,D32Pro1,31,GPIO15*%
%TO.N,/BT3*%
X114690000Y-73400000D03*
%TO.P,D32Pro1,32,GND*%
%TO.N,GND*%
X112150000Y-73400000D03*
%TD*%
%TO.P,AMP1,1,LRC*%
%TO.N,/I2S_WS*%
X165285000Y-51510000D03*
%TO.P,AMP1,2,BCLK*%
%TO.N,/I2S_BCK*%
X167825000Y-51510000D03*
%TO.P,AMP1,3,DIN*%
%TO.N,/I2S_DIN*%
X170365000Y-51510000D03*
%TO.P,AMP1,4,GAIN*%
%TO.N,GND*%
X172905000Y-51510000D03*
%TO.P,AMP1,5,SD*%
%TO.N,unconnected-(AMP1-SD-Pad5)*%
X175445000Y-51510000D03*
%TO.P,AMP1,6,GND*%
%TO.N,GND*%
X177985000Y-51510000D03*
%TO.P,AMP1,7,VIN*%
%TO.N,VBAT*%
X180525000Y-51510000D03*
%TD*%
D10*
%TO.P,RFIDCon1,1,Pin_1*%
%TO.N,/I2C_SDA*%
X97590000Y-38500000D03*
D11*
%TO.P,RFIDCon1,2,Pin_2*%
%TO.N,/I2C_SCL*%
X99590000Y-38500000D03*
%TO.P,RFIDCon1,3,Pin_3*%
%TO.N,/RFID_IRQ*%
X101590000Y-38500000D03*
%TO.P,RFIDCon1,4,Pin_4*%
%TO.N,/RFID_RST*%
X103590000Y-38500000D03*
%TO.P,RFIDCon1,5,Pin_5*%
%TO.N,3V3*%
X105590000Y-38500000D03*
%TO.P,RFIDCon1,6,Pin_6*%
%TO.N,GND*%
X107590000Y-38500000D03*
%TD*%
D10*
%TO.P,BT3Con1,1,Pin_1*%
%TO.N,/BT3*%
X146350000Y-38500000D03*
D11*
%TO.P,BT3Con1,2,Pin_2*%
%TO.N,3V3*%
X148350000Y-38500000D03*
%TD*%
D10*
%TO.P,NeoPixelCon1,1,Pin_1*%
%TO.N,3V3*%
X115510000Y-38500000D03*
D11*
%TO.P,NeoPixelCon1,2,Pin_2*%
%TO.N,/ADR_LED*%
X117510000Y-38500000D03*
%TO.P,NeoPixelCon1,3,Pin_3*%
%TO.N,GND*%
X119510000Y-38500000D03*
%TD*%
D10*
%TO.P,BT2Con1,1,Pin_1*%
%TO.N,/BT2*%
X137000000Y-38500000D03*
D11*
%TO.P,BT2Con1,2,Pin_2*%
%TO.N,3V3*%
X139000000Y-38500000D03*
%TD*%
D13*
%TO.N,/I2C_SCL*%
X117317000Y-71861900D03*
%TO.N,/RFID_RST*%
X136570100Y-40431800D03*
%TO.N,/I2C_SDA*%
X103329800Y-71978200D03*
%TO.N,/RFID_IRQ*%
X132884800Y-43030200D03*
%TO.N,/ADR_LED*%
X118606400Y-46111800D03*
%TO.N,/BT3*%
X141751300Y-71183800D03*
%TO.N,/BT2*%
X121325300Y-40110000D03*
%TD*%
D14*
%TO.N,/I2C_SCL*%
X99590000Y-38500000D02*
X100491700Y-38500000D01*
X100491700Y-55036600D02*
X100491700Y-38500000D01*
X117317000Y-71861900D02*
X100491700Y-55036600D01*
%TO.N,/RFID_RST*%
X137550000Y-41411700D02*
X137550000Y-48000000D01*
X136570100Y-40431800D02*
X137550000Y-41411700D01*
%TO.N,/I2C_SDA*%
X97590000Y-66238400D02*
X97590000Y-38500000D01*
X103329800Y-71978200D02*
X97590000Y-66238400D01*
%TO.N,/RFID_IRQ*%
X135010000Y-45155400D02*
X132884800Y-43030200D01*
X135010000Y-48000000D02*
X135010000Y-45155400D01*
%TO.N,/ADR_LED*%
X117510000Y-45015400D02*
X117510000Y-38500000D01*
X118606400Y-46111800D02*
X117510000Y-45015400D01*
%TO.N,/BT3*%
X146440000Y-38590000D02*
X146350000Y-38500000D01*
X146440000Y-66495100D02*
X146440000Y-38590000D01*
X141751300Y-71183800D02*
X146440000Y-66495100D01*
%TO.N,/BT2*%
X121325300Y-46444700D02*
X121325300Y-40110000D01*
X119770000Y-48000000D02*
X121325300Y-46444700D01*
%TO.N,/BT1*%
X122310000Y-43830000D02*
X122310000Y-48000000D01*
X127640000Y-38500000D02*
X122310000Y-43830000D01*
D15*
%TO.N,3V3*%
X150250000Y-39198300D02*
X149551700Y-38500000D01*
X150250000Y-48000000D02*
X150250000Y-39198300D01*
X148350000Y-38500000D02*
X149551700Y-38500000D01*
%TO.N,GND*%
X150250000Y-74697800D02*
X150250000Y-73400000D01*
X151212200Y-75660000D02*
X150250000Y-74697800D01*
%TD*%
%TA.AperFunction,Conductor*%
%TO.N,GND*%
G36*
X182642681Y-33619946D02*
G01*
X182688676Y-33672541D01*
X182700118Y-33724448D01*
X182722911Y-57680187D01*
X182703290Y-57747245D01*
X182650530Y-57793050D01*
X182599343Y-57804304D01*
X163124432Y-57872127D01*
X163057324Y-57852676D01*
X163011386Y-57800032D01*
X163000000Y-57748128D01*
X163000000Y-51395056D01*
X163824500Y-51395056D01*
X163824500Y-51624943D01*
X163860463Y-51852002D01*
X163860463Y-51852005D01*
X163931500Y-52070634D01*
X164035871Y-52275472D01*
X164170987Y-52461445D01*
X164170991Y-52461450D01*
X164333549Y-52624008D01*
X164333554Y-52624012D01*
X164443678Y-52704021D01*
X164519531Y-52759131D01*
X164723450Y-52863033D01*
X164724365Y-52863499D01*
X164928294Y-52929759D01*
X164942999Y-52934537D01*
X165170056Y-52970500D01*
X165170057Y-52970500D01*
X165399943Y-52970500D01*
X165399944Y-52970500D01*
X165627001Y-52934537D01*
X165627004Y-52934536D01*
X165627005Y-52934536D01*
X165845634Y-52863499D01*
X165845634Y-52863498D01*
X165845637Y-52863498D01*
X166050469Y-52759131D01*
X166236452Y-52624007D01*
X166399007Y-52461452D01*
X166454682Y-52384820D01*
X166510011Y-52342156D01*
X166579624Y-52336177D01*
X166641420Y-52368782D01*
X166655314Y-52384816D01*
X166710988Y-52461445D01*
X166710993Y-52461452D01*
X166873549Y-52624008D01*
X166873554Y-52624012D01*
X166983678Y-52704021D01*
X167059531Y-52759131D01*
X167263450Y-52863033D01*
X167264365Y-52863499D01*
X167468294Y-52929759D01*
X167482999Y-52934537D01*
X167710056Y-52970500D01*
X167710057Y-52970500D01*
X167939943Y-52970500D01*
X167939944Y-52970500D01*
X168167001Y-52934537D01*
X168167004Y-52934536D01*
X168167005Y-52934536D01*
X168385634Y-52863499D01*
X168385634Y-52863498D01*
X168385637Y-52863498D01*
X168590469Y-52759131D01*
X168776452Y-52624007D01*
X168939007Y-52461452D01*
X168994682Y-52384820D01*
X169050011Y-52342156D01*
X169119624Y-52336177D01*
X169181420Y-52368782D01*
X169195314Y-52384816D01*
X169250988Y-52461445D01*
X169250993Y-52461452D01*
X169413549Y-52624008D01*
X169413554Y-52624012D01*
X169523678Y-52704021D01*
X169599531Y-52759131D01*
X169803450Y-52863033D01*
X169804365Y-52863499D01*
X170008294Y-52929759D01*
X170022999Y-52934537D01*
X170250056Y-52970500D01*
X170250057Y-52970500D01*
X170479943Y-52970500D01*
X170479944Y-52970500D01*
X170707001Y-52934537D01*
X170707004Y-52934536D01*
X170707005Y-52934536D01*
X170925634Y-52863499D01*
X170925634Y-52863498D01*
X170925637Y-52863498D01*
X171130469Y-52759131D01*
X171316452Y-52624007D01*
X171479007Y-52461452D01*
X171534990Y-52384396D01*
X171590318Y-52341732D01*
X171659931Y-52335751D01*
X171683767Y-52348327D01*
X171710977Y-52350469D01*
X172340387Y-51721059D01*
X172345889Y-51741591D01*
X172424881Y-51878408D01*
X172536592Y-51990119D01*
X172673409Y-52069111D01*
X172693939Y-52074612D01*
X172064529Y-52704021D01*
X172139792Y-52758703D01*
X172344549Y-52863033D01*
X172563115Y-52934049D01*
X172790096Y-52970000D01*
X173019904Y-52970000D01*
X173246884Y-52934049D01*
X173465450Y-52863033D01*
X173670206Y-52758704D01*
X173745468Y-52704021D01*
X173745469Y-52704021D01*
X173116059Y-52074612D01*
X173136591Y-52069111D01*
X173273408Y-51990119D01*
X173385119Y-51878408D01*
X173464111Y-51741591D01*
X173469612Y-51721060D01*
X174099021Y-52350469D01*
X174120566Y-52348773D01*
X174129697Y-52341732D01*
X174199311Y-52335750D01*
X174261107Y-52368353D01*
X174275008Y-52384396D01*
X174330987Y-52461445D01*
X174330991Y-52461450D01*
X174493549Y-52624008D01*
X174493554Y-52624012D01*
X174603678Y-52704021D01*
X174679531Y-52759131D01*
X174883450Y-52863033D01*
X174884365Y-52863499D01*
X175088294Y-52929759D01*
X175102999Y-52934537D01*
X175330056Y-52970500D01*
X175330057Y-52970500D01*
X175559943Y-52970500D01*
X175559944Y-52970500D01*
X175787001Y-52934537D01*
X175787004Y-52934536D01*
X175787005Y-52934536D01*
X176005634Y-52863499D01*
X176005634Y-52863498D01*
X176005637Y-52863498D01*
X176210469Y-52759131D01*
X176396452Y-52624007D01*
X176559007Y-52461452D01*
X176614990Y-52384396D01*
X176670318Y-52341732D01*
X176739931Y-52335751D01*
X176763767Y-52348327D01*
X176790977Y-52350469D01*
X177420387Y-51721059D01*
X177425889Y-51741591D01*
X177504881Y-51878408D01*
X177616592Y-51990119D01*
X177753409Y-52069111D01*
X177773939Y-52074612D01*
X177144529Y-52704021D01*
X177219792Y-52758703D01*
X177424549Y-52863033D01*
X177643115Y-52934049D01*
X177870096Y-52970000D01*
X178099904Y-52970000D01*
X178326884Y-52934049D01*
X178545450Y-52863033D01*
X178750206Y-52758704D01*
X178825468Y-52704021D01*
X178825469Y-52704021D01*
X178196059Y-52074612D01*
X178216591Y-52069111D01*
X178353408Y-51990119D01*
X178465119Y-51878408D01*
X178544111Y-51741591D01*
X178549612Y-51721059D01*
X179179021Y-52350469D01*
X179200566Y-52348773D01*
X179209697Y-52341732D01*
X179279311Y-52335750D01*
X179341107Y-52368353D01*
X179355008Y-52384396D01*
X179410987Y-52461445D01*
X179410991Y-52461450D01*
X179573549Y-52624008D01*
X179573554Y-52624012D01*
X179683678Y-52704021D01*
X179759531Y-52759131D01*
X179963450Y-52863033D01*
X179964365Y-52863499D01*
X180168294Y-52929759D01*
X180182999Y-52934537D01*
X180410056Y-52970500D01*
X180410057Y-52970500D01*
X180639943Y-52970500D01*
X180639944Y-52970500D01*
X180867001Y-52934537D01*
X180867004Y-52934536D01*
X180867005Y-52934536D01*
X181085634Y-52863499D01*
X181085634Y-52863498D01*
X181085637Y-52863498D01*
X181290469Y-52759131D01*
X181476452Y-52624007D01*
X181639007Y-52461452D01*
X181774131Y-52275469D01*
X181878498Y-52070637D01*
X181949537Y-51852001D01*
X181985500Y-51624944D01*
X181985500Y-51395056D01*
X181949537Y-51167999D01*
X181949536Y-51167995D01*
X181949536Y-51167994D01*
X181878499Y-50949365D01*
X181878498Y-50949363D01*
X181774131Y-50744531D01*
X181725680Y-50677843D01*
X181639012Y-50558554D01*
X181639008Y-50558549D01*
X181476450Y-50395991D01*
X181476445Y-50395987D01*
X181290472Y-50260871D01*
X181290471Y-50260870D01*
X181290469Y-50260869D01*
X181188053Y-50208685D01*
X181085634Y-50156500D01*
X180867003Y-50085463D01*
X180715629Y-50061487D01*
X180639944Y-50049500D01*
X180410056Y-50049500D01*
X180334370Y-50061487D01*
X180182997Y-50085463D01*
X180182994Y-50085463D01*
X179964365Y-50156500D01*
X179759527Y-50260871D01*
X179573554Y-50395987D01*
X179573549Y-50395991D01*
X179410991Y-50558549D01*
X179355008Y-50635604D01*
X179299678Y-50678269D01*
X179230065Y-50684248D01*
X179206229Y-50671671D01*
X179179021Y-50669529D01*
X178549612Y-51298939D01*
X178544111Y-51278409D01*
X178465119Y-51141592D01*
X178353408Y-51029881D01*
X178216591Y-50950889D01*
X178196058Y-50945387D01*
X178825469Y-50315977D01*
X178825468Y-50315975D01*
X178750210Y-50261298D01*
X178545450Y-50156966D01*
X178326884Y-50085950D01*
X178099904Y-50050000D01*
X177870096Y-50050000D01*
X177643115Y-50085950D01*
X177424549Y-50156966D01*
X177219796Y-50261294D01*
X177144530Y-50315977D01*
X177144530Y-50315978D01*
X177773940Y-50945387D01*
X177753409Y-50950889D01*
X177616592Y-51029881D01*
X177504881Y-51141592D01*
X177425889Y-51278409D01*
X177420387Y-51298940D01*
X176790978Y-50669530D01*
X176769426Y-50671226D01*
X176760292Y-50678270D01*
X176690678Y-50684246D01*
X176628884Y-50651638D01*
X176614991Y-50635604D01*
X176559007Y-50558548D01*
X176396452Y-50395993D01*
X176396450Y-50395991D01*
X176396445Y-50395987D01*
X176210472Y-50260871D01*
X176210471Y-50260870D01*
X176210469Y-50260869D01*
X176108053Y-50208685D01*
X176005634Y-50156500D01*
X175787003Y-50085463D01*
X175635629Y-50061487D01*
X175559944Y-50049500D01*
X175330056Y-50049500D01*
X175254370Y-50061487D01*
X175102997Y-50085463D01*
X175102994Y-50085463D01*
X174884365Y-50156500D01*
X174679527Y-50260871D01*
X174493554Y-50395987D01*
X174493549Y-50395991D01*
X174330991Y-50558549D01*
X174275008Y-50635604D01*
X174219678Y-50678269D01*
X174150065Y-50684248D01*
X174126229Y-50671671D01*
X174099021Y-50669529D01*
X173469612Y-51298939D01*
X173464111Y-51278409D01*
X173385119Y-51141592D01*
X173273408Y-51029881D01*
X173136591Y-50950889D01*
X173116058Y-50945387D01*
X173745469Y-50315977D01*
X173745468Y-50315975D01*
X173670210Y-50261298D01*
X173465450Y-50156966D01*
X173246884Y-50085950D01*
X173019904Y-50050000D01*
X172790096Y-50050000D01*
X172563115Y-50085950D01*
X172344549Y-50156966D01*
X172139796Y-50261294D01*
X172064530Y-50315977D01*
X172064530Y-50315978D01*
X172693940Y-50945387D01*
X172673409Y-50950889D01*
X172536592Y-51029881D01*
X172424881Y-51141592D01*
X172345889Y-51278409D01*
X172340387Y-51298940D01*
X171710978Y-50669530D01*
X171689426Y-50671226D01*
X171680292Y-50678270D01*
X171610678Y-50684246D01*
X171548884Y-50651638D01*
X171534991Y-50635604D01*
X171479007Y-50558548D01*
X171316452Y-50395993D01*
X171316450Y-50395991D01*
X171316445Y-50395987D01*
X171130472Y-50260871D01*
X171130471Y-50260870D01*
X171130469Y-50260869D01*
X171028053Y-50208685D01*
X170925634Y-50156500D01*
X170707003Y-50085463D01*
X170555629Y-50061487D01*
X170479944Y-50049500D01*
X170250056Y-50049500D01*
X170174370Y-50061487D01*
X170022997Y-50085463D01*
X170022994Y-50085463D01*
X169804365Y-50156500D01*
X169599527Y-50260871D01*
X169413554Y-50395987D01*
X169413549Y-50395991D01*
X169250991Y-50558549D01*
X169250987Y-50558554D01*
X169195318Y-50635177D01*
X169139988Y-50677843D01*
X169070375Y-50683822D01*
X169008580Y-50651217D01*
X168994682Y-50635177D01*
X168939012Y-50558554D01*
X168939008Y-50558549D01*
X168776450Y-50395991D01*
X168776445Y-50395987D01*
X168590472Y-50260871D01*
X168590471Y-50260870D01*
X168590469Y-50260869D01*
X168488053Y-50208685D01*
X168385634Y-50156500D01*
X168167003Y-50085463D01*
X168015629Y-50061487D01*
X167939944Y-50049500D01*
X167710056Y-50049500D01*
X167634370Y-50061487D01*
X167482997Y-50085463D01*
X167482994Y-50085463D01*
X167264365Y-50156500D01*
X167059527Y-50260871D01*
X166873554Y-50395987D01*
X166873549Y-50395991D01*
X166710991Y-50558549D01*
X166710987Y-50558554D01*
X166655318Y-50635177D01*
X166599988Y-50677843D01*
X166530375Y-50683822D01*
X166468580Y-50651217D01*
X166454682Y-50635177D01*
X166399012Y-50558554D01*
X166399008Y-50558549D01*
X166236450Y-50395991D01*
X166236445Y-50395987D01*
X166050472Y-50260871D01*
X166050471Y-50260870D01*
X166050469Y-50260869D01*
X165948053Y-50208685D01*
X165845634Y-50156500D01*
X165627003Y-50085463D01*
X165475629Y-50061487D01*
X165399944Y-50049500D01*
X165170056Y-50049500D01*
X165094370Y-50061487D01*
X164942997Y-50085463D01*
X164942994Y-50085463D01*
X164724365Y-50156500D01*
X164519527Y-50260871D01*
X164333554Y-50395987D01*
X164333549Y-50395991D01*
X164170991Y-50558549D01*
X164170987Y-50558554D01*
X164035871Y-50744527D01*
X163931500Y-50949365D01*
X163860463Y-51167994D01*
X163860463Y-51167997D01*
X163824500Y-51395056D01*
X163000000Y-51395056D01*
X163000000Y-49788622D01*
X162999999Y-49788621D01*
X148830000Y-49840000D01*
X148830000Y-72165086D01*
X148810315Y-72232125D01*
X148757511Y-72277880D01*
X148688353Y-72287824D01*
X148633115Y-72265404D01*
X148475472Y-72150871D01*
X148475471Y-72150870D01*
X148475469Y-72150869D01*
X148346229Y-72085018D01*
X148270634Y-72046500D01*
X148052003Y-71975463D01*
X147851745Y-71943745D01*
X147824944Y-71939500D01*
X147595056Y-71939500D01*
X147568255Y-71943745D01*
X147367997Y-71975463D01*
X147367994Y-71975463D01*
X147149365Y-72046500D01*
X146944527Y-72150871D01*
X146758554Y-72285987D01*
X146758549Y-72285991D01*
X146595991Y-72448549D01*
X146595987Y-72448554D01*
X146540318Y-72525177D01*
X146484988Y-72567843D01*
X146415375Y-72573822D01*
X146353580Y-72541217D01*
X146339682Y-72525177D01*
X146284012Y-72448554D01*
X146284008Y-72448549D01*
X146121450Y-72285991D01*
X146121445Y-72285987D01*
X145935472Y-72150871D01*
X145935471Y-72150870D01*
X145935469Y-72150869D01*
X145806229Y-72085018D01*
X145730634Y-72046500D01*
X145512003Y-71975463D01*
X145311745Y-71943745D01*
X145284944Y-71939500D01*
X145055056Y-71939500D01*
X145028255Y-71943745D01*
X144827997Y-71975463D01*
X144827994Y-71975463D01*
X144609365Y-72046500D01*
X144404527Y-72150871D01*
X144218554Y-72285987D01*
X144218549Y-72285991D01*
X144055991Y-72448549D01*
X144055987Y-72448554D01*
X144000318Y-72525177D01*
X143944988Y-72567843D01*
X143875375Y-72573822D01*
X143813580Y-72541217D01*
X143799682Y-72525177D01*
X143744012Y-72448554D01*
X143744008Y-72448549D01*
X143581450Y-72285991D01*
X143581445Y-72285987D01*
X143395472Y-72150871D01*
X143395471Y-72150870D01*
X143395469Y-72150869D01*
X143266229Y-72085018D01*
X143190634Y-72046500D01*
X142972003Y-71975463D01*
X142771745Y-71943745D01*
X142744944Y-71939500D01*
X142515056Y-71939500D01*
X142431710Y-71952701D01*
X142362417Y-71943745D01*
X142308965Y-71898748D01*
X142288326Y-71831997D01*
X142307051Y-71764683D01*
X142324633Y-71742545D01*
X142373086Y-71694092D01*
X142373089Y-71694089D01*
X142460694Y-71562979D01*
X142521037Y-71417297D01*
X142540413Y-71319885D01*
X142551938Y-71261950D01*
X142584323Y-71200039D01*
X142585819Y-71198515D01*
X146808713Y-66975621D01*
X146808716Y-66975620D01*
X146920520Y-66863816D01*
X146970639Y-66777004D01*
X146999577Y-66726885D01*
X147040500Y-66574157D01*
X147040500Y-66416043D01*
X147040500Y-49488797D01*
X147060185Y-49421758D01*
X147112989Y-49376003D01*
X147182147Y-49366059D01*
X147202809Y-49370863D01*
X147323172Y-49409972D01*
X147367998Y-49424537D01*
X147481527Y-49442518D01*
X147595056Y-49460500D01*
X147595057Y-49460500D01*
X147824943Y-49460500D01*
X147824944Y-49460500D01*
X148052001Y-49424537D01*
X148052004Y-49424536D01*
X148052005Y-49424536D01*
X148270634Y-49353499D01*
X148270634Y-49353498D01*
X148270637Y-49353498D01*
X148475469Y-49249131D01*
X148661452Y-49114007D01*
X148824007Y-48951452D01*
X148879682Y-48874820D01*
X148935011Y-48832156D01*
X149004624Y-48826177D01*
X149066420Y-48858782D01*
X149080314Y-48874816D01*
X149135988Y-48951445D01*
X149135993Y-48951452D01*
X149298549Y-49114008D01*
X149298554Y-49114012D01*
X149460769Y-49231867D01*
X149484531Y-49249131D01*
X149689363Y-49353498D01*
X149689365Y-49353499D01*
X149742816Y-49370866D01*
X149907999Y-49424537D01*
X150135056Y-49460500D01*
X150135057Y-49460500D01*
X150364943Y-49460500D01*
X150364944Y-49460500D01*
X150592001Y-49424537D01*
X150592004Y-49424536D01*
X150592005Y-49424536D01*
X150810634Y-49353499D01*
X150810634Y-49353498D01*
X150810637Y-49353498D01*
X151015469Y-49249131D01*
X151201452Y-49114007D01*
X151364007Y-48951452D01*
X151499131Y-48765469D01*
X151603498Y-48560637D01*
X151674537Y-48342001D01*
X151710500Y-48114944D01*
X151710500Y-47885056D01*
X151674537Y-47657999D01*
X151674536Y-47657995D01*
X151674536Y-47657994D01*
X151603499Y-47439365D01*
X151603498Y-47439363D01*
X151499131Y-47234531D01*
X151419681Y-47125177D01*
X151364012Y-47048554D01*
X151364008Y-47048549D01*
X151201450Y-46885991D01*
X151201445Y-46885987D01*
X151015468Y-46750868D01*
X151011317Y-46748324D01*
X151012311Y-46746700D01*
X150967403Y-46704277D01*
X150950500Y-46641778D01*
X150950500Y-39129304D01*
X150923581Y-38993977D01*
X150923580Y-38993976D01*
X150923580Y-38993972D01*
X150923578Y-38993967D01*
X150870778Y-38866495D01*
X150870771Y-38866482D01*
X150794115Y-38751759D01*
X150772611Y-38730255D01*
X150696542Y-38654186D01*
X150591726Y-38549370D01*
X149998246Y-37955888D01*
X149998245Y-37955887D01*
X149883507Y-37879222D01*
X149756032Y-37826421D01*
X149756022Y-37826418D01*
X149620696Y-37799500D01*
X149620694Y-37799500D01*
X149620693Y-37799500D01*
X149444303Y-37799500D01*
X149377264Y-37779815D01*
X149333819Y-37731795D01*
X149291232Y-37648212D01*
X149291230Y-37648209D01*
X149291229Y-37648207D01*
X149249990Y-37591448D01*
X149189414Y-37508072D01*
X149066928Y-37385586D01*
X148926788Y-37283768D01*
X148772445Y-37205127D01*
X148607701Y-37151598D01*
X148607699Y-37151597D01*
X148607698Y-37151597D01*
X148476271Y-37130781D01*
X148436611Y-37124500D01*
X148263389Y-37124500D01*
X148223728Y-37130781D01*
X148092302Y-37151597D01*
X147927552Y-37205128D01*
X147773211Y-37283768D01*
X147633073Y-37385585D01*
X147525530Y-37493128D01*
X147464207Y-37526612D01*
X147394515Y-37521628D01*
X147338582Y-37479756D01*
X147332310Y-37470543D01*
X147292712Y-37406344D01*
X147168656Y-37282288D01*
X147043559Y-37205128D01*
X147019336Y-37190187D01*
X147019331Y-37190185D01*
X147017862Y-37189698D01*
X146852797Y-37135001D01*
X146852795Y-37135000D01*
X146750010Y-37124500D01*
X145949998Y-37124500D01*
X145949980Y-37124501D01*
X145847203Y-37135000D01*
X145847200Y-37135001D01*
X145680668Y-37190185D01*
X145680663Y-37190187D01*
X145531342Y-37282289D01*
X145407289Y-37406342D01*
X145315187Y-37555663D01*
X145315185Y-37555668D01*
X145298155Y-37607061D01*
X145260001Y-37722203D01*
X145260001Y-37722204D01*
X145260000Y-37722204D01*
X145249500Y-37824983D01*
X145249500Y-39175001D01*
X145249501Y-39175018D01*
X145260000Y-39277796D01*
X145260001Y-39277799D01*
X145315185Y-39444331D01*
X145315187Y-39444336D01*
X145344341Y-39491602D01*
X145407288Y-39593656D01*
X145531344Y-39717712D01*
X145680666Y-39809814D01*
X145754504Y-39834281D01*
X145811949Y-39874054D01*
X145838772Y-39938569D01*
X145839500Y-39951987D01*
X145839500Y-46511202D01*
X145819815Y-46578241D01*
X145767011Y-46623996D01*
X145697853Y-46633940D01*
X145677182Y-46629133D01*
X145512003Y-46575463D01*
X145360629Y-46551487D01*
X145284944Y-46539500D01*
X145055056Y-46539500D01*
X144979370Y-46551487D01*
X144827997Y-46575463D01*
X144827994Y-46575463D01*
X144609365Y-46646500D01*
X144404527Y-46750871D01*
X144218554Y-46885987D01*
X144218549Y-46885991D01*
X144055991Y-47048549D01*
X144055987Y-47048554D01*
X144000318Y-47125177D01*
X143944988Y-47167843D01*
X143875375Y-47173822D01*
X143813580Y-47141217D01*
X143799682Y-47125177D01*
X143744012Y-47048554D01*
X143744008Y-47048549D01*
X143581450Y-46885991D01*
X143581445Y-46885987D01*
X143395472Y-46750871D01*
X143395471Y-46750870D01*
X143395469Y-46750869D01*
X143230500Y-46666813D01*
X143190634Y-46646500D01*
X142972003Y-46575463D01*
X142820629Y-46551487D01*
X142744944Y-46539500D01*
X142515056Y-46539500D01*
X142439370Y-46551487D01*
X142287997Y-46575463D01*
X142287994Y-46575463D01*
X142069365Y-46646500D01*
X141864527Y-46750871D01*
X141678554Y-46885987D01*
X141678549Y-46885991D01*
X141515991Y-47048549D01*
X141515987Y-47048554D01*
X141460318Y-47125177D01*
X141404988Y-47167843D01*
X141335375Y-47173822D01*
X141273580Y-47141217D01*
X141259682Y-47125177D01*
X141204012Y-47048554D01*
X141204008Y-47048549D01*
X141041450Y-46885991D01*
X141041445Y-46885987D01*
X140855472Y-46750871D01*
X140855471Y-46750870D01*
X140855469Y-46750869D01*
X140690500Y-46666813D01*
X140650634Y-46646500D01*
X140432003Y-46575463D01*
X140280629Y-46551487D01*
X140204944Y-46539500D01*
X139975056Y-46539500D01*
X139899370Y-46551487D01*
X139747997Y-46575463D01*
X139747994Y-46575463D01*
X139529365Y-46646500D01*
X139324527Y-46750871D01*
X139138554Y-46885987D01*
X139138549Y-46885991D01*
X138975991Y-47048549D01*
X138975987Y-47048554D01*
X138920318Y-47125177D01*
X138864988Y-47167843D01*
X138795375Y-47173822D01*
X138733580Y-47141217D01*
X138719682Y-47125177D01*
X138664012Y-47048554D01*
X138664008Y-47048549D01*
X138501450Y-46885991D01*
X138501445Y-46885987D01*
X138315472Y-46750871D01*
X138315471Y-46750870D01*
X138315469Y-46750869D01*
X138250499Y-46717765D01*
X138218205Y-46701310D01*
X138167409Y-46653335D01*
X138150500Y-46590825D01*
X138150500Y-41500759D01*
X138150501Y-41500746D01*
X138150501Y-41332645D01*
X138150501Y-41332643D01*
X138109577Y-41179915D01*
X138080639Y-41129795D01*
X138030520Y-41042984D01*
X137918716Y-40931180D01*
X137918715Y-40931179D01*
X137914385Y-40926849D01*
X137914374Y-40926839D01*
X137404674Y-40417139D01*
X137371189Y-40355816D01*
X137370738Y-40353649D01*
X137339838Y-40198310D01*
X137339837Y-40198303D01*
X137335918Y-40188842D01*
X137277163Y-40046992D01*
X137279865Y-40045872D01*
X137268086Y-39989749D01*
X137292981Y-39924465D01*
X137349219Y-39883003D01*
X137391702Y-39875499D01*
X137400002Y-39875499D01*
X137400008Y-39875499D01*
X137502797Y-39864999D01*
X137669334Y-39809814D01*
X137818656Y-39717712D01*
X137942712Y-39593656D01*
X137982310Y-39529456D01*
X138034258Y-39482732D01*
X138103220Y-39471509D01*
X138167303Y-39499352D01*
X138175530Y-39506872D01*
X138283072Y-39614414D01*
X138423212Y-39716232D01*
X138577555Y-39794873D01*
X138742299Y-39848402D01*
X138913389Y-39875500D01*
X138913390Y-39875500D01*
X139086610Y-39875500D01*
X139086611Y-39875500D01*
X139257701Y-39848402D01*
X139422445Y-39794873D01*
X139576788Y-39716232D01*
X139716928Y-39614414D01*
X139839414Y-39491928D01*
X139941232Y-39351788D01*
X140019873Y-39197445D01*
X140073402Y-39032701D01*
X140100500Y-38861611D01*
X140100500Y-38138389D01*
X140073402Y-37967299D01*
X140019873Y-37802555D01*
X139941232Y-37648212D01*
X139839414Y-37508072D01*
X139716928Y-37385586D01*
X139576788Y-37283768D01*
X139422445Y-37205127D01*
X139257701Y-37151598D01*
X139257699Y-37151597D01*
X139257698Y-37151597D01*
X139126271Y-37130781D01*
X139086611Y-37124500D01*
X138913389Y-37124500D01*
X138873728Y-37130781D01*
X138742302Y-37151597D01*
X138577552Y-37205128D01*
X138423211Y-37283768D01*
X138283073Y-37385585D01*
X138175530Y-37493128D01*
X138114207Y-37526612D01*
X138044515Y-37521628D01*
X137988582Y-37479756D01*
X137982310Y-37470543D01*
X137942712Y-37406344D01*
X137818656Y-37282288D01*
X137693559Y-37205128D01*
X137669336Y-37190187D01*
X137669331Y-37190185D01*
X137667862Y-37189698D01*
X137502797Y-37135001D01*
X137502795Y-37135000D01*
X137400010Y-37124500D01*
X136599998Y-37124500D01*
X136599980Y-37124501D01*
X136497203Y-37135000D01*
X136497200Y-37135001D01*
X136330668Y-37190185D01*
X136330663Y-37190187D01*
X136181342Y-37282289D01*
X136057289Y-37406342D01*
X135965187Y-37555663D01*
X135965185Y-37555668D01*
X135948155Y-37607061D01*
X135910001Y-37722203D01*
X135910001Y-37722204D01*
X135910000Y-37722204D01*
X135899500Y-37824983D01*
X135899500Y-39175001D01*
X135899501Y-39175018D01*
X135910000Y-39277796D01*
X135910001Y-39277799D01*
X135965185Y-39444331D01*
X135965187Y-39444336D01*
X135994341Y-39491602D01*
X136057287Y-39593655D01*
X136057289Y-39593657D01*
X136081154Y-39617522D01*
X136114639Y-39678845D01*
X136109655Y-39748537D01*
X136067783Y-39804470D01*
X136062371Y-39808300D01*
X136059813Y-39810008D01*
X136059804Y-39810017D01*
X135948313Y-39921507D01*
X135948310Y-39921511D01*
X135860709Y-40052614D01*
X135860702Y-40052627D01*
X135800364Y-40198298D01*
X135800361Y-40198310D01*
X135769600Y-40352953D01*
X135769600Y-40510646D01*
X135800361Y-40665289D01*
X135800364Y-40665301D01*
X135860702Y-40810972D01*
X135860709Y-40810985D01*
X135948310Y-40942088D01*
X135948313Y-40942092D01*
X136059807Y-41053586D01*
X136059811Y-41053589D01*
X136190914Y-41141190D01*
X136190927Y-41141197D01*
X136284400Y-41179914D01*
X136336603Y-41201537D01*
X136401247Y-41214395D01*
X136491949Y-41232438D01*
X136553860Y-41264823D01*
X136555439Y-41266374D01*
X136913181Y-41624116D01*
X136946666Y-41685439D01*
X136949500Y-41711797D01*
X136949500Y-46590825D01*
X136929815Y-46657864D01*
X136881795Y-46701310D01*
X136784527Y-46750871D01*
X136598554Y-46885987D01*
X136598549Y-46885991D01*
X136435991Y-47048549D01*
X136435987Y-47048554D01*
X136380318Y-47125177D01*
X136324988Y-47167843D01*
X136255375Y-47173822D01*
X136193580Y-47141217D01*
X136179682Y-47125177D01*
X136124012Y-47048554D01*
X136124008Y-47048549D01*
X135961450Y-46885991D01*
X135961445Y-46885987D01*
X135775472Y-46750871D01*
X135775471Y-46750870D01*
X135775469Y-46750869D01*
X135710499Y-46717765D01*
X135678205Y-46701310D01*
X135627409Y-46653335D01*
X135610500Y-46590825D01*
X135610500Y-45244460D01*
X135610501Y-45244447D01*
X135610501Y-45076344D01*
X135569576Y-44923614D01*
X135569573Y-44923609D01*
X135490524Y-44786690D01*
X135490518Y-44786682D01*
X133719373Y-43015537D01*
X133685888Y-42954214D01*
X133685437Y-42952047D01*
X133654538Y-42796710D01*
X133654537Y-42796703D01*
X133654535Y-42796698D01*
X133594197Y-42651027D01*
X133594190Y-42651014D01*
X133506589Y-42519911D01*
X133506586Y-42519907D01*
X133395092Y-42408413D01*
X133395088Y-42408410D01*
X133263985Y-42320809D01*
X133263972Y-42320802D01*
X133118301Y-42260464D01*
X133118289Y-42260461D01*
X132963645Y-42229700D01*
X132963642Y-42229700D01*
X132805958Y-42229700D01*
X132805955Y-42229700D01*
X132651310Y-42260461D01*
X132651298Y-42260464D01*
X132505627Y-42320802D01*
X132505614Y-42320809D01*
X132374511Y-42408410D01*
X132374507Y-42408413D01*
X132263013Y-42519907D01*
X132263010Y-42519911D01*
X132175409Y-42651014D01*
X132175402Y-42651027D01*
X132115064Y-42796698D01*
X132115061Y-42796710D01*
X132084300Y-42951353D01*
X132084300Y-43109046D01*
X132115061Y-43263689D01*
X132115064Y-43263701D01*
X132175402Y-43409372D01*
X132175409Y-43409385D01*
X132263010Y-43540488D01*
X132263013Y-43540492D01*
X132374507Y-43651986D01*
X132374511Y-43651989D01*
X132505614Y-43739590D01*
X132505627Y-43739597D01*
X132651298Y-43799935D01*
X132651303Y-43799937D01*
X132715947Y-43812795D01*
X132806649Y-43830838D01*
X132868560Y-43863223D01*
X132870139Y-43864774D01*
X134373181Y-45367816D01*
X134406666Y-45429139D01*
X134409500Y-45455497D01*
X134409500Y-46590825D01*
X134389815Y-46657864D01*
X134341795Y-46701310D01*
X134244527Y-46750871D01*
X134058554Y-46885987D01*
X134058549Y-46885991D01*
X133895991Y-47048549D01*
X133895987Y-47048554D01*
X133840318Y-47125177D01*
X133784988Y-47167843D01*
X133715375Y-47173822D01*
X133653580Y-47141217D01*
X133639682Y-47125177D01*
X133584012Y-47048554D01*
X133584008Y-47048549D01*
X133421450Y-46885991D01*
X133421445Y-46885987D01*
X133235472Y-46750871D01*
X133235471Y-46750870D01*
X133235469Y-46750869D01*
X133070500Y-46666813D01*
X133030634Y-46646500D01*
X132812003Y-46575463D01*
X132660629Y-46551487D01*
X132584944Y-46539500D01*
X132355056Y-46539500D01*
X132279370Y-46551487D01*
X132127997Y-46575463D01*
X132127994Y-46575463D01*
X131909365Y-46646500D01*
X131704527Y-46750871D01*
X131518554Y-46885987D01*
X131518549Y-46885991D01*
X131355991Y-47048549D01*
X131355987Y-47048554D01*
X131300318Y-47125177D01*
X131244988Y-47167843D01*
X131175375Y-47173822D01*
X131113580Y-47141217D01*
X131099682Y-47125177D01*
X131044012Y-47048554D01*
X131044008Y-47048549D01*
X130881450Y-46885991D01*
X130881445Y-46885987D01*
X130695472Y-46750871D01*
X130695471Y-46750870D01*
X130695469Y-46750869D01*
X130530500Y-46666813D01*
X130490634Y-46646500D01*
X130272003Y-46575463D01*
X130120629Y-46551487D01*
X130044944Y-46539500D01*
X129815056Y-46539500D01*
X129739370Y-46551487D01*
X129587997Y-46575463D01*
X129587994Y-46575463D01*
X129369365Y-46646500D01*
X129164527Y-46750871D01*
X128978554Y-46885987D01*
X128978549Y-46885991D01*
X128815991Y-47048549D01*
X128815987Y-47048554D01*
X128760318Y-47125177D01*
X128704988Y-47167843D01*
X128635375Y-47173822D01*
X128573580Y-47141217D01*
X128559682Y-47125177D01*
X128504012Y-47048554D01*
X128504008Y-47048549D01*
X128341450Y-46885991D01*
X128341445Y-46885987D01*
X128155472Y-46750871D01*
X128155471Y-46750870D01*
X128155469Y-46750869D01*
X127990500Y-46666813D01*
X127950634Y-46646500D01*
X127732003Y-46575463D01*
X127580629Y-46551487D01*
X127504944Y-46539500D01*
X127275056Y-46539500D01*
X127199370Y-46551487D01*
X127047997Y-46575463D01*
X127047994Y-46575463D01*
X126829365Y-46646500D01*
X126624527Y-46750871D01*
X126438554Y-46885987D01*
X126438549Y-46885991D01*
X126275991Y-47048549D01*
X126275987Y-47048554D01*
X126220318Y-47125177D01*
X126164988Y-47167843D01*
X126095375Y-47173822D01*
X126033580Y-47141217D01*
X126019682Y-47125177D01*
X125964012Y-47048554D01*
X125964008Y-47048549D01*
X125801450Y-46885991D01*
X125801445Y-46885987D01*
X125615472Y-46750871D01*
X125615471Y-46750870D01*
X125615469Y-46750869D01*
X125450500Y-46666813D01*
X125410634Y-46646500D01*
X125192003Y-46575463D01*
X125040629Y-46551487D01*
X124964944Y-46539500D01*
X124735056Y-46539500D01*
X124659370Y-46551487D01*
X124507997Y-46575463D01*
X124507994Y-46575463D01*
X124289365Y-46646500D01*
X124084527Y-46750871D01*
X123898554Y-46885987D01*
X123898549Y-46885991D01*
X123735991Y-47048549D01*
X123735987Y-47048554D01*
X123680318Y-47125177D01*
X123624988Y-47167843D01*
X123555375Y-47173822D01*
X123493580Y-47141217D01*
X123479682Y-47125177D01*
X123424012Y-47048554D01*
X123424008Y-47048549D01*
X123261450Y-46885991D01*
X123261445Y-46885987D01*
X123075472Y-46750871D01*
X123075471Y-46750870D01*
X123075469Y-46750869D01*
X123010499Y-46717765D01*
X122978205Y-46701310D01*
X122927409Y-46653335D01*
X122910500Y-46590825D01*
X122910500Y-44130096D01*
X122930185Y-44063057D01*
X122946814Y-44042420D01*
X127083773Y-39905460D01*
X127145094Y-39871977D01*
X127184052Y-39869785D01*
X127239991Y-39875500D01*
X128040008Y-39875499D01*
X128040016Y-39875498D01*
X128040019Y-39875498D01*
X128133340Y-39865965D01*
X128142797Y-39864999D01*
X128309334Y-39809814D01*
X128458656Y-39717712D01*
X128582712Y-39593656D01*
X128622310Y-39529456D01*
X128674258Y-39482732D01*
X128743220Y-39471509D01*
X128807303Y-39499352D01*
X128815530Y-39506872D01*
X128923072Y-39614414D01*
X129063212Y-39716232D01*
X129217555Y-39794873D01*
X129382299Y-39848402D01*
X129553389Y-39875500D01*
X129553390Y-39875500D01*
X129726610Y-39875500D01*
X129726611Y-39875500D01*
X129897701Y-39848402D01*
X130062445Y-39794873D01*
X130216788Y-39716232D01*
X130356928Y-39614414D01*
X130479414Y-39491928D01*
X130581232Y-39351788D01*
X130659873Y-39197445D01*
X130713402Y-39032701D01*
X130740500Y-38861611D01*
X130740500Y-38138389D01*
X130713402Y-37967299D01*
X130659873Y-37802555D01*
X130581232Y-37648212D01*
X130479414Y-37508072D01*
X130356928Y-37385586D01*
X130216788Y-37283768D01*
X130062445Y-37205127D01*
X129897701Y-37151598D01*
X129897699Y-37151597D01*
X129897698Y-37151597D01*
X129766271Y-37130781D01*
X129726611Y-37124500D01*
X129553389Y-37124500D01*
X129513728Y-37130781D01*
X129382302Y-37151597D01*
X129217552Y-37205128D01*
X129063211Y-37283768D01*
X128923073Y-37385585D01*
X128815530Y-37493128D01*
X128754207Y-37526612D01*
X128684515Y-37521628D01*
X128628582Y-37479756D01*
X128622310Y-37470543D01*
X128582712Y-37406344D01*
X128458656Y-37282288D01*
X128333559Y-37205128D01*
X128309336Y-37190187D01*
X128309331Y-37190185D01*
X128307862Y-37189698D01*
X128142797Y-37135001D01*
X128142795Y-37135000D01*
X128040010Y-37124500D01*
X127239998Y-37124500D01*
X127239980Y-37124501D01*
X127137203Y-37135000D01*
X127137200Y-37135001D01*
X126970668Y-37190185D01*
X126970663Y-37190187D01*
X126821342Y-37282289D01*
X126697289Y-37406342D01*
X126605187Y-37555663D01*
X126605185Y-37555668D01*
X126588155Y-37607061D01*
X126550001Y-37722203D01*
X126550001Y-37722204D01*
X126550000Y-37722204D01*
X126539500Y-37824983D01*
X126539500Y-38699902D01*
X126519815Y-38766941D01*
X126503181Y-38787583D01*
X122137481Y-43153283D01*
X122076158Y-43186768D01*
X122006466Y-43181784D01*
X121950533Y-43139912D01*
X121926116Y-43074448D01*
X121925800Y-43065602D01*
X121925800Y-40689765D01*
X121945485Y-40622726D01*
X121946698Y-40620874D01*
X122034690Y-40489185D01*
X122034690Y-40489184D01*
X122034694Y-40489179D01*
X122095037Y-40343497D01*
X122125800Y-40188842D01*
X122125800Y-40031158D01*
X122125800Y-40031155D01*
X122125799Y-40031153D01*
X122104577Y-39924465D01*
X122095037Y-39876503D01*
X122089951Y-39864224D01*
X122034697Y-39730827D01*
X122034690Y-39730814D01*
X121947089Y-39599711D01*
X121947086Y-39599707D01*
X121835592Y-39488213D01*
X121835588Y-39488210D01*
X121704485Y-39400609D01*
X121704472Y-39400602D01*
X121558801Y-39340264D01*
X121558789Y-39340261D01*
X121404145Y-39309500D01*
X121404142Y-39309500D01*
X121246458Y-39309500D01*
X121246455Y-39309500D01*
X121091810Y-39340261D01*
X121091798Y-39340264D01*
X120946127Y-39400602D01*
X120946114Y-39400609D01*
X120815011Y-39488210D01*
X120815007Y-39488213D01*
X120703513Y-39599707D01*
X120703510Y-39599711D01*
X120615909Y-39730814D01*
X120615902Y-39730827D01*
X120555564Y-39876498D01*
X120555561Y-39876510D01*
X120524800Y-40031153D01*
X120524800Y-40188846D01*
X120555561Y-40343489D01*
X120555564Y-40343501D01*
X120615902Y-40489172D01*
X120615909Y-40489185D01*
X120703902Y-40620874D01*
X120724780Y-40687551D01*
X120724800Y-40689765D01*
X120724800Y-46144602D01*
X120705115Y-46211641D01*
X120688481Y-46232283D01*
X120341818Y-46578945D01*
X120280495Y-46612430D01*
X120215820Y-46609195D01*
X120112002Y-46575463D01*
X120111997Y-46575462D01*
X119953464Y-46550352D01*
X119884944Y-46539500D01*
X119655056Y-46539500D01*
X119614725Y-46545887D01*
X119489156Y-46565776D01*
X119419862Y-46556821D01*
X119366410Y-46511825D01*
X119345771Y-46445074D01*
X119355197Y-46395850D01*
X119376137Y-46345297D01*
X119406900Y-46190642D01*
X119406900Y-46032958D01*
X119406900Y-46032955D01*
X119406899Y-46032953D01*
X119376138Y-45878310D01*
X119376137Y-45878303D01*
X119376135Y-45878298D01*
X119315797Y-45732627D01*
X119315790Y-45732614D01*
X119228189Y-45601511D01*
X119228186Y-45601507D01*
X119116692Y-45490013D01*
X119116688Y-45490010D01*
X118985585Y-45402409D01*
X118985572Y-45402402D01*
X118839901Y-45342064D01*
X118839891Y-45342061D01*
X118684551Y-45311162D01*
X118622641Y-45278777D01*
X118621062Y-45277226D01*
X118146819Y-44802983D01*
X118113334Y-44741660D01*
X118110500Y-44715302D01*
X118110500Y-39762184D01*
X118130185Y-39695145D01*
X118161609Y-39661870D01*
X118226928Y-39614414D01*
X118349414Y-39491928D01*
X118409991Y-39408550D01*
X118465321Y-39365885D01*
X118534934Y-39359906D01*
X118596729Y-39392512D01*
X118610628Y-39408551D01*
X118670967Y-39491602D01*
X118793397Y-39614032D01*
X118933475Y-39715804D01*
X119087744Y-39794408D01*
X119252415Y-39847914D01*
X119252414Y-39847914D01*
X119259999Y-39849115D01*
X119260000Y-39849114D01*
X119260000Y-38780330D01*
X119279745Y-38800075D01*
X119365255Y-38849444D01*
X119460630Y-38875000D01*
X119559370Y-38875000D01*
X119654745Y-38849444D01*
X119740255Y-38800075D01*
X119760000Y-38780330D01*
X119760000Y-39849115D01*
X119767584Y-39847914D01*
X119932255Y-39794408D01*
X120086524Y-39715804D01*
X120226602Y-39614032D01*
X120349032Y-39491602D01*
X120450804Y-39351524D01*
X120529408Y-39197257D01*
X120582914Y-39032584D01*
X120610000Y-38861571D01*
X120610000Y-38750000D01*
X119790330Y-38750000D01*
X119810075Y-38730255D01*
X119859444Y-38644745D01*
X119885000Y-38549370D01*
X119885000Y-38450630D01*
X119859444Y-38355255D01*
X119810075Y-38269745D01*
X119790330Y-38250000D01*
X120610000Y-38250000D01*
X120610000Y-38138428D01*
X120582914Y-37967415D01*
X120529408Y-37802742D01*
X120450804Y-37648475D01*
X120349032Y-37508397D01*
X120226602Y-37385967D01*
X120086524Y-37284195D01*
X119932257Y-37205591D01*
X119767589Y-37152087D01*
X119767581Y-37152085D01*
X119760000Y-37150884D01*
X119760000Y-38219670D01*
X119740255Y-38199925D01*
X119654745Y-38150556D01*
X119559370Y-38125000D01*
X119460630Y-38125000D01*
X119365255Y-38150556D01*
X119279745Y-38199925D01*
X119260000Y-38219670D01*
X119260000Y-37150884D01*
X119259999Y-37150884D01*
X119252418Y-37152085D01*
X119252410Y-37152087D01*
X119087742Y-37205591D01*
X118933475Y-37284195D01*
X118793397Y-37385967D01*
X118670965Y-37508399D01*
X118670961Y-37508404D01*
X118610627Y-37591448D01*
X118555297Y-37634114D01*
X118485684Y-37640093D01*
X118423889Y-37607488D01*
X118409991Y-37591449D01*
X118409990Y-37591448D01*
X118349414Y-37508072D01*
X118226928Y-37385586D01*
X118086788Y-37283768D01*
X117932445Y-37205127D01*
X117767701Y-37151598D01*
X117767699Y-37151597D01*
X117767698Y-37151597D01*
X117636271Y-37130781D01*
X117596611Y-37124500D01*
X117423389Y-37124500D01*
X117383728Y-37130781D01*
X117252302Y-37151597D01*
X117087552Y-37205128D01*
X116933211Y-37283768D01*
X116793073Y-37385585D01*
X116685530Y-37493128D01*
X116624207Y-37526612D01*
X116554515Y-37521628D01*
X116498582Y-37479756D01*
X116492310Y-37470543D01*
X116452712Y-37406344D01*
X116328656Y-37282288D01*
X116203559Y-37205128D01*
X116179336Y-37190187D01*
X116179331Y-37190185D01*
X116177862Y-37189698D01*
X116012797Y-37135001D01*
X116012795Y-37135000D01*
X115910010Y-37124500D01*
X115109998Y-37124500D01*
X115109980Y-37124501D01*
X115007203Y-37135000D01*
X115007200Y-37135001D01*
X114840668Y-37190185D01*
X114840663Y-37190187D01*
X114691342Y-37282289D01*
X114567289Y-37406342D01*
X114475187Y-37555663D01*
X114475185Y-37555668D01*
X114458155Y-37607061D01*
X114420001Y-37722203D01*
X114420001Y-37722204D01*
X114420000Y-37722204D01*
X114409500Y-37824983D01*
X114409500Y-39175001D01*
X114409501Y-39175018D01*
X114420000Y-39277796D01*
X114420001Y-39277799D01*
X114475185Y-39444331D01*
X114475187Y-39444336D01*
X114504341Y-39491602D01*
X114567288Y-39593656D01*
X114691344Y-39717712D01*
X114840666Y-39809814D01*
X115007203Y-39864999D01*
X115109991Y-39875500D01*
X115910008Y-39875499D01*
X115910016Y-39875498D01*
X115910019Y-39875498D01*
X116003340Y-39865965D01*
X116012797Y-39864999D01*
X116179334Y-39809814D01*
X116328656Y-39717712D01*
X116452712Y-39593656D01*
X116492310Y-39529456D01*
X116544258Y-39482732D01*
X116613220Y-39471509D01*
X116677303Y-39499352D01*
X116685530Y-39506872D01*
X116793072Y-39614414D01*
X116858388Y-39661868D01*
X116901051Y-39717195D01*
X116909500Y-39762184D01*
X116909500Y-44928730D01*
X116909499Y-44928748D01*
X116909499Y-45094454D01*
X116909498Y-45094454D01*
X116950423Y-45247185D01*
X116979358Y-45297300D01*
X116979359Y-45297304D01*
X116979360Y-45297304D01*
X117029479Y-45384114D01*
X117029481Y-45384117D01*
X117148349Y-45502985D01*
X117148355Y-45502990D01*
X117771825Y-46126460D01*
X117805310Y-46187783D01*
X117805761Y-46189949D01*
X117836661Y-46345291D01*
X117836664Y-46345301D01*
X117885052Y-46462122D01*
X117892521Y-46531592D01*
X117861245Y-46594071D01*
X117801156Y-46629722D01*
X117732173Y-46627505D01*
X117572004Y-46575463D01*
X117401708Y-46548490D01*
X117344944Y-46539500D01*
X117115056Y-46539500D01*
X117039370Y-46551487D01*
X116887997Y-46575463D01*
X116887994Y-46575463D01*
X116669365Y-46646500D01*
X116464527Y-46750871D01*
X116278554Y-46885987D01*
X116278549Y-46885991D01*
X116115991Y-47048549D01*
X116115987Y-47048554D01*
X116060318Y-47125177D01*
X116004988Y-47167843D01*
X115935375Y-47173822D01*
X115873580Y-47141217D01*
X115859682Y-47125177D01*
X115804012Y-47048554D01*
X115804008Y-47048549D01*
X115641450Y-46885991D01*
X115641445Y-46885987D01*
X115455472Y-46750871D01*
X115455471Y-46750870D01*
X115455469Y-46750869D01*
X115290500Y-46666813D01*
X115250634Y-46646500D01*
X115032003Y-46575463D01*
X114880629Y-46551487D01*
X114804944Y-46539500D01*
X114575056Y-46539500D01*
X114499370Y-46551487D01*
X114347997Y-46575463D01*
X114347994Y-46575463D01*
X114129365Y-46646500D01*
X113924527Y-46750871D01*
X113738554Y-46885987D01*
X113738549Y-46885991D01*
X113575991Y-47048549D01*
X113575987Y-47048554D01*
X113520318Y-47125177D01*
X113464988Y-47167843D01*
X113395375Y-47173822D01*
X113333580Y-47141217D01*
X113319682Y-47125177D01*
X113264012Y-47048554D01*
X113264008Y-47048549D01*
X113101450Y-46885991D01*
X113101445Y-46885987D01*
X112915472Y-46750871D01*
X112915471Y-46750870D01*
X112915469Y-46750869D01*
X112750500Y-46666813D01*
X112710634Y-46646500D01*
X112492003Y-46575463D01*
X112340629Y-46551487D01*
X112264944Y-46539500D01*
X112035056Y-46539500D01*
X111959370Y-46551487D01*
X111807997Y-46575463D01*
X111807994Y-46575463D01*
X111589365Y-46646500D01*
X111384527Y-46750871D01*
X111198554Y-46885987D01*
X111198549Y-46885991D01*
X111035991Y-47048549D01*
X111035987Y-47048554D01*
X110900871Y-47234527D01*
X110796500Y-47439365D01*
X110725463Y-47657994D01*
X110725463Y-47657997D01*
X110689500Y-47885056D01*
X110689500Y-48114943D01*
X110725463Y-48342002D01*
X110725463Y-48342005D01*
X110796500Y-48560634D01*
X110900871Y-48765472D01*
X111035987Y-48951445D01*
X111035991Y-48951450D01*
X111198549Y-49114008D01*
X111198554Y-49114012D01*
X111360769Y-49231867D01*
X111384531Y-49249131D01*
X111589363Y-49353498D01*
X111589365Y-49353499D01*
X111642816Y-49370866D01*
X111807999Y-49424537D01*
X112035056Y-49460500D01*
X112035057Y-49460500D01*
X112264943Y-49460500D01*
X112264944Y-49460500D01*
X112492001Y-49424537D01*
X112492004Y-49424536D01*
X112492005Y-49424536D01*
X112710634Y-49353499D01*
X112710634Y-49353498D01*
X112710637Y-49353498D01*
X112915469Y-49249131D01*
X113101452Y-49114007D01*
X113264007Y-48951452D01*
X113319682Y-48874820D01*
X113375011Y-48832156D01*
X113444624Y-48826177D01*
X113506420Y-48858782D01*
X113520314Y-48874816D01*
X113575988Y-48951445D01*
X113575993Y-48951452D01*
X113738549Y-49114008D01*
X113738554Y-49114012D01*
X113900769Y-49231867D01*
X113924531Y-49249131D01*
X114129363Y-49353498D01*
X114129365Y-49353499D01*
X114182816Y-49370866D01*
X114347999Y-49424537D01*
X114575056Y-49460500D01*
X114575057Y-49460500D01*
X114804943Y-49460500D01*
X114804944Y-49460500D01*
X115032001Y-49424537D01*
X115032004Y-49424536D01*
X115032005Y-49424536D01*
X115250634Y-49353499D01*
X115250634Y-49353498D01*
X115250637Y-49353498D01*
X115455469Y-49249131D01*
X115641452Y-49114007D01*
X115804007Y-48951452D01*
X115859682Y-48874820D01*
X115915011Y-48832156D01*
X115984624Y-48826177D01*
X116046420Y-48858782D01*
X116060314Y-48874816D01*
X116115988Y-48951445D01*
X116115993Y-48951452D01*
X116278549Y-49114008D01*
X116278554Y-49114012D01*
X116440769Y-49231867D01*
X116464531Y-49249131D01*
X116669363Y-49353498D01*
X116669365Y-49353499D01*
X116722816Y-49370866D01*
X116887999Y-49424537D01*
X117115056Y-49460500D01*
X117115057Y-49460500D01*
X117344943Y-49460500D01*
X117344944Y-49460500D01*
X117572001Y-49424537D01*
X117572004Y-49424536D01*
X117572005Y-49424536D01*
X117790634Y-49353499D01*
X117790634Y-49353498D01*
X117790637Y-49353498D01*
X117995469Y-49249131D01*
X118181452Y-49114007D01*
X118344007Y-48951452D01*
X118399682Y-48874820D01*
X118455011Y-48832156D01*
X118524624Y-48826177D01*
X118586420Y-48858782D01*
X118600314Y-48874816D01*
X118655988Y-48951445D01*
X118655993Y-48951452D01*
X118818549Y-49114008D01*
X118818554Y-49114012D01*
X118980769Y-49231867D01*
X119004531Y-49249131D01*
X119209363Y-49353498D01*
X119209365Y-49353499D01*
X119262816Y-49370866D01*
X119427999Y-49424537D01*
X119655056Y-49460500D01*
X119655057Y-49460500D01*
X119884943Y-49460500D01*
X119884944Y-49460500D01*
X120112001Y-49424537D01*
X120112004Y-49424536D01*
X120112005Y-49424536D01*
X120330634Y-49353499D01*
X120330634Y-49353498D01*
X120330637Y-49353498D01*
X120535469Y-49249131D01*
X120721452Y-49114007D01*
X120884007Y-48951452D01*
X120939682Y-48874820D01*
X120995011Y-48832156D01*
X121064624Y-48826177D01*
X121126420Y-48858782D01*
X121140314Y-48874816D01*
X121195988Y-48951445D01*
X121195993Y-48951452D01*
X121358549Y-49114008D01*
X121358554Y-49114012D01*
X121520769Y-49231867D01*
X121544531Y-49249131D01*
X121749363Y-49353498D01*
X121749365Y-49353499D01*
X121802816Y-49370866D01*
X121967999Y-49424537D01*
X122195056Y-49460500D01*
X122195057Y-49460500D01*
X122424943Y-49460500D01*
X122424944Y-49460500D01*
X122652001Y-49424537D01*
X122652004Y-49424536D01*
X122652005Y-49424536D01*
X122870634Y-49353499D01*
X122870634Y-49353498D01*
X122870637Y-49353498D01*
X123075469Y-49249131D01*
X123261452Y-49114007D01*
X123424007Y-48951452D01*
X123479682Y-48874820D01*
X123535011Y-48832156D01*
X123604624Y-48826177D01*
X123666420Y-48858782D01*
X123680314Y-48874816D01*
X123735988Y-48951445D01*
X123735993Y-48951452D01*
X123898549Y-49114008D01*
X123898554Y-49114012D01*
X124060769Y-49231867D01*
X124084531Y-49249131D01*
X124289363Y-49353498D01*
X124289365Y-49353499D01*
X124342816Y-49370866D01*
X124507999Y-49424537D01*
X124735056Y-49460500D01*
X124735057Y-49460500D01*
X124964943Y-49460500D01*
X124964944Y-49460500D01*
X125192001Y-49424537D01*
X125192004Y-49424536D01*
X125192005Y-49424536D01*
X125410634Y-49353499D01*
X125410634Y-49353498D01*
X125410637Y-49353498D01*
X125615469Y-49249131D01*
X125801452Y-49114007D01*
X125964007Y-48951452D01*
X126019682Y-48874820D01*
X126075011Y-48832156D01*
X126144624Y-48826177D01*
X126206420Y-48858782D01*
X126220314Y-48874816D01*
X126275988Y-48951445D01*
X126275993Y-48951452D01*
X126438549Y-49114008D01*
X126438554Y-49114012D01*
X126600769Y-49231867D01*
X126624531Y-49249131D01*
X126829363Y-49353498D01*
X126829365Y-49353499D01*
X126882816Y-49370866D01*
X127047999Y-49424537D01*
X127275056Y-49460500D01*
X127275057Y-49460500D01*
X127504943Y-49460500D01*
X127504944Y-49460500D01*
X127732001Y-49424537D01*
X127732004Y-49424536D01*
X127732005Y-49424536D01*
X127950634Y-49353499D01*
X127950634Y-49353498D01*
X127950637Y-49353498D01*
X128155469Y-49249131D01*
X128341452Y-49114007D01*
X128504007Y-48951452D01*
X128559682Y-48874820D01*
X128615011Y-48832156D01*
X128684624Y-48826177D01*
X128746420Y-48858782D01*
X128760314Y-48874816D01*
X128815988Y-48951445D01*
X128815993Y-48951452D01*
X128978549Y-49114008D01*
X128978554Y-49114012D01*
X129140769Y-49231867D01*
X129164531Y-49249131D01*
X129369363Y-49353498D01*
X129369365Y-49353499D01*
X129422816Y-49370866D01*
X129587999Y-49424537D01*
X129815056Y-49460500D01*
X129815057Y-49460500D01*
X130044943Y-49460500D01*
X130044944Y-49460500D01*
X130272001Y-49424537D01*
X130272004Y-49424536D01*
X130272005Y-49424536D01*
X130490634Y-49353499D01*
X130490634Y-49353498D01*
X130490637Y-49353498D01*
X130695469Y-49249131D01*
X130881452Y-49114007D01*
X131044007Y-48951452D01*
X131099682Y-48874820D01*
X131155011Y-48832156D01*
X131224624Y-48826177D01*
X131286420Y-48858782D01*
X131300314Y-48874816D01*
X131355988Y-48951445D01*
X131355993Y-48951452D01*
X131518549Y-49114008D01*
X131518554Y-49114012D01*
X131680769Y-49231867D01*
X131704531Y-49249131D01*
X131909363Y-49353498D01*
X131909365Y-49353499D01*
X131962816Y-49370866D01*
X132127999Y-49424537D01*
X132355056Y-49460500D01*
X132355057Y-49460500D01*
X132584943Y-49460500D01*
X132584944Y-49460500D01*
X132812001Y-49424537D01*
X132812004Y-49424536D01*
X132812005Y-49424536D01*
X133030634Y-49353499D01*
X133030634Y-49353498D01*
X133030637Y-49353498D01*
X133235469Y-49249131D01*
X133421452Y-49114007D01*
X133584007Y-48951452D01*
X133639682Y-48874820D01*
X133695011Y-48832156D01*
X133764624Y-48826177D01*
X133826420Y-48858782D01*
X133840314Y-48874816D01*
X133895988Y-48951445D01*
X133895993Y-48951452D01*
X134058549Y-49114008D01*
X134058554Y-49114012D01*
X134220769Y-49231867D01*
X134244531Y-49249131D01*
X134449363Y-49353498D01*
X134449365Y-49353499D01*
X134502816Y-49370866D01*
X134667999Y-49424537D01*
X134895056Y-49460500D01*
X134895057Y-49460500D01*
X135124943Y-49460500D01*
X135124944Y-49460500D01*
X135352001Y-49424537D01*
X135352004Y-49424536D01*
X135352005Y-49424536D01*
X135570634Y-49353499D01*
X135570634Y-49353498D01*
X135570637Y-49353498D01*
X135775469Y-49249131D01*
X135961452Y-49114007D01*
X136124007Y-48951452D01*
X136179682Y-48874820D01*
X136235011Y-48832156D01*
X136304624Y-48826177D01*
X136366420Y-48858782D01*
X136380314Y-48874816D01*
X136435988Y-48951445D01*
X136435993Y-48951452D01*
X136598549Y-49114008D01*
X136598554Y-49114012D01*
X136760769Y-49231867D01*
X136784531Y-49249131D01*
X136989363Y-49353498D01*
X136989365Y-49353499D01*
X137042816Y-49370866D01*
X137207999Y-49424537D01*
X137435056Y-49460500D01*
X137435057Y-49460500D01*
X137664943Y-49460500D01*
X137664944Y-49460500D01*
X137892001Y-49424537D01*
X137892004Y-49424536D01*
X137892005Y-49424536D01*
X138110634Y-49353499D01*
X138110634Y-49353498D01*
X138110637Y-49353498D01*
X138315469Y-49249131D01*
X138501452Y-49114007D01*
X138664007Y-48951452D01*
X138719682Y-48874820D01*
X138775011Y-48832156D01*
X138844624Y-48826177D01*
X138906420Y-48858782D01*
X138920314Y-48874816D01*
X138975988Y-48951445D01*
X138975993Y-48951452D01*
X139138549Y-49114008D01*
X139138554Y-49114012D01*
X139300769Y-49231867D01*
X139324531Y-49249131D01*
X139529363Y-49353498D01*
X139529365Y-49353499D01*
X139582816Y-49370866D01*
X139747999Y-49424537D01*
X139975056Y-49460500D01*
X139975057Y-49460500D01*
X140204943Y-49460500D01*
X140204944Y-49460500D01*
X140432001Y-49424537D01*
X140432004Y-49424536D01*
X140432005Y-49424536D01*
X140650634Y-49353499D01*
X140650634Y-49353498D01*
X140650637Y-49353498D01*
X140855469Y-49249131D01*
X141041452Y-49114007D01*
X141204007Y-48951452D01*
X141259682Y-48874820D01*
X141315011Y-48832156D01*
X141384624Y-48826177D01*
X141446420Y-48858782D01*
X141460314Y-48874816D01*
X141515988Y-48951445D01*
X141515993Y-48951452D01*
X141678549Y-49114008D01*
X141678554Y-49114012D01*
X141840769Y-49231867D01*
X141864531Y-49249131D01*
X142069363Y-49353498D01*
X142069365Y-49353499D01*
X142122816Y-49370866D01*
X142287999Y-49424537D01*
X142515056Y-49460500D01*
X142515057Y-49460500D01*
X142744943Y-49460500D01*
X142744944Y-49460500D01*
X142972001Y-49424537D01*
X142972004Y-49424536D01*
X142972005Y-49424536D01*
X143190634Y-49353499D01*
X143190634Y-49353498D01*
X143190637Y-49353498D01*
X143395469Y-49249131D01*
X143581452Y-49114007D01*
X143744007Y-48951452D01*
X143799682Y-48874820D01*
X143855011Y-48832156D01*
X143924624Y-48826177D01*
X143986420Y-48858782D01*
X144000314Y-48874816D01*
X144055988Y-48951445D01*
X144055993Y-48951452D01*
X144218549Y-49114008D01*
X144218554Y-49114012D01*
X144380769Y-49231867D01*
X144404531Y-49249131D01*
X144609363Y-49353498D01*
X144609365Y-49353499D01*
X144662816Y-49370866D01*
X144827999Y-49424537D01*
X145055056Y-49460500D01*
X145055057Y-49460500D01*
X145284943Y-49460500D01*
X145284944Y-49460500D01*
X145512001Y-49424537D01*
X145677183Y-49370865D01*
X145747022Y-49368871D01*
X145806855Y-49404951D01*
X145837684Y-49467652D01*
X145839500Y-49488797D01*
X145839500Y-66195003D01*
X145819815Y-66262042D01*
X145803181Y-66282684D01*
X141736639Y-70349225D01*
X141675316Y-70382710D01*
X141673150Y-70383161D01*
X141517808Y-70414061D01*
X141517798Y-70414064D01*
X141372127Y-70474402D01*
X141372114Y-70474409D01*
X141241011Y-70562010D01*
X141241007Y-70562013D01*
X141129513Y-70673507D01*
X141129510Y-70673511D01*
X141041909Y-70804614D01*
X141041902Y-70804627D01*
X140981564Y-70950298D01*
X140981561Y-70950310D01*
X140950800Y-71104953D01*
X140950800Y-71262646D01*
X140981561Y-71417289D01*
X140981564Y-71417301D01*
X141041902Y-71562972D01*
X141041909Y-71562985D01*
X141129510Y-71694088D01*
X141129513Y-71694092D01*
X141241007Y-71805586D01*
X141241011Y-71805589D01*
X141372114Y-71893190D01*
X141372127Y-71893197D01*
X141515785Y-71952701D01*
X141517803Y-71953537D01*
X141672453Y-71984299D01*
X141672456Y-71984300D01*
X141712160Y-71984300D01*
X141779199Y-72003985D01*
X141824954Y-72056789D01*
X141834898Y-72125947D01*
X141805873Y-72189503D01*
X141785045Y-72208618D01*
X141678554Y-72285987D01*
X141678549Y-72285991D01*
X141515991Y-72448549D01*
X141515987Y-72448554D01*
X141460318Y-72525177D01*
X141404988Y-72567843D01*
X141335375Y-72573822D01*
X141273580Y-72541217D01*
X141259682Y-72525177D01*
X141204012Y-72448554D01*
X141204008Y-72448549D01*
X141041450Y-72285991D01*
X141041445Y-72285987D01*
X140855472Y-72150871D01*
X140855471Y-72150870D01*
X140855469Y-72150869D01*
X140726229Y-72085018D01*
X140650634Y-72046500D01*
X140432003Y-71975463D01*
X140231745Y-71943745D01*
X140204944Y-71939500D01*
X139975056Y-71939500D01*
X139948255Y-71943745D01*
X139747997Y-71975463D01*
X139747994Y-71975463D01*
X139529365Y-72046500D01*
X139324527Y-72150871D01*
X139138554Y-72285987D01*
X139138549Y-72285991D01*
X138975991Y-72448549D01*
X138975987Y-72448554D01*
X138920318Y-72525177D01*
X138864988Y-72567843D01*
X138795375Y-72573822D01*
X138733580Y-72541217D01*
X138719682Y-72525177D01*
X138664012Y-72448554D01*
X138664008Y-72448549D01*
X138501450Y-72285991D01*
X138501445Y-72285987D01*
X138315472Y-72150871D01*
X138315471Y-72150870D01*
X138315469Y-72150869D01*
X138186229Y-72085018D01*
X138110634Y-72046500D01*
X137892003Y-71975463D01*
X137691745Y-71943745D01*
X137664944Y-71939500D01*
X137435056Y-71939500D01*
X137408255Y-71943745D01*
X137207997Y-71975463D01*
X137207994Y-71975463D01*
X136989365Y-72046500D01*
X136784527Y-72150871D01*
X136598554Y-72285987D01*
X136598549Y-72285991D01*
X136435991Y-72448549D01*
X136435987Y-72448554D01*
X136380318Y-72525177D01*
X136324988Y-72567843D01*
X136255375Y-72573822D01*
X136193580Y-72541217D01*
X136179682Y-72525177D01*
X136124012Y-72448554D01*
X136124008Y-72448549D01*
X135961450Y-72285991D01*
X135961445Y-72285987D01*
X135775472Y-72150871D01*
X135775471Y-72150870D01*
X135775469Y-72150869D01*
X135646229Y-72085018D01*
X135570634Y-72046500D01*
X135352003Y-71975463D01*
X135151745Y-71943745D01*
X135124944Y-71939500D01*
X134895056Y-71939500D01*
X134868255Y-71943745D01*
X134667997Y-71975463D01*
X134667994Y-71975463D01*
X134449365Y-72046500D01*
X134244527Y-72150871D01*
X134058554Y-72285987D01*
X134058549Y-72285991D01*
X133895991Y-72448549D01*
X133895987Y-72448554D01*
X133840318Y-72525177D01*
X133784988Y-72567843D01*
X133715375Y-72573822D01*
X133653580Y-72541217D01*
X133639682Y-72525177D01*
X133584012Y-72448554D01*
X133584008Y-72448549D01*
X133421450Y-72285991D01*
X133421445Y-72285987D01*
X133235472Y-72150871D01*
X133235471Y-72150870D01*
X133235469Y-72150869D01*
X133106229Y-72085018D01*
X133030634Y-72046500D01*
X132812003Y-71975463D01*
X132611745Y-71943745D01*
X132584944Y-71939500D01*
X132355056Y-71939500D01*
X132328255Y-71943745D01*
X132127997Y-71975463D01*
X132127994Y-71975463D01*
X131909365Y-72046500D01*
X131704527Y-72150871D01*
X131518554Y-72285987D01*
X131518549Y-72285991D01*
X131355991Y-72448549D01*
X131355987Y-72448554D01*
X131300318Y-72525177D01*
X131244988Y-72567843D01*
X131175375Y-72573822D01*
X131113580Y-72541217D01*
X131099682Y-72525177D01*
X131044012Y-72448554D01*
X131044008Y-72448549D01*
X130881450Y-72285991D01*
X130881445Y-72285987D01*
X130695472Y-72150871D01*
X130695471Y-72150870D01*
X130695469Y-72150869D01*
X130566229Y-72085018D01*
X130490634Y-72046500D01*
X130272003Y-71975463D01*
X130071745Y-71943745D01*
X130044944Y-71939500D01*
X129815056Y-71939500D01*
X129788255Y-71943745D01*
X129587997Y-71975463D01*
X129587994Y-71975463D01*
X129369365Y-72046500D01*
X129164527Y-72150871D01*
X128978554Y-72285987D01*
X128978549Y-72285991D01*
X128815991Y-72448549D01*
X128815987Y-72448554D01*
X128760318Y-72525177D01*
X128704988Y-72567843D01*
X128635375Y-72573822D01*
X128573580Y-72541217D01*
X128559682Y-72525177D01*
X128504012Y-72448554D01*
X128504008Y-72448549D01*
X128341450Y-72285991D01*
X128341445Y-72285987D01*
X128155472Y-72150871D01*
X128155471Y-72150870D01*
X128155469Y-72150869D01*
X128026229Y-72085018D01*
X127950634Y-72046500D01*
X127732003Y-71975463D01*
X127531745Y-71943745D01*
X127504944Y-71939500D01*
X127275056Y-71939500D01*
X127248255Y-71943745D01*
X127047997Y-71975463D01*
X127047994Y-71975463D01*
X126829365Y-72046500D01*
X126624527Y-72150871D01*
X126438554Y-72285987D01*
X126438549Y-72285991D01*
X126275991Y-72448549D01*
X126275987Y-72448554D01*
X126220318Y-72525177D01*
X126164988Y-72567843D01*
X126095375Y-72573822D01*
X126033580Y-72541217D01*
X126019682Y-72525177D01*
X125964012Y-72448554D01*
X125964008Y-72448549D01*
X125801450Y-72285991D01*
X125801445Y-72285987D01*
X125615472Y-72150871D01*
X125615471Y-72150870D01*
X125615469Y-72150869D01*
X125486229Y-72085018D01*
X125410634Y-72046500D01*
X125192003Y-71975463D01*
X124991745Y-71943745D01*
X124964944Y-71939500D01*
X124735056Y-71939500D01*
X124708255Y-71943745D01*
X124507997Y-71975463D01*
X124507994Y-71975463D01*
X124289365Y-72046500D01*
X124084527Y-72150871D01*
X123898554Y-72285987D01*
X123898549Y-72285991D01*
X123735991Y-72448549D01*
X123735987Y-72448554D01*
X123680318Y-72525177D01*
X123624988Y-72567843D01*
X123555375Y-72573822D01*
X123493580Y-72541217D01*
X123479682Y-72525177D01*
X123424012Y-72448554D01*
X123424008Y-72448549D01*
X123261450Y-72285991D01*
X123261445Y-72285987D01*
X123075472Y-72150871D01*
X123075471Y-72150870D01*
X123075469Y-72150869D01*
X122946229Y-72085018D01*
X122870634Y-72046500D01*
X122652003Y-71975463D01*
X122451745Y-71943745D01*
X122424944Y-71939500D01*
X122195056Y-71939500D01*
X122168255Y-71943745D01*
X121967997Y-71975463D01*
X121967994Y-71975463D01*
X121749365Y-72046500D01*
X121544527Y-72150871D01*
X121358554Y-72285987D01*
X121358549Y-72285991D01*
X121195991Y-72448549D01*
X121195987Y-72448554D01*
X121140318Y-72525177D01*
X121084988Y-72567843D01*
X121015375Y-72573822D01*
X120953580Y-72541217D01*
X120939682Y-72525177D01*
X120884012Y-72448554D01*
X120884008Y-72448549D01*
X120721450Y-72285991D01*
X120721445Y-72285987D01*
X120535472Y-72150871D01*
X120535471Y-72150870D01*
X120535469Y-72150869D01*
X120406229Y-72085018D01*
X120330634Y-72046500D01*
X120112003Y-71975463D01*
X119911745Y-71943745D01*
X119884944Y-71939500D01*
X119655056Y-71939500D01*
X119628255Y-71943745D01*
X119427997Y-71975463D01*
X119427994Y-71975463D01*
X119209365Y-72046500D01*
X119004527Y-72150871D01*
X118818554Y-72285987D01*
X118818549Y-72285991D01*
X118655991Y-72448549D01*
X118655987Y-72448554D01*
X118600318Y-72525177D01*
X118544988Y-72567843D01*
X118475375Y-72573822D01*
X118413580Y-72541217D01*
X118399682Y-72525177D01*
X118344012Y-72448554D01*
X118344008Y-72448549D01*
X118181454Y-72285995D01*
X118181448Y-72285990D01*
X118127046Y-72246465D01*
X118084380Y-72191136D01*
X118078401Y-72121522D01*
X118085371Y-72098693D01*
X118086737Y-72095397D01*
X118117500Y-71940742D01*
X118117500Y-71783058D01*
X118117500Y-71783055D01*
X118117499Y-71783053D01*
X118099803Y-71694089D01*
X118086737Y-71628403D01*
X118059635Y-71562972D01*
X118026397Y-71482727D01*
X118026390Y-71482714D01*
X117938789Y-71351611D01*
X117938786Y-71351607D01*
X117827292Y-71240113D01*
X117827288Y-71240110D01*
X117696185Y-71152509D01*
X117696172Y-71152502D01*
X117550501Y-71092164D01*
X117550491Y-71092161D01*
X117395149Y-71061261D01*
X117333238Y-71028876D01*
X117331660Y-71027325D01*
X101128519Y-54824184D01*
X101095034Y-54762861D01*
X101092200Y-54736503D01*
X101092200Y-39941059D01*
X101111885Y-39874020D01*
X101164689Y-39828265D01*
X101233847Y-39818321D01*
X101254502Y-39823124D01*
X101332299Y-39848402D01*
X101503389Y-39875500D01*
X101503390Y-39875500D01*
X101676610Y-39875500D01*
X101676611Y-39875500D01*
X101847701Y-39848402D01*
X102012445Y-39794873D01*
X102166788Y-39716232D01*
X102306928Y-39614414D01*
X102429414Y-39491928D01*
X102489682Y-39408975D01*
X102545012Y-39366311D01*
X102614626Y-39360332D01*
X102676421Y-39392938D01*
X102690315Y-39408973D01*
X102750586Y-39491928D01*
X102873072Y-39614414D01*
X103013212Y-39716232D01*
X103167555Y-39794873D01*
X103332299Y-39848402D01*
X103503389Y-39875500D01*
X103503390Y-39875500D01*
X103676610Y-39875500D01*
X103676611Y-39875500D01*
X103847701Y-39848402D01*
X104012445Y-39794873D01*
X104166788Y-39716232D01*
X104306928Y-39614414D01*
X104429414Y-39491928D01*
X104489682Y-39408975D01*
X104545012Y-39366311D01*
X104614626Y-39360332D01*
X104676421Y-39392938D01*
X104690315Y-39408973D01*
X104750586Y-39491928D01*
X104873072Y-39614414D01*
X105013212Y-39716232D01*
X105167555Y-39794873D01*
X105332299Y-39848402D01*
X105503389Y-39875500D01*
X105503390Y-39875500D01*
X105676610Y-39875500D01*
X105676611Y-39875500D01*
X105847701Y-39848402D01*
X106012445Y-39794873D01*
X106166788Y-39716232D01*
X106306928Y-39614414D01*
X106429414Y-39491928D01*
X106489991Y-39408550D01*
X106545321Y-39365885D01*
X106614934Y-39359906D01*
X106676729Y-39392512D01*
X106690628Y-39408551D01*
X106750967Y-39491602D01*
X106873397Y-39614032D01*
X107013475Y-39715804D01*
X107167744Y-39794408D01*
X107332415Y-39847914D01*
X107332414Y-39847914D01*
X107339999Y-39849115D01*
X107340000Y-39849114D01*
X107340000Y-38780330D01*
X107359745Y-38800075D01*
X107445255Y-38849444D01*
X107540630Y-38875000D01*
X107639370Y-38875000D01*
X107734745Y-38849444D01*
X107820255Y-38800075D01*
X107840000Y-38780330D01*
X107840000Y-39849115D01*
X107847584Y-39847914D01*
X108012255Y-39794408D01*
X108166524Y-39715804D01*
X108306602Y-39614032D01*
X108429032Y-39491602D01*
X108530804Y-39351524D01*
X108609408Y-39197257D01*
X108662914Y-39032584D01*
X108690000Y-38861571D01*
X108690000Y-38750000D01*
X107870330Y-38750000D01*
X107890075Y-38730255D01*
X107939444Y-38644745D01*
X107965000Y-38549370D01*
X107965000Y-38450630D01*
X107939444Y-38355255D01*
X107890075Y-38269745D01*
X107870330Y-38250000D01*
X108690000Y-38250000D01*
X108690000Y-38138428D01*
X108662914Y-37967415D01*
X108609408Y-37802742D01*
X108530804Y-37648475D01*
X108429032Y-37508397D01*
X108306602Y-37385967D01*
X108166524Y-37284195D01*
X108012257Y-37205591D01*
X107847589Y-37152087D01*
X107847581Y-37152085D01*
X107840000Y-37150884D01*
X107840000Y-38219670D01*
X107820255Y-38199925D01*
X107734745Y-38150556D01*
X107639370Y-38125000D01*
X107540630Y-38125000D01*
X107445255Y-38150556D01*
X107359745Y-38199925D01*
X107340000Y-38219670D01*
X107340000Y-37150884D01*
X107339999Y-37150884D01*
X107332418Y-37152085D01*
X107332410Y-37152087D01*
X107167742Y-37205591D01*
X107013475Y-37284195D01*
X106873397Y-37385967D01*
X106750965Y-37508399D01*
X106750961Y-37508404D01*
X106690627Y-37591448D01*
X106635297Y-37634114D01*
X106565684Y-37640093D01*
X106503889Y-37607488D01*
X106489991Y-37591449D01*
X106489990Y-37591448D01*
X106429414Y-37508072D01*
X106306928Y-37385586D01*
X106166788Y-37283768D01*
X106012445Y-37205127D01*
X105847701Y-37151598D01*
X105847699Y-37151597D01*
X105847698Y-37151597D01*
X105716271Y-37130781D01*
X105676611Y-37124500D01*
X105503389Y-37124500D01*
X105463728Y-37130781D01*
X105332302Y-37151597D01*
X105167552Y-37205128D01*
X105013211Y-37283768D01*
X104933256Y-37341859D01*
X104873072Y-37385586D01*
X104873070Y-37385588D01*
X104873069Y-37385588D01*
X104750588Y-37508069D01*
X104750581Y-37508078D01*
X104690317Y-37591023D01*
X104634987Y-37633689D01*
X104565374Y-37639667D01*
X104503579Y-37607061D01*
X104489683Y-37591023D01*
X104429655Y-37508404D01*
X104429414Y-37508072D01*
X104306928Y-37385586D01*
X104166788Y-37283768D01*
X104012445Y-37205127D01*
X103847701Y-37151598D01*
X103847699Y-37151597D01*
X103847698Y-37151597D01*
X103716271Y-37130781D01*
X103676611Y-37124500D01*
X103503389Y-37124500D01*
X103463728Y-37130781D01*
X103332302Y-37151597D01*
X103167552Y-37205128D01*
X103013211Y-37283768D01*
X102933256Y-37341859D01*
X102873072Y-37385586D01*
X102873070Y-37385588D01*
X102873069Y-37385588D01*
X102750588Y-37508069D01*
X102750581Y-37508078D01*
X102690317Y-37591023D01*
X102634987Y-37633689D01*
X102565374Y-37639667D01*
X102503579Y-37607061D01*
X102489683Y-37591023D01*
X102429655Y-37508404D01*
X102429414Y-37508072D01*
X102306928Y-37385586D01*
X102166788Y-37283768D01*
X102012445Y-37205127D01*
X101847701Y-37151598D01*
X101847699Y-37151597D01*
X101847698Y-37151597D01*
X101716271Y-37130781D01*
X101676611Y-37124500D01*
X101503389Y-37124500D01*
X101463728Y-37130781D01*
X101332302Y-37151597D01*
X101167552Y-37205128D01*
X101013211Y-37283768D01*
X100933256Y-37341859D01*
X100873072Y-37385586D01*
X100873070Y-37385588D01*
X100873069Y-37385588D01*
X100750588Y-37508069D01*
X100750581Y-37508078D01*
X100690317Y-37591023D01*
X100634987Y-37633689D01*
X100565374Y-37639667D01*
X100503579Y-37607061D01*
X100489683Y-37591023D01*
X100429655Y-37508404D01*
X100429414Y-37508072D01*
X100306928Y-37385586D01*
X100166788Y-37283768D01*
X100012445Y-37205127D01*
X99847701Y-37151598D01*
X99847699Y-37151597D01*
X99847698Y-37151597D01*
X99716271Y-37130781D01*
X99676611Y-37124500D01*
X99503389Y-37124500D01*
X99463728Y-37130781D01*
X99332302Y-37151597D01*
X99167552Y-37205128D01*
X99013211Y-37283768D01*
X98873073Y-37385585D01*
X98765530Y-37493128D01*
X98704207Y-37526612D01*
X98634515Y-37521628D01*
X98578582Y-37479756D01*
X98572310Y-37470543D01*
X98532712Y-37406344D01*
X98408656Y-37282288D01*
X98283559Y-37205128D01*
X98259336Y-37190187D01*
X98259331Y-37190185D01*
X98257862Y-37189698D01*
X98092797Y-37135001D01*
X98092795Y-37135000D01*
X97990010Y-37124500D01*
X97189998Y-37124500D01*
X97189980Y-37124501D01*
X97087203Y-37135000D01*
X97087200Y-37135001D01*
X96920668Y-37190185D01*
X96920663Y-37190187D01*
X96771342Y-37282289D01*
X96647289Y-37406342D01*
X96555187Y-37555663D01*
X96555185Y-37555668D01*
X96538155Y-37607061D01*
X96500001Y-37722203D01*
X96500001Y-37722204D01*
X96500000Y-37722204D01*
X96489500Y-37824983D01*
X96489500Y-39175001D01*
X96489501Y-39175018D01*
X96500000Y-39277796D01*
X96500001Y-39277799D01*
X96555185Y-39444331D01*
X96555187Y-39444336D01*
X96584341Y-39491602D01*
X96647288Y-39593656D01*
X96771344Y-39717712D01*
X96920666Y-39809814D01*
X96920667Y-39809814D01*
X96926813Y-39813605D01*
X96925706Y-39815399D01*
X96970337Y-39854687D01*
X96989500Y-39920908D01*
X96989500Y-66151730D01*
X96989499Y-66151748D01*
X96989499Y-66317454D01*
X96989498Y-66317454D01*
X97030423Y-66470185D01*
X97059358Y-66520300D01*
X97059359Y-66520304D01*
X97059360Y-66520304D01*
X97090451Y-66574157D01*
X97109479Y-66607114D01*
X97109481Y-66607117D01*
X97228349Y-66725985D01*
X97228355Y-66725990D01*
X102495225Y-71992860D01*
X102528710Y-72054183D01*
X102529161Y-72056349D01*
X102560061Y-72211691D01*
X102560064Y-72211701D01*
X102620402Y-72357372D01*
X102620409Y-72357385D01*
X102708010Y-72488488D01*
X102708013Y-72488492D01*
X102819507Y-72599986D01*
X102819511Y-72599989D01*
X102950614Y-72687590D01*
X102950627Y-72687597D01*
X103096298Y-72747935D01*
X103096303Y-72747937D01*
X103250953Y-72778699D01*
X103250956Y-72778700D01*
X103250958Y-72778700D01*
X103408644Y-72778700D01*
X103408645Y-72778699D01*
X103563297Y-72747937D01*
X103708979Y-72687594D01*
X103840089Y-72599989D01*
X103951589Y-72488489D01*
X104039194Y-72357379D01*
X104099537Y-72211697D01*
X104130300Y-72057042D01*
X104130300Y-71899358D01*
X104130300Y-71899355D01*
X104130299Y-71899353D01*
X104107166Y-71783058D01*
X104099537Y-71744703D01*
X104098643Y-71742545D01*
X104039197Y-71599027D01*
X104039190Y-71599014D01*
X103951589Y-71467911D01*
X103951586Y-71467907D01*
X103840092Y-71356413D01*
X103840088Y-71356410D01*
X103708985Y-71268809D01*
X103708972Y-71268802D01*
X103563301Y-71208464D01*
X103563291Y-71208461D01*
X103407949Y-71177561D01*
X103346038Y-71145176D01*
X103344460Y-71143625D01*
X98226819Y-66025984D01*
X98193334Y-65964661D01*
X98190500Y-65938303D01*
X98190500Y-39920908D01*
X98210185Y-39853869D01*
X98254271Y-39815363D01*
X98253187Y-39813605D01*
X98259332Y-39809814D01*
X98259334Y-39809814D01*
X98408656Y-39717712D01*
X98532712Y-39593656D01*
X98572310Y-39529456D01*
X98624258Y-39482732D01*
X98693220Y-39471509D01*
X98757303Y-39499352D01*
X98765530Y-39506872D01*
X98873072Y-39614414D01*
X99013212Y-39716232D01*
X99167555Y-39794873D01*
X99332299Y-39848402D01*
X99503389Y-39875500D01*
X99503390Y-39875500D01*
X99676610Y-39875500D01*
X99676611Y-39875500D01*
X99747803Y-39864224D01*
X99817095Y-39873178D01*
X99870547Y-39918174D01*
X99891187Y-39984926D01*
X99891200Y-39986697D01*
X99891200Y-54949930D01*
X99891199Y-54949948D01*
X99891199Y-55115654D01*
X99891198Y-55115654D01*
X99932123Y-55268385D01*
X99961058Y-55318500D01*
X99961059Y-55318504D01*
X99961060Y-55318504D01*
X100011179Y-55405314D01*
X100011181Y-55405317D01*
X100130049Y-55524185D01*
X100130055Y-55524190D01*
X116482425Y-71876560D01*
X116491487Y-71893155D01*
X116504619Y-71906765D01*
X116515025Y-71936262D01*
X116515910Y-71937883D01*
X116516361Y-71940049D01*
X116531355Y-72015426D01*
X116525128Y-72085018D01*
X116482266Y-72140195D01*
X116466045Y-72150096D01*
X116464537Y-72150864D01*
X116464531Y-72150868D01*
X116278554Y-72285987D01*
X116278549Y-72285991D01*
X116115991Y-72448549D01*
X116115987Y-72448554D01*
X116060318Y-72525177D01*
X116004988Y-72567843D01*
X115935375Y-72573822D01*
X115873580Y-72541217D01*
X115859682Y-72525177D01*
X115804012Y-72448554D01*
X115804008Y-72448549D01*
X115641450Y-72285991D01*
X115641445Y-72285987D01*
X115455472Y-72150871D01*
X115455471Y-72150870D01*
X115455469Y-72150869D01*
X115326229Y-72085018D01*
X115250634Y-72046500D01*
X115032003Y-71975463D01*
X114831745Y-71943745D01*
X114804944Y-71939500D01*
X114575056Y-71939500D01*
X114548255Y-71943745D01*
X114347997Y-71975463D01*
X114347994Y-71975463D01*
X114129365Y-72046500D01*
X113924527Y-72150871D01*
X113738554Y-72285987D01*
X113738549Y-72285991D01*
X113575991Y-72448549D01*
X113520008Y-72525604D01*
X113464678Y-72568269D01*
X113395065Y-72574248D01*
X113371229Y-72561671D01*
X113344021Y-72559529D01*
X112714612Y-73188939D01*
X112709111Y-73168409D01*
X112630119Y-73031592D01*
X112518408Y-72919881D01*
X112381591Y-72840889D01*
X112361058Y-72835387D01*
X112990469Y-72205977D01*
X112990468Y-72205975D01*
X112915210Y-72151298D01*
X112710450Y-72046966D01*
X112491884Y-71975950D01*
X112264904Y-71940000D01*
X112035096Y-71940000D01*
X111808115Y-71975950D01*
X111589549Y-72046966D01*
X111384796Y-72151294D01*
X111309530Y-72205977D01*
X111309530Y-72205978D01*
X111938940Y-72835387D01*
X111918409Y-72840889D01*
X111781592Y-72919881D01*
X111669881Y-73031592D01*
X111590889Y-73168409D01*
X111585387Y-73188940D01*
X110955978Y-72559530D01*
X110955977Y-72559530D01*
X110901294Y-72634796D01*
X110796966Y-72839549D01*
X110725950Y-73058115D01*
X110690000Y-73285095D01*
X110690000Y-73514904D01*
X110725950Y-73741884D01*
X110796966Y-73960450D01*
X110901298Y-74165210D01*
X110955975Y-74240468D01*
X110955977Y-74240469D01*
X111585387Y-73611059D01*
X111590889Y-73631591D01*
X111669881Y-73768408D01*
X111781592Y-73880119D01*
X111918409Y-73959111D01*
X111938939Y-73964612D01*
X111309529Y-74594021D01*
X111384792Y-74648703D01*
X111589549Y-74753033D01*
X111808115Y-74824049D01*
X112035096Y-74860000D01*
X112264904Y-74860000D01*
X112491884Y-74824049D01*
X112710450Y-74753033D01*
X112915206Y-74648704D01*
X112990468Y-74594021D01*
X112990469Y-74594021D01*
X112361059Y-73964612D01*
X112381591Y-73959111D01*
X112518408Y-73880119D01*
X112630119Y-73768408D01*
X112709111Y-73631591D01*
X112714612Y-73611060D01*
X113344021Y-74240469D01*
X113365566Y-74238773D01*
X113374697Y-74231732D01*
X113444311Y-74225750D01*
X113506107Y-74258353D01*
X113520008Y-74274396D01*
X113575987Y-74351445D01*
X113575991Y-74351450D01*
X113738549Y-74514008D01*
X113738554Y-74514012D01*
X113848678Y-74594021D01*
X113924531Y-74649131D01*
X114128450Y-74753033D01*
X114129365Y-74753499D01*
X114333294Y-74819759D01*
X114347999Y-74824537D01*
X114575056Y-74860500D01*
X114575057Y-74860500D01*
X114804943Y-74860500D01*
X114804944Y-74860500D01*
X115032001Y-74824537D01*
X115032004Y-74824536D01*
X115032005Y-74824536D01*
X115250634Y-74753499D01*
X115250634Y-74753498D01*
X115250637Y-74753498D01*
X115455469Y-74649131D01*
X115641452Y-74514007D01*
X115804007Y-74351452D01*
X115859682Y-74274820D01*
X115915011Y-74232156D01*
X115984624Y-74226177D01*
X116046420Y-74258782D01*
X116060314Y-74274816D01*
X116115988Y-74351445D01*
X116115993Y-74351452D01*
X116278549Y-74514008D01*
X116278554Y-74514012D01*
X116388678Y-74594021D01*
X116464531Y-74649131D01*
X116668450Y-74753033D01*
X116669365Y-74753499D01*
X116873294Y-74819759D01*
X116887999Y-74824537D01*
X117115056Y-74860500D01*
X117115057Y-74860500D01*
X117344943Y-74860500D01*
X117344944Y-74860500D01*
X117572001Y-74824537D01*
X117572004Y-74824536D01*
X117572005Y-74824536D01*
X117790634Y-74753499D01*
X117790634Y-74753498D01*
X117790637Y-74753498D01*
X117995469Y-74649131D01*
X118181452Y-74514007D01*
X118344007Y-74351452D01*
X118399682Y-74274820D01*
X118455011Y-74232156D01*
X118524624Y-74226177D01*
X118586420Y-74258782D01*
X118600314Y-74274816D01*
X118655988Y-74351445D01*
X118655993Y-74351452D01*
X118818549Y-74514008D01*
X118818554Y-74514012D01*
X118928678Y-74594021D01*
X119004531Y-74649131D01*
X119208450Y-74753033D01*
X119209365Y-74753499D01*
X119413294Y-74819759D01*
X119427999Y-74824537D01*
X119655056Y-74860500D01*
X119655057Y-74860500D01*
X119884943Y-74860500D01*
X119884944Y-74860500D01*
X120112001Y-74824537D01*
X120112004Y-74824536D01*
X120112005Y-74824536D01*
X120330634Y-74753499D01*
X120330634Y-74753498D01*
X120330637Y-74753498D01*
X120535469Y-74649131D01*
X120721452Y-74514007D01*
X120884007Y-74351452D01*
X120939682Y-74274820D01*
X120995011Y-74232156D01*
X121064624Y-74226177D01*
X121126420Y-74258782D01*
X121140314Y-74274816D01*
X121195988Y-74351445D01*
X121195993Y-74351452D01*
X121358549Y-74514008D01*
X121358554Y-74514012D01*
X121468678Y-74594021D01*
X121544531Y-74649131D01*
X121748450Y-74753033D01*
X121749365Y-74753499D01*
X121953294Y-74819759D01*
X121967999Y-74824537D01*
X122195056Y-74860500D01*
X122195057Y-74860500D01*
X122424943Y-74860500D01*
X122424944Y-74860500D01*
X122652001Y-74824537D01*
X122652004Y-74824536D01*
X122652005Y-74824536D01*
X122870634Y-74753499D01*
X122870634Y-74753498D01*
X122870637Y-74753498D01*
X123075469Y-74649131D01*
X123261452Y-74514007D01*
X123424007Y-74351452D01*
X123479682Y-74274820D01*
X123535011Y-74232156D01*
X123604624Y-74226177D01*
X123666420Y-74258782D01*
X123680314Y-74274816D01*
X123735988Y-74351445D01*
X123735993Y-74351452D01*
X123898549Y-74514008D01*
X123898554Y-74514012D01*
X124008678Y-74594021D01*
X124084531Y-74649131D01*
X124288450Y-74753033D01*
X124289365Y-74753499D01*
X124493294Y-74819759D01*
X124507999Y-74824537D01*
X124735056Y-74860500D01*
X124735057Y-74860500D01*
X124964943Y-74860500D01*
X124964944Y-74860500D01*
X125192001Y-74824537D01*
X125192004Y-74824536D01*
X125192005Y-74824536D01*
X125410634Y-74753499D01*
X125410634Y-74753498D01*
X125410637Y-74753498D01*
X125615469Y-74649131D01*
X125801452Y-74514007D01*
X125964007Y-74351452D01*
X126019682Y-74274820D01*
X126075011Y-74232156D01*
X126144624Y-74226177D01*
X126206420Y-74258782D01*
X126220314Y-74274816D01*
X126275988Y-74351445D01*
X126275993Y-74351452D01*
X126438549Y-74514008D01*
X126438554Y-74514012D01*
X126548678Y-74594021D01*
X126624531Y-74649131D01*
X126828450Y-74753033D01*
X126829365Y-74753499D01*
X127033294Y-74819759D01*
X127047999Y-74824537D01*
X127275056Y-74860500D01*
X127275057Y-74860500D01*
X127504943Y-74860500D01*
X127504944Y-74860500D01*
X127732001Y-74824537D01*
X127732004Y-74824536D01*
X127732005Y-74824536D01*
X127950634Y-74753499D01*
X127950634Y-74753498D01*
X127950637Y-74753498D01*
X128155469Y-74649131D01*
X128341452Y-74514007D01*
X128504007Y-74351452D01*
X128559682Y-74274820D01*
X128615011Y-74232156D01*
X128684624Y-74226177D01*
X128746420Y-74258782D01*
X128760314Y-74274816D01*
X128815988Y-74351445D01*
X128815993Y-74351452D01*
X128978549Y-74514008D01*
X128978554Y-74514012D01*
X129088678Y-74594021D01*
X129164531Y-74649131D01*
X129368450Y-74753033D01*
X129369365Y-74753499D01*
X129573294Y-74819759D01*
X129587999Y-74824537D01*
X129815056Y-74860500D01*
X129815057Y-74860500D01*
X130044943Y-74860500D01*
X130044944Y-74860500D01*
X130272001Y-74824537D01*
X130272004Y-74824536D01*
X130272005Y-74824536D01*
X130490634Y-74753499D01*
X130490634Y-74753498D01*
X130490637Y-74753498D01*
X130695469Y-74649131D01*
X130881452Y-74514007D01*
X131044007Y-74351452D01*
X131099682Y-74274820D01*
X131155011Y-74232156D01*
X131224624Y-74226177D01*
X131286420Y-74258782D01*
X131300314Y-74274816D01*
X131355988Y-74351445D01*
X131355993Y-74351452D01*
X131518549Y-74514008D01*
X131518554Y-74514012D01*
X131628678Y-74594021D01*
X131704531Y-74649131D01*
X131908450Y-74753033D01*
X131909365Y-74753499D01*
X132113294Y-74819759D01*
X132127999Y-74824537D01*
X132355056Y-74860500D01*
X132355057Y-74860500D01*
X132584943Y-74860500D01*
X132584944Y-74860500D01*
X132812001Y-74824537D01*
X132812004Y-74824536D01*
X132812005Y-74824536D01*
X133030634Y-74753499D01*
X133030634Y-74753498D01*
X133030637Y-74753498D01*
X133235469Y-74649131D01*
X133421452Y-74514007D01*
X133584007Y-74351452D01*
X133639682Y-74274820D01*
X133695011Y-74232156D01*
X133764624Y-74226177D01*
X133826420Y-74258782D01*
X133840314Y-74274816D01*
X133895988Y-74351445D01*
X133895993Y-74351452D01*
X134058549Y-74514008D01*
X134058554Y-74514012D01*
X134168678Y-74594021D01*
X134244531Y-74649131D01*
X134448450Y-74753033D01*
X134449365Y-74753499D01*
X134653294Y-74819759D01*
X134667999Y-74824537D01*
X134895056Y-74860500D01*
X134895057Y-74860500D01*
X135124943Y-74860500D01*
X135124944Y-74860500D01*
X135352001Y-74824537D01*
X135352004Y-74824536D01*
X135352005Y-74824536D01*
X135570634Y-74753499D01*
X135570634Y-74753498D01*
X135570637Y-74753498D01*
X135775469Y-74649131D01*
X135961452Y-74514007D01*
X136124007Y-74351452D01*
X136179682Y-74274820D01*
X136235011Y-74232156D01*
X136304624Y-74226177D01*
X136366420Y-74258782D01*
X136380314Y-74274816D01*
X136435988Y-74351445D01*
X136435993Y-74351452D01*
X136598549Y-74514008D01*
X136598554Y-74514012D01*
X136708678Y-74594021D01*
X136784531Y-74649131D01*
X136988450Y-74753033D01*
X136989365Y-74753499D01*
X137193294Y-74819759D01*
X137207999Y-74824537D01*
X137435056Y-74860500D01*
X137435057Y-74860500D01*
X137664943Y-74860500D01*
X137664944Y-74860500D01*
X137892001Y-74824537D01*
X137892004Y-74824536D01*
X137892005Y-74824536D01*
X138110634Y-74753499D01*
X138110634Y-74753498D01*
X138110637Y-74753498D01*
X138315469Y-74649131D01*
X138501452Y-74514007D01*
X138664007Y-74351452D01*
X138719682Y-74274820D01*
X138775011Y-74232156D01*
X138844624Y-74226177D01*
X138906420Y-74258782D01*
X138920314Y-74274816D01*
X138975988Y-74351445D01*
X138975993Y-74351452D01*
X139138549Y-74514008D01*
X139138554Y-74514012D01*
X139248678Y-74594021D01*
X139324531Y-74649131D01*
X139528450Y-74753033D01*
X139529365Y-74753499D01*
X139733294Y-74819759D01*
X139747999Y-74824537D01*
X139975056Y-74860500D01*
X139975057Y-74860500D01*
X140204943Y-74860500D01*
X140204944Y-74860500D01*
X140432001Y-74824537D01*
X140432004Y-74824536D01*
X140432005Y-74824536D01*
X140650634Y-74753499D01*
X140650634Y-74753498D01*
X140650637Y-74753498D01*
X140855469Y-74649131D01*
X141041452Y-74514007D01*
X141204007Y-74351452D01*
X141259682Y-74274820D01*
X141315011Y-74232156D01*
X141384624Y-74226177D01*
X141446420Y-74258782D01*
X141460314Y-74274816D01*
X141515988Y-74351445D01*
X141515993Y-74351452D01*
X141678549Y-74514008D01*
X141678554Y-74514012D01*
X141788678Y-74594021D01*
X141864531Y-74649131D01*
X142068450Y-74753033D01*
X142069365Y-74753499D01*
X142273294Y-74819759D01*
X142287999Y-74824537D01*
X142515056Y-74860500D01*
X142515057Y-74860500D01*
X142744943Y-74860500D01*
X142744944Y-74860500D01*
X142972001Y-74824537D01*
X142972004Y-74824536D01*
X142972005Y-74824536D01*
X143190634Y-74753499D01*
X143190634Y-74753498D01*
X143190637Y-74753498D01*
X143395469Y-74649131D01*
X143581452Y-74514007D01*
X143744007Y-74351452D01*
X143799682Y-74274820D01*
X143855011Y-74232156D01*
X143924624Y-74226177D01*
X143986420Y-74258782D01*
X144000314Y-74274816D01*
X144055988Y-74351445D01*
X144055993Y-74351452D01*
X144218549Y-74514008D01*
X144218554Y-74514012D01*
X144328678Y-74594021D01*
X144404531Y-74649131D01*
X144608450Y-74753033D01*
X144609365Y-74753499D01*
X144813294Y-74819759D01*
X144827999Y-74824537D01*
X145055056Y-74860500D01*
X145055057Y-74860500D01*
X145284943Y-74860500D01*
X145284944Y-74860500D01*
X145512001Y-74824537D01*
X145512004Y-74824536D01*
X145512005Y-74824536D01*
X145730634Y-74753499D01*
X145730634Y-74753498D01*
X145730637Y-74753498D01*
X145935469Y-74649131D01*
X146121452Y-74514007D01*
X146284007Y-74351452D01*
X146339682Y-74274820D01*
X146395011Y-74232156D01*
X146464624Y-74226177D01*
X146526420Y-74258782D01*
X146540314Y-74274816D01*
X146595988Y-74351445D01*
X146595993Y-74351452D01*
X146758549Y-74514008D01*
X146758554Y-74514012D01*
X146868678Y-74594021D01*
X146944531Y-74649131D01*
X147148450Y-74753033D01*
X147149365Y-74753499D01*
X147353294Y-74819759D01*
X147367999Y-74824537D01*
X147595056Y-74860500D01*
X147595057Y-74860500D01*
X147824943Y-74860500D01*
X147824944Y-74860500D01*
X148052001Y-74824537D01*
X148052004Y-74824536D01*
X148052005Y-74824536D01*
X148270634Y-74753499D01*
X148270634Y-74753498D01*
X148270637Y-74753498D01*
X148475469Y-74649131D01*
X148661452Y-74514007D01*
X148824007Y-74351452D01*
X148879990Y-74274396D01*
X148935318Y-74231732D01*
X149004931Y-74225751D01*
X149028767Y-74238327D01*
X149055977Y-74240469D01*
X149416446Y-73880000D01*
X149881473Y-73880000D01*
X149881592Y-73880119D01*
X150018409Y-73959111D01*
X150038940Y-73964612D01*
X149409529Y-74594021D01*
X149484792Y-74648703D01*
X149689549Y-74753033D01*
X149908115Y-74824049D01*
X150135096Y-74860000D01*
X150364904Y-74860000D01*
X150591884Y-74824049D01*
X150810450Y-74753033D01*
X151015206Y-74648704D01*
X151090468Y-74594021D01*
X151090469Y-74594021D01*
X150461059Y-73964612D01*
X150481591Y-73959111D01*
X150618408Y-73880119D01*
X150618527Y-73880000D01*
X151083552Y-73880000D01*
X151444021Y-74240469D01*
X151444021Y-74240468D01*
X151498704Y-74165206D01*
X151603035Y-73960445D01*
X151604648Y-73956552D01*
X151648487Y-73902147D01*
X151714780Y-73880079D01*
X151719211Y-73880000D01*
X182776000Y-73880000D01*
X182843039Y-73899685D01*
X182888794Y-73952489D01*
X182900000Y-74004000D01*
X182900000Y-81276000D01*
X182880315Y-81343039D01*
X182827511Y-81388794D01*
X182776000Y-81400000D01*
X95024000Y-81400000D01*
X94956961Y-81380315D01*
X94911206Y-81327511D01*
X94900000Y-81276000D01*
X94900000Y-77000000D01*
X90924000Y-77000000D01*
X90856961Y-76980315D01*
X90811206Y-76927511D01*
X90800000Y-76876000D01*
X90800000Y-38024000D01*
X90819685Y-37956961D01*
X90872489Y-37911206D01*
X90924000Y-37900000D01*
X95000000Y-37900000D01*
X95000000Y-34123436D01*
X95019685Y-34056397D01*
X95072489Y-34010642D01*
X95123433Y-33999437D01*
X182575554Y-33600567D01*
X182642681Y-33619946D01*
G37*
%TD.AperFunction*%
%TD*%
M02*
