%TF.GenerationSoftware,KiCad,Pcbnew,9.0.2*%
%TF.CreationDate,2025-06-23T22:15:15+02:00*%
%TF.ProjectId,musicbox,6d757369-6362-46f7-982e-6b696361645f,rev?*%
%TF.SameCoordinates,Original*%
%TF.FileFunction,Legend,Top*%
%TF.FilePolarity,Positive*%
%FSLAX46Y46*%
G04 Gerber Fmt 4.6, Leading zero omitted, Abs format (unit mm)*
G04 Created by KiCad (PCBNEW 9.0.2) date 2025-06-23 22:15:15*
%MOMM*%
%LPD*%
G01*
G04 APERTURE LIST*
%ADD10C,0.100000*%
%ADD11C,0.150000*%
%ADD12C,0.120000*%
G04 APERTURE END LIST*
D10*
X102538800Y-36401830D02*
X102576895Y-36287544D01*
X102576895Y-36287544D02*
X102576895Y-36097068D01*
X102576895Y-36097068D02*
X102538800Y-36020877D01*
X102538800Y-36020877D02*
X102500704Y-35982782D01*
X102500704Y-35982782D02*
X102424514Y-35944687D01*
X102424514Y-35944687D02*
X102348323Y-35944687D01*
X102348323Y-35944687D02*
X102272133Y-35982782D01*
X102272133Y-35982782D02*
X102234038Y-36020877D01*
X102234038Y-36020877D02*
X102195942Y-36097068D01*
X102195942Y-36097068D02*
X102157847Y-36249449D01*
X102157847Y-36249449D02*
X102119752Y-36325639D01*
X102119752Y-36325639D02*
X102081657Y-36363734D01*
X102081657Y-36363734D02*
X102005466Y-36401830D01*
X102005466Y-36401830D02*
X101929276Y-36401830D01*
X101929276Y-36401830D02*
X101853085Y-36363734D01*
X101853085Y-36363734D02*
X101814990Y-36325639D01*
X101814990Y-36325639D02*
X101776895Y-36249449D01*
X101776895Y-36249449D02*
X101776895Y-36058972D01*
X101776895Y-36058972D02*
X101814990Y-35944687D01*
X102576895Y-35601829D02*
X101776895Y-35601829D01*
X101776895Y-35601829D02*
X101776895Y-35411353D01*
X101776895Y-35411353D02*
X101814990Y-35297067D01*
X101814990Y-35297067D02*
X101891180Y-35220877D01*
X101891180Y-35220877D02*
X101967371Y-35182782D01*
X101967371Y-35182782D02*
X102119752Y-35144686D01*
X102119752Y-35144686D02*
X102234038Y-35144686D01*
X102234038Y-35144686D02*
X102386419Y-35182782D01*
X102386419Y-35182782D02*
X102462609Y-35220877D01*
X102462609Y-35220877D02*
X102538800Y-35297067D01*
X102538800Y-35297067D02*
X102576895Y-35411353D01*
X102576895Y-35411353D02*
X102576895Y-35601829D01*
X102348323Y-34839925D02*
X102348323Y-34458972D01*
X102576895Y-34916115D02*
X101776895Y-34649448D01*
X101776895Y-34649448D02*
X102576895Y-34382782D01*
X141797847Y-36097068D02*
X141835942Y-35982782D01*
X141835942Y-35982782D02*
X141874038Y-35944687D01*
X141874038Y-35944687D02*
X141950228Y-35906591D01*
X141950228Y-35906591D02*
X142064514Y-35906591D01*
X142064514Y-35906591D02*
X142140704Y-35944687D01*
X142140704Y-35944687D02*
X142178800Y-35982782D01*
X142178800Y-35982782D02*
X142216895Y-36058972D01*
X142216895Y-36058972D02*
X142216895Y-36363734D01*
X142216895Y-36363734D02*
X141416895Y-36363734D01*
X141416895Y-36363734D02*
X141416895Y-36097068D01*
X141416895Y-36097068D02*
X141454990Y-36020877D01*
X141454990Y-36020877D02*
X141493085Y-35982782D01*
X141493085Y-35982782D02*
X141569276Y-35944687D01*
X141569276Y-35944687D02*
X141645466Y-35944687D01*
X141645466Y-35944687D02*
X141721657Y-35982782D01*
X141721657Y-35982782D02*
X141759752Y-36020877D01*
X141759752Y-36020877D02*
X141797847Y-36097068D01*
X141797847Y-36097068D02*
X141797847Y-36363734D01*
X141416895Y-35678020D02*
X141416895Y-35220877D01*
X142216895Y-35449449D02*
X141416895Y-35449449D01*
X141493085Y-34992306D02*
X141454990Y-34954210D01*
X141454990Y-34954210D02*
X141416895Y-34878020D01*
X141416895Y-34878020D02*
X141416895Y-34687544D01*
X141416895Y-34687544D02*
X141454990Y-34611353D01*
X141454990Y-34611353D02*
X141493085Y-34573258D01*
X141493085Y-34573258D02*
X141569276Y-34535163D01*
X141569276Y-34535163D02*
X141645466Y-34535163D01*
X141645466Y-34535163D02*
X141759752Y-34573258D01*
X141759752Y-34573258D02*
X142216895Y-35030401D01*
X142216895Y-35030401D02*
X142216895Y-34535163D01*
X110066895Y-36439925D02*
X110066895Y-35944687D01*
X110066895Y-35944687D02*
X110371657Y-36211353D01*
X110371657Y-36211353D02*
X110371657Y-36097068D01*
X110371657Y-36097068D02*
X110409752Y-36020877D01*
X110409752Y-36020877D02*
X110447847Y-35982782D01*
X110447847Y-35982782D02*
X110524038Y-35944687D01*
X110524038Y-35944687D02*
X110714514Y-35944687D01*
X110714514Y-35944687D02*
X110790704Y-35982782D01*
X110790704Y-35982782D02*
X110828800Y-36020877D01*
X110828800Y-36020877D02*
X110866895Y-36097068D01*
X110866895Y-36097068D02*
X110866895Y-36325639D01*
X110866895Y-36325639D02*
X110828800Y-36401830D01*
X110828800Y-36401830D02*
X110790704Y-36439925D01*
X110066895Y-35716115D02*
X110866895Y-35449448D01*
X110866895Y-35449448D02*
X110066895Y-35182782D01*
X110066895Y-34992306D02*
X110066895Y-34497068D01*
X110066895Y-34497068D02*
X110371657Y-34763734D01*
X110371657Y-34763734D02*
X110371657Y-34649449D01*
X110371657Y-34649449D02*
X110409752Y-34573258D01*
X110409752Y-34573258D02*
X110447847Y-34535163D01*
X110447847Y-34535163D02*
X110524038Y-34497068D01*
X110524038Y-34497068D02*
X110714514Y-34497068D01*
X110714514Y-34497068D02*
X110790704Y-34535163D01*
X110790704Y-34535163D02*
X110828800Y-34573258D01*
X110828800Y-34573258D02*
X110866895Y-34649449D01*
X110866895Y-34649449D02*
X110866895Y-34878020D01*
X110866895Y-34878020D02*
X110828800Y-34954211D01*
X110828800Y-34954211D02*
X110790704Y-34992306D01*
X122716895Y-36363734D02*
X121916895Y-36363734D01*
X121916895Y-36363734D02*
X121916895Y-36173258D01*
X121916895Y-36173258D02*
X121954990Y-36058972D01*
X121954990Y-36058972D02*
X122031180Y-35982782D01*
X122031180Y-35982782D02*
X122107371Y-35944687D01*
X122107371Y-35944687D02*
X122259752Y-35906591D01*
X122259752Y-35906591D02*
X122374038Y-35906591D01*
X122374038Y-35906591D02*
X122526419Y-35944687D01*
X122526419Y-35944687D02*
X122602609Y-35982782D01*
X122602609Y-35982782D02*
X122678800Y-36058972D01*
X122678800Y-36058972D02*
X122716895Y-36173258D01*
X122716895Y-36173258D02*
X122716895Y-36363734D01*
X122488323Y-35601830D02*
X122488323Y-35220877D01*
X122716895Y-35678020D02*
X121916895Y-35411353D01*
X121916895Y-35411353D02*
X122716895Y-35144687D01*
X121916895Y-34992306D02*
X121916895Y-34535163D01*
X122716895Y-34763735D02*
X121916895Y-34763735D01*
X112014990Y-35944687D02*
X111976895Y-36020877D01*
X111976895Y-36020877D02*
X111976895Y-36135163D01*
X111976895Y-36135163D02*
X112014990Y-36249449D01*
X112014990Y-36249449D02*
X112091180Y-36325639D01*
X112091180Y-36325639D02*
X112167371Y-36363734D01*
X112167371Y-36363734D02*
X112319752Y-36401830D01*
X112319752Y-36401830D02*
X112434038Y-36401830D01*
X112434038Y-36401830D02*
X112586419Y-36363734D01*
X112586419Y-36363734D02*
X112662609Y-36325639D01*
X112662609Y-36325639D02*
X112738800Y-36249449D01*
X112738800Y-36249449D02*
X112776895Y-36135163D01*
X112776895Y-36135163D02*
X112776895Y-36058972D01*
X112776895Y-36058972D02*
X112738800Y-35944687D01*
X112738800Y-35944687D02*
X112700704Y-35906591D01*
X112700704Y-35906591D02*
X112434038Y-35906591D01*
X112434038Y-35906591D02*
X112434038Y-36058972D01*
X112776895Y-35563734D02*
X111976895Y-35563734D01*
X111976895Y-35563734D02*
X112776895Y-35106591D01*
X112776895Y-35106591D02*
X111976895Y-35106591D01*
X112776895Y-34725639D02*
X111976895Y-34725639D01*
X111976895Y-34725639D02*
X111976895Y-34535163D01*
X111976895Y-34535163D02*
X112014990Y-34420877D01*
X112014990Y-34420877D02*
X112091180Y-34344687D01*
X112091180Y-34344687D02*
X112167371Y-34306592D01*
X112167371Y-34306592D02*
X112319752Y-34268496D01*
X112319752Y-34268496D02*
X112434038Y-34268496D01*
X112434038Y-34268496D02*
X112586419Y-34306592D01*
X112586419Y-34306592D02*
X112662609Y-34344687D01*
X112662609Y-34344687D02*
X112738800Y-34420877D01*
X112738800Y-34420877D02*
X112776895Y-34535163D01*
X112776895Y-34535163D02*
X112776895Y-34725639D01*
X119696895Y-36478020D02*
X120496895Y-36211353D01*
X120496895Y-36211353D02*
X119696895Y-35944687D01*
X120077847Y-35411354D02*
X120115942Y-35297068D01*
X120115942Y-35297068D02*
X120154038Y-35258973D01*
X120154038Y-35258973D02*
X120230228Y-35220877D01*
X120230228Y-35220877D02*
X120344514Y-35220877D01*
X120344514Y-35220877D02*
X120420704Y-35258973D01*
X120420704Y-35258973D02*
X120458800Y-35297068D01*
X120458800Y-35297068D02*
X120496895Y-35373258D01*
X120496895Y-35373258D02*
X120496895Y-35678020D01*
X120496895Y-35678020D02*
X119696895Y-35678020D01*
X119696895Y-35678020D02*
X119696895Y-35411354D01*
X119696895Y-35411354D02*
X119734990Y-35335163D01*
X119734990Y-35335163D02*
X119773085Y-35297068D01*
X119773085Y-35297068D02*
X119849276Y-35258973D01*
X119849276Y-35258973D02*
X119925466Y-35258973D01*
X119925466Y-35258973D02*
X120001657Y-35297068D01*
X120001657Y-35297068D02*
X120039752Y-35335163D01*
X120039752Y-35335163D02*
X120077847Y-35411354D01*
X120077847Y-35411354D02*
X120077847Y-35678020D01*
X120268323Y-34916116D02*
X120268323Y-34535163D01*
X120496895Y-34992306D02*
X119696895Y-34725639D01*
X119696895Y-34725639D02*
X120496895Y-34458973D01*
X119696895Y-34306592D02*
X119696895Y-33849449D01*
X120496895Y-34078021D02*
X119696895Y-34078021D01*
X124064990Y-35944687D02*
X124026895Y-36020877D01*
X124026895Y-36020877D02*
X124026895Y-36135163D01*
X124026895Y-36135163D02*
X124064990Y-36249449D01*
X124064990Y-36249449D02*
X124141180Y-36325639D01*
X124141180Y-36325639D02*
X124217371Y-36363734D01*
X124217371Y-36363734D02*
X124369752Y-36401830D01*
X124369752Y-36401830D02*
X124484038Y-36401830D01*
X124484038Y-36401830D02*
X124636419Y-36363734D01*
X124636419Y-36363734D02*
X124712609Y-36325639D01*
X124712609Y-36325639D02*
X124788800Y-36249449D01*
X124788800Y-36249449D02*
X124826895Y-36135163D01*
X124826895Y-36135163D02*
X124826895Y-36058972D01*
X124826895Y-36058972D02*
X124788800Y-35944687D01*
X124788800Y-35944687D02*
X124750704Y-35906591D01*
X124750704Y-35906591D02*
X124484038Y-35906591D01*
X124484038Y-35906591D02*
X124484038Y-36058972D01*
X124826895Y-35563734D02*
X124026895Y-35563734D01*
X124026895Y-35563734D02*
X124826895Y-35106591D01*
X124826895Y-35106591D02*
X124026895Y-35106591D01*
X124826895Y-34725639D02*
X124026895Y-34725639D01*
X124026895Y-34725639D02*
X124026895Y-34535163D01*
X124026895Y-34535163D02*
X124064990Y-34420877D01*
X124064990Y-34420877D02*
X124141180Y-34344687D01*
X124141180Y-34344687D02*
X124217371Y-34306592D01*
X124217371Y-34306592D02*
X124369752Y-34268496D01*
X124369752Y-34268496D02*
X124484038Y-34268496D01*
X124484038Y-34268496D02*
X124636419Y-34306592D01*
X124636419Y-34306592D02*
X124712609Y-34344687D01*
X124712609Y-34344687D02*
X124788800Y-34420877D01*
X124788800Y-34420877D02*
X124826895Y-34535163D01*
X124826895Y-34535163D02*
X124826895Y-34725639D01*
X151117847Y-36097068D02*
X151155942Y-35982782D01*
X151155942Y-35982782D02*
X151194038Y-35944687D01*
X151194038Y-35944687D02*
X151270228Y-35906591D01*
X151270228Y-35906591D02*
X151384514Y-35906591D01*
X151384514Y-35906591D02*
X151460704Y-35944687D01*
X151460704Y-35944687D02*
X151498800Y-35982782D01*
X151498800Y-35982782D02*
X151536895Y-36058972D01*
X151536895Y-36058972D02*
X151536895Y-36363734D01*
X151536895Y-36363734D02*
X150736895Y-36363734D01*
X150736895Y-36363734D02*
X150736895Y-36097068D01*
X150736895Y-36097068D02*
X150774990Y-36020877D01*
X150774990Y-36020877D02*
X150813085Y-35982782D01*
X150813085Y-35982782D02*
X150889276Y-35944687D01*
X150889276Y-35944687D02*
X150965466Y-35944687D01*
X150965466Y-35944687D02*
X151041657Y-35982782D01*
X151041657Y-35982782D02*
X151079752Y-36020877D01*
X151079752Y-36020877D02*
X151117847Y-36097068D01*
X151117847Y-36097068D02*
X151117847Y-36363734D01*
X150736895Y-35678020D02*
X150736895Y-35220877D01*
X151536895Y-35449449D02*
X150736895Y-35449449D01*
X150736895Y-35030401D02*
X150736895Y-34535163D01*
X150736895Y-34535163D02*
X151041657Y-34801829D01*
X151041657Y-34801829D02*
X151041657Y-34687544D01*
X151041657Y-34687544D02*
X151079752Y-34611353D01*
X151079752Y-34611353D02*
X151117847Y-34573258D01*
X151117847Y-34573258D02*
X151194038Y-34535163D01*
X151194038Y-34535163D02*
X151384514Y-34535163D01*
X151384514Y-34535163D02*
X151460704Y-34573258D01*
X151460704Y-34573258D02*
X151498800Y-34611353D01*
X151498800Y-34611353D02*
X151536895Y-34687544D01*
X151536895Y-34687544D02*
X151536895Y-34916115D01*
X151536895Y-34916115D02*
X151498800Y-34992306D01*
X151498800Y-34992306D02*
X151460704Y-35030401D01*
X132467847Y-36097068D02*
X132505942Y-35982782D01*
X132505942Y-35982782D02*
X132544038Y-35944687D01*
X132544038Y-35944687D02*
X132620228Y-35906591D01*
X132620228Y-35906591D02*
X132734514Y-35906591D01*
X132734514Y-35906591D02*
X132810704Y-35944687D01*
X132810704Y-35944687D02*
X132848800Y-35982782D01*
X132848800Y-35982782D02*
X132886895Y-36058972D01*
X132886895Y-36058972D02*
X132886895Y-36363734D01*
X132886895Y-36363734D02*
X132086895Y-36363734D01*
X132086895Y-36363734D02*
X132086895Y-36097068D01*
X132086895Y-36097068D02*
X132124990Y-36020877D01*
X132124990Y-36020877D02*
X132163085Y-35982782D01*
X132163085Y-35982782D02*
X132239276Y-35944687D01*
X132239276Y-35944687D02*
X132315466Y-35944687D01*
X132315466Y-35944687D02*
X132391657Y-35982782D01*
X132391657Y-35982782D02*
X132429752Y-36020877D01*
X132429752Y-36020877D02*
X132467847Y-36097068D01*
X132467847Y-36097068D02*
X132467847Y-36363734D01*
X132086895Y-35678020D02*
X132086895Y-35220877D01*
X132886895Y-35449449D02*
X132086895Y-35449449D01*
X132886895Y-34535163D02*
X132886895Y-34992306D01*
X132886895Y-34763734D02*
X132086895Y-34763734D01*
X132086895Y-34763734D02*
X132201180Y-34839925D01*
X132201180Y-34839925D02*
X132277371Y-34916115D01*
X132277371Y-34916115D02*
X132315466Y-34992306D01*
X106816895Y-36363734D02*
X106016895Y-36363734D01*
X106816895Y-35525639D02*
X106435942Y-35792306D01*
X106816895Y-35982782D02*
X106016895Y-35982782D01*
X106016895Y-35982782D02*
X106016895Y-35678020D01*
X106016895Y-35678020D02*
X106054990Y-35601830D01*
X106054990Y-35601830D02*
X106093085Y-35563735D01*
X106093085Y-35563735D02*
X106169276Y-35525639D01*
X106169276Y-35525639D02*
X106283561Y-35525639D01*
X106283561Y-35525639D02*
X106359752Y-35563735D01*
X106359752Y-35563735D02*
X106397847Y-35601830D01*
X106397847Y-35601830D02*
X106435942Y-35678020D01*
X106435942Y-35678020D02*
X106435942Y-35982782D01*
X106893085Y-34649449D02*
X106854990Y-34725639D01*
X106854990Y-34725639D02*
X106778800Y-34801830D01*
X106778800Y-34801830D02*
X106664514Y-34916116D01*
X106664514Y-34916116D02*
X106626419Y-34992306D01*
X106626419Y-34992306D02*
X106626419Y-35068497D01*
X106816895Y-35030401D02*
X106778800Y-35106592D01*
X106778800Y-35106592D02*
X106702609Y-35182782D01*
X106702609Y-35182782D02*
X106550228Y-35220878D01*
X106550228Y-35220878D02*
X106283561Y-35220878D01*
X106283561Y-35220878D02*
X106131180Y-35182782D01*
X106131180Y-35182782D02*
X106054990Y-35106592D01*
X106054990Y-35106592D02*
X106016895Y-35030401D01*
X106016895Y-35030401D02*
X106016895Y-34878020D01*
X106016895Y-34878020D02*
X106054990Y-34801830D01*
X106054990Y-34801830D02*
X106131180Y-34725639D01*
X106131180Y-34725639D02*
X106283561Y-34687544D01*
X106283561Y-34687544D02*
X106550228Y-34687544D01*
X106550228Y-34687544D02*
X106702609Y-34725639D01*
X106702609Y-34725639D02*
X106778800Y-34801830D01*
X106778800Y-34801830D02*
X106816895Y-34878020D01*
X106816895Y-34878020D02*
X106816895Y-35030401D01*
X104678800Y-36401830D02*
X104716895Y-36287544D01*
X104716895Y-36287544D02*
X104716895Y-36097068D01*
X104716895Y-36097068D02*
X104678800Y-36020877D01*
X104678800Y-36020877D02*
X104640704Y-35982782D01*
X104640704Y-35982782D02*
X104564514Y-35944687D01*
X104564514Y-35944687D02*
X104488323Y-35944687D01*
X104488323Y-35944687D02*
X104412133Y-35982782D01*
X104412133Y-35982782D02*
X104374038Y-36020877D01*
X104374038Y-36020877D02*
X104335942Y-36097068D01*
X104335942Y-36097068D02*
X104297847Y-36249449D01*
X104297847Y-36249449D02*
X104259752Y-36325639D01*
X104259752Y-36325639D02*
X104221657Y-36363734D01*
X104221657Y-36363734D02*
X104145466Y-36401830D01*
X104145466Y-36401830D02*
X104069276Y-36401830D01*
X104069276Y-36401830D02*
X103993085Y-36363734D01*
X103993085Y-36363734D02*
X103954990Y-36325639D01*
X103954990Y-36325639D02*
X103916895Y-36249449D01*
X103916895Y-36249449D02*
X103916895Y-36058972D01*
X103916895Y-36058972D02*
X103954990Y-35944687D01*
X104640704Y-35144686D02*
X104678800Y-35182782D01*
X104678800Y-35182782D02*
X104716895Y-35297067D01*
X104716895Y-35297067D02*
X104716895Y-35373258D01*
X104716895Y-35373258D02*
X104678800Y-35487544D01*
X104678800Y-35487544D02*
X104602609Y-35563734D01*
X104602609Y-35563734D02*
X104526419Y-35601829D01*
X104526419Y-35601829D02*
X104374038Y-35639925D01*
X104374038Y-35639925D02*
X104259752Y-35639925D01*
X104259752Y-35639925D02*
X104107371Y-35601829D01*
X104107371Y-35601829D02*
X104031180Y-35563734D01*
X104031180Y-35563734D02*
X103954990Y-35487544D01*
X103954990Y-35487544D02*
X103916895Y-35373258D01*
X103916895Y-35373258D02*
X103916895Y-35297067D01*
X103916895Y-35297067D02*
X103954990Y-35182782D01*
X103954990Y-35182782D02*
X103993085Y-35144686D01*
X104716895Y-34420877D02*
X104716895Y-34801829D01*
X104716895Y-34801829D02*
X103916895Y-34801829D01*
X134116895Y-36439925D02*
X134116895Y-35944687D01*
X134116895Y-35944687D02*
X134421657Y-36211353D01*
X134421657Y-36211353D02*
X134421657Y-36097068D01*
X134421657Y-36097068D02*
X134459752Y-36020877D01*
X134459752Y-36020877D02*
X134497847Y-35982782D01*
X134497847Y-35982782D02*
X134574038Y-35944687D01*
X134574038Y-35944687D02*
X134764514Y-35944687D01*
X134764514Y-35944687D02*
X134840704Y-35982782D01*
X134840704Y-35982782D02*
X134878800Y-36020877D01*
X134878800Y-36020877D02*
X134916895Y-36097068D01*
X134916895Y-36097068D02*
X134916895Y-36325639D01*
X134916895Y-36325639D02*
X134878800Y-36401830D01*
X134878800Y-36401830D02*
X134840704Y-36439925D01*
X134116895Y-35716115D02*
X134916895Y-35449448D01*
X134916895Y-35449448D02*
X134116895Y-35182782D01*
X134116895Y-34992306D02*
X134116895Y-34497068D01*
X134116895Y-34497068D02*
X134421657Y-34763734D01*
X134421657Y-34763734D02*
X134421657Y-34649449D01*
X134421657Y-34649449D02*
X134459752Y-34573258D01*
X134459752Y-34573258D02*
X134497847Y-34535163D01*
X134497847Y-34535163D02*
X134574038Y-34497068D01*
X134574038Y-34497068D02*
X134764514Y-34497068D01*
X134764514Y-34497068D02*
X134840704Y-34535163D01*
X134840704Y-34535163D02*
X134878800Y-34573258D01*
X134878800Y-34573258D02*
X134916895Y-34649449D01*
X134916895Y-34649449D02*
X134916895Y-34878020D01*
X134916895Y-34878020D02*
X134878800Y-34954211D01*
X134878800Y-34954211D02*
X134840704Y-34992306D01*
X143446895Y-36439925D02*
X143446895Y-35944687D01*
X143446895Y-35944687D02*
X143751657Y-36211353D01*
X143751657Y-36211353D02*
X143751657Y-36097068D01*
X143751657Y-36097068D02*
X143789752Y-36020877D01*
X143789752Y-36020877D02*
X143827847Y-35982782D01*
X143827847Y-35982782D02*
X143904038Y-35944687D01*
X143904038Y-35944687D02*
X144094514Y-35944687D01*
X144094514Y-35944687D02*
X144170704Y-35982782D01*
X144170704Y-35982782D02*
X144208800Y-36020877D01*
X144208800Y-36020877D02*
X144246895Y-36097068D01*
X144246895Y-36097068D02*
X144246895Y-36325639D01*
X144246895Y-36325639D02*
X144208800Y-36401830D01*
X144208800Y-36401830D02*
X144170704Y-36439925D01*
X143446895Y-35716115D02*
X144246895Y-35449448D01*
X144246895Y-35449448D02*
X143446895Y-35182782D01*
X143446895Y-34992306D02*
X143446895Y-34497068D01*
X143446895Y-34497068D02*
X143751657Y-34763734D01*
X143751657Y-34763734D02*
X143751657Y-34649449D01*
X143751657Y-34649449D02*
X143789752Y-34573258D01*
X143789752Y-34573258D02*
X143827847Y-34535163D01*
X143827847Y-34535163D02*
X143904038Y-34497068D01*
X143904038Y-34497068D02*
X144094514Y-34497068D01*
X144094514Y-34497068D02*
X144170704Y-34535163D01*
X144170704Y-34535163D02*
X144208800Y-34573258D01*
X144208800Y-34573258D02*
X144246895Y-34649449D01*
X144246895Y-34649449D02*
X144246895Y-34878020D01*
X144246895Y-34878020D02*
X144208800Y-34954211D01*
X144208800Y-34954211D02*
X144170704Y-34992306D01*
X152766895Y-36439925D02*
X152766895Y-35944687D01*
X152766895Y-35944687D02*
X153071657Y-36211353D01*
X153071657Y-36211353D02*
X153071657Y-36097068D01*
X153071657Y-36097068D02*
X153109752Y-36020877D01*
X153109752Y-36020877D02*
X153147847Y-35982782D01*
X153147847Y-35982782D02*
X153224038Y-35944687D01*
X153224038Y-35944687D02*
X153414514Y-35944687D01*
X153414514Y-35944687D02*
X153490704Y-35982782D01*
X153490704Y-35982782D02*
X153528800Y-36020877D01*
X153528800Y-36020877D02*
X153566895Y-36097068D01*
X153566895Y-36097068D02*
X153566895Y-36325639D01*
X153566895Y-36325639D02*
X153528800Y-36401830D01*
X153528800Y-36401830D02*
X153490704Y-36439925D01*
X152766895Y-35716115D02*
X153566895Y-35449448D01*
X153566895Y-35449448D02*
X152766895Y-35182782D01*
X152766895Y-34992306D02*
X152766895Y-34497068D01*
X152766895Y-34497068D02*
X153071657Y-34763734D01*
X153071657Y-34763734D02*
X153071657Y-34649449D01*
X153071657Y-34649449D02*
X153109752Y-34573258D01*
X153109752Y-34573258D02*
X153147847Y-34535163D01*
X153147847Y-34535163D02*
X153224038Y-34497068D01*
X153224038Y-34497068D02*
X153414514Y-34497068D01*
X153414514Y-34497068D02*
X153490704Y-34535163D01*
X153490704Y-34535163D02*
X153528800Y-34573258D01*
X153528800Y-34573258D02*
X153566895Y-34649449D01*
X153566895Y-34649449D02*
X153566895Y-34878020D01*
X153566895Y-34878020D02*
X153528800Y-34954211D01*
X153528800Y-34954211D02*
X153490704Y-34992306D01*
X164523884Y-60278721D02*
X164857217Y-60278721D01*
X165000074Y-60802531D02*
X164523884Y-60802531D01*
X164523884Y-60802531D02*
X164523884Y-59802531D01*
X164523884Y-59802531D02*
X165000074Y-59802531D01*
X165381027Y-60754912D02*
X165523884Y-60802531D01*
X165523884Y-60802531D02*
X165761979Y-60802531D01*
X165761979Y-60802531D02*
X165857217Y-60754912D01*
X165857217Y-60754912D02*
X165904836Y-60707292D01*
X165904836Y-60707292D02*
X165952455Y-60612054D01*
X165952455Y-60612054D02*
X165952455Y-60516816D01*
X165952455Y-60516816D02*
X165904836Y-60421578D01*
X165904836Y-60421578D02*
X165857217Y-60373959D01*
X165857217Y-60373959D02*
X165761979Y-60326340D01*
X165761979Y-60326340D02*
X165571503Y-60278721D01*
X165571503Y-60278721D02*
X165476265Y-60231102D01*
X165476265Y-60231102D02*
X165428646Y-60183483D01*
X165428646Y-60183483D02*
X165381027Y-60088245D01*
X165381027Y-60088245D02*
X165381027Y-59993007D01*
X165381027Y-59993007D02*
X165428646Y-59897769D01*
X165428646Y-59897769D02*
X165476265Y-59850150D01*
X165476265Y-59850150D02*
X165571503Y-59802531D01*
X165571503Y-59802531D02*
X165809598Y-59802531D01*
X165809598Y-59802531D02*
X165952455Y-59850150D01*
X166381027Y-60802531D02*
X166381027Y-59802531D01*
X166381027Y-59802531D02*
X166761979Y-59802531D01*
X166761979Y-59802531D02*
X166857217Y-59850150D01*
X166857217Y-59850150D02*
X166904836Y-59897769D01*
X166904836Y-59897769D02*
X166952455Y-59993007D01*
X166952455Y-59993007D02*
X166952455Y-60135864D01*
X166952455Y-60135864D02*
X166904836Y-60231102D01*
X166904836Y-60231102D02*
X166857217Y-60278721D01*
X166857217Y-60278721D02*
X166761979Y-60326340D01*
X166761979Y-60326340D02*
X166381027Y-60326340D01*
X167285789Y-59802531D02*
X167904836Y-59802531D01*
X167904836Y-59802531D02*
X167571503Y-60183483D01*
X167571503Y-60183483D02*
X167714360Y-60183483D01*
X167714360Y-60183483D02*
X167809598Y-60231102D01*
X167809598Y-60231102D02*
X167857217Y-60278721D01*
X167857217Y-60278721D02*
X167904836Y-60373959D01*
X167904836Y-60373959D02*
X167904836Y-60612054D01*
X167904836Y-60612054D02*
X167857217Y-60707292D01*
X167857217Y-60707292D02*
X167809598Y-60754912D01*
X167809598Y-60754912D02*
X167714360Y-60802531D01*
X167714360Y-60802531D02*
X167428646Y-60802531D01*
X167428646Y-60802531D02*
X167333408Y-60754912D01*
X167333408Y-60754912D02*
X167285789Y-60707292D01*
X168285789Y-59897769D02*
X168333408Y-59850150D01*
X168333408Y-59850150D02*
X168428646Y-59802531D01*
X168428646Y-59802531D02*
X168666741Y-59802531D01*
X168666741Y-59802531D02*
X168761979Y-59850150D01*
X168761979Y-59850150D02*
X168809598Y-59897769D01*
X168809598Y-59897769D02*
X168857217Y-59993007D01*
X168857217Y-59993007D02*
X168857217Y-60088245D01*
X168857217Y-60088245D02*
X168809598Y-60231102D01*
X168809598Y-60231102D02*
X168238170Y-60802531D01*
X168238170Y-60802531D02*
X168857217Y-60802531D01*
X170047694Y-60802531D02*
X170047694Y-59802531D01*
X170047694Y-59802531D02*
X170381027Y-60516816D01*
X170381027Y-60516816D02*
X170714360Y-59802531D01*
X170714360Y-59802531D02*
X170714360Y-60802531D01*
X171619122Y-60135864D02*
X171619122Y-60802531D01*
X171190551Y-60135864D02*
X171190551Y-60659673D01*
X171190551Y-60659673D02*
X171238170Y-60754912D01*
X171238170Y-60754912D02*
X171333408Y-60802531D01*
X171333408Y-60802531D02*
X171476265Y-60802531D01*
X171476265Y-60802531D02*
X171571503Y-60754912D01*
X171571503Y-60754912D02*
X171619122Y-60707292D01*
X172047694Y-60754912D02*
X172142932Y-60802531D01*
X172142932Y-60802531D02*
X172333408Y-60802531D01*
X172333408Y-60802531D02*
X172428646Y-60754912D01*
X172428646Y-60754912D02*
X172476265Y-60659673D01*
X172476265Y-60659673D02*
X172476265Y-60612054D01*
X172476265Y-60612054D02*
X172428646Y-60516816D01*
X172428646Y-60516816D02*
X172333408Y-60469197D01*
X172333408Y-60469197D02*
X172190551Y-60469197D01*
X172190551Y-60469197D02*
X172095313Y-60421578D01*
X172095313Y-60421578D02*
X172047694Y-60326340D01*
X172047694Y-60326340D02*
X172047694Y-60278721D01*
X172047694Y-60278721D02*
X172095313Y-60183483D01*
X172095313Y-60183483D02*
X172190551Y-60135864D01*
X172190551Y-60135864D02*
X172333408Y-60135864D01*
X172333408Y-60135864D02*
X172428646Y-60183483D01*
X172904837Y-60802531D02*
X172904837Y-60135864D01*
X172904837Y-59802531D02*
X172857218Y-59850150D01*
X172857218Y-59850150D02*
X172904837Y-59897769D01*
X172904837Y-59897769D02*
X172952456Y-59850150D01*
X172952456Y-59850150D02*
X172904837Y-59802531D01*
X172904837Y-59802531D02*
X172904837Y-59897769D01*
X173809598Y-60754912D02*
X173714360Y-60802531D01*
X173714360Y-60802531D02*
X173523884Y-60802531D01*
X173523884Y-60802531D02*
X173428646Y-60754912D01*
X173428646Y-60754912D02*
X173381027Y-60707292D01*
X173381027Y-60707292D02*
X173333408Y-60612054D01*
X173333408Y-60612054D02*
X173333408Y-60326340D01*
X173333408Y-60326340D02*
X173381027Y-60231102D01*
X173381027Y-60231102D02*
X173428646Y-60183483D01*
X173428646Y-60183483D02*
X173523884Y-60135864D01*
X173523884Y-60135864D02*
X173714360Y-60135864D01*
X173714360Y-60135864D02*
X173809598Y-60183483D01*
X174571503Y-60278721D02*
X174714360Y-60326340D01*
X174714360Y-60326340D02*
X174761979Y-60373959D01*
X174761979Y-60373959D02*
X174809598Y-60469197D01*
X174809598Y-60469197D02*
X174809598Y-60612054D01*
X174809598Y-60612054D02*
X174761979Y-60707292D01*
X174761979Y-60707292D02*
X174714360Y-60754912D01*
X174714360Y-60754912D02*
X174619122Y-60802531D01*
X174619122Y-60802531D02*
X174238170Y-60802531D01*
X174238170Y-60802531D02*
X174238170Y-59802531D01*
X174238170Y-59802531D02*
X174571503Y-59802531D01*
X174571503Y-59802531D02*
X174666741Y-59850150D01*
X174666741Y-59850150D02*
X174714360Y-59897769D01*
X174714360Y-59897769D02*
X174761979Y-59993007D01*
X174761979Y-59993007D02*
X174761979Y-60088245D01*
X174761979Y-60088245D02*
X174714360Y-60183483D01*
X174714360Y-60183483D02*
X174666741Y-60231102D01*
X174666741Y-60231102D02*
X174571503Y-60278721D01*
X174571503Y-60278721D02*
X174238170Y-60278721D01*
X175381027Y-60802531D02*
X175285789Y-60754912D01*
X175285789Y-60754912D02*
X175238170Y-60707292D01*
X175238170Y-60707292D02*
X175190551Y-60612054D01*
X175190551Y-60612054D02*
X175190551Y-60326340D01*
X175190551Y-60326340D02*
X175238170Y-60231102D01*
X175238170Y-60231102D02*
X175285789Y-60183483D01*
X175285789Y-60183483D02*
X175381027Y-60135864D01*
X175381027Y-60135864D02*
X175523884Y-60135864D01*
X175523884Y-60135864D02*
X175619122Y-60183483D01*
X175619122Y-60183483D02*
X175666741Y-60231102D01*
X175666741Y-60231102D02*
X175714360Y-60326340D01*
X175714360Y-60326340D02*
X175714360Y-60612054D01*
X175714360Y-60612054D02*
X175666741Y-60707292D01*
X175666741Y-60707292D02*
X175619122Y-60754912D01*
X175619122Y-60754912D02*
X175523884Y-60802531D01*
X175523884Y-60802531D02*
X175381027Y-60802531D01*
X176047694Y-60802531D02*
X176571503Y-60135864D01*
X176047694Y-60135864D02*
X176571503Y-60802531D01*
X177571504Y-59802531D02*
X177904837Y-60802531D01*
X177904837Y-60802531D02*
X178238170Y-59802531D01*
X178523885Y-59897769D02*
X178571504Y-59850150D01*
X178571504Y-59850150D02*
X178666742Y-59802531D01*
X178666742Y-59802531D02*
X178904837Y-59802531D01*
X178904837Y-59802531D02*
X179000075Y-59850150D01*
X179000075Y-59850150D02*
X179047694Y-59897769D01*
X179047694Y-59897769D02*
X179095313Y-59993007D01*
X179095313Y-59993007D02*
X179095313Y-60088245D01*
X179095313Y-60088245D02*
X179047694Y-60231102D01*
X179047694Y-60231102D02*
X178476266Y-60802531D01*
X178476266Y-60802531D02*
X179095313Y-60802531D01*
X179523885Y-60707292D02*
X179571504Y-60754912D01*
X179571504Y-60754912D02*
X179523885Y-60802531D01*
X179523885Y-60802531D02*
X179476266Y-60754912D01*
X179476266Y-60754912D02*
X179523885Y-60707292D01*
X179523885Y-60707292D02*
X179523885Y-60802531D01*
X180190551Y-59802531D02*
X180285789Y-59802531D01*
X180285789Y-59802531D02*
X180381027Y-59850150D01*
X180381027Y-59850150D02*
X180428646Y-59897769D01*
X180428646Y-59897769D02*
X180476265Y-59993007D01*
X180476265Y-59993007D02*
X180523884Y-60183483D01*
X180523884Y-60183483D02*
X180523884Y-60421578D01*
X180523884Y-60421578D02*
X180476265Y-60612054D01*
X180476265Y-60612054D02*
X180428646Y-60707292D01*
X180428646Y-60707292D02*
X180381027Y-60754912D01*
X180381027Y-60754912D02*
X180285789Y-60802531D01*
X180285789Y-60802531D02*
X180190551Y-60802531D01*
X180190551Y-60802531D02*
X180095313Y-60754912D01*
X180095313Y-60754912D02*
X180047694Y-60707292D01*
X180047694Y-60707292D02*
X180000075Y-60612054D01*
X180000075Y-60612054D02*
X179952456Y-60421578D01*
X179952456Y-60421578D02*
X179952456Y-60183483D01*
X179952456Y-60183483D02*
X180000075Y-59993007D01*
X180000075Y-59993007D02*
X180047694Y-59897769D01*
X180047694Y-59897769D02*
X180095313Y-59850150D01*
X180095313Y-59850150D02*
X180190551Y-59802531D01*
X164523884Y-62412475D02*
X164523884Y-61412475D01*
X164523884Y-61412475D02*
X164857217Y-62126760D01*
X164857217Y-62126760D02*
X165190550Y-61412475D01*
X165190550Y-61412475D02*
X165190550Y-62412475D01*
X165666741Y-62412475D02*
X165666741Y-61745808D01*
X165666741Y-61412475D02*
X165619122Y-61460094D01*
X165619122Y-61460094D02*
X165666741Y-61507713D01*
X165666741Y-61507713D02*
X165714360Y-61460094D01*
X165714360Y-61460094D02*
X165666741Y-61412475D01*
X165666741Y-61412475D02*
X165666741Y-61507713D01*
X166142931Y-62412475D02*
X166142931Y-61745808D01*
X166142931Y-61936284D02*
X166190550Y-61841046D01*
X166190550Y-61841046D02*
X166238169Y-61793427D01*
X166238169Y-61793427D02*
X166333407Y-61745808D01*
X166333407Y-61745808D02*
X166428645Y-61745808D01*
X166761979Y-62412475D02*
X166761979Y-61412475D01*
X166857217Y-62031522D02*
X167142931Y-62412475D01*
X167142931Y-61745808D02*
X166761979Y-62126760D01*
X167714360Y-62412475D02*
X167619122Y-62364856D01*
X167619122Y-62364856D02*
X167571503Y-62317236D01*
X167571503Y-62317236D02*
X167523884Y-62221998D01*
X167523884Y-62221998D02*
X167523884Y-61936284D01*
X167523884Y-61936284D02*
X167571503Y-61841046D01*
X167571503Y-61841046D02*
X167619122Y-61793427D01*
X167619122Y-61793427D02*
X167714360Y-61745808D01*
X167714360Y-61745808D02*
X167857217Y-61745808D01*
X167857217Y-61745808D02*
X167952455Y-61793427D01*
X167952455Y-61793427D02*
X168000074Y-61841046D01*
X168000074Y-61841046D02*
X168047693Y-61936284D01*
X168047693Y-61936284D02*
X168047693Y-62221998D01*
X168047693Y-62221998D02*
X168000074Y-62317236D01*
X168000074Y-62317236D02*
X167952455Y-62364856D01*
X167952455Y-62364856D02*
X167857217Y-62412475D01*
X167857217Y-62412475D02*
X167714360Y-62412475D01*
X169190551Y-62364856D02*
X169333408Y-62412475D01*
X169333408Y-62412475D02*
X169571503Y-62412475D01*
X169571503Y-62412475D02*
X169666741Y-62364856D01*
X169666741Y-62364856D02*
X169714360Y-62317236D01*
X169714360Y-62317236D02*
X169761979Y-62221998D01*
X169761979Y-62221998D02*
X169761979Y-62126760D01*
X169761979Y-62126760D02*
X169714360Y-62031522D01*
X169714360Y-62031522D02*
X169666741Y-61983903D01*
X169666741Y-61983903D02*
X169571503Y-61936284D01*
X169571503Y-61936284D02*
X169381027Y-61888665D01*
X169381027Y-61888665D02*
X169285789Y-61841046D01*
X169285789Y-61841046D02*
X169238170Y-61793427D01*
X169238170Y-61793427D02*
X169190551Y-61698189D01*
X169190551Y-61698189D02*
X169190551Y-61602951D01*
X169190551Y-61602951D02*
X169238170Y-61507713D01*
X169238170Y-61507713D02*
X169285789Y-61460094D01*
X169285789Y-61460094D02*
X169381027Y-61412475D01*
X169381027Y-61412475D02*
X169619122Y-61412475D01*
X169619122Y-61412475D02*
X169761979Y-61460094D01*
X170571503Y-62364856D02*
X170476265Y-62412475D01*
X170476265Y-62412475D02*
X170285789Y-62412475D01*
X170285789Y-62412475D02*
X170190551Y-62364856D01*
X170190551Y-62364856D02*
X170142932Y-62269617D01*
X170142932Y-62269617D02*
X170142932Y-61888665D01*
X170142932Y-61888665D02*
X170190551Y-61793427D01*
X170190551Y-61793427D02*
X170285789Y-61745808D01*
X170285789Y-61745808D02*
X170476265Y-61745808D01*
X170476265Y-61745808D02*
X170571503Y-61793427D01*
X170571503Y-61793427D02*
X170619122Y-61888665D01*
X170619122Y-61888665D02*
X170619122Y-61983903D01*
X170619122Y-61983903D02*
X170142932Y-62079141D01*
X171047694Y-62412475D02*
X171047694Y-61745808D01*
X171047694Y-61936284D02*
X171095313Y-61841046D01*
X171095313Y-61841046D02*
X171142932Y-61793427D01*
X171142932Y-61793427D02*
X171238170Y-61745808D01*
X171238170Y-61745808D02*
X171333408Y-61745808D01*
X171523885Y-61745808D02*
X171904837Y-61745808D01*
X171666742Y-61412475D02*
X171666742Y-62269617D01*
X171666742Y-62269617D02*
X171714361Y-62364856D01*
X171714361Y-62364856D02*
X171809599Y-62412475D01*
X171809599Y-62412475D02*
X171904837Y-62412475D01*
X172238171Y-62412475D02*
X172238171Y-61745808D01*
X172238171Y-61412475D02*
X172190552Y-61460094D01*
X172190552Y-61460094D02*
X172238171Y-61507713D01*
X172238171Y-61507713D02*
X172285790Y-61460094D01*
X172285790Y-61460094D02*
X172238171Y-61412475D01*
X172238171Y-61412475D02*
X172238171Y-61507713D01*
X173142932Y-62364856D02*
X173047694Y-62412475D01*
X173047694Y-62412475D02*
X172857218Y-62412475D01*
X172857218Y-62412475D02*
X172761980Y-62364856D01*
X172761980Y-62364856D02*
X172714361Y-62317236D01*
X172714361Y-62317236D02*
X172666742Y-62221998D01*
X172666742Y-62221998D02*
X172666742Y-61936284D01*
X172666742Y-61936284D02*
X172714361Y-61841046D01*
X172714361Y-61841046D02*
X172761980Y-61793427D01*
X172761980Y-61793427D02*
X172857218Y-61745808D01*
X172857218Y-61745808D02*
X173047694Y-61745808D01*
X173047694Y-61745808D02*
X173142932Y-61793427D01*
X174190552Y-61745808D02*
X174571504Y-61745808D01*
X174333409Y-62412475D02*
X174333409Y-61555332D01*
X174333409Y-61555332D02*
X174381028Y-61460094D01*
X174381028Y-61460094D02*
X174476266Y-61412475D01*
X174476266Y-61412475D02*
X174571504Y-61412475D01*
X175333409Y-61745808D02*
X175333409Y-62412475D01*
X174904838Y-61745808D02*
X174904838Y-62269617D01*
X174904838Y-62269617D02*
X174952457Y-62364856D01*
X174952457Y-62364856D02*
X175047695Y-62412475D01*
X175047695Y-62412475D02*
X175190552Y-62412475D01*
X175190552Y-62412475D02*
X175285790Y-62364856D01*
X175285790Y-62364856D02*
X175333409Y-62317236D01*
X174952457Y-61412475D02*
X175000076Y-61460094D01*
X175000076Y-61460094D02*
X174952457Y-61507713D01*
X174952457Y-61507713D02*
X174904838Y-61460094D01*
X174904838Y-61460094D02*
X174952457Y-61412475D01*
X174952457Y-61412475D02*
X174952457Y-61507713D01*
X175333409Y-61412475D02*
X175381028Y-61460094D01*
X175381028Y-61460094D02*
X175333409Y-61507713D01*
X175333409Y-61507713D02*
X175285790Y-61460094D01*
X175285790Y-61460094D02*
X175333409Y-61412475D01*
X175333409Y-61412475D02*
X175333409Y-61507713D01*
X175809600Y-62412475D02*
X175809600Y-61745808D01*
X175809600Y-61936284D02*
X175857219Y-61841046D01*
X175857219Y-61841046D02*
X175904838Y-61793427D01*
X175904838Y-61793427D02*
X176000076Y-61745808D01*
X176000076Y-61745808D02*
X176095314Y-61745808D01*
X164809598Y-63022419D02*
X164809598Y-63736704D01*
X164809598Y-63736704D02*
X164761979Y-63879561D01*
X164761979Y-63879561D02*
X164666741Y-63974800D01*
X164666741Y-63974800D02*
X164523884Y-64022419D01*
X164523884Y-64022419D02*
X164428646Y-64022419D01*
X165714360Y-64022419D02*
X165714360Y-63498609D01*
X165714360Y-63498609D02*
X165666741Y-63403371D01*
X165666741Y-63403371D02*
X165571503Y-63355752D01*
X165571503Y-63355752D02*
X165381027Y-63355752D01*
X165381027Y-63355752D02*
X165285789Y-63403371D01*
X165714360Y-63974800D02*
X165619122Y-64022419D01*
X165619122Y-64022419D02*
X165381027Y-64022419D01*
X165381027Y-64022419D02*
X165285789Y-63974800D01*
X165285789Y-63974800D02*
X165238170Y-63879561D01*
X165238170Y-63879561D02*
X165238170Y-63784323D01*
X165238170Y-63784323D02*
X165285789Y-63689085D01*
X165285789Y-63689085D02*
X165381027Y-63641466D01*
X165381027Y-63641466D02*
X165619122Y-63641466D01*
X165619122Y-63641466D02*
X165714360Y-63593847D01*
X166190551Y-64022419D02*
X166190551Y-63355752D01*
X166190551Y-63546228D02*
X166238170Y-63450990D01*
X166238170Y-63450990D02*
X166285789Y-63403371D01*
X166285789Y-63403371D02*
X166381027Y-63355752D01*
X166381027Y-63355752D02*
X166476265Y-63355752D01*
X166952456Y-64022419D02*
X166857218Y-63974800D01*
X166857218Y-63974800D02*
X166809599Y-63927180D01*
X166809599Y-63927180D02*
X166761980Y-63831942D01*
X166761980Y-63831942D02*
X166761980Y-63546228D01*
X166761980Y-63546228D02*
X166809599Y-63450990D01*
X166809599Y-63450990D02*
X166857218Y-63403371D01*
X166857218Y-63403371D02*
X166952456Y-63355752D01*
X166952456Y-63355752D02*
X167095313Y-63355752D01*
X167095313Y-63355752D02*
X167190551Y-63403371D01*
X167190551Y-63403371D02*
X167238170Y-63450990D01*
X167238170Y-63450990D02*
X167285789Y-63546228D01*
X167285789Y-63546228D02*
X167285789Y-63831942D01*
X167285789Y-63831942D02*
X167238170Y-63927180D01*
X167238170Y-63927180D02*
X167190551Y-63974800D01*
X167190551Y-63974800D02*
X167095313Y-64022419D01*
X167095313Y-64022419D02*
X166952456Y-64022419D01*
X168904837Y-63355752D02*
X168904837Y-64022419D01*
X168476266Y-63355752D02*
X168476266Y-63879561D01*
X168476266Y-63879561D02*
X168523885Y-63974800D01*
X168523885Y-63974800D02*
X168619123Y-64022419D01*
X168619123Y-64022419D02*
X168761980Y-64022419D01*
X168761980Y-64022419D02*
X168857218Y-63974800D01*
X168857218Y-63974800D02*
X168904837Y-63927180D01*
X169381028Y-63355752D02*
X169381028Y-64022419D01*
X169381028Y-63450990D02*
X169428647Y-63403371D01*
X169428647Y-63403371D02*
X169523885Y-63355752D01*
X169523885Y-63355752D02*
X169666742Y-63355752D01*
X169666742Y-63355752D02*
X169761980Y-63403371D01*
X169761980Y-63403371D02*
X169809599Y-63498609D01*
X169809599Y-63498609D02*
X169809599Y-64022419D01*
X170714361Y-64022419D02*
X170714361Y-63022419D01*
X170714361Y-63974800D02*
X170619123Y-64022419D01*
X170619123Y-64022419D02*
X170428647Y-64022419D01*
X170428647Y-64022419D02*
X170333409Y-63974800D01*
X170333409Y-63974800D02*
X170285790Y-63927180D01*
X170285790Y-63927180D02*
X170238171Y-63831942D01*
X170238171Y-63831942D02*
X170238171Y-63546228D01*
X170238171Y-63546228D02*
X170285790Y-63450990D01*
X170285790Y-63450990D02*
X170333409Y-63403371D01*
X170333409Y-63403371D02*
X170428647Y-63355752D01*
X170428647Y-63355752D02*
X170619123Y-63355752D01*
X170619123Y-63355752D02*
X170714361Y-63403371D01*
X171952457Y-64022419D02*
X171952457Y-63022419D01*
X171952457Y-63022419D02*
X172285790Y-63736704D01*
X172285790Y-63736704D02*
X172619123Y-63022419D01*
X172619123Y-63022419D02*
X172619123Y-64022419D01*
X173095314Y-64022419D02*
X173095314Y-63355752D01*
X173095314Y-63022419D02*
X173047695Y-63070038D01*
X173047695Y-63070038D02*
X173095314Y-63117657D01*
X173095314Y-63117657D02*
X173142933Y-63070038D01*
X173142933Y-63070038D02*
X173095314Y-63022419D01*
X173095314Y-63022419D02*
X173095314Y-63117657D01*
X173571504Y-64022419D02*
X173571504Y-63355752D01*
X173571504Y-63546228D02*
X173619123Y-63450990D01*
X173619123Y-63450990D02*
X173666742Y-63403371D01*
X173666742Y-63403371D02*
X173761980Y-63355752D01*
X173761980Y-63355752D02*
X173857218Y-63355752D01*
X174619123Y-64022419D02*
X174619123Y-63498609D01*
X174619123Y-63498609D02*
X174571504Y-63403371D01*
X174571504Y-63403371D02*
X174476266Y-63355752D01*
X174476266Y-63355752D02*
X174285790Y-63355752D01*
X174285790Y-63355752D02*
X174190552Y-63403371D01*
X174619123Y-63974800D02*
X174523885Y-64022419D01*
X174523885Y-64022419D02*
X174285790Y-64022419D01*
X174285790Y-64022419D02*
X174190552Y-63974800D01*
X174190552Y-63974800D02*
X174142933Y-63879561D01*
X174142933Y-63879561D02*
X174142933Y-63784323D01*
X174142933Y-63784323D02*
X174190552Y-63689085D01*
X174190552Y-63689085D02*
X174285790Y-63641466D01*
X174285790Y-63641466D02*
X174523885Y-63641466D01*
X174523885Y-63641466D02*
X174619123Y-63593847D01*
X108796895Y-35906591D02*
X108415942Y-36173258D01*
X108796895Y-36363734D02*
X107996895Y-36363734D01*
X107996895Y-36363734D02*
X107996895Y-36058972D01*
X107996895Y-36058972D02*
X108034990Y-35982782D01*
X108034990Y-35982782D02*
X108073085Y-35944687D01*
X108073085Y-35944687D02*
X108149276Y-35906591D01*
X108149276Y-35906591D02*
X108263561Y-35906591D01*
X108263561Y-35906591D02*
X108339752Y-35944687D01*
X108339752Y-35944687D02*
X108377847Y-35982782D01*
X108377847Y-35982782D02*
X108415942Y-36058972D01*
X108415942Y-36058972D02*
X108415942Y-36363734D01*
X108758800Y-35601830D02*
X108796895Y-35487544D01*
X108796895Y-35487544D02*
X108796895Y-35297068D01*
X108796895Y-35297068D02*
X108758800Y-35220877D01*
X108758800Y-35220877D02*
X108720704Y-35182782D01*
X108720704Y-35182782D02*
X108644514Y-35144687D01*
X108644514Y-35144687D02*
X108568323Y-35144687D01*
X108568323Y-35144687D02*
X108492133Y-35182782D01*
X108492133Y-35182782D02*
X108454038Y-35220877D01*
X108454038Y-35220877D02*
X108415942Y-35297068D01*
X108415942Y-35297068D02*
X108377847Y-35449449D01*
X108377847Y-35449449D02*
X108339752Y-35525639D01*
X108339752Y-35525639D02*
X108301657Y-35563734D01*
X108301657Y-35563734D02*
X108225466Y-35601830D01*
X108225466Y-35601830D02*
X108149276Y-35601830D01*
X108149276Y-35601830D02*
X108073085Y-35563734D01*
X108073085Y-35563734D02*
X108034990Y-35525639D01*
X108034990Y-35525639D02*
X107996895Y-35449449D01*
X107996895Y-35449449D02*
X107996895Y-35258972D01*
X107996895Y-35258972D02*
X108034990Y-35144687D01*
X107996895Y-34916115D02*
X107996895Y-34458972D01*
X108796895Y-34687544D02*
X107996895Y-34687544D01*
X102372629Y-53197583D02*
X103372629Y-53197583D01*
X103372629Y-53197583D02*
X103372629Y-53435678D01*
X103372629Y-53435678D02*
X103325010Y-53578535D01*
X103325010Y-53578535D02*
X103229772Y-53673773D01*
X103229772Y-53673773D02*
X103134534Y-53721392D01*
X103134534Y-53721392D02*
X102944058Y-53769011D01*
X102944058Y-53769011D02*
X102801201Y-53769011D01*
X102801201Y-53769011D02*
X102610725Y-53721392D01*
X102610725Y-53721392D02*
X102515487Y-53673773D01*
X102515487Y-53673773D02*
X102420249Y-53578535D01*
X102420249Y-53578535D02*
X102372629Y-53435678D01*
X102372629Y-53435678D02*
X102372629Y-53197583D01*
X103372629Y-54102345D02*
X103372629Y-54721392D01*
X103372629Y-54721392D02*
X102991677Y-54388059D01*
X102991677Y-54388059D02*
X102991677Y-54530916D01*
X102991677Y-54530916D02*
X102944058Y-54626154D01*
X102944058Y-54626154D02*
X102896439Y-54673773D01*
X102896439Y-54673773D02*
X102801201Y-54721392D01*
X102801201Y-54721392D02*
X102563106Y-54721392D01*
X102563106Y-54721392D02*
X102467868Y-54673773D01*
X102467868Y-54673773D02*
X102420249Y-54626154D01*
X102420249Y-54626154D02*
X102372629Y-54530916D01*
X102372629Y-54530916D02*
X102372629Y-54245202D01*
X102372629Y-54245202D02*
X102420249Y-54149964D01*
X102420249Y-54149964D02*
X102467868Y-54102345D01*
X103277391Y-55102345D02*
X103325010Y-55149964D01*
X103325010Y-55149964D02*
X103372629Y-55245202D01*
X103372629Y-55245202D02*
X103372629Y-55483297D01*
X103372629Y-55483297D02*
X103325010Y-55578535D01*
X103325010Y-55578535D02*
X103277391Y-55626154D01*
X103277391Y-55626154D02*
X103182153Y-55673773D01*
X103182153Y-55673773D02*
X103086915Y-55673773D01*
X103086915Y-55673773D02*
X102944058Y-55626154D01*
X102944058Y-55626154D02*
X102372629Y-55054726D01*
X102372629Y-55054726D02*
X102372629Y-55673773D01*
X102372629Y-56102345D02*
X103372629Y-56102345D01*
X103372629Y-56102345D02*
X103372629Y-56483297D01*
X103372629Y-56483297D02*
X103325010Y-56578535D01*
X103325010Y-56578535D02*
X103277391Y-56626154D01*
X103277391Y-56626154D02*
X103182153Y-56673773D01*
X103182153Y-56673773D02*
X103039296Y-56673773D01*
X103039296Y-56673773D02*
X102944058Y-56626154D01*
X102944058Y-56626154D02*
X102896439Y-56578535D01*
X102896439Y-56578535D02*
X102848820Y-56483297D01*
X102848820Y-56483297D02*
X102848820Y-56102345D01*
X102372629Y-57102345D02*
X103039296Y-57102345D01*
X102848820Y-57102345D02*
X102944058Y-57149964D01*
X102944058Y-57149964D02*
X102991677Y-57197583D01*
X102991677Y-57197583D02*
X103039296Y-57292821D01*
X103039296Y-57292821D02*
X103039296Y-57388059D01*
X102372629Y-57864250D02*
X102420249Y-57769012D01*
X102420249Y-57769012D02*
X102467868Y-57721393D01*
X102467868Y-57721393D02*
X102563106Y-57673774D01*
X102563106Y-57673774D02*
X102848820Y-57673774D01*
X102848820Y-57673774D02*
X102944058Y-57721393D01*
X102944058Y-57721393D02*
X102991677Y-57769012D01*
X102991677Y-57769012D02*
X103039296Y-57864250D01*
X103039296Y-57864250D02*
X103039296Y-58007107D01*
X103039296Y-58007107D02*
X102991677Y-58102345D01*
X102991677Y-58102345D02*
X102944058Y-58149964D01*
X102944058Y-58149964D02*
X102848820Y-58197583D01*
X102848820Y-58197583D02*
X102563106Y-58197583D01*
X102563106Y-58197583D02*
X102467868Y-58149964D01*
X102467868Y-58149964D02*
X102420249Y-58102345D01*
X102420249Y-58102345D02*
X102372629Y-58007107D01*
X102372629Y-58007107D02*
X102372629Y-57864250D01*
X102372629Y-59149964D02*
X102372629Y-58578536D01*
X102372629Y-58864250D02*
X103372629Y-58864250D01*
X103372629Y-58864250D02*
X103229772Y-58769012D01*
X103229772Y-58769012D02*
X103134534Y-58673774D01*
X103134534Y-58673774D02*
X103086915Y-58578536D01*
D11*
X106181182Y-55888059D02*
X106228801Y-55935678D01*
X106228801Y-55935678D02*
X106276420Y-56030916D01*
X106276420Y-56030916D02*
X106181182Y-56221392D01*
X106181182Y-56221392D02*
X106228801Y-56316630D01*
X106228801Y-56316630D02*
X106276420Y-56364249D01*
D10*
X126540010Y-47097657D02*
X126587629Y-47002419D01*
X126587629Y-47002419D02*
X126587629Y-46859562D01*
X126587629Y-46859562D02*
X126540010Y-46716705D01*
X126540010Y-46716705D02*
X126444772Y-46621467D01*
X126444772Y-46621467D02*
X126349534Y-46573848D01*
X126349534Y-46573848D02*
X126159058Y-46526229D01*
X126159058Y-46526229D02*
X126016201Y-46526229D01*
X126016201Y-46526229D02*
X125825725Y-46573848D01*
X125825725Y-46573848D02*
X125730487Y-46621467D01*
X125730487Y-46621467D02*
X125635249Y-46716705D01*
X125635249Y-46716705D02*
X125587629Y-46859562D01*
X125587629Y-46859562D02*
X125587629Y-46954800D01*
X125587629Y-46954800D02*
X125635249Y-47097657D01*
X125635249Y-47097657D02*
X125682868Y-47145276D01*
X125682868Y-47145276D02*
X126016201Y-47145276D01*
X126016201Y-47145276D02*
X126016201Y-46954800D01*
X125587629Y-47573848D02*
X126587629Y-47573848D01*
X126587629Y-47573848D02*
X126587629Y-47954800D01*
X126587629Y-47954800D02*
X126540010Y-48050038D01*
X126540010Y-48050038D02*
X126492391Y-48097657D01*
X126492391Y-48097657D02*
X126397153Y-48145276D01*
X126397153Y-48145276D02*
X126254296Y-48145276D01*
X126254296Y-48145276D02*
X126159058Y-48097657D01*
X126159058Y-48097657D02*
X126111439Y-48050038D01*
X126111439Y-48050038D02*
X126063820Y-47954800D01*
X126063820Y-47954800D02*
X126063820Y-47573848D01*
X125587629Y-48573848D02*
X126587629Y-48573848D01*
X126587629Y-49240514D02*
X126587629Y-49430990D01*
X126587629Y-49430990D02*
X126540010Y-49526228D01*
X126540010Y-49526228D02*
X126444772Y-49621466D01*
X126444772Y-49621466D02*
X126254296Y-49669085D01*
X126254296Y-49669085D02*
X125920963Y-49669085D01*
X125920963Y-49669085D02*
X125730487Y-49621466D01*
X125730487Y-49621466D02*
X125635249Y-49526228D01*
X125635249Y-49526228D02*
X125587629Y-49430990D01*
X125587629Y-49430990D02*
X125587629Y-49240514D01*
X125587629Y-49240514D02*
X125635249Y-49145276D01*
X125635249Y-49145276D02*
X125730487Y-49050038D01*
X125730487Y-49050038D02*
X125920963Y-49002419D01*
X125920963Y-49002419D02*
X126254296Y-49002419D01*
X126254296Y-49002419D02*
X126444772Y-49050038D01*
X126444772Y-49050038D02*
X126540010Y-49145276D01*
X126540010Y-49145276D02*
X126587629Y-49240514D01*
X126492391Y-50050038D02*
X126540010Y-50097657D01*
X126540010Y-50097657D02*
X126587629Y-50192895D01*
X126587629Y-50192895D02*
X126587629Y-50430990D01*
X126587629Y-50430990D02*
X126540010Y-50526228D01*
X126540010Y-50526228D02*
X126492391Y-50573847D01*
X126492391Y-50573847D02*
X126397153Y-50621466D01*
X126397153Y-50621466D02*
X126301915Y-50621466D01*
X126301915Y-50621466D02*
X126159058Y-50573847D01*
X126159058Y-50573847D02*
X125587629Y-50002419D01*
X125587629Y-50002419D02*
X125587629Y-50621466D01*
X126587629Y-50954800D02*
X126587629Y-51621466D01*
X126587629Y-51621466D02*
X125587629Y-51192895D01*
X116021439Y-46573848D02*
X116021439Y-46907181D01*
X115497629Y-47050038D02*
X115497629Y-46573848D01*
X115497629Y-46573848D02*
X116497629Y-46573848D01*
X116497629Y-46573848D02*
X116497629Y-47050038D01*
X115497629Y-47478610D02*
X116497629Y-47478610D01*
X116497629Y-47478610D02*
X115497629Y-48050038D01*
X115497629Y-48050038D02*
X116497629Y-48050038D01*
X121120010Y-61764324D02*
X121167629Y-61669086D01*
X121167629Y-61669086D02*
X121167629Y-61526229D01*
X121167629Y-61526229D02*
X121120010Y-61383372D01*
X121120010Y-61383372D02*
X121024772Y-61288134D01*
X121024772Y-61288134D02*
X120929534Y-61240515D01*
X120929534Y-61240515D02*
X120739058Y-61192896D01*
X120739058Y-61192896D02*
X120596201Y-61192896D01*
X120596201Y-61192896D02*
X120405725Y-61240515D01*
X120405725Y-61240515D02*
X120310487Y-61288134D01*
X120310487Y-61288134D02*
X120215249Y-61383372D01*
X120215249Y-61383372D02*
X120167629Y-61526229D01*
X120167629Y-61526229D02*
X120167629Y-61621467D01*
X120167629Y-61621467D02*
X120215249Y-61764324D01*
X120215249Y-61764324D02*
X120262868Y-61811943D01*
X120262868Y-61811943D02*
X120596201Y-61811943D01*
X120596201Y-61811943D02*
X120596201Y-61621467D01*
X120167629Y-62240515D02*
X121167629Y-62240515D01*
X121167629Y-62240515D02*
X121167629Y-62621467D01*
X121167629Y-62621467D02*
X121120010Y-62716705D01*
X121120010Y-62716705D02*
X121072391Y-62764324D01*
X121072391Y-62764324D02*
X120977153Y-62811943D01*
X120977153Y-62811943D02*
X120834296Y-62811943D01*
X120834296Y-62811943D02*
X120739058Y-62764324D01*
X120739058Y-62764324D02*
X120691439Y-62716705D01*
X120691439Y-62716705D02*
X120643820Y-62621467D01*
X120643820Y-62621467D02*
X120643820Y-62240515D01*
X120167629Y-63240515D02*
X121167629Y-63240515D01*
X121167629Y-63907181D02*
X121167629Y-64097657D01*
X121167629Y-64097657D02*
X121120010Y-64192895D01*
X121120010Y-64192895D02*
X121024772Y-64288133D01*
X121024772Y-64288133D02*
X120834296Y-64335752D01*
X120834296Y-64335752D02*
X120500963Y-64335752D01*
X120500963Y-64335752D02*
X120310487Y-64288133D01*
X120310487Y-64288133D02*
X120215249Y-64192895D01*
X120215249Y-64192895D02*
X120167629Y-64097657D01*
X120167629Y-64097657D02*
X120167629Y-63907181D01*
X120167629Y-63907181D02*
X120215249Y-63811943D01*
X120215249Y-63811943D02*
X120310487Y-63716705D01*
X120310487Y-63716705D02*
X120500963Y-63669086D01*
X120500963Y-63669086D02*
X120834296Y-63669086D01*
X120834296Y-63669086D02*
X121024772Y-63716705D01*
X121024772Y-63716705D02*
X121120010Y-63811943D01*
X121120010Y-63811943D02*
X121167629Y-63907181D01*
X121167629Y-64954800D02*
X121167629Y-65050038D01*
X121167629Y-65050038D02*
X121120010Y-65145276D01*
X121120010Y-65145276D02*
X121072391Y-65192895D01*
X121072391Y-65192895D02*
X120977153Y-65240514D01*
X120977153Y-65240514D02*
X120786677Y-65288133D01*
X120786677Y-65288133D02*
X120548582Y-65288133D01*
X120548582Y-65288133D02*
X120358106Y-65240514D01*
X120358106Y-65240514D02*
X120262868Y-65192895D01*
X120262868Y-65192895D02*
X120215249Y-65145276D01*
X120215249Y-65145276D02*
X120167629Y-65050038D01*
X120167629Y-65050038D02*
X120167629Y-64954800D01*
X120167629Y-64954800D02*
X120215249Y-64859562D01*
X120215249Y-64859562D02*
X120262868Y-64811943D01*
X120262868Y-64811943D02*
X120358106Y-64764324D01*
X120358106Y-64764324D02*
X120548582Y-64716705D01*
X120548582Y-64716705D02*
X120786677Y-64716705D01*
X120786677Y-64716705D02*
X120977153Y-64764324D01*
X120977153Y-64764324D02*
X121072391Y-64811943D01*
X121072391Y-64811943D02*
X121120010Y-64859562D01*
X121120010Y-64859562D02*
X121167629Y-64954800D01*
X120834296Y-66145276D02*
X120167629Y-66145276D01*
X121215249Y-65907181D02*
X120500963Y-65669086D01*
X120500963Y-65669086D02*
X120500963Y-66288133D01*
X128970010Y-61764324D02*
X129017629Y-61669086D01*
X129017629Y-61669086D02*
X129017629Y-61526229D01*
X129017629Y-61526229D02*
X128970010Y-61383372D01*
X128970010Y-61383372D02*
X128874772Y-61288134D01*
X128874772Y-61288134D02*
X128779534Y-61240515D01*
X128779534Y-61240515D02*
X128589058Y-61192896D01*
X128589058Y-61192896D02*
X128446201Y-61192896D01*
X128446201Y-61192896D02*
X128255725Y-61240515D01*
X128255725Y-61240515D02*
X128160487Y-61288134D01*
X128160487Y-61288134D02*
X128065249Y-61383372D01*
X128065249Y-61383372D02*
X128017629Y-61526229D01*
X128017629Y-61526229D02*
X128017629Y-61621467D01*
X128017629Y-61621467D02*
X128065249Y-61764324D01*
X128065249Y-61764324D02*
X128112868Y-61811943D01*
X128112868Y-61811943D02*
X128446201Y-61811943D01*
X128446201Y-61811943D02*
X128446201Y-61621467D01*
X128017629Y-62240515D02*
X129017629Y-62240515D01*
X129017629Y-62240515D02*
X129017629Y-62621467D01*
X129017629Y-62621467D02*
X128970010Y-62716705D01*
X128970010Y-62716705D02*
X128922391Y-62764324D01*
X128922391Y-62764324D02*
X128827153Y-62811943D01*
X128827153Y-62811943D02*
X128684296Y-62811943D01*
X128684296Y-62811943D02*
X128589058Y-62764324D01*
X128589058Y-62764324D02*
X128541439Y-62716705D01*
X128541439Y-62716705D02*
X128493820Y-62621467D01*
X128493820Y-62621467D02*
X128493820Y-62240515D01*
X128017629Y-63240515D02*
X129017629Y-63240515D01*
X129017629Y-63907181D02*
X129017629Y-64097657D01*
X129017629Y-64097657D02*
X128970010Y-64192895D01*
X128970010Y-64192895D02*
X128874772Y-64288133D01*
X128874772Y-64288133D02*
X128684296Y-64335752D01*
X128684296Y-64335752D02*
X128350963Y-64335752D01*
X128350963Y-64335752D02*
X128160487Y-64288133D01*
X128160487Y-64288133D02*
X128065249Y-64192895D01*
X128065249Y-64192895D02*
X128017629Y-64097657D01*
X128017629Y-64097657D02*
X128017629Y-63907181D01*
X128017629Y-63907181D02*
X128065249Y-63811943D01*
X128065249Y-63811943D02*
X128160487Y-63716705D01*
X128160487Y-63716705D02*
X128350963Y-63669086D01*
X128350963Y-63669086D02*
X128684296Y-63669086D01*
X128684296Y-63669086D02*
X128874772Y-63716705D01*
X128874772Y-63716705D02*
X128970010Y-63811943D01*
X128970010Y-63811943D02*
X129017629Y-63907181D01*
X129017629Y-64954800D02*
X129017629Y-65050038D01*
X129017629Y-65050038D02*
X128970010Y-65145276D01*
X128970010Y-65145276D02*
X128922391Y-65192895D01*
X128922391Y-65192895D02*
X128827153Y-65240514D01*
X128827153Y-65240514D02*
X128636677Y-65288133D01*
X128636677Y-65288133D02*
X128398582Y-65288133D01*
X128398582Y-65288133D02*
X128208106Y-65240514D01*
X128208106Y-65240514D02*
X128112868Y-65192895D01*
X128112868Y-65192895D02*
X128065249Y-65145276D01*
X128065249Y-65145276D02*
X128017629Y-65050038D01*
X128017629Y-65050038D02*
X128017629Y-64954800D01*
X128017629Y-64954800D02*
X128065249Y-64859562D01*
X128065249Y-64859562D02*
X128112868Y-64811943D01*
X128112868Y-64811943D02*
X128208106Y-64764324D01*
X128208106Y-64764324D02*
X128398582Y-64716705D01*
X128398582Y-64716705D02*
X128636677Y-64716705D01*
X128636677Y-64716705D02*
X128827153Y-64764324D01*
X128827153Y-64764324D02*
X128922391Y-64811943D01*
X128922391Y-64811943D02*
X128970010Y-64859562D01*
X128970010Y-64859562D02*
X129017629Y-64954800D01*
X129017629Y-66192895D02*
X129017629Y-65716705D01*
X129017629Y-65716705D02*
X128541439Y-65669086D01*
X128541439Y-65669086D02*
X128589058Y-65716705D01*
X128589058Y-65716705D02*
X128636677Y-65811943D01*
X128636677Y-65811943D02*
X128636677Y-66050038D01*
X128636677Y-66050038D02*
X128589058Y-66145276D01*
X128589058Y-66145276D02*
X128541439Y-66192895D01*
X128541439Y-66192895D02*
X128446201Y-66240514D01*
X128446201Y-66240514D02*
X128208106Y-66240514D01*
X128208106Y-66240514D02*
X128112868Y-66192895D01*
X128112868Y-66192895D02*
X128065249Y-66145276D01*
X128065249Y-66145276D02*
X128017629Y-66050038D01*
X128017629Y-66050038D02*
X128017629Y-65811943D01*
X128017629Y-65811943D02*
X128065249Y-65716705D01*
X128065249Y-65716705D02*
X128112868Y-65669086D01*
X149310010Y-64145276D02*
X149357629Y-64050038D01*
X149357629Y-64050038D02*
X149357629Y-63907181D01*
X149357629Y-63907181D02*
X149310010Y-63764324D01*
X149310010Y-63764324D02*
X149214772Y-63669086D01*
X149214772Y-63669086D02*
X149119534Y-63621467D01*
X149119534Y-63621467D02*
X148929058Y-63573848D01*
X148929058Y-63573848D02*
X148786201Y-63573848D01*
X148786201Y-63573848D02*
X148595725Y-63621467D01*
X148595725Y-63621467D02*
X148500487Y-63669086D01*
X148500487Y-63669086D02*
X148405249Y-63764324D01*
X148405249Y-63764324D02*
X148357629Y-63907181D01*
X148357629Y-63907181D02*
X148357629Y-64002419D01*
X148357629Y-64002419D02*
X148405249Y-64145276D01*
X148405249Y-64145276D02*
X148452868Y-64192895D01*
X148452868Y-64192895D02*
X148786201Y-64192895D01*
X148786201Y-64192895D02*
X148786201Y-64002419D01*
X148357629Y-64621467D02*
X149357629Y-64621467D01*
X149357629Y-64621467D02*
X148357629Y-65192895D01*
X148357629Y-65192895D02*
X149357629Y-65192895D01*
X148357629Y-65669086D02*
X149357629Y-65669086D01*
X149357629Y-65669086D02*
X149357629Y-65907181D01*
X149357629Y-65907181D02*
X149310010Y-66050038D01*
X149310010Y-66050038D02*
X149214772Y-66145276D01*
X149214772Y-66145276D02*
X149119534Y-66192895D01*
X149119534Y-66192895D02*
X148929058Y-66240514D01*
X148929058Y-66240514D02*
X148786201Y-66240514D01*
X148786201Y-66240514D02*
X148595725Y-66192895D01*
X148595725Y-66192895D02*
X148500487Y-66145276D01*
X148500487Y-66145276D02*
X148405249Y-66050038D01*
X148405249Y-66050038D02*
X148357629Y-65907181D01*
X148357629Y-65907181D02*
X148357629Y-65669086D01*
X111297629Y-46430991D02*
X110297629Y-46764324D01*
X110297629Y-46764324D02*
X111297629Y-47097657D01*
X110821439Y-47764324D02*
X110773820Y-47907181D01*
X110773820Y-47907181D02*
X110726201Y-47954800D01*
X110726201Y-47954800D02*
X110630963Y-48002419D01*
X110630963Y-48002419D02*
X110488106Y-48002419D01*
X110488106Y-48002419D02*
X110392868Y-47954800D01*
X110392868Y-47954800D02*
X110345249Y-47907181D01*
X110345249Y-47907181D02*
X110297629Y-47811943D01*
X110297629Y-47811943D02*
X110297629Y-47430991D01*
X110297629Y-47430991D02*
X111297629Y-47430991D01*
X111297629Y-47430991D02*
X111297629Y-47764324D01*
X111297629Y-47764324D02*
X111250010Y-47859562D01*
X111250010Y-47859562D02*
X111202391Y-47907181D01*
X111202391Y-47907181D02*
X111107153Y-47954800D01*
X111107153Y-47954800D02*
X111011915Y-47954800D01*
X111011915Y-47954800D02*
X110916677Y-47907181D01*
X110916677Y-47907181D02*
X110869058Y-47859562D01*
X110869058Y-47859562D02*
X110821439Y-47764324D01*
X110821439Y-47764324D02*
X110821439Y-47430991D01*
X110583344Y-48383372D02*
X110583344Y-48859562D01*
X110297629Y-48288134D02*
X111297629Y-48621467D01*
X111297629Y-48621467D02*
X110297629Y-48954800D01*
X111297629Y-49145277D02*
X111297629Y-49716705D01*
X110297629Y-49430991D02*
X111297629Y-49430991D01*
X141747629Y-46430991D02*
X140747629Y-46764324D01*
X140747629Y-46764324D02*
X141747629Y-47097657D01*
X140747629Y-47430991D02*
X141747629Y-47430991D01*
X141747629Y-47430991D02*
X140747629Y-48002419D01*
X140747629Y-48002419D02*
X141747629Y-48002419D01*
X141795249Y-49192895D02*
X140509534Y-48335753D01*
X141700010Y-50050038D02*
X141747629Y-49954800D01*
X141747629Y-49954800D02*
X141747629Y-49811943D01*
X141747629Y-49811943D02*
X141700010Y-49669086D01*
X141700010Y-49669086D02*
X141604772Y-49573848D01*
X141604772Y-49573848D02*
X141509534Y-49526229D01*
X141509534Y-49526229D02*
X141319058Y-49478610D01*
X141319058Y-49478610D02*
X141176201Y-49478610D01*
X141176201Y-49478610D02*
X140985725Y-49526229D01*
X140985725Y-49526229D02*
X140890487Y-49573848D01*
X140890487Y-49573848D02*
X140795249Y-49669086D01*
X140795249Y-49669086D02*
X140747629Y-49811943D01*
X140747629Y-49811943D02*
X140747629Y-49907181D01*
X140747629Y-49907181D02*
X140795249Y-50050038D01*
X140795249Y-50050038D02*
X140842868Y-50097657D01*
X140842868Y-50097657D02*
X141176201Y-50097657D01*
X141176201Y-50097657D02*
X141176201Y-49907181D01*
X140747629Y-50526229D02*
X141747629Y-50526229D01*
X141747629Y-50526229D02*
X141747629Y-50907181D01*
X141747629Y-50907181D02*
X141700010Y-51002419D01*
X141700010Y-51002419D02*
X141652391Y-51050038D01*
X141652391Y-51050038D02*
X141557153Y-51097657D01*
X141557153Y-51097657D02*
X141414296Y-51097657D01*
X141414296Y-51097657D02*
X141319058Y-51050038D01*
X141319058Y-51050038D02*
X141271439Y-51002419D01*
X141271439Y-51002419D02*
X141223820Y-50907181D01*
X141223820Y-50907181D02*
X141223820Y-50526229D01*
X140747629Y-51526229D02*
X141747629Y-51526229D01*
X141747629Y-52192895D02*
X141747629Y-52383371D01*
X141747629Y-52383371D02*
X141700010Y-52478609D01*
X141700010Y-52478609D02*
X141604772Y-52573847D01*
X141604772Y-52573847D02*
X141414296Y-52621466D01*
X141414296Y-52621466D02*
X141080963Y-52621466D01*
X141080963Y-52621466D02*
X140890487Y-52573847D01*
X140890487Y-52573847D02*
X140795249Y-52478609D01*
X140795249Y-52478609D02*
X140747629Y-52383371D01*
X140747629Y-52383371D02*
X140747629Y-52192895D01*
X140747629Y-52192895D02*
X140795249Y-52097657D01*
X140795249Y-52097657D02*
X140890487Y-52002419D01*
X140890487Y-52002419D02*
X141080963Y-51954800D01*
X141080963Y-51954800D02*
X141414296Y-51954800D01*
X141414296Y-51954800D02*
X141604772Y-52002419D01*
X141604772Y-52002419D02*
X141700010Y-52097657D01*
X141700010Y-52097657D02*
X141747629Y-52192895D01*
X141747629Y-52954800D02*
X141747629Y-53573847D01*
X141747629Y-53573847D02*
X141366677Y-53240514D01*
X141366677Y-53240514D02*
X141366677Y-53383371D01*
X141366677Y-53383371D02*
X141319058Y-53478609D01*
X141319058Y-53478609D02*
X141271439Y-53526228D01*
X141271439Y-53526228D02*
X141176201Y-53573847D01*
X141176201Y-53573847D02*
X140938106Y-53573847D01*
X140938106Y-53573847D02*
X140842868Y-53526228D01*
X140842868Y-53526228D02*
X140795249Y-53478609D01*
X140795249Y-53478609D02*
X140747629Y-53383371D01*
X140747629Y-53383371D02*
X140747629Y-53097657D01*
X140747629Y-53097657D02*
X140795249Y-53002419D01*
X140795249Y-53002419D02*
X140842868Y-52954800D01*
X140747629Y-54050038D02*
X140747629Y-54240514D01*
X140747629Y-54240514D02*
X140795249Y-54335752D01*
X140795249Y-54335752D02*
X140842868Y-54383371D01*
X140842868Y-54383371D02*
X140985725Y-54478609D01*
X140985725Y-54478609D02*
X141176201Y-54526228D01*
X141176201Y-54526228D02*
X141557153Y-54526228D01*
X141557153Y-54526228D02*
X141652391Y-54478609D01*
X141652391Y-54478609D02*
X141700010Y-54430990D01*
X141700010Y-54430990D02*
X141747629Y-54335752D01*
X141747629Y-54335752D02*
X141747629Y-54145276D01*
X141747629Y-54145276D02*
X141700010Y-54050038D01*
X141700010Y-54050038D02*
X141652391Y-54002419D01*
X141652391Y-54002419D02*
X141557153Y-53954800D01*
X141557153Y-53954800D02*
X141319058Y-53954800D01*
X141319058Y-53954800D02*
X141223820Y-54002419D01*
X141223820Y-54002419D02*
X141176201Y-54050038D01*
X141176201Y-54050038D02*
X141128582Y-54145276D01*
X141128582Y-54145276D02*
X141128582Y-54335752D01*
X141128582Y-54335752D02*
X141176201Y-54430990D01*
X141176201Y-54430990D02*
X141223820Y-54478609D01*
X141223820Y-54478609D02*
X141319058Y-54526228D01*
X91957629Y-55903848D02*
X91148106Y-55903848D01*
X91148106Y-55903848D02*
X91052868Y-55951467D01*
X91052868Y-55951467D02*
X91005249Y-55999086D01*
X91005249Y-55999086D02*
X90957629Y-56094324D01*
X90957629Y-56094324D02*
X90957629Y-56284800D01*
X90957629Y-56284800D02*
X91005249Y-56380038D01*
X91005249Y-56380038D02*
X91052868Y-56427657D01*
X91052868Y-56427657D02*
X91148106Y-56475276D01*
X91148106Y-56475276D02*
X91957629Y-56475276D01*
X91005249Y-56903848D02*
X90957629Y-57046705D01*
X90957629Y-57046705D02*
X90957629Y-57284800D01*
X90957629Y-57284800D02*
X91005249Y-57380038D01*
X91005249Y-57380038D02*
X91052868Y-57427657D01*
X91052868Y-57427657D02*
X91148106Y-57475276D01*
X91148106Y-57475276D02*
X91243344Y-57475276D01*
X91243344Y-57475276D02*
X91338582Y-57427657D01*
X91338582Y-57427657D02*
X91386201Y-57380038D01*
X91386201Y-57380038D02*
X91433820Y-57284800D01*
X91433820Y-57284800D02*
X91481439Y-57094324D01*
X91481439Y-57094324D02*
X91529058Y-56999086D01*
X91529058Y-56999086D02*
X91576677Y-56951467D01*
X91576677Y-56951467D02*
X91671915Y-56903848D01*
X91671915Y-56903848D02*
X91767153Y-56903848D01*
X91767153Y-56903848D02*
X91862391Y-56951467D01*
X91862391Y-56951467D02*
X91910010Y-56999086D01*
X91910010Y-56999086D02*
X91957629Y-57094324D01*
X91957629Y-57094324D02*
X91957629Y-57332419D01*
X91957629Y-57332419D02*
X91910010Y-57475276D01*
X91481439Y-58237181D02*
X91433820Y-58380038D01*
X91433820Y-58380038D02*
X91386201Y-58427657D01*
X91386201Y-58427657D02*
X91290963Y-58475276D01*
X91290963Y-58475276D02*
X91148106Y-58475276D01*
X91148106Y-58475276D02*
X91052868Y-58427657D01*
X91052868Y-58427657D02*
X91005249Y-58380038D01*
X91005249Y-58380038D02*
X90957629Y-58284800D01*
X90957629Y-58284800D02*
X90957629Y-57903848D01*
X90957629Y-57903848D02*
X91957629Y-57903848D01*
X91957629Y-57903848D02*
X91957629Y-58237181D01*
X91957629Y-58237181D02*
X91910010Y-58332419D01*
X91910010Y-58332419D02*
X91862391Y-58380038D01*
X91862391Y-58380038D02*
X91767153Y-58427657D01*
X91767153Y-58427657D02*
X91671915Y-58427657D01*
X91671915Y-58427657D02*
X91576677Y-58380038D01*
X91576677Y-58380038D02*
X91529058Y-58332419D01*
X91529058Y-58332419D02*
X91481439Y-58237181D01*
X91481439Y-58237181D02*
X91481439Y-57903848D01*
X118660010Y-61764324D02*
X118707629Y-61669086D01*
X118707629Y-61669086D02*
X118707629Y-61526229D01*
X118707629Y-61526229D02*
X118660010Y-61383372D01*
X118660010Y-61383372D02*
X118564772Y-61288134D01*
X118564772Y-61288134D02*
X118469534Y-61240515D01*
X118469534Y-61240515D02*
X118279058Y-61192896D01*
X118279058Y-61192896D02*
X118136201Y-61192896D01*
X118136201Y-61192896D02*
X117945725Y-61240515D01*
X117945725Y-61240515D02*
X117850487Y-61288134D01*
X117850487Y-61288134D02*
X117755249Y-61383372D01*
X117755249Y-61383372D02*
X117707629Y-61526229D01*
X117707629Y-61526229D02*
X117707629Y-61621467D01*
X117707629Y-61621467D02*
X117755249Y-61764324D01*
X117755249Y-61764324D02*
X117802868Y-61811943D01*
X117802868Y-61811943D02*
X118136201Y-61811943D01*
X118136201Y-61811943D02*
X118136201Y-61621467D01*
X117707629Y-62240515D02*
X118707629Y-62240515D01*
X118707629Y-62240515D02*
X118707629Y-62621467D01*
X118707629Y-62621467D02*
X118660010Y-62716705D01*
X118660010Y-62716705D02*
X118612391Y-62764324D01*
X118612391Y-62764324D02*
X118517153Y-62811943D01*
X118517153Y-62811943D02*
X118374296Y-62811943D01*
X118374296Y-62811943D02*
X118279058Y-62764324D01*
X118279058Y-62764324D02*
X118231439Y-62716705D01*
X118231439Y-62716705D02*
X118183820Y-62621467D01*
X118183820Y-62621467D02*
X118183820Y-62240515D01*
X117707629Y-63240515D02*
X118707629Y-63240515D01*
X118707629Y-63907181D02*
X118707629Y-64097657D01*
X118707629Y-64097657D02*
X118660010Y-64192895D01*
X118660010Y-64192895D02*
X118564772Y-64288133D01*
X118564772Y-64288133D02*
X118374296Y-64335752D01*
X118374296Y-64335752D02*
X118040963Y-64335752D01*
X118040963Y-64335752D02*
X117850487Y-64288133D01*
X117850487Y-64288133D02*
X117755249Y-64192895D01*
X117755249Y-64192895D02*
X117707629Y-64097657D01*
X117707629Y-64097657D02*
X117707629Y-63907181D01*
X117707629Y-63907181D02*
X117755249Y-63811943D01*
X117755249Y-63811943D02*
X117850487Y-63716705D01*
X117850487Y-63716705D02*
X118040963Y-63669086D01*
X118040963Y-63669086D02*
X118374296Y-63669086D01*
X118374296Y-63669086D02*
X118564772Y-63716705D01*
X118564772Y-63716705D02*
X118660010Y-63811943D01*
X118660010Y-63811943D02*
X118707629Y-63907181D01*
X118707629Y-64954800D02*
X118707629Y-65050038D01*
X118707629Y-65050038D02*
X118660010Y-65145276D01*
X118660010Y-65145276D02*
X118612391Y-65192895D01*
X118612391Y-65192895D02*
X118517153Y-65240514D01*
X118517153Y-65240514D02*
X118326677Y-65288133D01*
X118326677Y-65288133D02*
X118088582Y-65288133D01*
X118088582Y-65288133D02*
X117898106Y-65240514D01*
X117898106Y-65240514D02*
X117802868Y-65192895D01*
X117802868Y-65192895D02*
X117755249Y-65145276D01*
X117755249Y-65145276D02*
X117707629Y-65050038D01*
X117707629Y-65050038D02*
X117707629Y-64954800D01*
X117707629Y-64954800D02*
X117755249Y-64859562D01*
X117755249Y-64859562D02*
X117802868Y-64811943D01*
X117802868Y-64811943D02*
X117898106Y-64764324D01*
X117898106Y-64764324D02*
X118088582Y-64716705D01*
X118088582Y-64716705D02*
X118326677Y-64716705D01*
X118326677Y-64716705D02*
X118517153Y-64764324D01*
X118517153Y-64764324D02*
X118612391Y-64811943D01*
X118612391Y-64811943D02*
X118660010Y-64859562D01*
X118660010Y-64859562D02*
X118707629Y-64954800D01*
X118707629Y-65907181D02*
X118707629Y-66002419D01*
X118707629Y-66002419D02*
X118660010Y-66097657D01*
X118660010Y-66097657D02*
X118612391Y-66145276D01*
X118612391Y-66145276D02*
X118517153Y-66192895D01*
X118517153Y-66192895D02*
X118326677Y-66240514D01*
X118326677Y-66240514D02*
X118088582Y-66240514D01*
X118088582Y-66240514D02*
X117898106Y-66192895D01*
X117898106Y-66192895D02*
X117802868Y-66145276D01*
X117802868Y-66145276D02*
X117755249Y-66097657D01*
X117755249Y-66097657D02*
X117707629Y-66002419D01*
X117707629Y-66002419D02*
X117707629Y-65907181D01*
X117707629Y-65907181D02*
X117755249Y-65811943D01*
X117755249Y-65811943D02*
X117802868Y-65764324D01*
X117802868Y-65764324D02*
X117898106Y-65716705D01*
X117898106Y-65716705D02*
X118088582Y-65669086D01*
X118088582Y-65669086D02*
X118326677Y-65669086D01*
X118326677Y-65669086D02*
X118517153Y-65716705D01*
X118517153Y-65716705D02*
X118612391Y-65764324D01*
X118612391Y-65764324D02*
X118660010Y-65811943D01*
X118660010Y-65811943D02*
X118707629Y-65907181D01*
X144437629Y-46430991D02*
X143437629Y-46764324D01*
X143437629Y-46764324D02*
X144437629Y-47097657D01*
X143437629Y-47430991D02*
X144437629Y-47430991D01*
X144437629Y-47430991D02*
X144437629Y-47811943D01*
X144437629Y-47811943D02*
X144390010Y-47907181D01*
X144390010Y-47907181D02*
X144342391Y-47954800D01*
X144342391Y-47954800D02*
X144247153Y-48002419D01*
X144247153Y-48002419D02*
X144104296Y-48002419D01*
X144104296Y-48002419D02*
X144009058Y-47954800D01*
X144009058Y-47954800D02*
X143961439Y-47907181D01*
X143961439Y-47907181D02*
X143913820Y-47811943D01*
X143913820Y-47811943D02*
X143913820Y-47430991D01*
X144485249Y-49145276D02*
X143199534Y-48288134D01*
X144390010Y-50002419D02*
X144437629Y-49907181D01*
X144437629Y-49907181D02*
X144437629Y-49764324D01*
X144437629Y-49764324D02*
X144390010Y-49621467D01*
X144390010Y-49621467D02*
X144294772Y-49526229D01*
X144294772Y-49526229D02*
X144199534Y-49478610D01*
X144199534Y-49478610D02*
X144009058Y-49430991D01*
X144009058Y-49430991D02*
X143866201Y-49430991D01*
X143866201Y-49430991D02*
X143675725Y-49478610D01*
X143675725Y-49478610D02*
X143580487Y-49526229D01*
X143580487Y-49526229D02*
X143485249Y-49621467D01*
X143485249Y-49621467D02*
X143437629Y-49764324D01*
X143437629Y-49764324D02*
X143437629Y-49859562D01*
X143437629Y-49859562D02*
X143485249Y-50002419D01*
X143485249Y-50002419D02*
X143532868Y-50050038D01*
X143532868Y-50050038D02*
X143866201Y-50050038D01*
X143866201Y-50050038D02*
X143866201Y-49859562D01*
X143437629Y-50478610D02*
X144437629Y-50478610D01*
X144437629Y-50478610D02*
X144437629Y-50859562D01*
X144437629Y-50859562D02*
X144390010Y-50954800D01*
X144390010Y-50954800D02*
X144342391Y-51002419D01*
X144342391Y-51002419D02*
X144247153Y-51050038D01*
X144247153Y-51050038D02*
X144104296Y-51050038D01*
X144104296Y-51050038D02*
X144009058Y-51002419D01*
X144009058Y-51002419D02*
X143961439Y-50954800D01*
X143961439Y-50954800D02*
X143913820Y-50859562D01*
X143913820Y-50859562D02*
X143913820Y-50478610D01*
X143437629Y-51478610D02*
X144437629Y-51478610D01*
X144437629Y-52145276D02*
X144437629Y-52335752D01*
X144437629Y-52335752D02*
X144390010Y-52430990D01*
X144390010Y-52430990D02*
X144294772Y-52526228D01*
X144294772Y-52526228D02*
X144104296Y-52573847D01*
X144104296Y-52573847D02*
X143770963Y-52573847D01*
X143770963Y-52573847D02*
X143580487Y-52526228D01*
X143580487Y-52526228D02*
X143485249Y-52430990D01*
X143485249Y-52430990D02*
X143437629Y-52335752D01*
X143437629Y-52335752D02*
X143437629Y-52145276D01*
X143437629Y-52145276D02*
X143485249Y-52050038D01*
X143485249Y-52050038D02*
X143580487Y-51954800D01*
X143580487Y-51954800D02*
X143770963Y-51907181D01*
X143770963Y-51907181D02*
X144104296Y-51907181D01*
X144104296Y-51907181D02*
X144294772Y-51954800D01*
X144294772Y-51954800D02*
X144390010Y-52050038D01*
X144390010Y-52050038D02*
X144437629Y-52145276D01*
X144437629Y-52907181D02*
X144437629Y-53526228D01*
X144437629Y-53526228D02*
X144056677Y-53192895D01*
X144056677Y-53192895D02*
X144056677Y-53335752D01*
X144056677Y-53335752D02*
X144009058Y-53430990D01*
X144009058Y-53430990D02*
X143961439Y-53478609D01*
X143961439Y-53478609D02*
X143866201Y-53526228D01*
X143866201Y-53526228D02*
X143628106Y-53526228D01*
X143628106Y-53526228D02*
X143532868Y-53478609D01*
X143532868Y-53478609D02*
X143485249Y-53430990D01*
X143485249Y-53430990D02*
X143437629Y-53335752D01*
X143437629Y-53335752D02*
X143437629Y-53050038D01*
X143437629Y-53050038D02*
X143485249Y-52954800D01*
X143485249Y-52954800D02*
X143532868Y-52907181D01*
X144437629Y-54383371D02*
X144437629Y-54192895D01*
X144437629Y-54192895D02*
X144390010Y-54097657D01*
X144390010Y-54097657D02*
X144342391Y-54050038D01*
X144342391Y-54050038D02*
X144199534Y-53954800D01*
X144199534Y-53954800D02*
X144009058Y-53907181D01*
X144009058Y-53907181D02*
X143628106Y-53907181D01*
X143628106Y-53907181D02*
X143532868Y-53954800D01*
X143532868Y-53954800D02*
X143485249Y-54002419D01*
X143485249Y-54002419D02*
X143437629Y-54097657D01*
X143437629Y-54097657D02*
X143437629Y-54288133D01*
X143437629Y-54288133D02*
X143485249Y-54383371D01*
X143485249Y-54383371D02*
X143532868Y-54430990D01*
X143532868Y-54430990D02*
X143628106Y-54478609D01*
X143628106Y-54478609D02*
X143866201Y-54478609D01*
X143866201Y-54478609D02*
X143961439Y-54430990D01*
X143961439Y-54430990D02*
X144009058Y-54383371D01*
X144009058Y-54383371D02*
X144056677Y-54288133D01*
X144056677Y-54288133D02*
X144056677Y-54097657D01*
X144056677Y-54097657D02*
X144009058Y-54002419D01*
X144009058Y-54002419D02*
X143961439Y-53954800D01*
X143961439Y-53954800D02*
X143866201Y-53907181D01*
X141787629Y-55430991D02*
X141787629Y-56002419D01*
X140787629Y-55716705D02*
X141787629Y-55716705D01*
X141787629Y-56240515D02*
X140787629Y-56907181D01*
X141787629Y-56907181D02*
X140787629Y-56240515D01*
X140787629Y-57288134D02*
X141787629Y-57288134D01*
X141787629Y-57288134D02*
X141787629Y-57526229D01*
X141787629Y-57526229D02*
X141740010Y-57669086D01*
X141740010Y-57669086D02*
X141644772Y-57764324D01*
X141644772Y-57764324D02*
X141549534Y-57811943D01*
X141549534Y-57811943D02*
X141359058Y-57859562D01*
X141359058Y-57859562D02*
X141216201Y-57859562D01*
X141216201Y-57859562D02*
X141025725Y-57811943D01*
X141025725Y-57811943D02*
X140930487Y-57764324D01*
X140930487Y-57764324D02*
X140835249Y-57669086D01*
X140835249Y-57669086D02*
X140787629Y-57526229D01*
X140787629Y-57526229D02*
X140787629Y-57288134D01*
X141787629Y-58478610D02*
X141787629Y-58573848D01*
X141787629Y-58573848D02*
X141740010Y-58669086D01*
X141740010Y-58669086D02*
X141692391Y-58716705D01*
X141692391Y-58716705D02*
X141597153Y-58764324D01*
X141597153Y-58764324D02*
X141406677Y-58811943D01*
X141406677Y-58811943D02*
X141168582Y-58811943D01*
X141168582Y-58811943D02*
X140978106Y-58764324D01*
X140978106Y-58764324D02*
X140882868Y-58716705D01*
X140882868Y-58716705D02*
X140835249Y-58669086D01*
X140835249Y-58669086D02*
X140787629Y-58573848D01*
X140787629Y-58573848D02*
X140787629Y-58478610D01*
X140787629Y-58478610D02*
X140835249Y-58383372D01*
X140835249Y-58383372D02*
X140882868Y-58335753D01*
X140882868Y-58335753D02*
X140978106Y-58288134D01*
X140978106Y-58288134D02*
X141168582Y-58240515D01*
X141168582Y-58240515D02*
X141406677Y-58240515D01*
X141406677Y-58240515D02*
X141597153Y-58288134D01*
X141597153Y-58288134D02*
X141692391Y-58335753D01*
X141692391Y-58335753D02*
X141740010Y-58383372D01*
X141740010Y-58383372D02*
X141787629Y-58478610D01*
X140787629Y-59764324D02*
X140787629Y-59192896D01*
X140787629Y-59478610D02*
X141787629Y-59478610D01*
X141787629Y-59478610D02*
X141644772Y-59383372D01*
X141644772Y-59383372D02*
X141549534Y-59288134D01*
X141549534Y-59288134D02*
X141501915Y-59192896D01*
X141835249Y-60907181D02*
X140549534Y-60050039D01*
X141740010Y-61764324D02*
X141787629Y-61669086D01*
X141787629Y-61669086D02*
X141787629Y-61526229D01*
X141787629Y-61526229D02*
X141740010Y-61383372D01*
X141740010Y-61383372D02*
X141644772Y-61288134D01*
X141644772Y-61288134D02*
X141549534Y-61240515D01*
X141549534Y-61240515D02*
X141359058Y-61192896D01*
X141359058Y-61192896D02*
X141216201Y-61192896D01*
X141216201Y-61192896D02*
X141025725Y-61240515D01*
X141025725Y-61240515D02*
X140930487Y-61288134D01*
X140930487Y-61288134D02*
X140835249Y-61383372D01*
X140835249Y-61383372D02*
X140787629Y-61526229D01*
X140787629Y-61526229D02*
X140787629Y-61621467D01*
X140787629Y-61621467D02*
X140835249Y-61764324D01*
X140835249Y-61764324D02*
X140882868Y-61811943D01*
X140882868Y-61811943D02*
X141216201Y-61811943D01*
X141216201Y-61811943D02*
X141216201Y-61621467D01*
X140787629Y-62240515D02*
X141787629Y-62240515D01*
X141787629Y-62240515D02*
X141787629Y-62621467D01*
X141787629Y-62621467D02*
X141740010Y-62716705D01*
X141740010Y-62716705D02*
X141692391Y-62764324D01*
X141692391Y-62764324D02*
X141597153Y-62811943D01*
X141597153Y-62811943D02*
X141454296Y-62811943D01*
X141454296Y-62811943D02*
X141359058Y-62764324D01*
X141359058Y-62764324D02*
X141311439Y-62716705D01*
X141311439Y-62716705D02*
X141263820Y-62621467D01*
X141263820Y-62621467D02*
X141263820Y-62240515D01*
X140787629Y-63240515D02*
X141787629Y-63240515D01*
X141787629Y-63907181D02*
X141787629Y-64097657D01*
X141787629Y-64097657D02*
X141740010Y-64192895D01*
X141740010Y-64192895D02*
X141644772Y-64288133D01*
X141644772Y-64288133D02*
X141454296Y-64335752D01*
X141454296Y-64335752D02*
X141120963Y-64335752D01*
X141120963Y-64335752D02*
X140930487Y-64288133D01*
X140930487Y-64288133D02*
X140835249Y-64192895D01*
X140835249Y-64192895D02*
X140787629Y-64097657D01*
X140787629Y-64097657D02*
X140787629Y-63907181D01*
X140787629Y-63907181D02*
X140835249Y-63811943D01*
X140835249Y-63811943D02*
X140930487Y-63716705D01*
X140930487Y-63716705D02*
X141120963Y-63669086D01*
X141120963Y-63669086D02*
X141454296Y-63669086D01*
X141454296Y-63669086D02*
X141644772Y-63716705D01*
X141644772Y-63716705D02*
X141740010Y-63811943D01*
X141740010Y-63811943D02*
X141787629Y-63907181D01*
X141787629Y-64954800D02*
X141787629Y-65050038D01*
X141787629Y-65050038D02*
X141740010Y-65145276D01*
X141740010Y-65145276D02*
X141692391Y-65192895D01*
X141692391Y-65192895D02*
X141597153Y-65240514D01*
X141597153Y-65240514D02*
X141406677Y-65288133D01*
X141406677Y-65288133D02*
X141168582Y-65288133D01*
X141168582Y-65288133D02*
X140978106Y-65240514D01*
X140978106Y-65240514D02*
X140882868Y-65192895D01*
X140882868Y-65192895D02*
X140835249Y-65145276D01*
X140835249Y-65145276D02*
X140787629Y-65050038D01*
X140787629Y-65050038D02*
X140787629Y-64954800D01*
X140787629Y-64954800D02*
X140835249Y-64859562D01*
X140835249Y-64859562D02*
X140882868Y-64811943D01*
X140882868Y-64811943D02*
X140978106Y-64764324D01*
X140978106Y-64764324D02*
X141168582Y-64716705D01*
X141168582Y-64716705D02*
X141406677Y-64716705D01*
X141406677Y-64716705D02*
X141597153Y-64764324D01*
X141597153Y-64764324D02*
X141692391Y-64811943D01*
X141692391Y-64811943D02*
X141740010Y-64859562D01*
X141740010Y-64859562D02*
X141787629Y-64954800D01*
X140787629Y-66240514D02*
X140787629Y-65669086D01*
X140787629Y-65954800D02*
X141787629Y-65954800D01*
X141787629Y-65954800D02*
X141644772Y-65859562D01*
X141644772Y-65859562D02*
X141549534Y-65764324D01*
X141549534Y-65764324D02*
X141501915Y-65669086D01*
X144180010Y-61764324D02*
X144227629Y-61669086D01*
X144227629Y-61669086D02*
X144227629Y-61526229D01*
X144227629Y-61526229D02*
X144180010Y-61383372D01*
X144180010Y-61383372D02*
X144084772Y-61288134D01*
X144084772Y-61288134D02*
X143989534Y-61240515D01*
X143989534Y-61240515D02*
X143799058Y-61192896D01*
X143799058Y-61192896D02*
X143656201Y-61192896D01*
X143656201Y-61192896D02*
X143465725Y-61240515D01*
X143465725Y-61240515D02*
X143370487Y-61288134D01*
X143370487Y-61288134D02*
X143275249Y-61383372D01*
X143275249Y-61383372D02*
X143227629Y-61526229D01*
X143227629Y-61526229D02*
X143227629Y-61621467D01*
X143227629Y-61621467D02*
X143275249Y-61764324D01*
X143275249Y-61764324D02*
X143322868Y-61811943D01*
X143322868Y-61811943D02*
X143656201Y-61811943D01*
X143656201Y-61811943D02*
X143656201Y-61621467D01*
X143227629Y-62240515D02*
X144227629Y-62240515D01*
X144227629Y-62240515D02*
X144227629Y-62621467D01*
X144227629Y-62621467D02*
X144180010Y-62716705D01*
X144180010Y-62716705D02*
X144132391Y-62764324D01*
X144132391Y-62764324D02*
X144037153Y-62811943D01*
X144037153Y-62811943D02*
X143894296Y-62811943D01*
X143894296Y-62811943D02*
X143799058Y-62764324D01*
X143799058Y-62764324D02*
X143751439Y-62716705D01*
X143751439Y-62716705D02*
X143703820Y-62621467D01*
X143703820Y-62621467D02*
X143703820Y-62240515D01*
X143227629Y-63240515D02*
X144227629Y-63240515D01*
X144227629Y-63907181D02*
X144227629Y-64097657D01*
X144227629Y-64097657D02*
X144180010Y-64192895D01*
X144180010Y-64192895D02*
X144084772Y-64288133D01*
X144084772Y-64288133D02*
X143894296Y-64335752D01*
X143894296Y-64335752D02*
X143560963Y-64335752D01*
X143560963Y-64335752D02*
X143370487Y-64288133D01*
X143370487Y-64288133D02*
X143275249Y-64192895D01*
X143275249Y-64192895D02*
X143227629Y-64097657D01*
X143227629Y-64097657D02*
X143227629Y-63907181D01*
X143227629Y-63907181D02*
X143275249Y-63811943D01*
X143275249Y-63811943D02*
X143370487Y-63716705D01*
X143370487Y-63716705D02*
X143560963Y-63669086D01*
X143560963Y-63669086D02*
X143894296Y-63669086D01*
X143894296Y-63669086D02*
X144084772Y-63716705D01*
X144084772Y-63716705D02*
X144180010Y-63811943D01*
X144180010Y-63811943D02*
X144227629Y-63907181D01*
X144132391Y-64716705D02*
X144180010Y-64764324D01*
X144180010Y-64764324D02*
X144227629Y-64859562D01*
X144227629Y-64859562D02*
X144227629Y-65097657D01*
X144227629Y-65097657D02*
X144180010Y-65192895D01*
X144180010Y-65192895D02*
X144132391Y-65240514D01*
X144132391Y-65240514D02*
X144037153Y-65288133D01*
X144037153Y-65288133D02*
X143941915Y-65288133D01*
X143941915Y-65288133D02*
X143799058Y-65240514D01*
X143799058Y-65240514D02*
X143227629Y-64669086D01*
X143227629Y-64669086D02*
X143227629Y-65288133D01*
X144132391Y-65669086D02*
X144180010Y-65716705D01*
X144180010Y-65716705D02*
X144227629Y-65811943D01*
X144227629Y-65811943D02*
X144227629Y-66050038D01*
X144227629Y-66050038D02*
X144180010Y-66145276D01*
X144180010Y-66145276D02*
X144132391Y-66192895D01*
X144132391Y-66192895D02*
X144037153Y-66240514D01*
X144037153Y-66240514D02*
X143941915Y-66240514D01*
X143941915Y-66240514D02*
X143799058Y-66192895D01*
X143799058Y-66192895D02*
X143227629Y-65621467D01*
X143227629Y-65621467D02*
X143227629Y-66240514D01*
X149437629Y-46478610D02*
X149437629Y-47097657D01*
X149437629Y-47097657D02*
X149056677Y-46764324D01*
X149056677Y-46764324D02*
X149056677Y-46907181D01*
X149056677Y-46907181D02*
X149009058Y-47002419D01*
X149009058Y-47002419D02*
X148961439Y-47050038D01*
X148961439Y-47050038D02*
X148866201Y-47097657D01*
X148866201Y-47097657D02*
X148628106Y-47097657D01*
X148628106Y-47097657D02*
X148532868Y-47050038D01*
X148532868Y-47050038D02*
X148485249Y-47002419D01*
X148485249Y-47002419D02*
X148437629Y-46907181D01*
X148437629Y-46907181D02*
X148437629Y-46621467D01*
X148437629Y-46621467D02*
X148485249Y-46526229D01*
X148485249Y-46526229D02*
X148532868Y-46478610D01*
X149437629Y-47383372D02*
X148437629Y-47716705D01*
X148437629Y-47716705D02*
X149437629Y-48050038D01*
X149437629Y-48288134D02*
X149437629Y-48907181D01*
X149437629Y-48907181D02*
X149056677Y-48573848D01*
X149056677Y-48573848D02*
X149056677Y-48716705D01*
X149056677Y-48716705D02*
X149009058Y-48811943D01*
X149009058Y-48811943D02*
X148961439Y-48859562D01*
X148961439Y-48859562D02*
X148866201Y-48907181D01*
X148866201Y-48907181D02*
X148628106Y-48907181D01*
X148628106Y-48907181D02*
X148532868Y-48859562D01*
X148532868Y-48859562D02*
X148485249Y-48811943D01*
X148485249Y-48811943D02*
X148437629Y-48716705D01*
X148437629Y-48716705D02*
X148437629Y-48430991D01*
X148437629Y-48430991D02*
X148485249Y-48335753D01*
X148485249Y-48335753D02*
X148532868Y-48288134D01*
X113710010Y-61764324D02*
X113757629Y-61669086D01*
X113757629Y-61669086D02*
X113757629Y-61526229D01*
X113757629Y-61526229D02*
X113710010Y-61383372D01*
X113710010Y-61383372D02*
X113614772Y-61288134D01*
X113614772Y-61288134D02*
X113519534Y-61240515D01*
X113519534Y-61240515D02*
X113329058Y-61192896D01*
X113329058Y-61192896D02*
X113186201Y-61192896D01*
X113186201Y-61192896D02*
X112995725Y-61240515D01*
X112995725Y-61240515D02*
X112900487Y-61288134D01*
X112900487Y-61288134D02*
X112805249Y-61383372D01*
X112805249Y-61383372D02*
X112757629Y-61526229D01*
X112757629Y-61526229D02*
X112757629Y-61621467D01*
X112757629Y-61621467D02*
X112805249Y-61764324D01*
X112805249Y-61764324D02*
X112852868Y-61811943D01*
X112852868Y-61811943D02*
X113186201Y-61811943D01*
X113186201Y-61811943D02*
X113186201Y-61621467D01*
X112757629Y-62240515D02*
X113757629Y-62240515D01*
X113757629Y-62240515D02*
X113757629Y-62621467D01*
X113757629Y-62621467D02*
X113710010Y-62716705D01*
X113710010Y-62716705D02*
X113662391Y-62764324D01*
X113662391Y-62764324D02*
X113567153Y-62811943D01*
X113567153Y-62811943D02*
X113424296Y-62811943D01*
X113424296Y-62811943D02*
X113329058Y-62764324D01*
X113329058Y-62764324D02*
X113281439Y-62716705D01*
X113281439Y-62716705D02*
X113233820Y-62621467D01*
X113233820Y-62621467D02*
X113233820Y-62240515D01*
X112757629Y-63240515D02*
X113757629Y-63240515D01*
X113757629Y-63907181D02*
X113757629Y-64097657D01*
X113757629Y-64097657D02*
X113710010Y-64192895D01*
X113710010Y-64192895D02*
X113614772Y-64288133D01*
X113614772Y-64288133D02*
X113424296Y-64335752D01*
X113424296Y-64335752D02*
X113090963Y-64335752D01*
X113090963Y-64335752D02*
X112900487Y-64288133D01*
X112900487Y-64288133D02*
X112805249Y-64192895D01*
X112805249Y-64192895D02*
X112757629Y-64097657D01*
X112757629Y-64097657D02*
X112757629Y-63907181D01*
X112757629Y-63907181D02*
X112805249Y-63811943D01*
X112805249Y-63811943D02*
X112900487Y-63716705D01*
X112900487Y-63716705D02*
X113090963Y-63669086D01*
X113090963Y-63669086D02*
X113424296Y-63669086D01*
X113424296Y-63669086D02*
X113614772Y-63716705D01*
X113614772Y-63716705D02*
X113710010Y-63811943D01*
X113710010Y-63811943D02*
X113757629Y-63907181D01*
X112757629Y-65288133D02*
X112757629Y-64716705D01*
X112757629Y-65002419D02*
X113757629Y-65002419D01*
X113757629Y-65002419D02*
X113614772Y-64907181D01*
X113614772Y-64907181D02*
X113519534Y-64811943D01*
X113519534Y-64811943D02*
X113471915Y-64716705D01*
X113757629Y-66192895D02*
X113757629Y-65716705D01*
X113757629Y-65716705D02*
X113281439Y-65669086D01*
X113281439Y-65669086D02*
X113329058Y-65716705D01*
X113329058Y-65716705D02*
X113376677Y-65811943D01*
X113376677Y-65811943D02*
X113376677Y-66050038D01*
X113376677Y-66050038D02*
X113329058Y-66145276D01*
X113329058Y-66145276D02*
X113281439Y-66192895D01*
X113281439Y-66192895D02*
X113186201Y-66240514D01*
X113186201Y-66240514D02*
X112948106Y-66240514D01*
X112948106Y-66240514D02*
X112852868Y-66192895D01*
X112852868Y-66192895D02*
X112805249Y-66145276D01*
X112805249Y-66145276D02*
X112757629Y-66050038D01*
X112757629Y-66050038D02*
X112757629Y-65811943D01*
X112757629Y-65811943D02*
X112805249Y-65716705D01*
X112805249Y-65716705D02*
X112852868Y-65669086D01*
X129170010Y-47097657D02*
X129217629Y-47002419D01*
X129217629Y-47002419D02*
X129217629Y-46859562D01*
X129217629Y-46859562D02*
X129170010Y-46716705D01*
X129170010Y-46716705D02*
X129074772Y-46621467D01*
X129074772Y-46621467D02*
X128979534Y-46573848D01*
X128979534Y-46573848D02*
X128789058Y-46526229D01*
X128789058Y-46526229D02*
X128646201Y-46526229D01*
X128646201Y-46526229D02*
X128455725Y-46573848D01*
X128455725Y-46573848D02*
X128360487Y-46621467D01*
X128360487Y-46621467D02*
X128265249Y-46716705D01*
X128265249Y-46716705D02*
X128217629Y-46859562D01*
X128217629Y-46859562D02*
X128217629Y-46954800D01*
X128217629Y-46954800D02*
X128265249Y-47097657D01*
X128265249Y-47097657D02*
X128312868Y-47145276D01*
X128312868Y-47145276D02*
X128646201Y-47145276D01*
X128646201Y-47145276D02*
X128646201Y-46954800D01*
X128217629Y-47573848D02*
X129217629Y-47573848D01*
X129217629Y-47573848D02*
X129217629Y-47954800D01*
X129217629Y-47954800D02*
X129170010Y-48050038D01*
X129170010Y-48050038D02*
X129122391Y-48097657D01*
X129122391Y-48097657D02*
X129027153Y-48145276D01*
X129027153Y-48145276D02*
X128884296Y-48145276D01*
X128884296Y-48145276D02*
X128789058Y-48097657D01*
X128789058Y-48097657D02*
X128741439Y-48050038D01*
X128741439Y-48050038D02*
X128693820Y-47954800D01*
X128693820Y-47954800D02*
X128693820Y-47573848D01*
X128217629Y-48573848D02*
X129217629Y-48573848D01*
X129217629Y-49240514D02*
X129217629Y-49430990D01*
X129217629Y-49430990D02*
X129170010Y-49526228D01*
X129170010Y-49526228D02*
X129074772Y-49621466D01*
X129074772Y-49621466D02*
X128884296Y-49669085D01*
X128884296Y-49669085D02*
X128550963Y-49669085D01*
X128550963Y-49669085D02*
X128360487Y-49621466D01*
X128360487Y-49621466D02*
X128265249Y-49526228D01*
X128265249Y-49526228D02*
X128217629Y-49430990D01*
X128217629Y-49430990D02*
X128217629Y-49240514D01*
X128217629Y-49240514D02*
X128265249Y-49145276D01*
X128265249Y-49145276D02*
X128360487Y-49050038D01*
X128360487Y-49050038D02*
X128550963Y-49002419D01*
X128550963Y-49002419D02*
X128884296Y-49002419D01*
X128884296Y-49002419D02*
X129074772Y-49050038D01*
X129074772Y-49050038D02*
X129170010Y-49145276D01*
X129170010Y-49145276D02*
X129217629Y-49240514D01*
X129122391Y-50050038D02*
X129170010Y-50097657D01*
X129170010Y-50097657D02*
X129217629Y-50192895D01*
X129217629Y-50192895D02*
X129217629Y-50430990D01*
X129217629Y-50430990D02*
X129170010Y-50526228D01*
X129170010Y-50526228D02*
X129122391Y-50573847D01*
X129122391Y-50573847D02*
X129027153Y-50621466D01*
X129027153Y-50621466D02*
X128931915Y-50621466D01*
X128931915Y-50621466D02*
X128789058Y-50573847D01*
X128789058Y-50573847D02*
X128217629Y-50002419D01*
X128217629Y-50002419D02*
X128217629Y-50621466D01*
X129217629Y-51478609D02*
X129217629Y-51288133D01*
X129217629Y-51288133D02*
X129170010Y-51192895D01*
X129170010Y-51192895D02*
X129122391Y-51145276D01*
X129122391Y-51145276D02*
X128979534Y-51050038D01*
X128979534Y-51050038D02*
X128789058Y-51002419D01*
X128789058Y-51002419D02*
X128408106Y-51002419D01*
X128408106Y-51002419D02*
X128312868Y-51050038D01*
X128312868Y-51050038D02*
X128265249Y-51097657D01*
X128265249Y-51097657D02*
X128217629Y-51192895D01*
X128217629Y-51192895D02*
X128217629Y-51383371D01*
X128217629Y-51383371D02*
X128265249Y-51478609D01*
X128265249Y-51478609D02*
X128312868Y-51526228D01*
X128312868Y-51526228D02*
X128408106Y-51573847D01*
X128408106Y-51573847D02*
X128646201Y-51573847D01*
X128646201Y-51573847D02*
X128741439Y-51526228D01*
X128741439Y-51526228D02*
X128789058Y-51478609D01*
X128789058Y-51478609D02*
X128836677Y-51383371D01*
X128836677Y-51383371D02*
X128836677Y-51192895D01*
X128836677Y-51192895D02*
X128789058Y-51097657D01*
X128789058Y-51097657D02*
X128741439Y-51050038D01*
X128741439Y-51050038D02*
X128646201Y-51002419D01*
X146590010Y-61764324D02*
X146637629Y-61669086D01*
X146637629Y-61669086D02*
X146637629Y-61526229D01*
X146637629Y-61526229D02*
X146590010Y-61383372D01*
X146590010Y-61383372D02*
X146494772Y-61288134D01*
X146494772Y-61288134D02*
X146399534Y-61240515D01*
X146399534Y-61240515D02*
X146209058Y-61192896D01*
X146209058Y-61192896D02*
X146066201Y-61192896D01*
X146066201Y-61192896D02*
X145875725Y-61240515D01*
X145875725Y-61240515D02*
X145780487Y-61288134D01*
X145780487Y-61288134D02*
X145685249Y-61383372D01*
X145685249Y-61383372D02*
X145637629Y-61526229D01*
X145637629Y-61526229D02*
X145637629Y-61621467D01*
X145637629Y-61621467D02*
X145685249Y-61764324D01*
X145685249Y-61764324D02*
X145732868Y-61811943D01*
X145732868Y-61811943D02*
X146066201Y-61811943D01*
X146066201Y-61811943D02*
X146066201Y-61621467D01*
X145637629Y-62240515D02*
X146637629Y-62240515D01*
X146637629Y-62240515D02*
X146637629Y-62621467D01*
X146637629Y-62621467D02*
X146590010Y-62716705D01*
X146590010Y-62716705D02*
X146542391Y-62764324D01*
X146542391Y-62764324D02*
X146447153Y-62811943D01*
X146447153Y-62811943D02*
X146304296Y-62811943D01*
X146304296Y-62811943D02*
X146209058Y-62764324D01*
X146209058Y-62764324D02*
X146161439Y-62716705D01*
X146161439Y-62716705D02*
X146113820Y-62621467D01*
X146113820Y-62621467D02*
X146113820Y-62240515D01*
X145637629Y-63240515D02*
X146637629Y-63240515D01*
X146637629Y-63907181D02*
X146637629Y-64097657D01*
X146637629Y-64097657D02*
X146590010Y-64192895D01*
X146590010Y-64192895D02*
X146494772Y-64288133D01*
X146494772Y-64288133D02*
X146304296Y-64335752D01*
X146304296Y-64335752D02*
X145970963Y-64335752D01*
X145970963Y-64335752D02*
X145780487Y-64288133D01*
X145780487Y-64288133D02*
X145685249Y-64192895D01*
X145685249Y-64192895D02*
X145637629Y-64097657D01*
X145637629Y-64097657D02*
X145637629Y-63907181D01*
X145637629Y-63907181D02*
X145685249Y-63811943D01*
X145685249Y-63811943D02*
X145780487Y-63716705D01*
X145780487Y-63716705D02*
X145970963Y-63669086D01*
X145970963Y-63669086D02*
X146304296Y-63669086D01*
X146304296Y-63669086D02*
X146494772Y-63716705D01*
X146494772Y-63716705D02*
X146590010Y-63811943D01*
X146590010Y-63811943D02*
X146637629Y-63907181D01*
X146542391Y-64716705D02*
X146590010Y-64764324D01*
X146590010Y-64764324D02*
X146637629Y-64859562D01*
X146637629Y-64859562D02*
X146637629Y-65097657D01*
X146637629Y-65097657D02*
X146590010Y-65192895D01*
X146590010Y-65192895D02*
X146542391Y-65240514D01*
X146542391Y-65240514D02*
X146447153Y-65288133D01*
X146447153Y-65288133D02*
X146351915Y-65288133D01*
X146351915Y-65288133D02*
X146209058Y-65240514D01*
X146209058Y-65240514D02*
X145637629Y-64669086D01*
X145637629Y-64669086D02*
X145637629Y-65288133D01*
X146637629Y-65621467D02*
X146637629Y-66240514D01*
X146637629Y-66240514D02*
X146256677Y-65907181D01*
X146256677Y-65907181D02*
X146256677Y-66050038D01*
X146256677Y-66050038D02*
X146209058Y-66145276D01*
X146209058Y-66145276D02*
X146161439Y-66192895D01*
X146161439Y-66192895D02*
X146066201Y-66240514D01*
X146066201Y-66240514D02*
X145828106Y-66240514D01*
X145828106Y-66240514D02*
X145732868Y-66192895D01*
X145732868Y-66192895D02*
X145685249Y-66145276D01*
X145685249Y-66145276D02*
X145637629Y-66050038D01*
X145637629Y-66050038D02*
X145637629Y-65764324D01*
X145637629Y-65764324D02*
X145685249Y-65669086D01*
X145685249Y-65669086D02*
X145732868Y-65621467D01*
X92892266Y-46398573D02*
X93035123Y-46446192D01*
X93035123Y-46446192D02*
X93082742Y-46493811D01*
X93082742Y-46493811D02*
X93130361Y-46589049D01*
X93130361Y-46589049D02*
X93130361Y-46731906D01*
X93130361Y-46731906D02*
X93082742Y-46827144D01*
X93082742Y-46827144D02*
X93035123Y-46874764D01*
X93035123Y-46874764D02*
X92939885Y-46922383D01*
X92939885Y-46922383D02*
X92558933Y-46922383D01*
X92558933Y-46922383D02*
X92558933Y-45922383D01*
X92558933Y-45922383D02*
X92892266Y-45922383D01*
X92892266Y-45922383D02*
X92987504Y-45970002D01*
X92987504Y-45970002D02*
X93035123Y-46017621D01*
X93035123Y-46017621D02*
X93082742Y-46112859D01*
X93082742Y-46112859D02*
X93082742Y-46208097D01*
X93082742Y-46208097D02*
X93035123Y-46303335D01*
X93035123Y-46303335D02*
X92987504Y-46350954D01*
X92987504Y-46350954D02*
X92892266Y-46398573D01*
X92892266Y-46398573D02*
X92558933Y-46398573D01*
X93987504Y-46922383D02*
X93987504Y-46398573D01*
X93987504Y-46398573D02*
X93939885Y-46303335D01*
X93939885Y-46303335D02*
X93844647Y-46255716D01*
X93844647Y-46255716D02*
X93654171Y-46255716D01*
X93654171Y-46255716D02*
X93558933Y-46303335D01*
X93987504Y-46874764D02*
X93892266Y-46922383D01*
X93892266Y-46922383D02*
X93654171Y-46922383D01*
X93654171Y-46922383D02*
X93558933Y-46874764D01*
X93558933Y-46874764D02*
X93511314Y-46779525D01*
X93511314Y-46779525D02*
X93511314Y-46684287D01*
X93511314Y-46684287D02*
X93558933Y-46589049D01*
X93558933Y-46589049D02*
X93654171Y-46541430D01*
X93654171Y-46541430D02*
X93892266Y-46541430D01*
X93892266Y-46541430D02*
X93987504Y-46493811D01*
X94320838Y-46255716D02*
X94701790Y-46255716D01*
X94463695Y-45922383D02*
X94463695Y-46779525D01*
X94463695Y-46779525D02*
X94511314Y-46874764D01*
X94511314Y-46874764D02*
X94606552Y-46922383D01*
X94606552Y-46922383D02*
X94701790Y-46922383D01*
X94892267Y-46255716D02*
X95273219Y-46255716D01*
X95035124Y-45922383D02*
X95035124Y-46779525D01*
X95035124Y-46779525D02*
X95082743Y-46874764D01*
X95082743Y-46874764D02*
X95177981Y-46922383D01*
X95177981Y-46922383D02*
X95273219Y-46922383D01*
X95987505Y-46874764D02*
X95892267Y-46922383D01*
X95892267Y-46922383D02*
X95701791Y-46922383D01*
X95701791Y-46922383D02*
X95606553Y-46874764D01*
X95606553Y-46874764D02*
X95558934Y-46779525D01*
X95558934Y-46779525D02*
X95558934Y-46398573D01*
X95558934Y-46398573D02*
X95606553Y-46303335D01*
X95606553Y-46303335D02*
X95701791Y-46255716D01*
X95701791Y-46255716D02*
X95892267Y-46255716D01*
X95892267Y-46255716D02*
X95987505Y-46303335D01*
X95987505Y-46303335D02*
X96035124Y-46398573D01*
X96035124Y-46398573D02*
X96035124Y-46493811D01*
X96035124Y-46493811D02*
X95558934Y-46589049D01*
X96463696Y-46922383D02*
X96463696Y-46255716D01*
X96463696Y-46446192D02*
X96511315Y-46350954D01*
X96511315Y-46350954D02*
X96558934Y-46303335D01*
X96558934Y-46303335D02*
X96654172Y-46255716D01*
X96654172Y-46255716D02*
X96749410Y-46255716D01*
X96987506Y-46255716D02*
X97225601Y-46922383D01*
X97463696Y-46255716D02*
X97225601Y-46922383D01*
X97225601Y-46922383D02*
X97130363Y-47160478D01*
X97130363Y-47160478D02*
X97082744Y-47208097D01*
X97082744Y-47208097D02*
X96987506Y-47255716D01*
X133930010Y-61764324D02*
X133977629Y-61669086D01*
X133977629Y-61669086D02*
X133977629Y-61526229D01*
X133977629Y-61526229D02*
X133930010Y-61383372D01*
X133930010Y-61383372D02*
X133834772Y-61288134D01*
X133834772Y-61288134D02*
X133739534Y-61240515D01*
X133739534Y-61240515D02*
X133549058Y-61192896D01*
X133549058Y-61192896D02*
X133406201Y-61192896D01*
X133406201Y-61192896D02*
X133215725Y-61240515D01*
X133215725Y-61240515D02*
X133120487Y-61288134D01*
X133120487Y-61288134D02*
X133025249Y-61383372D01*
X133025249Y-61383372D02*
X132977629Y-61526229D01*
X132977629Y-61526229D02*
X132977629Y-61621467D01*
X132977629Y-61621467D02*
X133025249Y-61764324D01*
X133025249Y-61764324D02*
X133072868Y-61811943D01*
X133072868Y-61811943D02*
X133406201Y-61811943D01*
X133406201Y-61811943D02*
X133406201Y-61621467D01*
X132977629Y-62240515D02*
X133977629Y-62240515D01*
X133977629Y-62240515D02*
X133977629Y-62621467D01*
X133977629Y-62621467D02*
X133930010Y-62716705D01*
X133930010Y-62716705D02*
X133882391Y-62764324D01*
X133882391Y-62764324D02*
X133787153Y-62811943D01*
X133787153Y-62811943D02*
X133644296Y-62811943D01*
X133644296Y-62811943D02*
X133549058Y-62764324D01*
X133549058Y-62764324D02*
X133501439Y-62716705D01*
X133501439Y-62716705D02*
X133453820Y-62621467D01*
X133453820Y-62621467D02*
X133453820Y-62240515D01*
X132977629Y-63240515D02*
X133977629Y-63240515D01*
X133977629Y-63907181D02*
X133977629Y-64097657D01*
X133977629Y-64097657D02*
X133930010Y-64192895D01*
X133930010Y-64192895D02*
X133834772Y-64288133D01*
X133834772Y-64288133D02*
X133644296Y-64335752D01*
X133644296Y-64335752D02*
X133310963Y-64335752D01*
X133310963Y-64335752D02*
X133120487Y-64288133D01*
X133120487Y-64288133D02*
X133025249Y-64192895D01*
X133025249Y-64192895D02*
X132977629Y-64097657D01*
X132977629Y-64097657D02*
X132977629Y-63907181D01*
X132977629Y-63907181D02*
X133025249Y-63811943D01*
X133025249Y-63811943D02*
X133120487Y-63716705D01*
X133120487Y-63716705D02*
X133310963Y-63669086D01*
X133310963Y-63669086D02*
X133644296Y-63669086D01*
X133644296Y-63669086D02*
X133834772Y-63716705D01*
X133834772Y-63716705D02*
X133930010Y-63811943D01*
X133930010Y-63811943D02*
X133977629Y-63907181D01*
X132977629Y-65288133D02*
X132977629Y-64716705D01*
X132977629Y-65002419D02*
X133977629Y-65002419D01*
X133977629Y-65002419D02*
X133834772Y-64907181D01*
X133834772Y-64907181D02*
X133739534Y-64811943D01*
X133739534Y-64811943D02*
X133691915Y-64716705D01*
X132977629Y-65764324D02*
X132977629Y-65954800D01*
X132977629Y-65954800D02*
X133025249Y-66050038D01*
X133025249Y-66050038D02*
X133072868Y-66097657D01*
X133072868Y-66097657D02*
X133215725Y-66192895D01*
X133215725Y-66192895D02*
X133406201Y-66240514D01*
X133406201Y-66240514D02*
X133787153Y-66240514D01*
X133787153Y-66240514D02*
X133882391Y-66192895D01*
X133882391Y-66192895D02*
X133930010Y-66145276D01*
X133930010Y-66145276D02*
X133977629Y-66050038D01*
X133977629Y-66050038D02*
X133977629Y-65859562D01*
X133977629Y-65859562D02*
X133930010Y-65764324D01*
X133930010Y-65764324D02*
X133882391Y-65716705D01*
X133882391Y-65716705D02*
X133787153Y-65669086D01*
X133787153Y-65669086D02*
X133549058Y-65669086D01*
X133549058Y-65669086D02*
X133453820Y-65716705D01*
X133453820Y-65716705D02*
X133406201Y-65764324D01*
X133406201Y-65764324D02*
X133358582Y-65859562D01*
X133358582Y-65859562D02*
X133358582Y-66050038D01*
X133358582Y-66050038D02*
X133406201Y-66145276D01*
X133406201Y-66145276D02*
X133453820Y-66192895D01*
X133453820Y-66192895D02*
X133549058Y-66240514D01*
X136610010Y-47097657D02*
X136657629Y-47002419D01*
X136657629Y-47002419D02*
X136657629Y-46859562D01*
X136657629Y-46859562D02*
X136610010Y-46716705D01*
X136610010Y-46716705D02*
X136514772Y-46621467D01*
X136514772Y-46621467D02*
X136419534Y-46573848D01*
X136419534Y-46573848D02*
X136229058Y-46526229D01*
X136229058Y-46526229D02*
X136086201Y-46526229D01*
X136086201Y-46526229D02*
X135895725Y-46573848D01*
X135895725Y-46573848D02*
X135800487Y-46621467D01*
X135800487Y-46621467D02*
X135705249Y-46716705D01*
X135705249Y-46716705D02*
X135657629Y-46859562D01*
X135657629Y-46859562D02*
X135657629Y-46954800D01*
X135657629Y-46954800D02*
X135705249Y-47097657D01*
X135705249Y-47097657D02*
X135752868Y-47145276D01*
X135752868Y-47145276D02*
X136086201Y-47145276D01*
X136086201Y-47145276D02*
X136086201Y-46954800D01*
X135657629Y-47573848D02*
X136657629Y-47573848D01*
X136657629Y-47573848D02*
X136657629Y-47954800D01*
X136657629Y-47954800D02*
X136610010Y-48050038D01*
X136610010Y-48050038D02*
X136562391Y-48097657D01*
X136562391Y-48097657D02*
X136467153Y-48145276D01*
X136467153Y-48145276D02*
X136324296Y-48145276D01*
X136324296Y-48145276D02*
X136229058Y-48097657D01*
X136229058Y-48097657D02*
X136181439Y-48050038D01*
X136181439Y-48050038D02*
X136133820Y-47954800D01*
X136133820Y-47954800D02*
X136133820Y-47573848D01*
X135657629Y-48573848D02*
X136657629Y-48573848D01*
X136657629Y-49240514D02*
X136657629Y-49430990D01*
X136657629Y-49430990D02*
X136610010Y-49526228D01*
X136610010Y-49526228D02*
X136514772Y-49621466D01*
X136514772Y-49621466D02*
X136324296Y-49669085D01*
X136324296Y-49669085D02*
X135990963Y-49669085D01*
X135990963Y-49669085D02*
X135800487Y-49621466D01*
X135800487Y-49621466D02*
X135705249Y-49526228D01*
X135705249Y-49526228D02*
X135657629Y-49430990D01*
X135657629Y-49430990D02*
X135657629Y-49240514D01*
X135657629Y-49240514D02*
X135705249Y-49145276D01*
X135705249Y-49145276D02*
X135800487Y-49050038D01*
X135800487Y-49050038D02*
X135990963Y-49002419D01*
X135990963Y-49002419D02*
X136324296Y-49002419D01*
X136324296Y-49002419D02*
X136514772Y-49050038D01*
X136514772Y-49050038D02*
X136610010Y-49145276D01*
X136610010Y-49145276D02*
X136657629Y-49240514D01*
X136657629Y-50002419D02*
X136657629Y-50621466D01*
X136657629Y-50621466D02*
X136276677Y-50288133D01*
X136276677Y-50288133D02*
X136276677Y-50430990D01*
X136276677Y-50430990D02*
X136229058Y-50526228D01*
X136229058Y-50526228D02*
X136181439Y-50573847D01*
X136181439Y-50573847D02*
X136086201Y-50621466D01*
X136086201Y-50621466D02*
X135848106Y-50621466D01*
X135848106Y-50621466D02*
X135752868Y-50573847D01*
X135752868Y-50573847D02*
X135705249Y-50526228D01*
X135705249Y-50526228D02*
X135657629Y-50430990D01*
X135657629Y-50430990D02*
X135657629Y-50145276D01*
X135657629Y-50145276D02*
X135705249Y-50050038D01*
X135705249Y-50050038D02*
X135752868Y-50002419D01*
X136562391Y-51002419D02*
X136610010Y-51050038D01*
X136610010Y-51050038D02*
X136657629Y-51145276D01*
X136657629Y-51145276D02*
X136657629Y-51383371D01*
X136657629Y-51383371D02*
X136610010Y-51478609D01*
X136610010Y-51478609D02*
X136562391Y-51526228D01*
X136562391Y-51526228D02*
X136467153Y-51573847D01*
X136467153Y-51573847D02*
X136371915Y-51573847D01*
X136371915Y-51573847D02*
X136229058Y-51526228D01*
X136229058Y-51526228D02*
X135657629Y-50954800D01*
X135657629Y-50954800D02*
X135657629Y-51573847D01*
X125447629Y-64621467D02*
X126447629Y-64621467D01*
X126447629Y-64621467D02*
X125447629Y-65192895D01*
X125447629Y-65192895D02*
X126447629Y-65192895D01*
X125542868Y-66240514D02*
X125495249Y-66192895D01*
X125495249Y-66192895D02*
X125447629Y-66050038D01*
X125447629Y-66050038D02*
X125447629Y-65954800D01*
X125447629Y-65954800D02*
X125495249Y-65811943D01*
X125495249Y-65811943D02*
X125590487Y-65716705D01*
X125590487Y-65716705D02*
X125685725Y-65669086D01*
X125685725Y-65669086D02*
X125876201Y-65621467D01*
X125876201Y-65621467D02*
X126019058Y-65621467D01*
X126019058Y-65621467D02*
X126209534Y-65669086D01*
X126209534Y-65669086D02*
X126304772Y-65716705D01*
X126304772Y-65716705D02*
X126400010Y-65811943D01*
X126400010Y-65811943D02*
X126447629Y-65954800D01*
X126447629Y-65954800D02*
X126447629Y-66050038D01*
X126447629Y-66050038D02*
X126400010Y-66192895D01*
X126400010Y-66192895D02*
X126352391Y-66240514D01*
X111210010Y-64145276D02*
X111257629Y-64050038D01*
X111257629Y-64050038D02*
X111257629Y-63907181D01*
X111257629Y-63907181D02*
X111210010Y-63764324D01*
X111210010Y-63764324D02*
X111114772Y-63669086D01*
X111114772Y-63669086D02*
X111019534Y-63621467D01*
X111019534Y-63621467D02*
X110829058Y-63573848D01*
X110829058Y-63573848D02*
X110686201Y-63573848D01*
X110686201Y-63573848D02*
X110495725Y-63621467D01*
X110495725Y-63621467D02*
X110400487Y-63669086D01*
X110400487Y-63669086D02*
X110305249Y-63764324D01*
X110305249Y-63764324D02*
X110257629Y-63907181D01*
X110257629Y-63907181D02*
X110257629Y-64002419D01*
X110257629Y-64002419D02*
X110305249Y-64145276D01*
X110305249Y-64145276D02*
X110352868Y-64192895D01*
X110352868Y-64192895D02*
X110686201Y-64192895D01*
X110686201Y-64192895D02*
X110686201Y-64002419D01*
X110257629Y-64621467D02*
X111257629Y-64621467D01*
X111257629Y-64621467D02*
X110257629Y-65192895D01*
X110257629Y-65192895D02*
X111257629Y-65192895D01*
X110257629Y-65669086D02*
X111257629Y-65669086D01*
X111257629Y-65669086D02*
X111257629Y-65907181D01*
X111257629Y-65907181D02*
X111210010Y-66050038D01*
X111210010Y-66050038D02*
X111114772Y-66145276D01*
X111114772Y-66145276D02*
X111019534Y-66192895D01*
X111019534Y-66192895D02*
X110829058Y-66240514D01*
X110829058Y-66240514D02*
X110686201Y-66240514D01*
X110686201Y-66240514D02*
X110495725Y-66192895D01*
X110495725Y-66192895D02*
X110400487Y-66145276D01*
X110400487Y-66145276D02*
X110305249Y-66050038D01*
X110305249Y-66050038D02*
X110257629Y-65907181D01*
X110257629Y-65907181D02*
X110257629Y-65669086D01*
X123910010Y-47097657D02*
X123957629Y-47002419D01*
X123957629Y-47002419D02*
X123957629Y-46859562D01*
X123957629Y-46859562D02*
X123910010Y-46716705D01*
X123910010Y-46716705D02*
X123814772Y-46621467D01*
X123814772Y-46621467D02*
X123719534Y-46573848D01*
X123719534Y-46573848D02*
X123529058Y-46526229D01*
X123529058Y-46526229D02*
X123386201Y-46526229D01*
X123386201Y-46526229D02*
X123195725Y-46573848D01*
X123195725Y-46573848D02*
X123100487Y-46621467D01*
X123100487Y-46621467D02*
X123005249Y-46716705D01*
X123005249Y-46716705D02*
X122957629Y-46859562D01*
X122957629Y-46859562D02*
X122957629Y-46954800D01*
X122957629Y-46954800D02*
X123005249Y-47097657D01*
X123005249Y-47097657D02*
X123052868Y-47145276D01*
X123052868Y-47145276D02*
X123386201Y-47145276D01*
X123386201Y-47145276D02*
X123386201Y-46954800D01*
X122957629Y-47573848D02*
X123957629Y-47573848D01*
X123957629Y-47573848D02*
X123957629Y-47954800D01*
X123957629Y-47954800D02*
X123910010Y-48050038D01*
X123910010Y-48050038D02*
X123862391Y-48097657D01*
X123862391Y-48097657D02*
X123767153Y-48145276D01*
X123767153Y-48145276D02*
X123624296Y-48145276D01*
X123624296Y-48145276D02*
X123529058Y-48097657D01*
X123529058Y-48097657D02*
X123481439Y-48050038D01*
X123481439Y-48050038D02*
X123433820Y-47954800D01*
X123433820Y-47954800D02*
X123433820Y-47573848D01*
X122957629Y-48573848D02*
X123957629Y-48573848D01*
X123957629Y-49240514D02*
X123957629Y-49430990D01*
X123957629Y-49430990D02*
X123910010Y-49526228D01*
X123910010Y-49526228D02*
X123814772Y-49621466D01*
X123814772Y-49621466D02*
X123624296Y-49669085D01*
X123624296Y-49669085D02*
X123290963Y-49669085D01*
X123290963Y-49669085D02*
X123100487Y-49621466D01*
X123100487Y-49621466D02*
X123005249Y-49526228D01*
X123005249Y-49526228D02*
X122957629Y-49430990D01*
X122957629Y-49430990D02*
X122957629Y-49240514D01*
X122957629Y-49240514D02*
X123005249Y-49145276D01*
X123005249Y-49145276D02*
X123100487Y-49050038D01*
X123100487Y-49050038D02*
X123290963Y-49002419D01*
X123290963Y-49002419D02*
X123624296Y-49002419D01*
X123624296Y-49002419D02*
X123814772Y-49050038D01*
X123814772Y-49050038D02*
X123910010Y-49145276D01*
X123910010Y-49145276D02*
X123957629Y-49240514D01*
X122957629Y-50621466D02*
X122957629Y-50050038D01*
X122957629Y-50335752D02*
X123957629Y-50335752D01*
X123957629Y-50335752D02*
X123814772Y-50240514D01*
X123814772Y-50240514D02*
X123719534Y-50145276D01*
X123719534Y-50145276D02*
X123671915Y-50050038D01*
X123624296Y-51478609D02*
X122957629Y-51478609D01*
X124005249Y-51240514D02*
X123290963Y-51002419D01*
X123290963Y-51002419D02*
X123290963Y-51621466D01*
X145977629Y-47145276D02*
X146453820Y-46811943D01*
X145977629Y-46573848D02*
X146977629Y-46573848D01*
X146977629Y-46573848D02*
X146977629Y-46954800D01*
X146977629Y-46954800D02*
X146930010Y-47050038D01*
X146930010Y-47050038D02*
X146882391Y-47097657D01*
X146882391Y-47097657D02*
X146787153Y-47145276D01*
X146787153Y-47145276D02*
X146644296Y-47145276D01*
X146644296Y-47145276D02*
X146549058Y-47097657D01*
X146549058Y-47097657D02*
X146501439Y-47050038D01*
X146501439Y-47050038D02*
X146453820Y-46954800D01*
X146453820Y-46954800D02*
X146453820Y-46573848D01*
X146025249Y-47526229D02*
X145977629Y-47669086D01*
X145977629Y-47669086D02*
X145977629Y-47907181D01*
X145977629Y-47907181D02*
X146025249Y-48002419D01*
X146025249Y-48002419D02*
X146072868Y-48050038D01*
X146072868Y-48050038D02*
X146168106Y-48097657D01*
X146168106Y-48097657D02*
X146263344Y-48097657D01*
X146263344Y-48097657D02*
X146358582Y-48050038D01*
X146358582Y-48050038D02*
X146406201Y-48002419D01*
X146406201Y-48002419D02*
X146453820Y-47907181D01*
X146453820Y-47907181D02*
X146501439Y-47716705D01*
X146501439Y-47716705D02*
X146549058Y-47621467D01*
X146549058Y-47621467D02*
X146596677Y-47573848D01*
X146596677Y-47573848D02*
X146691915Y-47526229D01*
X146691915Y-47526229D02*
X146787153Y-47526229D01*
X146787153Y-47526229D02*
X146882391Y-47573848D01*
X146882391Y-47573848D02*
X146930010Y-47621467D01*
X146930010Y-47621467D02*
X146977629Y-47716705D01*
X146977629Y-47716705D02*
X146977629Y-47954800D01*
X146977629Y-47954800D02*
X146930010Y-48097657D01*
X146977629Y-48383372D02*
X146977629Y-48954800D01*
X145977629Y-48669086D02*
X146977629Y-48669086D01*
X136330010Y-61764324D02*
X136377629Y-61669086D01*
X136377629Y-61669086D02*
X136377629Y-61526229D01*
X136377629Y-61526229D02*
X136330010Y-61383372D01*
X136330010Y-61383372D02*
X136234772Y-61288134D01*
X136234772Y-61288134D02*
X136139534Y-61240515D01*
X136139534Y-61240515D02*
X135949058Y-61192896D01*
X135949058Y-61192896D02*
X135806201Y-61192896D01*
X135806201Y-61192896D02*
X135615725Y-61240515D01*
X135615725Y-61240515D02*
X135520487Y-61288134D01*
X135520487Y-61288134D02*
X135425249Y-61383372D01*
X135425249Y-61383372D02*
X135377629Y-61526229D01*
X135377629Y-61526229D02*
X135377629Y-61621467D01*
X135377629Y-61621467D02*
X135425249Y-61764324D01*
X135425249Y-61764324D02*
X135472868Y-61811943D01*
X135472868Y-61811943D02*
X135806201Y-61811943D01*
X135806201Y-61811943D02*
X135806201Y-61621467D01*
X135377629Y-62240515D02*
X136377629Y-62240515D01*
X136377629Y-62240515D02*
X136377629Y-62621467D01*
X136377629Y-62621467D02*
X136330010Y-62716705D01*
X136330010Y-62716705D02*
X136282391Y-62764324D01*
X136282391Y-62764324D02*
X136187153Y-62811943D01*
X136187153Y-62811943D02*
X136044296Y-62811943D01*
X136044296Y-62811943D02*
X135949058Y-62764324D01*
X135949058Y-62764324D02*
X135901439Y-62716705D01*
X135901439Y-62716705D02*
X135853820Y-62621467D01*
X135853820Y-62621467D02*
X135853820Y-62240515D01*
X135377629Y-63240515D02*
X136377629Y-63240515D01*
X136377629Y-63907181D02*
X136377629Y-64097657D01*
X136377629Y-64097657D02*
X136330010Y-64192895D01*
X136330010Y-64192895D02*
X136234772Y-64288133D01*
X136234772Y-64288133D02*
X136044296Y-64335752D01*
X136044296Y-64335752D02*
X135710963Y-64335752D01*
X135710963Y-64335752D02*
X135520487Y-64288133D01*
X135520487Y-64288133D02*
X135425249Y-64192895D01*
X135425249Y-64192895D02*
X135377629Y-64097657D01*
X135377629Y-64097657D02*
X135377629Y-63907181D01*
X135377629Y-63907181D02*
X135425249Y-63811943D01*
X135425249Y-63811943D02*
X135520487Y-63716705D01*
X135520487Y-63716705D02*
X135710963Y-63669086D01*
X135710963Y-63669086D02*
X136044296Y-63669086D01*
X136044296Y-63669086D02*
X136234772Y-63716705D01*
X136234772Y-63716705D02*
X136330010Y-63811943D01*
X136330010Y-63811943D02*
X136377629Y-63907181D01*
X136282391Y-64716705D02*
X136330010Y-64764324D01*
X136330010Y-64764324D02*
X136377629Y-64859562D01*
X136377629Y-64859562D02*
X136377629Y-65097657D01*
X136377629Y-65097657D02*
X136330010Y-65192895D01*
X136330010Y-65192895D02*
X136282391Y-65240514D01*
X136282391Y-65240514D02*
X136187153Y-65288133D01*
X136187153Y-65288133D02*
X136091915Y-65288133D01*
X136091915Y-65288133D02*
X135949058Y-65240514D01*
X135949058Y-65240514D02*
X135377629Y-64669086D01*
X135377629Y-64669086D02*
X135377629Y-65288133D01*
X135377629Y-66240514D02*
X135377629Y-65669086D01*
X135377629Y-65954800D02*
X136377629Y-65954800D01*
X136377629Y-65954800D02*
X136234772Y-65859562D01*
X136234772Y-65859562D02*
X136139534Y-65764324D01*
X136139534Y-65764324D02*
X136091915Y-65669086D01*
X113837629Y-46430991D02*
X112837629Y-46764324D01*
X112837629Y-46764324D02*
X113837629Y-47097657D01*
X113361439Y-47764324D02*
X113313820Y-47907181D01*
X113313820Y-47907181D02*
X113266201Y-47954800D01*
X113266201Y-47954800D02*
X113170963Y-48002419D01*
X113170963Y-48002419D02*
X113028106Y-48002419D01*
X113028106Y-48002419D02*
X112932868Y-47954800D01*
X112932868Y-47954800D02*
X112885249Y-47907181D01*
X112885249Y-47907181D02*
X112837629Y-47811943D01*
X112837629Y-47811943D02*
X112837629Y-47430991D01*
X112837629Y-47430991D02*
X113837629Y-47430991D01*
X113837629Y-47430991D02*
X113837629Y-47764324D01*
X113837629Y-47764324D02*
X113790010Y-47859562D01*
X113790010Y-47859562D02*
X113742391Y-47907181D01*
X113742391Y-47907181D02*
X113647153Y-47954800D01*
X113647153Y-47954800D02*
X113551915Y-47954800D01*
X113551915Y-47954800D02*
X113456677Y-47907181D01*
X113456677Y-47907181D02*
X113409058Y-47859562D01*
X113409058Y-47859562D02*
X113361439Y-47764324D01*
X113361439Y-47764324D02*
X113361439Y-47430991D01*
X113837629Y-48430991D02*
X113028106Y-48430991D01*
X113028106Y-48430991D02*
X112932868Y-48478610D01*
X112932868Y-48478610D02*
X112885249Y-48526229D01*
X112885249Y-48526229D02*
X112837629Y-48621467D01*
X112837629Y-48621467D02*
X112837629Y-48811943D01*
X112837629Y-48811943D02*
X112885249Y-48907181D01*
X112885249Y-48907181D02*
X112932868Y-48954800D01*
X112932868Y-48954800D02*
X113028106Y-49002419D01*
X113028106Y-49002419D02*
X113837629Y-49002419D01*
X112885249Y-49430991D02*
X112837629Y-49573848D01*
X112837629Y-49573848D02*
X112837629Y-49811943D01*
X112837629Y-49811943D02*
X112885249Y-49907181D01*
X112885249Y-49907181D02*
X112932868Y-49954800D01*
X112932868Y-49954800D02*
X113028106Y-50002419D01*
X113028106Y-50002419D02*
X113123344Y-50002419D01*
X113123344Y-50002419D02*
X113218582Y-49954800D01*
X113218582Y-49954800D02*
X113266201Y-49907181D01*
X113266201Y-49907181D02*
X113313820Y-49811943D01*
X113313820Y-49811943D02*
X113361439Y-49621467D01*
X113361439Y-49621467D02*
X113409058Y-49526229D01*
X113409058Y-49526229D02*
X113456677Y-49478610D01*
X113456677Y-49478610D02*
X113551915Y-49430991D01*
X113551915Y-49430991D02*
X113647153Y-49430991D01*
X113647153Y-49430991D02*
X113742391Y-49478610D01*
X113742391Y-49478610D02*
X113790010Y-49526229D01*
X113790010Y-49526229D02*
X113837629Y-49621467D01*
X113837629Y-49621467D02*
X113837629Y-49859562D01*
X113837629Y-49859562D02*
X113790010Y-50002419D01*
X134070010Y-47097657D02*
X134117629Y-47002419D01*
X134117629Y-47002419D02*
X134117629Y-46859562D01*
X134117629Y-46859562D02*
X134070010Y-46716705D01*
X134070010Y-46716705D02*
X133974772Y-46621467D01*
X133974772Y-46621467D02*
X133879534Y-46573848D01*
X133879534Y-46573848D02*
X133689058Y-46526229D01*
X133689058Y-46526229D02*
X133546201Y-46526229D01*
X133546201Y-46526229D02*
X133355725Y-46573848D01*
X133355725Y-46573848D02*
X133260487Y-46621467D01*
X133260487Y-46621467D02*
X133165249Y-46716705D01*
X133165249Y-46716705D02*
X133117629Y-46859562D01*
X133117629Y-46859562D02*
X133117629Y-46954800D01*
X133117629Y-46954800D02*
X133165249Y-47097657D01*
X133165249Y-47097657D02*
X133212868Y-47145276D01*
X133212868Y-47145276D02*
X133546201Y-47145276D01*
X133546201Y-47145276D02*
X133546201Y-46954800D01*
X133117629Y-47573848D02*
X134117629Y-47573848D01*
X134117629Y-47573848D02*
X134117629Y-47954800D01*
X134117629Y-47954800D02*
X134070010Y-48050038D01*
X134070010Y-48050038D02*
X134022391Y-48097657D01*
X134022391Y-48097657D02*
X133927153Y-48145276D01*
X133927153Y-48145276D02*
X133784296Y-48145276D01*
X133784296Y-48145276D02*
X133689058Y-48097657D01*
X133689058Y-48097657D02*
X133641439Y-48050038D01*
X133641439Y-48050038D02*
X133593820Y-47954800D01*
X133593820Y-47954800D02*
X133593820Y-47573848D01*
X133117629Y-48573848D02*
X134117629Y-48573848D01*
X134117629Y-49240514D02*
X134117629Y-49430990D01*
X134117629Y-49430990D02*
X134070010Y-49526228D01*
X134070010Y-49526228D02*
X133974772Y-49621466D01*
X133974772Y-49621466D02*
X133784296Y-49669085D01*
X133784296Y-49669085D02*
X133450963Y-49669085D01*
X133450963Y-49669085D02*
X133260487Y-49621466D01*
X133260487Y-49621466D02*
X133165249Y-49526228D01*
X133165249Y-49526228D02*
X133117629Y-49430990D01*
X133117629Y-49430990D02*
X133117629Y-49240514D01*
X133117629Y-49240514D02*
X133165249Y-49145276D01*
X133165249Y-49145276D02*
X133260487Y-49050038D01*
X133260487Y-49050038D02*
X133450963Y-49002419D01*
X133450963Y-49002419D02*
X133784296Y-49002419D01*
X133784296Y-49002419D02*
X133974772Y-49050038D01*
X133974772Y-49050038D02*
X134070010Y-49145276D01*
X134070010Y-49145276D02*
X134117629Y-49240514D01*
X134117629Y-50002419D02*
X134117629Y-50621466D01*
X134117629Y-50621466D02*
X133736677Y-50288133D01*
X133736677Y-50288133D02*
X133736677Y-50430990D01*
X133736677Y-50430990D02*
X133689058Y-50526228D01*
X133689058Y-50526228D02*
X133641439Y-50573847D01*
X133641439Y-50573847D02*
X133546201Y-50621466D01*
X133546201Y-50621466D02*
X133308106Y-50621466D01*
X133308106Y-50621466D02*
X133212868Y-50573847D01*
X133212868Y-50573847D02*
X133165249Y-50526228D01*
X133165249Y-50526228D02*
X133117629Y-50430990D01*
X133117629Y-50430990D02*
X133117629Y-50145276D01*
X133117629Y-50145276D02*
X133165249Y-50050038D01*
X133165249Y-50050038D02*
X133212868Y-50002419D01*
X134117629Y-50954800D02*
X134117629Y-51573847D01*
X134117629Y-51573847D02*
X133736677Y-51240514D01*
X133736677Y-51240514D02*
X133736677Y-51383371D01*
X133736677Y-51383371D02*
X133689058Y-51478609D01*
X133689058Y-51478609D02*
X133641439Y-51526228D01*
X133641439Y-51526228D02*
X133546201Y-51573847D01*
X133546201Y-51573847D02*
X133308106Y-51573847D01*
X133308106Y-51573847D02*
X133212868Y-51526228D01*
X133212868Y-51526228D02*
X133165249Y-51478609D01*
X133165249Y-51478609D02*
X133117629Y-51383371D01*
X133117629Y-51383371D02*
X133117629Y-51097657D01*
X133117629Y-51097657D02*
X133165249Y-51002419D01*
X133165249Y-51002419D02*
X133212868Y-50954800D01*
X131420010Y-61764324D02*
X131467629Y-61669086D01*
X131467629Y-61669086D02*
X131467629Y-61526229D01*
X131467629Y-61526229D02*
X131420010Y-61383372D01*
X131420010Y-61383372D02*
X131324772Y-61288134D01*
X131324772Y-61288134D02*
X131229534Y-61240515D01*
X131229534Y-61240515D02*
X131039058Y-61192896D01*
X131039058Y-61192896D02*
X130896201Y-61192896D01*
X130896201Y-61192896D02*
X130705725Y-61240515D01*
X130705725Y-61240515D02*
X130610487Y-61288134D01*
X130610487Y-61288134D02*
X130515249Y-61383372D01*
X130515249Y-61383372D02*
X130467629Y-61526229D01*
X130467629Y-61526229D02*
X130467629Y-61621467D01*
X130467629Y-61621467D02*
X130515249Y-61764324D01*
X130515249Y-61764324D02*
X130562868Y-61811943D01*
X130562868Y-61811943D02*
X130896201Y-61811943D01*
X130896201Y-61811943D02*
X130896201Y-61621467D01*
X130467629Y-62240515D02*
X131467629Y-62240515D01*
X131467629Y-62240515D02*
X131467629Y-62621467D01*
X131467629Y-62621467D02*
X131420010Y-62716705D01*
X131420010Y-62716705D02*
X131372391Y-62764324D01*
X131372391Y-62764324D02*
X131277153Y-62811943D01*
X131277153Y-62811943D02*
X131134296Y-62811943D01*
X131134296Y-62811943D02*
X131039058Y-62764324D01*
X131039058Y-62764324D02*
X130991439Y-62716705D01*
X130991439Y-62716705D02*
X130943820Y-62621467D01*
X130943820Y-62621467D02*
X130943820Y-62240515D01*
X130467629Y-63240515D02*
X131467629Y-63240515D01*
X131467629Y-63907181D02*
X131467629Y-64097657D01*
X131467629Y-64097657D02*
X131420010Y-64192895D01*
X131420010Y-64192895D02*
X131324772Y-64288133D01*
X131324772Y-64288133D02*
X131134296Y-64335752D01*
X131134296Y-64335752D02*
X130800963Y-64335752D01*
X130800963Y-64335752D02*
X130610487Y-64288133D01*
X130610487Y-64288133D02*
X130515249Y-64192895D01*
X130515249Y-64192895D02*
X130467629Y-64097657D01*
X130467629Y-64097657D02*
X130467629Y-63907181D01*
X130467629Y-63907181D02*
X130515249Y-63811943D01*
X130515249Y-63811943D02*
X130610487Y-63716705D01*
X130610487Y-63716705D02*
X130800963Y-63669086D01*
X130800963Y-63669086D02*
X131134296Y-63669086D01*
X131134296Y-63669086D02*
X131324772Y-63716705D01*
X131324772Y-63716705D02*
X131420010Y-63811943D01*
X131420010Y-63811943D02*
X131467629Y-63907181D01*
X130467629Y-65288133D02*
X130467629Y-64716705D01*
X130467629Y-65002419D02*
X131467629Y-65002419D01*
X131467629Y-65002419D02*
X131324772Y-64907181D01*
X131324772Y-64907181D02*
X131229534Y-64811943D01*
X131229534Y-64811943D02*
X131181915Y-64716705D01*
X131039058Y-65859562D02*
X131086677Y-65764324D01*
X131086677Y-65764324D02*
X131134296Y-65716705D01*
X131134296Y-65716705D02*
X131229534Y-65669086D01*
X131229534Y-65669086D02*
X131277153Y-65669086D01*
X131277153Y-65669086D02*
X131372391Y-65716705D01*
X131372391Y-65716705D02*
X131420010Y-65764324D01*
X131420010Y-65764324D02*
X131467629Y-65859562D01*
X131467629Y-65859562D02*
X131467629Y-66050038D01*
X131467629Y-66050038D02*
X131420010Y-66145276D01*
X131420010Y-66145276D02*
X131372391Y-66192895D01*
X131372391Y-66192895D02*
X131277153Y-66240514D01*
X131277153Y-66240514D02*
X131229534Y-66240514D01*
X131229534Y-66240514D02*
X131134296Y-66192895D01*
X131134296Y-66192895D02*
X131086677Y-66145276D01*
X131086677Y-66145276D02*
X131039058Y-66050038D01*
X131039058Y-66050038D02*
X131039058Y-65859562D01*
X131039058Y-65859562D02*
X130991439Y-65764324D01*
X130991439Y-65764324D02*
X130943820Y-65716705D01*
X130943820Y-65716705D02*
X130848582Y-65669086D01*
X130848582Y-65669086D02*
X130658106Y-65669086D01*
X130658106Y-65669086D02*
X130562868Y-65716705D01*
X130562868Y-65716705D02*
X130515249Y-65764324D01*
X130515249Y-65764324D02*
X130467629Y-65859562D01*
X130467629Y-65859562D02*
X130467629Y-66050038D01*
X130467629Y-66050038D02*
X130515249Y-66145276D01*
X130515249Y-66145276D02*
X130562868Y-66192895D01*
X130562868Y-66192895D02*
X130658106Y-66240514D01*
X130658106Y-66240514D02*
X130848582Y-66240514D01*
X130848582Y-66240514D02*
X130943820Y-66192895D01*
X130943820Y-66192895D02*
X130991439Y-66145276D01*
X130991439Y-66145276D02*
X131039058Y-66050038D01*
X122727629Y-64621467D02*
X123727629Y-64621467D01*
X123727629Y-64621467D02*
X122727629Y-65192895D01*
X122727629Y-65192895D02*
X123727629Y-65192895D01*
X122822868Y-66240514D02*
X122775249Y-66192895D01*
X122775249Y-66192895D02*
X122727629Y-66050038D01*
X122727629Y-66050038D02*
X122727629Y-65954800D01*
X122727629Y-65954800D02*
X122775249Y-65811943D01*
X122775249Y-65811943D02*
X122870487Y-65716705D01*
X122870487Y-65716705D02*
X122965725Y-65669086D01*
X122965725Y-65669086D02*
X123156201Y-65621467D01*
X123156201Y-65621467D02*
X123299058Y-65621467D01*
X123299058Y-65621467D02*
X123489534Y-65669086D01*
X123489534Y-65669086D02*
X123584772Y-65716705D01*
X123584772Y-65716705D02*
X123680010Y-65811943D01*
X123680010Y-65811943D02*
X123727629Y-65954800D01*
X123727629Y-65954800D02*
X123727629Y-66050038D01*
X123727629Y-66050038D02*
X123680010Y-66192895D01*
X123680010Y-66192895D02*
X123632391Y-66240514D01*
X121510010Y-47097657D02*
X121557629Y-47002419D01*
X121557629Y-47002419D02*
X121557629Y-46859562D01*
X121557629Y-46859562D02*
X121510010Y-46716705D01*
X121510010Y-46716705D02*
X121414772Y-46621467D01*
X121414772Y-46621467D02*
X121319534Y-46573848D01*
X121319534Y-46573848D02*
X121129058Y-46526229D01*
X121129058Y-46526229D02*
X120986201Y-46526229D01*
X120986201Y-46526229D02*
X120795725Y-46573848D01*
X120795725Y-46573848D02*
X120700487Y-46621467D01*
X120700487Y-46621467D02*
X120605249Y-46716705D01*
X120605249Y-46716705D02*
X120557629Y-46859562D01*
X120557629Y-46859562D02*
X120557629Y-46954800D01*
X120557629Y-46954800D02*
X120605249Y-47097657D01*
X120605249Y-47097657D02*
X120652868Y-47145276D01*
X120652868Y-47145276D02*
X120986201Y-47145276D01*
X120986201Y-47145276D02*
X120986201Y-46954800D01*
X120557629Y-47573848D02*
X121557629Y-47573848D01*
X121557629Y-47573848D02*
X121557629Y-47954800D01*
X121557629Y-47954800D02*
X121510010Y-48050038D01*
X121510010Y-48050038D02*
X121462391Y-48097657D01*
X121462391Y-48097657D02*
X121367153Y-48145276D01*
X121367153Y-48145276D02*
X121224296Y-48145276D01*
X121224296Y-48145276D02*
X121129058Y-48097657D01*
X121129058Y-48097657D02*
X121081439Y-48050038D01*
X121081439Y-48050038D02*
X121033820Y-47954800D01*
X121033820Y-47954800D02*
X121033820Y-47573848D01*
X120557629Y-48573848D02*
X121557629Y-48573848D01*
X121557629Y-49240514D02*
X121557629Y-49430990D01*
X121557629Y-49430990D02*
X121510010Y-49526228D01*
X121510010Y-49526228D02*
X121414772Y-49621466D01*
X121414772Y-49621466D02*
X121224296Y-49669085D01*
X121224296Y-49669085D02*
X120890963Y-49669085D01*
X120890963Y-49669085D02*
X120700487Y-49621466D01*
X120700487Y-49621466D02*
X120605249Y-49526228D01*
X120605249Y-49526228D02*
X120557629Y-49430990D01*
X120557629Y-49430990D02*
X120557629Y-49240514D01*
X120557629Y-49240514D02*
X120605249Y-49145276D01*
X120605249Y-49145276D02*
X120700487Y-49050038D01*
X120700487Y-49050038D02*
X120890963Y-49002419D01*
X120890963Y-49002419D02*
X121224296Y-49002419D01*
X121224296Y-49002419D02*
X121414772Y-49050038D01*
X121414772Y-49050038D02*
X121510010Y-49145276D01*
X121510010Y-49145276D02*
X121557629Y-49240514D01*
X120557629Y-50621466D02*
X120557629Y-50050038D01*
X120557629Y-50335752D02*
X121557629Y-50335752D01*
X121557629Y-50335752D02*
X121414772Y-50240514D01*
X121414772Y-50240514D02*
X121319534Y-50145276D01*
X121319534Y-50145276D02*
X121271915Y-50050038D01*
X121462391Y-51002419D02*
X121510010Y-51050038D01*
X121510010Y-51050038D02*
X121557629Y-51145276D01*
X121557629Y-51145276D02*
X121557629Y-51383371D01*
X121557629Y-51383371D02*
X121510010Y-51478609D01*
X121510010Y-51478609D02*
X121462391Y-51526228D01*
X121462391Y-51526228D02*
X121367153Y-51573847D01*
X121367153Y-51573847D02*
X121271915Y-51573847D01*
X121271915Y-51573847D02*
X121129058Y-51526228D01*
X121129058Y-51526228D02*
X120557629Y-50954800D01*
X120557629Y-50954800D02*
X120557629Y-51573847D01*
X139220010Y-47097657D02*
X139267629Y-47002419D01*
X139267629Y-47002419D02*
X139267629Y-46859562D01*
X139267629Y-46859562D02*
X139220010Y-46716705D01*
X139220010Y-46716705D02*
X139124772Y-46621467D01*
X139124772Y-46621467D02*
X139029534Y-46573848D01*
X139029534Y-46573848D02*
X138839058Y-46526229D01*
X138839058Y-46526229D02*
X138696201Y-46526229D01*
X138696201Y-46526229D02*
X138505725Y-46573848D01*
X138505725Y-46573848D02*
X138410487Y-46621467D01*
X138410487Y-46621467D02*
X138315249Y-46716705D01*
X138315249Y-46716705D02*
X138267629Y-46859562D01*
X138267629Y-46859562D02*
X138267629Y-46954800D01*
X138267629Y-46954800D02*
X138315249Y-47097657D01*
X138315249Y-47097657D02*
X138362868Y-47145276D01*
X138362868Y-47145276D02*
X138696201Y-47145276D01*
X138696201Y-47145276D02*
X138696201Y-46954800D01*
X138267629Y-47573848D02*
X139267629Y-47573848D01*
X139267629Y-47573848D02*
X139267629Y-47954800D01*
X139267629Y-47954800D02*
X139220010Y-48050038D01*
X139220010Y-48050038D02*
X139172391Y-48097657D01*
X139172391Y-48097657D02*
X139077153Y-48145276D01*
X139077153Y-48145276D02*
X138934296Y-48145276D01*
X138934296Y-48145276D02*
X138839058Y-48097657D01*
X138839058Y-48097657D02*
X138791439Y-48050038D01*
X138791439Y-48050038D02*
X138743820Y-47954800D01*
X138743820Y-47954800D02*
X138743820Y-47573848D01*
X138267629Y-48573848D02*
X139267629Y-48573848D01*
X139267629Y-49240514D02*
X139267629Y-49430990D01*
X139267629Y-49430990D02*
X139220010Y-49526228D01*
X139220010Y-49526228D02*
X139124772Y-49621466D01*
X139124772Y-49621466D02*
X138934296Y-49669085D01*
X138934296Y-49669085D02*
X138600963Y-49669085D01*
X138600963Y-49669085D02*
X138410487Y-49621466D01*
X138410487Y-49621466D02*
X138315249Y-49526228D01*
X138315249Y-49526228D02*
X138267629Y-49430990D01*
X138267629Y-49430990D02*
X138267629Y-49240514D01*
X138267629Y-49240514D02*
X138315249Y-49145276D01*
X138315249Y-49145276D02*
X138410487Y-49050038D01*
X138410487Y-49050038D02*
X138600963Y-49002419D01*
X138600963Y-49002419D02*
X138934296Y-49002419D01*
X138934296Y-49002419D02*
X139124772Y-49050038D01*
X139124772Y-49050038D02*
X139220010Y-49145276D01*
X139220010Y-49145276D02*
X139267629Y-49240514D01*
X139267629Y-50002419D02*
X139267629Y-50621466D01*
X139267629Y-50621466D02*
X138886677Y-50288133D01*
X138886677Y-50288133D02*
X138886677Y-50430990D01*
X138886677Y-50430990D02*
X138839058Y-50526228D01*
X138839058Y-50526228D02*
X138791439Y-50573847D01*
X138791439Y-50573847D02*
X138696201Y-50621466D01*
X138696201Y-50621466D02*
X138458106Y-50621466D01*
X138458106Y-50621466D02*
X138362868Y-50573847D01*
X138362868Y-50573847D02*
X138315249Y-50526228D01*
X138315249Y-50526228D02*
X138267629Y-50430990D01*
X138267629Y-50430990D02*
X138267629Y-50145276D01*
X138267629Y-50145276D02*
X138315249Y-50050038D01*
X138315249Y-50050038D02*
X138362868Y-50002419D01*
X138934296Y-51478609D02*
X138267629Y-51478609D01*
X139315249Y-51240514D02*
X138600963Y-51002419D01*
X138600963Y-51002419D02*
X138600963Y-51621466D01*
X100436314Y-66849764D02*
X100579171Y-66897383D01*
X100579171Y-66897383D02*
X100817266Y-66897383D01*
X100817266Y-66897383D02*
X100912504Y-66849764D01*
X100912504Y-66849764D02*
X100960123Y-66802144D01*
X100960123Y-66802144D02*
X101007742Y-66706906D01*
X101007742Y-66706906D02*
X101007742Y-66611668D01*
X101007742Y-66611668D02*
X100960123Y-66516430D01*
X100960123Y-66516430D02*
X100912504Y-66468811D01*
X100912504Y-66468811D02*
X100817266Y-66421192D01*
X100817266Y-66421192D02*
X100626790Y-66373573D01*
X100626790Y-66373573D02*
X100531552Y-66325954D01*
X100531552Y-66325954D02*
X100483933Y-66278335D01*
X100483933Y-66278335D02*
X100436314Y-66183097D01*
X100436314Y-66183097D02*
X100436314Y-66087859D01*
X100436314Y-66087859D02*
X100483933Y-65992621D01*
X100483933Y-65992621D02*
X100531552Y-65945002D01*
X100531552Y-65945002D02*
X100626790Y-65897383D01*
X100626790Y-65897383D02*
X100864885Y-65897383D01*
X100864885Y-65897383D02*
X101007742Y-65945002D01*
X101436314Y-66897383D02*
X101436314Y-65897383D01*
X101436314Y-65897383D02*
X101674409Y-65897383D01*
X101674409Y-65897383D02*
X101817266Y-65945002D01*
X101817266Y-65945002D02*
X101912504Y-66040240D01*
X101912504Y-66040240D02*
X101960123Y-66135478D01*
X101960123Y-66135478D02*
X102007742Y-66325954D01*
X102007742Y-66325954D02*
X102007742Y-66468811D01*
X102007742Y-66468811D02*
X101960123Y-66659287D01*
X101960123Y-66659287D02*
X101912504Y-66754525D01*
X101912504Y-66754525D02*
X101817266Y-66849764D01*
X101817266Y-66849764D02*
X101674409Y-66897383D01*
X101674409Y-66897383D02*
X101436314Y-66897383D01*
X103007742Y-66802144D02*
X102960123Y-66849764D01*
X102960123Y-66849764D02*
X102817266Y-66897383D01*
X102817266Y-66897383D02*
X102722028Y-66897383D01*
X102722028Y-66897383D02*
X102579171Y-66849764D01*
X102579171Y-66849764D02*
X102483933Y-66754525D01*
X102483933Y-66754525D02*
X102436314Y-66659287D01*
X102436314Y-66659287D02*
X102388695Y-66468811D01*
X102388695Y-66468811D02*
X102388695Y-66325954D01*
X102388695Y-66325954D02*
X102436314Y-66135478D01*
X102436314Y-66135478D02*
X102483933Y-66040240D01*
X102483933Y-66040240D02*
X102579171Y-65945002D01*
X102579171Y-65945002D02*
X102722028Y-65897383D01*
X102722028Y-65897383D02*
X102817266Y-65897383D01*
X102817266Y-65897383D02*
X102960123Y-65945002D01*
X102960123Y-65945002D02*
X103007742Y-65992621D01*
X103864885Y-66897383D02*
X103864885Y-66373573D01*
X103864885Y-66373573D02*
X103817266Y-66278335D01*
X103817266Y-66278335D02*
X103722028Y-66230716D01*
X103722028Y-66230716D02*
X103531552Y-66230716D01*
X103531552Y-66230716D02*
X103436314Y-66278335D01*
X103864885Y-66849764D02*
X103769647Y-66897383D01*
X103769647Y-66897383D02*
X103531552Y-66897383D01*
X103531552Y-66897383D02*
X103436314Y-66849764D01*
X103436314Y-66849764D02*
X103388695Y-66754525D01*
X103388695Y-66754525D02*
X103388695Y-66659287D01*
X103388695Y-66659287D02*
X103436314Y-66564049D01*
X103436314Y-66564049D02*
X103531552Y-66516430D01*
X103531552Y-66516430D02*
X103769647Y-66516430D01*
X103769647Y-66516430D02*
X103864885Y-66468811D01*
X104341076Y-66897383D02*
X104341076Y-66230716D01*
X104341076Y-66421192D02*
X104388695Y-66325954D01*
X104388695Y-66325954D02*
X104436314Y-66278335D01*
X104436314Y-66278335D02*
X104531552Y-66230716D01*
X104531552Y-66230716D02*
X104626790Y-66230716D01*
X105388695Y-66897383D02*
X105388695Y-65897383D01*
X105388695Y-66849764D02*
X105293457Y-66897383D01*
X105293457Y-66897383D02*
X105102981Y-66897383D01*
X105102981Y-66897383D02*
X105007743Y-66849764D01*
X105007743Y-66849764D02*
X104960124Y-66802144D01*
X104960124Y-66802144D02*
X104912505Y-66706906D01*
X104912505Y-66706906D02*
X104912505Y-66421192D01*
X104912505Y-66421192D02*
X104960124Y-66325954D01*
X104960124Y-66325954D02*
X105007743Y-66278335D01*
X105007743Y-66278335D02*
X105102981Y-66230716D01*
X105102981Y-66230716D02*
X105293457Y-66230716D01*
X105293457Y-66230716D02*
X105388695Y-66278335D01*
X138087629Y-55907181D02*
X138563820Y-55573848D01*
X138087629Y-55335753D02*
X139087629Y-55335753D01*
X139087629Y-55335753D02*
X139087629Y-55716705D01*
X139087629Y-55716705D02*
X139040010Y-55811943D01*
X139040010Y-55811943D02*
X138992391Y-55859562D01*
X138992391Y-55859562D02*
X138897153Y-55907181D01*
X138897153Y-55907181D02*
X138754296Y-55907181D01*
X138754296Y-55907181D02*
X138659058Y-55859562D01*
X138659058Y-55859562D02*
X138611439Y-55811943D01*
X138611439Y-55811943D02*
X138563820Y-55716705D01*
X138563820Y-55716705D02*
X138563820Y-55335753D01*
X139087629Y-56240515D02*
X138087629Y-56907181D01*
X139087629Y-56907181D02*
X138087629Y-56240515D01*
X138087629Y-57288134D02*
X139087629Y-57288134D01*
X139087629Y-57288134D02*
X139087629Y-57526229D01*
X139087629Y-57526229D02*
X139040010Y-57669086D01*
X139040010Y-57669086D02*
X138944772Y-57764324D01*
X138944772Y-57764324D02*
X138849534Y-57811943D01*
X138849534Y-57811943D02*
X138659058Y-57859562D01*
X138659058Y-57859562D02*
X138516201Y-57859562D01*
X138516201Y-57859562D02*
X138325725Y-57811943D01*
X138325725Y-57811943D02*
X138230487Y-57764324D01*
X138230487Y-57764324D02*
X138135249Y-57669086D01*
X138135249Y-57669086D02*
X138087629Y-57526229D01*
X138087629Y-57526229D02*
X138087629Y-57288134D01*
X139087629Y-58478610D02*
X139087629Y-58573848D01*
X139087629Y-58573848D02*
X139040010Y-58669086D01*
X139040010Y-58669086D02*
X138992391Y-58716705D01*
X138992391Y-58716705D02*
X138897153Y-58764324D01*
X138897153Y-58764324D02*
X138706677Y-58811943D01*
X138706677Y-58811943D02*
X138468582Y-58811943D01*
X138468582Y-58811943D02*
X138278106Y-58764324D01*
X138278106Y-58764324D02*
X138182868Y-58716705D01*
X138182868Y-58716705D02*
X138135249Y-58669086D01*
X138135249Y-58669086D02*
X138087629Y-58573848D01*
X138087629Y-58573848D02*
X138087629Y-58478610D01*
X138087629Y-58478610D02*
X138135249Y-58383372D01*
X138135249Y-58383372D02*
X138182868Y-58335753D01*
X138182868Y-58335753D02*
X138278106Y-58288134D01*
X138278106Y-58288134D02*
X138468582Y-58240515D01*
X138468582Y-58240515D02*
X138706677Y-58240515D01*
X138706677Y-58240515D02*
X138897153Y-58288134D01*
X138897153Y-58288134D02*
X138992391Y-58335753D01*
X138992391Y-58335753D02*
X139040010Y-58383372D01*
X139040010Y-58383372D02*
X139087629Y-58478610D01*
X138087629Y-59764324D02*
X138087629Y-59192896D01*
X138087629Y-59478610D02*
X139087629Y-59478610D01*
X139087629Y-59478610D02*
X138944772Y-59383372D01*
X138944772Y-59383372D02*
X138849534Y-59288134D01*
X138849534Y-59288134D02*
X138801915Y-59192896D01*
X139135249Y-60907181D02*
X137849534Y-60050039D01*
X139040010Y-61764324D02*
X139087629Y-61669086D01*
X139087629Y-61669086D02*
X139087629Y-61526229D01*
X139087629Y-61526229D02*
X139040010Y-61383372D01*
X139040010Y-61383372D02*
X138944772Y-61288134D01*
X138944772Y-61288134D02*
X138849534Y-61240515D01*
X138849534Y-61240515D02*
X138659058Y-61192896D01*
X138659058Y-61192896D02*
X138516201Y-61192896D01*
X138516201Y-61192896D02*
X138325725Y-61240515D01*
X138325725Y-61240515D02*
X138230487Y-61288134D01*
X138230487Y-61288134D02*
X138135249Y-61383372D01*
X138135249Y-61383372D02*
X138087629Y-61526229D01*
X138087629Y-61526229D02*
X138087629Y-61621467D01*
X138087629Y-61621467D02*
X138135249Y-61764324D01*
X138135249Y-61764324D02*
X138182868Y-61811943D01*
X138182868Y-61811943D02*
X138516201Y-61811943D01*
X138516201Y-61811943D02*
X138516201Y-61621467D01*
X138087629Y-62240515D02*
X139087629Y-62240515D01*
X139087629Y-62240515D02*
X139087629Y-62621467D01*
X139087629Y-62621467D02*
X139040010Y-62716705D01*
X139040010Y-62716705D02*
X138992391Y-62764324D01*
X138992391Y-62764324D02*
X138897153Y-62811943D01*
X138897153Y-62811943D02*
X138754296Y-62811943D01*
X138754296Y-62811943D02*
X138659058Y-62764324D01*
X138659058Y-62764324D02*
X138611439Y-62716705D01*
X138611439Y-62716705D02*
X138563820Y-62621467D01*
X138563820Y-62621467D02*
X138563820Y-62240515D01*
X138087629Y-63240515D02*
X139087629Y-63240515D01*
X139087629Y-63907181D02*
X139087629Y-64097657D01*
X139087629Y-64097657D02*
X139040010Y-64192895D01*
X139040010Y-64192895D02*
X138944772Y-64288133D01*
X138944772Y-64288133D02*
X138754296Y-64335752D01*
X138754296Y-64335752D02*
X138420963Y-64335752D01*
X138420963Y-64335752D02*
X138230487Y-64288133D01*
X138230487Y-64288133D02*
X138135249Y-64192895D01*
X138135249Y-64192895D02*
X138087629Y-64097657D01*
X138087629Y-64097657D02*
X138087629Y-63907181D01*
X138087629Y-63907181D02*
X138135249Y-63811943D01*
X138135249Y-63811943D02*
X138230487Y-63716705D01*
X138230487Y-63716705D02*
X138420963Y-63669086D01*
X138420963Y-63669086D02*
X138754296Y-63669086D01*
X138754296Y-63669086D02*
X138944772Y-63716705D01*
X138944772Y-63716705D02*
X139040010Y-63811943D01*
X139040010Y-63811943D02*
X139087629Y-63907181D01*
X139087629Y-64954800D02*
X139087629Y-65050038D01*
X139087629Y-65050038D02*
X139040010Y-65145276D01*
X139040010Y-65145276D02*
X138992391Y-65192895D01*
X138992391Y-65192895D02*
X138897153Y-65240514D01*
X138897153Y-65240514D02*
X138706677Y-65288133D01*
X138706677Y-65288133D02*
X138468582Y-65288133D01*
X138468582Y-65288133D02*
X138278106Y-65240514D01*
X138278106Y-65240514D02*
X138182868Y-65192895D01*
X138182868Y-65192895D02*
X138135249Y-65145276D01*
X138135249Y-65145276D02*
X138087629Y-65050038D01*
X138087629Y-65050038D02*
X138087629Y-64954800D01*
X138087629Y-64954800D02*
X138135249Y-64859562D01*
X138135249Y-64859562D02*
X138182868Y-64811943D01*
X138182868Y-64811943D02*
X138278106Y-64764324D01*
X138278106Y-64764324D02*
X138468582Y-64716705D01*
X138468582Y-64716705D02*
X138706677Y-64716705D01*
X138706677Y-64716705D02*
X138897153Y-64764324D01*
X138897153Y-64764324D02*
X138992391Y-64811943D01*
X138992391Y-64811943D02*
X139040010Y-64859562D01*
X139040010Y-64859562D02*
X139087629Y-64954800D01*
X139087629Y-65621467D02*
X139087629Y-66240514D01*
X139087629Y-66240514D02*
X138706677Y-65907181D01*
X138706677Y-65907181D02*
X138706677Y-66050038D01*
X138706677Y-66050038D02*
X138659058Y-66145276D01*
X138659058Y-66145276D02*
X138611439Y-66192895D01*
X138611439Y-66192895D02*
X138516201Y-66240514D01*
X138516201Y-66240514D02*
X138278106Y-66240514D01*
X138278106Y-66240514D02*
X138182868Y-66192895D01*
X138182868Y-66192895D02*
X138135249Y-66145276D01*
X138135249Y-66145276D02*
X138087629Y-66050038D01*
X138087629Y-66050038D02*
X138087629Y-65764324D01*
X138087629Y-65764324D02*
X138135249Y-65669086D01*
X138135249Y-65669086D02*
X138182868Y-65621467D01*
X131680010Y-47097657D02*
X131727629Y-47002419D01*
X131727629Y-47002419D02*
X131727629Y-46859562D01*
X131727629Y-46859562D02*
X131680010Y-46716705D01*
X131680010Y-46716705D02*
X131584772Y-46621467D01*
X131584772Y-46621467D02*
X131489534Y-46573848D01*
X131489534Y-46573848D02*
X131299058Y-46526229D01*
X131299058Y-46526229D02*
X131156201Y-46526229D01*
X131156201Y-46526229D02*
X130965725Y-46573848D01*
X130965725Y-46573848D02*
X130870487Y-46621467D01*
X130870487Y-46621467D02*
X130775249Y-46716705D01*
X130775249Y-46716705D02*
X130727629Y-46859562D01*
X130727629Y-46859562D02*
X130727629Y-46954800D01*
X130727629Y-46954800D02*
X130775249Y-47097657D01*
X130775249Y-47097657D02*
X130822868Y-47145276D01*
X130822868Y-47145276D02*
X131156201Y-47145276D01*
X131156201Y-47145276D02*
X131156201Y-46954800D01*
X130727629Y-47573848D02*
X131727629Y-47573848D01*
X131727629Y-47573848D02*
X131727629Y-47954800D01*
X131727629Y-47954800D02*
X131680010Y-48050038D01*
X131680010Y-48050038D02*
X131632391Y-48097657D01*
X131632391Y-48097657D02*
X131537153Y-48145276D01*
X131537153Y-48145276D02*
X131394296Y-48145276D01*
X131394296Y-48145276D02*
X131299058Y-48097657D01*
X131299058Y-48097657D02*
X131251439Y-48050038D01*
X131251439Y-48050038D02*
X131203820Y-47954800D01*
X131203820Y-47954800D02*
X131203820Y-47573848D01*
X130727629Y-48573848D02*
X131727629Y-48573848D01*
X131727629Y-49240514D02*
X131727629Y-49430990D01*
X131727629Y-49430990D02*
X131680010Y-49526228D01*
X131680010Y-49526228D02*
X131584772Y-49621466D01*
X131584772Y-49621466D02*
X131394296Y-49669085D01*
X131394296Y-49669085D02*
X131060963Y-49669085D01*
X131060963Y-49669085D02*
X130870487Y-49621466D01*
X130870487Y-49621466D02*
X130775249Y-49526228D01*
X130775249Y-49526228D02*
X130727629Y-49430990D01*
X130727629Y-49430990D02*
X130727629Y-49240514D01*
X130727629Y-49240514D02*
X130775249Y-49145276D01*
X130775249Y-49145276D02*
X130870487Y-49050038D01*
X130870487Y-49050038D02*
X131060963Y-49002419D01*
X131060963Y-49002419D02*
X131394296Y-49002419D01*
X131394296Y-49002419D02*
X131584772Y-49050038D01*
X131584772Y-49050038D02*
X131680010Y-49145276D01*
X131680010Y-49145276D02*
X131727629Y-49240514D01*
X131632391Y-50050038D02*
X131680010Y-50097657D01*
X131680010Y-50097657D02*
X131727629Y-50192895D01*
X131727629Y-50192895D02*
X131727629Y-50430990D01*
X131727629Y-50430990D02*
X131680010Y-50526228D01*
X131680010Y-50526228D02*
X131632391Y-50573847D01*
X131632391Y-50573847D02*
X131537153Y-50621466D01*
X131537153Y-50621466D02*
X131441915Y-50621466D01*
X131441915Y-50621466D02*
X131299058Y-50573847D01*
X131299058Y-50573847D02*
X130727629Y-50002419D01*
X130727629Y-50002419D02*
X130727629Y-50621466D01*
X131727629Y-51526228D02*
X131727629Y-51050038D01*
X131727629Y-51050038D02*
X131251439Y-51002419D01*
X131251439Y-51002419D02*
X131299058Y-51050038D01*
X131299058Y-51050038D02*
X131346677Y-51145276D01*
X131346677Y-51145276D02*
X131346677Y-51383371D01*
X131346677Y-51383371D02*
X131299058Y-51478609D01*
X131299058Y-51478609D02*
X131251439Y-51526228D01*
X131251439Y-51526228D02*
X131156201Y-51573847D01*
X131156201Y-51573847D02*
X130918106Y-51573847D01*
X130918106Y-51573847D02*
X130822868Y-51526228D01*
X130822868Y-51526228D02*
X130775249Y-51478609D01*
X130775249Y-51478609D02*
X130727629Y-51383371D01*
X130727629Y-51383371D02*
X130727629Y-51145276D01*
X130727629Y-51145276D02*
X130775249Y-51050038D01*
X130775249Y-51050038D02*
X130822868Y-51002419D01*
X116250010Y-61764324D02*
X116297629Y-61669086D01*
X116297629Y-61669086D02*
X116297629Y-61526229D01*
X116297629Y-61526229D02*
X116250010Y-61383372D01*
X116250010Y-61383372D02*
X116154772Y-61288134D01*
X116154772Y-61288134D02*
X116059534Y-61240515D01*
X116059534Y-61240515D02*
X115869058Y-61192896D01*
X115869058Y-61192896D02*
X115726201Y-61192896D01*
X115726201Y-61192896D02*
X115535725Y-61240515D01*
X115535725Y-61240515D02*
X115440487Y-61288134D01*
X115440487Y-61288134D02*
X115345249Y-61383372D01*
X115345249Y-61383372D02*
X115297629Y-61526229D01*
X115297629Y-61526229D02*
X115297629Y-61621467D01*
X115297629Y-61621467D02*
X115345249Y-61764324D01*
X115345249Y-61764324D02*
X115392868Y-61811943D01*
X115392868Y-61811943D02*
X115726201Y-61811943D01*
X115726201Y-61811943D02*
X115726201Y-61621467D01*
X115297629Y-62240515D02*
X116297629Y-62240515D01*
X116297629Y-62240515D02*
X116297629Y-62621467D01*
X116297629Y-62621467D02*
X116250010Y-62716705D01*
X116250010Y-62716705D02*
X116202391Y-62764324D01*
X116202391Y-62764324D02*
X116107153Y-62811943D01*
X116107153Y-62811943D02*
X115964296Y-62811943D01*
X115964296Y-62811943D02*
X115869058Y-62764324D01*
X115869058Y-62764324D02*
X115821439Y-62716705D01*
X115821439Y-62716705D02*
X115773820Y-62621467D01*
X115773820Y-62621467D02*
X115773820Y-62240515D01*
X115297629Y-63240515D02*
X116297629Y-63240515D01*
X116297629Y-63907181D02*
X116297629Y-64097657D01*
X116297629Y-64097657D02*
X116250010Y-64192895D01*
X116250010Y-64192895D02*
X116154772Y-64288133D01*
X116154772Y-64288133D02*
X115964296Y-64335752D01*
X115964296Y-64335752D02*
X115630963Y-64335752D01*
X115630963Y-64335752D02*
X115440487Y-64288133D01*
X115440487Y-64288133D02*
X115345249Y-64192895D01*
X115345249Y-64192895D02*
X115297629Y-64097657D01*
X115297629Y-64097657D02*
X115297629Y-63907181D01*
X115297629Y-63907181D02*
X115345249Y-63811943D01*
X115345249Y-63811943D02*
X115440487Y-63716705D01*
X115440487Y-63716705D02*
X115630963Y-63669086D01*
X115630963Y-63669086D02*
X115964296Y-63669086D01*
X115964296Y-63669086D02*
X116154772Y-63716705D01*
X116154772Y-63716705D02*
X116250010Y-63811943D01*
X116250010Y-63811943D02*
X116297629Y-63907181D01*
X116297629Y-64954800D02*
X116297629Y-65050038D01*
X116297629Y-65050038D02*
X116250010Y-65145276D01*
X116250010Y-65145276D02*
X116202391Y-65192895D01*
X116202391Y-65192895D02*
X116107153Y-65240514D01*
X116107153Y-65240514D02*
X115916677Y-65288133D01*
X115916677Y-65288133D02*
X115678582Y-65288133D01*
X115678582Y-65288133D02*
X115488106Y-65240514D01*
X115488106Y-65240514D02*
X115392868Y-65192895D01*
X115392868Y-65192895D02*
X115345249Y-65145276D01*
X115345249Y-65145276D02*
X115297629Y-65050038D01*
X115297629Y-65050038D02*
X115297629Y-64954800D01*
X115297629Y-64954800D02*
X115345249Y-64859562D01*
X115345249Y-64859562D02*
X115392868Y-64811943D01*
X115392868Y-64811943D02*
X115488106Y-64764324D01*
X115488106Y-64764324D02*
X115678582Y-64716705D01*
X115678582Y-64716705D02*
X115916677Y-64716705D01*
X115916677Y-64716705D02*
X116107153Y-64764324D01*
X116107153Y-64764324D02*
X116202391Y-64811943D01*
X116202391Y-64811943D02*
X116250010Y-64859562D01*
X116250010Y-64859562D02*
X116297629Y-64954800D01*
X116202391Y-65669086D02*
X116250010Y-65716705D01*
X116250010Y-65716705D02*
X116297629Y-65811943D01*
X116297629Y-65811943D02*
X116297629Y-66050038D01*
X116297629Y-66050038D02*
X116250010Y-66145276D01*
X116250010Y-66145276D02*
X116202391Y-66192895D01*
X116202391Y-66192895D02*
X116107153Y-66240514D01*
X116107153Y-66240514D02*
X116011915Y-66240514D01*
X116011915Y-66240514D02*
X115869058Y-66192895D01*
X115869058Y-66192895D02*
X115297629Y-65621467D01*
X115297629Y-65621467D02*
X115297629Y-66240514D01*
X118880010Y-47097657D02*
X118927629Y-47002419D01*
X118927629Y-47002419D02*
X118927629Y-46859562D01*
X118927629Y-46859562D02*
X118880010Y-46716705D01*
X118880010Y-46716705D02*
X118784772Y-46621467D01*
X118784772Y-46621467D02*
X118689534Y-46573848D01*
X118689534Y-46573848D02*
X118499058Y-46526229D01*
X118499058Y-46526229D02*
X118356201Y-46526229D01*
X118356201Y-46526229D02*
X118165725Y-46573848D01*
X118165725Y-46573848D02*
X118070487Y-46621467D01*
X118070487Y-46621467D02*
X117975249Y-46716705D01*
X117975249Y-46716705D02*
X117927629Y-46859562D01*
X117927629Y-46859562D02*
X117927629Y-46954800D01*
X117927629Y-46954800D02*
X117975249Y-47097657D01*
X117975249Y-47097657D02*
X118022868Y-47145276D01*
X118022868Y-47145276D02*
X118356201Y-47145276D01*
X118356201Y-47145276D02*
X118356201Y-46954800D01*
X117927629Y-47573848D02*
X118927629Y-47573848D01*
X118927629Y-47573848D02*
X118927629Y-47954800D01*
X118927629Y-47954800D02*
X118880010Y-48050038D01*
X118880010Y-48050038D02*
X118832391Y-48097657D01*
X118832391Y-48097657D02*
X118737153Y-48145276D01*
X118737153Y-48145276D02*
X118594296Y-48145276D01*
X118594296Y-48145276D02*
X118499058Y-48097657D01*
X118499058Y-48097657D02*
X118451439Y-48050038D01*
X118451439Y-48050038D02*
X118403820Y-47954800D01*
X118403820Y-47954800D02*
X118403820Y-47573848D01*
X117927629Y-48573848D02*
X118927629Y-48573848D01*
X118927629Y-49240514D02*
X118927629Y-49430990D01*
X118927629Y-49430990D02*
X118880010Y-49526228D01*
X118880010Y-49526228D02*
X118784772Y-49621466D01*
X118784772Y-49621466D02*
X118594296Y-49669085D01*
X118594296Y-49669085D02*
X118260963Y-49669085D01*
X118260963Y-49669085D02*
X118070487Y-49621466D01*
X118070487Y-49621466D02*
X117975249Y-49526228D01*
X117975249Y-49526228D02*
X117927629Y-49430990D01*
X117927629Y-49430990D02*
X117927629Y-49240514D01*
X117927629Y-49240514D02*
X117975249Y-49145276D01*
X117975249Y-49145276D02*
X118070487Y-49050038D01*
X118070487Y-49050038D02*
X118260963Y-49002419D01*
X118260963Y-49002419D02*
X118594296Y-49002419D01*
X118594296Y-49002419D02*
X118784772Y-49050038D01*
X118784772Y-49050038D02*
X118880010Y-49145276D01*
X118880010Y-49145276D02*
X118927629Y-49240514D01*
X117927629Y-50621466D02*
X117927629Y-50050038D01*
X117927629Y-50335752D02*
X118927629Y-50335752D01*
X118927629Y-50335752D02*
X118784772Y-50240514D01*
X118784772Y-50240514D02*
X118689534Y-50145276D01*
X118689534Y-50145276D02*
X118641915Y-50050038D01*
X118927629Y-50954800D02*
X118927629Y-51573847D01*
X118927629Y-51573847D02*
X118546677Y-51240514D01*
X118546677Y-51240514D02*
X118546677Y-51383371D01*
X118546677Y-51383371D02*
X118499058Y-51478609D01*
X118499058Y-51478609D02*
X118451439Y-51526228D01*
X118451439Y-51526228D02*
X118356201Y-51573847D01*
X118356201Y-51573847D02*
X118118106Y-51573847D01*
X118118106Y-51573847D02*
X118022868Y-51526228D01*
X118022868Y-51526228D02*
X117975249Y-51478609D01*
X117975249Y-51478609D02*
X117927629Y-51383371D01*
X117927629Y-51383371D02*
X117927629Y-51097657D01*
X117927629Y-51097657D02*
X117975249Y-51002419D01*
X117975249Y-51002419D02*
X118022868Y-50954800D01*
X171019286Y-40476704D02*
X171495476Y-40476704D01*
X170924048Y-40762419D02*
X171257381Y-39762419D01*
X171257381Y-39762419D02*
X171590714Y-40762419D01*
X171924048Y-40762419D02*
X171924048Y-39762419D01*
X171924048Y-39762419D02*
X172257381Y-40476704D01*
X172257381Y-40476704D02*
X172590714Y-39762419D01*
X172590714Y-39762419D02*
X172590714Y-40762419D01*
X173066905Y-40762419D02*
X173066905Y-39762419D01*
X173066905Y-39762419D02*
X173447857Y-39762419D01*
X173447857Y-39762419D02*
X173543095Y-39810038D01*
X173543095Y-39810038D02*
X173590714Y-39857657D01*
X173590714Y-39857657D02*
X173638333Y-39952895D01*
X173638333Y-39952895D02*
X173638333Y-40095752D01*
X173638333Y-40095752D02*
X173590714Y-40190990D01*
X173590714Y-40190990D02*
X173543095Y-40238609D01*
X173543095Y-40238609D02*
X173447857Y-40286228D01*
X173447857Y-40286228D02*
X173066905Y-40286228D01*
X174590714Y-40762419D02*
X174019286Y-40762419D01*
X174305000Y-40762419D02*
X174305000Y-39762419D01*
X174305000Y-39762419D02*
X174209762Y-39905276D01*
X174209762Y-39905276D02*
X174114524Y-40000514D01*
X174114524Y-40000514D02*
X174019286Y-40048133D01*
X167198884Y-38511466D02*
X167960789Y-38511466D01*
X170877419Y-49486115D02*
X169877419Y-49486115D01*
X169877419Y-49486115D02*
X169877419Y-49248020D01*
X169877419Y-49248020D02*
X169925038Y-49105163D01*
X169925038Y-49105163D02*
X170020276Y-49009925D01*
X170020276Y-49009925D02*
X170115514Y-48962306D01*
X170115514Y-48962306D02*
X170305990Y-48914687D01*
X170305990Y-48914687D02*
X170448847Y-48914687D01*
X170448847Y-48914687D02*
X170639323Y-48962306D01*
X170639323Y-48962306D02*
X170734561Y-49009925D01*
X170734561Y-49009925D02*
X170829800Y-49105163D01*
X170829800Y-49105163D02*
X170877419Y-49248020D01*
X170877419Y-49248020D02*
X170877419Y-49486115D01*
X170877419Y-48486115D02*
X169877419Y-48486115D01*
X170877419Y-48009925D02*
X169877419Y-48009925D01*
X169877419Y-48009925D02*
X170877419Y-47438497D01*
X170877419Y-47438497D02*
X169877419Y-47438497D01*
X172425038Y-48962306D02*
X172377419Y-49057544D01*
X172377419Y-49057544D02*
X172377419Y-49200401D01*
X172377419Y-49200401D02*
X172425038Y-49343258D01*
X172425038Y-49343258D02*
X172520276Y-49438496D01*
X172520276Y-49438496D02*
X172615514Y-49486115D01*
X172615514Y-49486115D02*
X172805990Y-49533734D01*
X172805990Y-49533734D02*
X172948847Y-49533734D01*
X172948847Y-49533734D02*
X173139323Y-49486115D01*
X173139323Y-49486115D02*
X173234561Y-49438496D01*
X173234561Y-49438496D02*
X173329800Y-49343258D01*
X173329800Y-49343258D02*
X173377419Y-49200401D01*
X173377419Y-49200401D02*
X173377419Y-49105163D01*
X173377419Y-49105163D02*
X173329800Y-48962306D01*
X173329800Y-48962306D02*
X173282180Y-48914687D01*
X173282180Y-48914687D02*
X172948847Y-48914687D01*
X172948847Y-48914687D02*
X172948847Y-49105163D01*
X173091704Y-48533734D02*
X173091704Y-48057544D01*
X173377419Y-48628972D02*
X172377419Y-48295639D01*
X172377419Y-48295639D02*
X173377419Y-47962306D01*
X173377419Y-47628972D02*
X172377419Y-47628972D01*
X173377419Y-47152782D02*
X172377419Y-47152782D01*
X172377419Y-47152782D02*
X173377419Y-46581354D01*
X173377419Y-46581354D02*
X172377419Y-46581354D01*
X177728884Y-38511466D02*
X178490789Y-38511466D01*
X178109836Y-38892419D02*
X178109836Y-38130514D01*
X165677419Y-49009925D02*
X165677419Y-49486115D01*
X165677419Y-49486115D02*
X164677419Y-49486115D01*
X165677419Y-48105163D02*
X165201228Y-48438496D01*
X165677419Y-48676591D02*
X164677419Y-48676591D01*
X164677419Y-48676591D02*
X164677419Y-48295639D01*
X164677419Y-48295639D02*
X164725038Y-48200401D01*
X164725038Y-48200401D02*
X164772657Y-48152782D01*
X164772657Y-48152782D02*
X164867895Y-48105163D01*
X164867895Y-48105163D02*
X165010752Y-48105163D01*
X165010752Y-48105163D02*
X165105990Y-48152782D01*
X165105990Y-48152782D02*
X165153609Y-48200401D01*
X165153609Y-48200401D02*
X165201228Y-48295639D01*
X165201228Y-48295639D02*
X165201228Y-48676591D01*
X165582180Y-47105163D02*
X165629800Y-47152782D01*
X165629800Y-47152782D02*
X165677419Y-47295639D01*
X165677419Y-47295639D02*
X165677419Y-47390877D01*
X165677419Y-47390877D02*
X165629800Y-47533734D01*
X165629800Y-47533734D02*
X165534561Y-47628972D01*
X165534561Y-47628972D02*
X165439323Y-47676591D01*
X165439323Y-47676591D02*
X165248847Y-47724210D01*
X165248847Y-47724210D02*
X165105990Y-47724210D01*
X165105990Y-47724210D02*
X164915514Y-47676591D01*
X164915514Y-47676591D02*
X164820276Y-47628972D01*
X164820276Y-47628972D02*
X164725038Y-47533734D01*
X164725038Y-47533734D02*
X164677419Y-47390877D01*
X164677419Y-47390877D02*
X164677419Y-47295639D01*
X164677419Y-47295639D02*
X164725038Y-47152782D01*
X164725038Y-47152782D02*
X164772657Y-47105163D01*
X179977419Y-49528972D02*
X180977419Y-49195639D01*
X180977419Y-49195639D02*
X179977419Y-48862306D01*
X180977419Y-48528972D02*
X179977419Y-48528972D01*
X180977419Y-48052782D02*
X179977419Y-48052782D01*
X179977419Y-48052782D02*
X180977419Y-47481354D01*
X180977419Y-47481354D02*
X179977419Y-47481354D01*
X167753609Y-49152782D02*
X167801228Y-49009925D01*
X167801228Y-49009925D02*
X167848847Y-48962306D01*
X167848847Y-48962306D02*
X167944085Y-48914687D01*
X167944085Y-48914687D02*
X168086942Y-48914687D01*
X168086942Y-48914687D02*
X168182180Y-48962306D01*
X168182180Y-48962306D02*
X168229800Y-49009925D01*
X168229800Y-49009925D02*
X168277419Y-49105163D01*
X168277419Y-49105163D02*
X168277419Y-49486115D01*
X168277419Y-49486115D02*
X167277419Y-49486115D01*
X167277419Y-49486115D02*
X167277419Y-49152782D01*
X167277419Y-49152782D02*
X167325038Y-49057544D01*
X167325038Y-49057544D02*
X167372657Y-49009925D01*
X167372657Y-49009925D02*
X167467895Y-48962306D01*
X167467895Y-48962306D02*
X167563133Y-48962306D01*
X167563133Y-48962306D02*
X167658371Y-49009925D01*
X167658371Y-49009925D02*
X167705990Y-49057544D01*
X167705990Y-49057544D02*
X167753609Y-49152782D01*
X167753609Y-49152782D02*
X167753609Y-49486115D01*
X168182180Y-47914687D02*
X168229800Y-47962306D01*
X168229800Y-47962306D02*
X168277419Y-48105163D01*
X168277419Y-48105163D02*
X168277419Y-48200401D01*
X168277419Y-48200401D02*
X168229800Y-48343258D01*
X168229800Y-48343258D02*
X168134561Y-48438496D01*
X168134561Y-48438496D02*
X168039323Y-48486115D01*
X168039323Y-48486115D02*
X167848847Y-48533734D01*
X167848847Y-48533734D02*
X167705990Y-48533734D01*
X167705990Y-48533734D02*
X167515514Y-48486115D01*
X167515514Y-48486115D02*
X167420276Y-48438496D01*
X167420276Y-48438496D02*
X167325038Y-48343258D01*
X167325038Y-48343258D02*
X167277419Y-48200401D01*
X167277419Y-48200401D02*
X167277419Y-48105163D01*
X167277419Y-48105163D02*
X167325038Y-47962306D01*
X167325038Y-47962306D02*
X167372657Y-47914687D01*
X168277419Y-47009925D02*
X168277419Y-47486115D01*
X168277419Y-47486115D02*
X167277419Y-47486115D01*
X168277419Y-46676591D02*
X167277419Y-46676591D01*
X168277419Y-46105163D02*
X167705990Y-46533734D01*
X167277419Y-46105163D02*
X167848847Y-46676591D01*
X177425038Y-48962306D02*
X177377419Y-49057544D01*
X177377419Y-49057544D02*
X177377419Y-49200401D01*
X177377419Y-49200401D02*
X177425038Y-49343258D01*
X177425038Y-49343258D02*
X177520276Y-49438496D01*
X177520276Y-49438496D02*
X177615514Y-49486115D01*
X177615514Y-49486115D02*
X177805990Y-49533734D01*
X177805990Y-49533734D02*
X177948847Y-49533734D01*
X177948847Y-49533734D02*
X178139323Y-49486115D01*
X178139323Y-49486115D02*
X178234561Y-49438496D01*
X178234561Y-49438496D02*
X178329800Y-49343258D01*
X178329800Y-49343258D02*
X178377419Y-49200401D01*
X178377419Y-49200401D02*
X178377419Y-49105163D01*
X178377419Y-49105163D02*
X178329800Y-48962306D01*
X178329800Y-48962306D02*
X178282180Y-48914687D01*
X178282180Y-48914687D02*
X177948847Y-48914687D01*
X177948847Y-48914687D02*
X177948847Y-49105163D01*
X178377419Y-48486115D02*
X177377419Y-48486115D01*
X177377419Y-48486115D02*
X178377419Y-47914687D01*
X178377419Y-47914687D02*
X177377419Y-47914687D01*
X178377419Y-47438496D02*
X177377419Y-47438496D01*
X177377419Y-47438496D02*
X177377419Y-47200401D01*
X177377419Y-47200401D02*
X177425038Y-47057544D01*
X177425038Y-47057544D02*
X177520276Y-46962306D01*
X177520276Y-46962306D02*
X177615514Y-46914687D01*
X177615514Y-46914687D02*
X177805990Y-46867068D01*
X177805990Y-46867068D02*
X177948847Y-46867068D01*
X177948847Y-46867068D02*
X178139323Y-46914687D01*
X178139323Y-46914687D02*
X178234561Y-46962306D01*
X178234561Y-46962306D02*
X178329800Y-47057544D01*
X178329800Y-47057544D02*
X178377419Y-47200401D01*
X178377419Y-47200401D02*
X178377419Y-47438496D01*
X171481265Y-36774800D02*
X171624122Y-36822419D01*
X171624122Y-36822419D02*
X171862217Y-36822419D01*
X171862217Y-36822419D02*
X171957455Y-36774800D01*
X171957455Y-36774800D02*
X172005074Y-36727180D01*
X172005074Y-36727180D02*
X172052693Y-36631942D01*
X172052693Y-36631942D02*
X172052693Y-36536704D01*
X172052693Y-36536704D02*
X172005074Y-36441466D01*
X172005074Y-36441466D02*
X171957455Y-36393847D01*
X171957455Y-36393847D02*
X171862217Y-36346228D01*
X171862217Y-36346228D02*
X171671741Y-36298609D01*
X171671741Y-36298609D02*
X171576503Y-36250990D01*
X171576503Y-36250990D02*
X171528884Y-36203371D01*
X171528884Y-36203371D02*
X171481265Y-36108133D01*
X171481265Y-36108133D02*
X171481265Y-36012895D01*
X171481265Y-36012895D02*
X171528884Y-35917657D01*
X171528884Y-35917657D02*
X171576503Y-35870038D01*
X171576503Y-35870038D02*
X171671741Y-35822419D01*
X171671741Y-35822419D02*
X171909836Y-35822419D01*
X171909836Y-35822419D02*
X172052693Y-35870038D01*
X172481265Y-36822419D02*
X172481265Y-35822419D01*
X172481265Y-35822419D02*
X172862217Y-35822419D01*
X172862217Y-35822419D02*
X172957455Y-35870038D01*
X172957455Y-35870038D02*
X173005074Y-35917657D01*
X173005074Y-35917657D02*
X173052693Y-36012895D01*
X173052693Y-36012895D02*
X173052693Y-36155752D01*
X173052693Y-36155752D02*
X173005074Y-36250990D01*
X173005074Y-36250990D02*
X172957455Y-36298609D01*
X172957455Y-36298609D02*
X172862217Y-36346228D01*
X172862217Y-36346228D02*
X172481265Y-36346228D01*
X173481265Y-36822419D02*
X173481265Y-35822419D01*
X174052693Y-36822419D02*
X173624122Y-36250990D01*
X174052693Y-35822419D02*
X173481265Y-36393847D01*
X175829800Y-49533734D02*
X175877419Y-49390877D01*
X175877419Y-49390877D02*
X175877419Y-49152782D01*
X175877419Y-49152782D02*
X175829800Y-49057544D01*
X175829800Y-49057544D02*
X175782180Y-49009925D01*
X175782180Y-49009925D02*
X175686942Y-48962306D01*
X175686942Y-48962306D02*
X175591704Y-48962306D01*
X175591704Y-48962306D02*
X175496466Y-49009925D01*
X175496466Y-49009925D02*
X175448847Y-49057544D01*
X175448847Y-49057544D02*
X175401228Y-49152782D01*
X175401228Y-49152782D02*
X175353609Y-49343258D01*
X175353609Y-49343258D02*
X175305990Y-49438496D01*
X175305990Y-49438496D02*
X175258371Y-49486115D01*
X175258371Y-49486115D02*
X175163133Y-49533734D01*
X175163133Y-49533734D02*
X175067895Y-49533734D01*
X175067895Y-49533734D02*
X174972657Y-49486115D01*
X174972657Y-49486115D02*
X174925038Y-49438496D01*
X174925038Y-49438496D02*
X174877419Y-49343258D01*
X174877419Y-49343258D02*
X174877419Y-49105163D01*
X174877419Y-49105163D02*
X174925038Y-48962306D01*
X175877419Y-48533734D02*
X174877419Y-48533734D01*
X174877419Y-48533734D02*
X174877419Y-48295639D01*
X174877419Y-48295639D02*
X174925038Y-48152782D01*
X174925038Y-48152782D02*
X175020276Y-48057544D01*
X175020276Y-48057544D02*
X175115514Y-48009925D01*
X175115514Y-48009925D02*
X175305990Y-47962306D01*
X175305990Y-47962306D02*
X175448847Y-47962306D01*
X175448847Y-47962306D02*
X175639323Y-48009925D01*
X175639323Y-48009925D02*
X175734561Y-48057544D01*
X175734561Y-48057544D02*
X175829800Y-48152782D01*
X175829800Y-48152782D02*
X175877419Y-48295639D01*
X175877419Y-48295639D02*
X175877419Y-48533734D01*
%TO.C,D32Pro1*%
X155930049Y-43399964D02*
X90430049Y-43399964D01*
X90430049Y-68924964D01*
X155930049Y-68924964D01*
X155930049Y-43399964D01*
X99055049Y-43424964D02*
X91055049Y-43424964D01*
X91055049Y-49624964D01*
X99055049Y-49624964D01*
X99055049Y-43424964D01*
X97080049Y-54474964D02*
X90440049Y-54474964D01*
X90440049Y-59974964D01*
X97080049Y-59974964D01*
X97080049Y-54474964D01*
X108255049Y-63849964D02*
X96755049Y-63849964D01*
X96755049Y-68849964D01*
X108255049Y-68849964D01*
X108255049Y-63849964D01*
D12*
%TO.C,BT1Con1*%
X130010000Y-36830000D02*
X130010000Y-38080000D01*
X130310000Y-37130000D02*
X130310000Y-41850000D01*
X130310000Y-38440000D02*
X130920000Y-38440000D01*
X130310000Y-39740000D02*
X130920000Y-39740000D01*
X130310000Y-41850000D02*
X136430000Y-41850000D01*
X130920000Y-37740000D02*
X130920000Y-41240000D01*
X130920000Y-41240000D02*
X135820000Y-41240000D01*
X131260000Y-36830000D02*
X130010000Y-36830000D01*
X131770000Y-36930000D02*
X131770000Y-37130000D01*
X132070000Y-36930000D02*
X131770000Y-36930000D01*
X132070000Y-37030000D02*
X131770000Y-37030000D01*
X132070000Y-37130000D02*
X132070000Y-36930000D01*
X132870000Y-37130000D02*
X132870000Y-37740000D01*
X132870000Y-37740000D02*
X130920000Y-37740000D01*
X133270000Y-40740000D02*
X133470000Y-40740000D01*
X133270000Y-41240000D02*
X133270000Y-40740000D01*
X133370000Y-41240000D02*
X133370000Y-40740000D01*
X133470000Y-40740000D02*
X133470000Y-41240000D01*
X133870000Y-37740000D02*
X133870000Y-37130000D01*
X135820000Y-37740000D02*
X133870000Y-37740000D01*
X135820000Y-41240000D02*
X135820000Y-37740000D01*
X136430000Y-37130000D02*
X130310000Y-37130000D01*
X136430000Y-38440000D02*
X135820000Y-38440000D01*
X136430000Y-39740000D02*
X135820000Y-39740000D01*
X136430000Y-41850000D02*
X136430000Y-37130000D01*
%TO.C,AMP1*%
D10*
X163855000Y-33690000D02*
X181725000Y-33690000D01*
X181725000Y-52950000D01*
X163855000Y-52950000D01*
X163855000Y-33690000D01*
X168315000Y-33690000D02*
X177425000Y-33690000D01*
X177425000Y-39020000D01*
X168315000Y-39020000D01*
X168315000Y-33690000D01*
X167605000Y-35740000D02*
G75*
G02*
X164305000Y-35740000I-1650000J0D01*
G01*
X164305000Y-35740000D02*
G75*
G02*
X167605000Y-35740000I1650000J0D01*
G01*
X181295000Y-35720000D02*
G75*
G02*
X177995000Y-35720000I-1650000J0D01*
G01*
X177995000Y-35720000D02*
G75*
G02*
X181295000Y-35720000I1650000J0D01*
G01*
D12*
%TO.C,RFIDCon1*%
X99960000Y-36830000D02*
X99960000Y-38080000D01*
X100260000Y-37130000D02*
X100260000Y-41850000D01*
X100260000Y-38440000D02*
X100870000Y-38440000D01*
X100260000Y-39740000D02*
X100870000Y-39740000D01*
X100260000Y-41850000D02*
X114380000Y-41850000D01*
X100870000Y-37740000D02*
X100870000Y-41240000D01*
X100870000Y-41240000D02*
X113770000Y-41240000D01*
X101210000Y-36830000D02*
X99960000Y-36830000D01*
X101720000Y-36930000D02*
X101720000Y-37130000D01*
X102020000Y-36930000D02*
X101720000Y-36930000D01*
X102020000Y-37030000D02*
X101720000Y-37030000D01*
X102020000Y-37130000D02*
X102020000Y-36930000D01*
X102820000Y-37130000D02*
X102820000Y-37740000D01*
X102820000Y-37740000D02*
X100870000Y-37740000D01*
X103220000Y-40740000D02*
X103420000Y-40740000D01*
X103220000Y-41240000D02*
X103220000Y-40740000D01*
X103320000Y-41240000D02*
X103320000Y-40740000D01*
X103420000Y-40740000D02*
X103420000Y-41240000D01*
X105220000Y-40740000D02*
X105420000Y-40740000D01*
X105220000Y-41240000D02*
X105220000Y-40740000D01*
X105320000Y-41240000D02*
X105320000Y-40740000D01*
X105420000Y-40740000D02*
X105420000Y-41240000D01*
X107220000Y-40740000D02*
X107420000Y-40740000D01*
X107220000Y-41240000D02*
X107220000Y-40740000D01*
X107320000Y-41240000D02*
X107320000Y-40740000D01*
X107420000Y-40740000D02*
X107420000Y-41240000D01*
X109220000Y-40740000D02*
X109420000Y-40740000D01*
X109220000Y-41240000D02*
X109220000Y-40740000D01*
X109320000Y-41240000D02*
X109320000Y-40740000D01*
X109420000Y-40740000D02*
X109420000Y-41240000D01*
X111220000Y-40740000D02*
X111420000Y-40740000D01*
X111220000Y-41240000D02*
X111220000Y-40740000D01*
X111320000Y-41240000D02*
X111320000Y-40740000D01*
X111420000Y-40740000D02*
X111420000Y-41240000D01*
X111820000Y-37740000D02*
X111820000Y-37130000D01*
X113770000Y-37740000D02*
X111820000Y-37740000D01*
X113770000Y-41240000D02*
X113770000Y-37740000D01*
X114380000Y-37130000D02*
X100260000Y-37130000D01*
X114380000Y-38440000D02*
X113770000Y-38440000D01*
X114380000Y-39740000D02*
X113770000Y-39740000D01*
X114380000Y-41850000D02*
X114380000Y-37130000D01*
%TO.C,BT3Con1*%
X148720000Y-36830000D02*
X148720000Y-38080000D01*
X149020000Y-37130000D02*
X149020000Y-41850000D01*
X149020000Y-38440000D02*
X149630000Y-38440000D01*
X149020000Y-39740000D02*
X149630000Y-39740000D01*
X149020000Y-41850000D02*
X155140000Y-41850000D01*
X149630000Y-37740000D02*
X149630000Y-41240000D01*
X149630000Y-41240000D02*
X154530000Y-41240000D01*
X149970000Y-36830000D02*
X148720000Y-36830000D01*
X150480000Y-36930000D02*
X150480000Y-37130000D01*
X150780000Y-36930000D02*
X150480000Y-36930000D01*
X150780000Y-37030000D02*
X150480000Y-37030000D01*
X150780000Y-37130000D02*
X150780000Y-36930000D01*
X151580000Y-37130000D02*
X151580000Y-37740000D01*
X151580000Y-37740000D02*
X149630000Y-37740000D01*
X151980000Y-40740000D02*
X152180000Y-40740000D01*
X151980000Y-41240000D02*
X151980000Y-40740000D01*
X152080000Y-41240000D02*
X152080000Y-40740000D01*
X152180000Y-40740000D02*
X152180000Y-41240000D01*
X152580000Y-37740000D02*
X152580000Y-37130000D01*
X154530000Y-37740000D02*
X152580000Y-37740000D01*
X154530000Y-41240000D02*
X154530000Y-37740000D01*
X155140000Y-37130000D02*
X149020000Y-37130000D01*
X155140000Y-38440000D02*
X154530000Y-38440000D01*
X155140000Y-39740000D02*
X154530000Y-39740000D01*
X155140000Y-41850000D02*
X155140000Y-37130000D01*
%TO.C,NeoPixelCon1*%
X117880000Y-36830000D02*
X117880000Y-38080000D01*
X118180000Y-37130000D02*
X118180000Y-41850000D01*
X118180000Y-38440000D02*
X118790000Y-38440000D01*
X118180000Y-39740000D02*
X118790000Y-39740000D01*
X118180000Y-41850000D02*
X126300000Y-41850000D01*
X118790000Y-37740000D02*
X118790000Y-41240000D01*
X118790000Y-41240000D02*
X125690000Y-41240000D01*
X119130000Y-36830000D02*
X117880000Y-36830000D01*
X119640000Y-36930000D02*
X119640000Y-37130000D01*
X119940000Y-36930000D02*
X119640000Y-36930000D01*
X119940000Y-37030000D02*
X119640000Y-37030000D01*
X119940000Y-37130000D02*
X119940000Y-36930000D01*
X120740000Y-37130000D02*
X120740000Y-37740000D01*
X120740000Y-37740000D02*
X118790000Y-37740000D01*
X121140000Y-40740000D02*
X121340000Y-40740000D01*
X121140000Y-41240000D02*
X121140000Y-40740000D01*
X121240000Y-41240000D02*
X121240000Y-40740000D01*
X121340000Y-40740000D02*
X121340000Y-41240000D01*
X123140000Y-40740000D02*
X123340000Y-40740000D01*
X123140000Y-41240000D02*
X123140000Y-40740000D01*
X123240000Y-41240000D02*
X123240000Y-40740000D01*
X123340000Y-40740000D02*
X123340000Y-41240000D01*
X123740000Y-37740000D02*
X123740000Y-37130000D01*
X125690000Y-37740000D02*
X123740000Y-37740000D01*
X125690000Y-41240000D02*
X125690000Y-37740000D01*
X126300000Y-37130000D02*
X118180000Y-37130000D01*
X126300000Y-38440000D02*
X125690000Y-38440000D01*
X126300000Y-39740000D02*
X125690000Y-39740000D01*
X126300000Y-41850000D02*
X126300000Y-37130000D01*
%TO.C,BT2Con1*%
X139370000Y-36830000D02*
X139370000Y-38080000D01*
X139670000Y-37130000D02*
X139670000Y-41850000D01*
X139670000Y-38440000D02*
X140280000Y-38440000D01*
X139670000Y-39740000D02*
X140280000Y-39740000D01*
X139670000Y-41850000D02*
X145790000Y-41850000D01*
X140280000Y-37740000D02*
X140280000Y-41240000D01*
X140280000Y-41240000D02*
X145180000Y-41240000D01*
X140620000Y-36830000D02*
X139370000Y-36830000D01*
X141130000Y-36930000D02*
X141130000Y-37130000D01*
X141430000Y-36930000D02*
X141130000Y-36930000D01*
X141430000Y-37030000D02*
X141130000Y-37030000D01*
X141430000Y-37130000D02*
X141430000Y-36930000D01*
X142230000Y-37130000D02*
X142230000Y-37740000D01*
X142230000Y-37740000D02*
X140280000Y-37740000D01*
X142630000Y-40740000D02*
X142830000Y-40740000D01*
X142630000Y-41240000D02*
X142630000Y-40740000D01*
X142730000Y-41240000D02*
X142730000Y-40740000D01*
X142830000Y-40740000D02*
X142830000Y-41240000D01*
X143230000Y-37740000D02*
X143230000Y-37130000D01*
X145180000Y-37740000D02*
X143230000Y-37740000D01*
X145180000Y-41240000D02*
X145180000Y-37740000D01*
X145790000Y-37130000D02*
X139670000Y-37130000D01*
X145790000Y-38440000D02*
X145180000Y-38440000D01*
X145790000Y-39740000D02*
X145180000Y-39740000D01*
X145790000Y-41850000D02*
X145790000Y-37130000D01*
%TD*%
M02*
