M48
; DRILL file {KiCad 9.0.2} date 2025-06-23T22:15:20+0200
; FORMAT={3:3/ absolute / metric / keep zeros}
; #@! TF.CreationDate,2025-06-23T22:15:20+02:00
; #@! TF.GenerationSoftware,Kicad,Pcbnew,9.0.2
; #@! TF.FileFunction,Plated,1,2,PTH
FMAT,2
METRIC
; #@! TA.AperFunction,Plated,PTH,ViaDrill
T1C0.300
; #@! TA.AperFunction,Plated,PTH,ComponentDrill
T2C0.750
; #@! TA.AperFunction,Plated,PTH,ComponentDrill
T3C1.200
%
G90
G05
T1
X106287Y-063552
X108892Y-066128
X120734Y-041819
X121385Y-042421
X136080Y-040957
X163226Y-042944
X171306Y-066472
X177217Y-037279
T2
X102320Y-038940
X104320Y-038940
X106320Y-038940
X108320Y-038940
X110320Y-038940
X112320Y-038940
X120240Y-038940
X122240Y-038940
X124240Y-038940
X132370Y-038940
X134370Y-038940
X141730Y-038940
X143730Y-038940
X151080Y-038940
X153080Y-038940
T3
X110680Y-044800
X110680Y-067660
X113220Y-044800
X113220Y-067660
X115760Y-044800
X115760Y-067660
X118300Y-044800
X118300Y-067660
X120840Y-044800
X120840Y-067660
X123380Y-044800
X123380Y-067660
X125920Y-044800
X125920Y-067660
X128460Y-044800
X128460Y-067660
X131000Y-044800
X131000Y-067660
X133540Y-044800
X133540Y-067660
X136080Y-044800
X136080Y-067660
X138620Y-044800
X138620Y-067660
X141160Y-044800
X141160Y-067660
X143700Y-044800
X143700Y-067660
X146240Y-044800
X146240Y-067660
X148780Y-044800
X148780Y-067660
X165285Y-051510
X167825Y-051510
X170365Y-051510
X172905Y-051510
X175445Y-051510
X177985Y-051510
X180525Y-051510
M30
