M48
; DRILL file {KiCad 9.0.2} date 2025-06-13T16:26:25+0200
; FORMAT={3:3/ absolute / metric / keep zeros}
; #@! TF.CreationDate,2025-06-13T16:26:25+02:00
; #@! TF.GenerationSoftware,Kicad,Pcbnew,9.0.2
; #@! TF.FileFunction,Plated,1,2,PTH
FMAT,2
METRIC
; #@! TA.AperFunction,Plated,PTH,ViaDrill
T1C0.300
; #@! TA.AperFunction,Plated,PTH,ComponentDrill
T2C0.750
; #@! TA.AperFunction,Plated,PTH,ComponentDrill
T3C1.200
%
G90
G05
T1
X115152Y-044983
X127507Y-046194
X134688Y-046519
X139751Y-045515
T2
X097590Y-038500
X099590Y-038500
X101590Y-038500
X103590Y-038500
X105590Y-038500
X107590Y-038500
X115510Y-038500
X117510Y-038500
X119510Y-038500
X127640Y-038500
X129640Y-038500
X137000Y-038500
X139000Y-038500
X146350Y-038500
X148350Y-038500
T3
X113450Y-048500
X113450Y-073900
X115990Y-048500
X115990Y-073900
X118530Y-048500
X118530Y-073900
X121070Y-048500
X121070Y-073900
X123610Y-048500
X123610Y-073900
X126150Y-048500
X126150Y-073900
X128690Y-048500
X128690Y-073900
X131230Y-048500
X131230Y-073900
X133770Y-048500
X133770Y-073900
X136310Y-048500
X136310Y-073900
X138850Y-048500
X138850Y-073900
X141390Y-048500
X141390Y-073900
X143930Y-048500
X143930Y-073900
X146470Y-048500
X146470Y-073900
X149010Y-048500
X149010Y-073900
X151550Y-048500
X151550Y-073900
X165285Y-051510
X167825Y-051510
X170365Y-051510
X172905Y-051510
X175445Y-051510
X177985Y-051510
X180525Y-051510
M30
